<svg width="53" height="32" viewBox="0 0 53 32" fill="none" xmlns="http://www.w3.org/2000/svg">
<g clip-path="url(#clip0_1763_23476)">
<path d="M7.87829 23.553L2.53412 28.3551L2.52599 28.3633L2.3539 28.5177L2.32816 28.538L2.26854 28.5801L2.18317 28.6315C2.15065 28.6505 2.11677 28.6668 2.0829 28.6844L1.97043 28.7318C1.65305 28.8497 1.30431 28.8521 0.985338 28.7386C0.916641 28.7158 0.850004 28.6873 0.786151 28.6532L0.759051 28.6383L0.717046 28.6139C0.456748 28.4557 0.253976 28.2183 0.138455 27.9364C0.125159 27.9108 0.114272 27.8841 0.105935 27.8565C0.102458 27.8482 0.0997372 27.8395 0.0978044 27.8307C0.0874187 27.8028 0.0788195 27.7743 0.0720592 27.7454C0.0664702 27.7324 0.0628176 27.7187 0.0612191 27.7047C0.0551026 27.6848 0.0505717 27.6644 0.047669 27.6437C0.047669 27.6193 0.0395389 27.5963 0.0354738 27.5719C0.0336208 27.5639 0.0336208 27.5556 0.0354738 27.5475C0.0354738 27.515 0.0286988 27.4811 0.0273438 27.4486V20.4391C0.048521 20.2267 0.147891 20.0298 0.30615 19.8865C0.464409 19.7433 0.670259 19.664 0.883712 19.6641C1.00535 19.664 1.12556 19.6904 1.23602 19.7413C1.26261 19.7527 1.28841 19.7658 1.31325 19.7806C1.32646 19.7868 1.33915 19.794 1.35119 19.8023L7.87829 23.553Z" fill="#E5321B"/>
<path d="M18.5231 17.5097C18.5233 17.567 18.5183 17.6241 18.5082 17.6805C18.4985 17.7369 18.4835 17.7922 18.4634 17.8458C18.4544 17.8727 18.4435 17.8989 18.4309 17.9244C18.4201 17.946 18.4106 17.9691 18.3984 17.9894L18.3876 18.0084C18.3756 18.0301 18.362 18.051 18.3469 18.0707C18.3313 18.0935 18.3141 18.1153 18.2954 18.1357C18.2805 18.1554 18.2642 18.1739 18.2466 18.1913L14.458 22.4122L7.41196 18.6656L7.3564 18.6371L7.33879 18.629C7.2635 18.5815 7.20296 18.5139 7.16399 18.4339C7.12646 18.3546 7.11105 18.2667 7.1194 18.1794C7.12775 18.092 7.15954 18.0086 7.21142 17.9379C7.24177 17.8939 7.27988 17.8558 7.32388 17.8255L7.39705 17.7834L13.1586 14.4582C13.2594 14.3947 13.3754 14.3593 13.4946 14.3558C13.6137 14.3522 13.7316 14.3806 13.8361 14.4379L13.8821 14.4637L17.9716 16.6412L17.9851 16.6479L18.0651 16.6899C18.1694 16.7492 18.2613 16.8278 18.3361 16.9217C18.3475 16.9343 18.358 16.9479 18.3672 16.9623C18.3821 16.984 18.3957 17.007 18.4092 17.0287C18.4884 17.1764 18.5276 17.3422 18.5231 17.5097Z" fill="#E5321B"/>
<path d="M11.1893 13.5147C11.1678 13.6872 11.0786 13.8442 10.9413 13.951C10.9345 13.9574 10.9273 13.9632 10.9197 13.9686C10.8972 13.9838 10.8736 13.9974 10.8492 14.0092L5.27739 17.2233H5.27061L5.19202 17.268C5.12202 17.2995 5.04549 17.3137 4.96886 17.3095C4.89223 17.3052 4.81774 17.2827 4.75164 17.2437C4.74925 17.2434 4.74694 17.2427 4.74484 17.2415C4.74275 17.2404 4.74091 17.2388 4.73945 17.2369L0.589039 15.0404L0.533484 15.0119C0.381648 14.9306 0.255441 14.8086 0.168985 14.6596C0.0967302 14.5354 0.0536403 14.3964 0.0429688 14.2531C0.0429688 14.2274 0.0429688 14.2016 0.0429688 14.1759C0.0429688 14.1502 0.0429688 14.1231 0.0429688 14.0973C0.0535252 13.9482 0.0991642 13.8037 0.176165 13.6756C0.253166 13.5475 0.359349 13.4395 0.486058 13.3602L0.578199 13.306L5.92644 10.1895L8.02535 11.3521L10.8018 12.8263L10.9224 12.8914C11.0224 12.9583 11.1009 13.0528 11.1483 13.1634C11.1956 13.2741 11.2099 13.3961 11.1893 13.5147Z" fill="#45BEDF"/>
<path d="M18.5243 17.5112V23.9327C18.4974 24.6405 18.3062 25.3324 17.9659 25.9537C17.6257 26.575 17.1456 27.1087 16.5636 27.5126L16.3617 27.6278C16.3471 27.6381 16.3317 27.6471 16.3156 27.6549L16.1273 27.7633C16.1163 27.7713 16.1045 27.7781 16.0921 27.7836L15.9105 27.8893L9.07174 31.8378H9.06361L9.04871 31.8486L8.97689 31.8879L8.96605 31.8947C8.85207 31.9507 8.72814 31.9836 8.60141 31.9915C8.47467 31.9994 8.34762 31.9822 8.22757 31.9408L8.10562 31.8866L4.28583 30.2186L0.993151 28.7402L0.766864 28.64L0.724858 28.6156C0.46456 28.4574 0.261789 28.2199 0.146267 27.9381C0.132971 27.9125 0.122084 27.8857 0.113747 27.8581C0.110271 27.8498 0.10755 27.8412 0.105617 27.8324C0.0952312 27.8045 0.086632 27.776 0.0798717 27.747C0.0746718 27.7339 0.0710332 27.7203 0.0690316 27.7064C0.0629151 27.6864 0.0583842 27.666 0.0554815 27.6454C0.0554815 27.621 0.0473514 27.598 0.0432863 27.5736C0.0392213 27.5492 0.0432863 27.5587 0.0432863 27.5492C0.0432863 27.5167 0.0365113 27.4828 0.0351562 27.4503V27.2904C0.0419313 27.182 0.162528 26.4882 0.734343 26.1454L0.877975 26.0587L17.0595 16.6901H17.0663L17.088 16.6766L17.1165 16.6617L17.1422 16.6481C17.3631 16.5452 17.6143 16.5275 17.8474 16.5986C18.0805 16.6696 18.2791 16.8243 18.4051 17.0329C18.4856 17.1793 18.5267 17.3442 18.5243 17.5112Z" fill="#CC1719"/>
<path d="M16.4264 6.26161L6.99419 11.786C6.9726 11.8011 6.94996 11.8147 6.92644 11.8266L6.85869 11.8673L6.83023 11.8849L1.51587 14.996H1.50774L1.48606 15.0096L1.46438 15.0218C1.45412 15.0287 1.44323 15.0346 1.43186 15.0394C1.21096 15.1423 0.959811 15.16 0.726692 15.0889C0.493573 15.0179 0.294941 14.8632 0.168985 14.6546C0.0967302 14.5304 0.0536403 14.3914 0.0429688 14.2481V7.76567C0.0705574 7.04268 0.270364 6.33672 0.62577 5.70651C0.981176 5.0763 1.48191 4.54006 2.08633 4.14237L2.54568 3.87136L8.97928 0.142367L9.00367 0.127462L9.03213 0.112557C9.16572 0.0413589 9.31416 0.00254751 9.4655 -0.000747611C9.61685 -0.00404274 9.76684 0.0282706 9.9034 0.093587L12.3844 1.46757L16.314 3.74264L16.4413 3.81581C16.5648 3.8946 16.6751 3.99248 16.7679 4.10578C16.9005 4.26444 16.9976 4.44965 17.0527 4.64897C17.1077 4.84828 17.1195 5.05707 17.0871 5.2613C17.0548 5.46553 16.9791 5.66047 16.8651 5.83301C16.7512 6.00555 16.6016 6.15169 16.4264 6.26161Z" fill="#007EC2"/>
<path d="M52.9671 14.9094V13.7875H50.6636V11.5856H52.3262V10.4636H50.6595V8.53H52.8275V7.40805H49.3723V14.9108H52.9671V14.9094ZM48.104 9.91076V9.36062C48.104 8.23867 47.4807 7.30371 46.192 7.30371C44.837 7.30371 44.2178 8.1655 44.2178 9.22648V13.0923C44.2178 14.1519 44.8411 15.0151 46.192 15.0151C47.4807 15.0151 48.104 14.1533 48.104 13.0923V12.2292H46.8153V13.133C46.8153 13.6208 46.6595 13.8918 46.192 13.8918C45.6731 13.8918 45.5064 13.6208 45.5064 13.0612V9.25764C45.5064 8.69667 45.6731 8.42566 46.192 8.42566C46.524 8.42566 46.8153 8.69666 46.8153 9.32946V9.91076H48.104ZM42.8357 7.40805H41.5471V14.9108H42.8357V7.40805ZM38.4928 12.614H38.4725L37.5376 7.40805H36.2733L37.8424 14.9108H39.1311L40.7002 7.40805H39.4319L38.4928 12.614ZM32.9373 11.8349C33.1595 11.8364 33.3816 11.826 33.6026 11.8037L34.5118 14.9094H35.8208L34.73 11.511C35.1663 11.3132 35.6338 10.8254 35.6338 9.61401C35.6338 8.01374 34.8966 7.40127 33.4522 7.40127H31.6446V14.904H32.9332V11.8281L32.9373 11.8349ZM32.9373 8.46767H33.3939C34.0904 8.46767 34.3506 8.72783 34.3492 9.62078C34.3479 10.5137 34.0891 10.7739 33.3926 10.7739H32.9359V8.47038L32.9373 8.46767ZM30.6717 14.9094V13.7875H28.3682V11.5842H30.0308V10.4622H28.3614V8.53H30.5227V7.40805H27.0728V14.9108H30.6677L30.6717 14.9094ZM26.0755 9.12214C25.9617 8.06252 25.3384 7.30371 24.2882 7.30371C23.02 7.30371 22.2937 7.98122 22.2937 9.17363C22.2937 11.324 24.9116 11.7197 24.9116 13.2048C24.9116 13.6519 24.6107 13.8904 24.1636 13.8904C23.7476 13.8904 23.4468 13.5164 23.3953 12.7576L22.1758 12.9338C22.2273 14.0557 22.9129 15.0124 24.108 15.0124C25.3032 15.0124 26.1405 14.3267 26.1405 13.0896C26.1405 11.0571 23.5227 10.4406 23.5227 9.16008C23.5227 8.6926 23.7517 8.42295 24.1663 8.42295C24.4576 8.42295 24.8004 8.60994 24.8519 9.25493L26.0755 9.12214Z" fill="#00507D"/>
<path d="M52.948 23.924V22.7994H50.6363V20.5907H52.303V19.466H50.6363V17.5284H52.8043V16.4037H49.345V23.9227H52.948V23.924ZM43.9507 22.027C43.9507 23.3183 44.7 24.027 45.929 24.027C47.158 24.027 47.9073 23.3183 47.9073 22.027V16.4037H46.616V22.0799C46.616 22.6313 46.3978 22.9023 45.929 22.9023C45.4602 22.9023 45.242 22.6313 45.242 22.0799V16.4051H43.9507V22.0284V22.027ZM40.6282 22.3766C40.7769 22.4792 40.8957 22.6195 40.9724 22.7831C40.843 22.8683 40.6893 22.9088 40.5347 22.8983C40.0144 22.8983 39.8477 22.6273 39.8477 22.0649V18.2587C39.8477 17.6964 40.0144 17.4254 40.5347 17.4254C41.055 17.4254 41.2217 17.6964 41.2217 18.2587V21.6991C41.0563 21.5085 40.8545 21.3528 40.6282 21.2411V22.3766ZM42.8978 23.3549C42.7623 23.3441 42.5848 23.3129 42.2935 23.0636C42.4389 22.7655 42.5118 22.4372 42.5062 22.1056V18.2262C42.5062 17.1639 41.8816 16.2994 40.5279 16.2994C39.1743 16.2994 38.5496 17.1639 38.5496 18.2262V22.1056C38.5496 23.1679 39.1743 24.0324 40.5279 24.0324C40.8931 24.043 41.255 23.9605 41.5794 23.7926C42.0374 24.4064 42.4128 24.4904 42.8911 24.4904V23.3658L42.8978 23.3549ZM36.9358 16.3983H35.6499V23.9173H36.9412V16.4037L36.9358 16.3983ZM32.3531 21.6151H32.3436L31.3951 16.4037H30.1241L31.6959 23.9227H32.9873L34.5604 16.4037H33.2922L32.3531 21.6151ZM29.0415 16.3983H27.7501V23.9173H29.0415V16.4037V16.3983ZM26.074 18.9078V18.3563C26.074 17.2316 25.4493 16.2939 24.158 16.2939C22.803 16.2939 22.1797 17.1584 22.1797 18.2208V22.1056C22.1797 23.1679 22.8043 24.0324 24.158 24.0324C25.4493 24.0324 26.074 23.1679 26.074 22.1056V21.2411H24.7827V22.1476C24.7827 22.6368 24.6268 22.9078 24.158 22.9078C23.6377 22.9078 23.471 22.6368 23.471 22.0744V18.2574C23.471 17.695 23.6377 17.424 24.158 17.424C24.4913 17.424 24.7827 17.695 24.7827 18.3305V18.9132H26.074V18.9078Z" fill="#00507D"/>
</g>
<defs>
<clipPath id="clip0_1763_23476">
<rect width="52.9377" height="32" fill="white" transform="translate(0.03125)"/>
</clipPath>
</defs>
</svg>
