<svg width="32" height="32" viewBox="0 0 32 32" fill="none" xmlns="http://www.w3.org/2000/svg">
<path fill-rule="evenodd" clip-rule="evenodd" d="M16 4C23.1893 4 29.1706 9.17333 30.4253 16C29.172 22.8267 23.1893 28 16 28C8.81065 28 2.82931 22.8267 1.57465 16C2.82798 9.17333 8.81065 4 16 4ZM16 25.3333C21.6001 25.3321 26.4557 21.4596 27.7026 16C26.4512 10.5449 21.5968 6.67804 16 6.67804C10.4032 6.67804 5.54876 10.5449 4.29731 16C5.54421 21.4596 10.3998 25.3321 16 25.3333ZM16 22C12.6863 22 9.99998 19.3137 9.99998 16C9.99998 12.6863 12.6863 10 16 10C19.3137 10 22 12.6863 22 16C22 19.3137 19.3137 22 16 22ZM16 19.3333C17.8409 19.3333 19.3333 17.841 19.3333 16C19.3333 14.1591 17.8409 12.6667 16 12.6667C14.159 12.6667 12.6666 14.1591 12.6666 16C12.6666 17.841 14.159 19.3333 16 19.3333Z" fill="#000091"/>
</svg>
