<svg width="32" height="32" viewBox="0 0 32 32" fill="none" xmlns="http://www.w3.org/2000/svg">
<path d="M14.6666 6.76111C10.5791 7.34578 7.34585 10.579 6.76117 14.6666H9.33331V17.3333H6.76117C7.34585 21.4209 10.5791 24.6541 14.6666 25.2387V22.6666H17.3333V25.2387C21.4209 24.6541 24.6541 21.4209 25.2388 17.3333H22.6666V14.6666H25.2388C24.6541 10.579 21.4209 7.34578 17.3333 6.76111V9.33325H14.6666V6.76111ZM4.07322 14.6666C4.68809 9.10442 9.10449 4.68802 14.6666 4.07316V1.33325H17.3333V4.07316C22.8954 4.68802 27.3118 9.10442 27.9268 14.6666H30.6666V17.3333H27.9268C27.3118 22.8954 22.8954 27.3118 17.3333 27.9267V30.6666H14.6666V27.9267C9.10449 27.3118 4.68809 22.8954 4.07322 17.3333H1.33331V14.6666H4.07322ZM18.6666 15.9999C18.6666 17.4727 17.4728 18.6666 16 18.6666C14.5272 18.6666 13.3333 17.4727 13.3333 15.9999C13.3333 14.5271 14.5272 13.3333 16 13.3333C17.4728 13.3333 18.6666 14.5271 18.6666 15.9999Z" fill="#000091"/>
</svg>
