<svg width="32" height="32" viewBox="0 0 32 32" fill="none" xmlns="http://www.w3.org/2000/svg">
<path fill-rule="evenodd" clip-rule="evenodd" d="M28 4C28.7364 4 29.3334 4.59695 29.3334 5.33333V26.6667C29.3334 27.403 28.7364 28 28 28H4.00002C3.26364 28 2.66669 27.403 2.66669 26.6667V5.33333C2.66669 4.59695 3.26364 4 4.00002 4H28ZM26.6667 14.6667H5.33335V25.3333H26.6667V14.6667ZM10.6667 16V22.6667H6.66669V16H10.6667ZM26.6667 6.66667H5.33335V12H26.6667V6.66667ZM9.33335 8V10.6667H6.66669V8H9.33335ZM14.6667 8V10.6667H12V8H14.6667Z" fill="#000091"/>
</svg>
