<svg preserveAspectRatio="none" overflow="visible" style="display: block;" width="126.223" height="305.101" viewBox="0 0 126.223 305.101" fill="none" xmlns="http://www.w3.org/2000/svg">
<g id="GENDARME">
<g id="Vector 45">
<path d="M39.488 170.068C39.488 138.728 67.3718 115.126 77.441 108.162H71.6319C69.5664 109.968 63.8089 114.585 57.3027 118.609C50.7964 122.633 30.9679 156.139 26.3206 156.139C21.6733 156.139 35.6153 127.508 35.6153 127.508C25.5461 138.341 20.6664 145.383 16.6388 150.335C11.6042 156.526 0.760465 175.872 0.760465 192.122C0.760465 208.372 2.69684 235.069 2.69684 245.516C2.69684 251.776 5.02049 286.915 5.02049 302.392C23.2999 307.963 55.8827 303.94 69.6955 299.297C69.6955 299.297 68.1464 266.409 68.5337 249.772C68.9209 233.135 71.2446 229.265 71.2446 229.265C52.6554 212.241 39.488 201.408 39.488 170.068Z" fill="#2744D8"/>
<path d="M92.1575 298.136C93.7066 289.469 95.9011 259.445 96.8048 245.516V229.265C104.163 229.265 110.85 227.368 111.521 221.527C112.296 209.662 115.007 181.83 115.007 170.068C115.007 158.306 106.228 134.988 101.839 124.799C105.841 133.311 114.697 153.199 118.105 164.651C122.365 178.967 112.683 220.753 120.816 239.712C127.322 254.879 126.625 279.306 125.463 289.624L92.4688 299.297C91.7195 302.521 90.6084 306.803 92.1575 298.136Z" fill="#2744D8"/>
</g>
<path id="Vector 46" d="M69.1948 235.146C60.0409 237.044 39.0256 241.964 2.28123 244.811C2.28123 244.811 2.66802 251.771 3.0548 257.957C39.4129 257.008 68.0344 249.064 68.0344 249.064L69.1948 235.146Z" fill="#000091"/>
<path id="Vector 47" d="M68.0474 264.04C58.888 265.939 40.5687 269.702 3.802 272.551C3.802 272.551 4.18902 278.354 4.57636 286.091C40.9565 285.142 68.4344 276.806 68.4344 276.806L68.0474 264.04Z" fill="#000091"/>
<g id="Vector 49">
<path d="M35.0916 145.947L38.967 140.145L47.1052 138.598L44.3925 144.787L35.0916 145.947Z" fill="#000091"/>
<path d="M44.3925 132.023L49.4304 126.222L57.9562 124.675L52.9183 130.476L44.3925 132.023Z" fill="#000091"/>
<path d="M54.4684 120.42L60.669 115.005H69.1948L63.3817 118.873L54.4684 120.42Z" fill="#000091"/>
<path d="M16.8774 149.041L21.5278 142.466L29.2786 140.145L26.9533 147.107L16.8774 149.041Z" fill="#000091"/>
<path d="M25.0157 138.598L29.2786 133.957H32.3788L30.4412 137.051L25.0157 138.598Z" fill="#000091"/>
<path d="M0.988419 183.85L38.967 179.209L41.2924 191.199L0.213347 197.774C-0.406711 192.823 0.471704 186.429 0.988419 183.85Z" fill="#000091"/>
<path d="M0.988419 214.405C13.0795 214.405 38.7088 209.248 48.6555 205.122L57.1813 216.339C53.151 219.433 17.6527 226.781 1.37614 226.781L0.988419 214.405Z" fill="#000091"/>
</g>
<path id="Vector 50" d="M20.5303 178.117V169.269L38.0191 165.951V175.352L20.5303 178.117Z" fill="#4D6DFF"/>
<g id="Vector 51">
<path d="M96.2357 243.549V232.631L117.669 226.782L119.617 237.7L96.2357 243.549Z" fill="#000091"/>
<path d="M94.2872 272.404L95.0666 259.536L123.904 251.738C124.528 253.921 125.203 261.226 125.463 264.606L94.2872 272.404Z" fill="#000091"/>
</g>
<g id="KEPI">
<path id="Vector 41" d="M40.1397 35.4897C29.7478 34.2543 28.1342 33.0696 28.1342 29.2283L38.9779 15.1401L39.3651 15.5314C43.2379 12.0093 44.787 7.7045 46.3361 4.1824C47.8852 0.660309 51.3707 1.05177 51.3707 1.05177H61.8271C61.8271 1.05177 64.538 0.269094 66.4744 3.00848C68.4108 5.74786 69.1853 4.96519 74.2059 16.7054H75.3817C83.6871 24.4246 89.9317 31.7131 90.4854 37.4466C86.6127 32.3591 77.6857 29.9087 73.4453 30.7938C60.6653 33.4611 46.7234 36.2724 40.1397 35.4897Z" fill="#2744D8"/>
<path id="Vector 42" d="M28.1342 29.0823C37.0954 28.3111 41.9162 29.4299 49.1735 23.6835C60.862 14.4284 70.6024 14.0428 75.2778 17.1279" stroke="white" stroke-width="0.948252"/>
<path id="Vector 43" d="M39.4166 15.3955C38.5442 18.797 37.6721 24.03 43.3421 27.5623" stroke="white" stroke-width="0.948252"/>
<path id="Vector 44" d="M47.9039 2.81914L45.6228 14.6351L50.5653 2.81914C51.3257 1.24367 52.086 1.24366 53.6068 1.24366C55.1276 1.24366 63.4918 0.0620496 65.3927 2.42523" stroke="#082383" stroke-width="1.8965"/>
<rect id="Rectangle 8" x="49.2674" y="26.9448" width="7.22952" height="2.8054" transform="rotate(-18.7705 49.2674 26.9448)" fill="#98AEFF"/>
</g>
</g>
</svg>
