<svg width="53" height="32" viewBox="0 0 53 32" fill="none" xmlns="http://www.w3.org/2000/svg">
<g clip-path="url(#clip0_1763_23557)">
<path d="M7.88025 23.553L2.53607 28.3551L2.52794 28.3633L2.35586 28.5177L2.33011 28.538L2.27049 28.5801L2.18512 28.6315C2.1526 28.6505 2.11873 28.6668 2.08485 28.6844L1.97239 28.7318C1.655 28.8497 1.30627 28.8521 0.987291 28.7386C0.918594 28.7158 0.851957 28.6873 0.788104 28.6532L0.761004 28.6383L0.718999 28.6139C0.458701 28.4557 0.255929 28.2183 0.140408 27.9364C0.127112 27.9108 0.116225 27.8841 0.107888 27.8565C0.104411 27.8482 0.10169 27.8395 0.0997576 27.8307C0.0893718 27.8028 0.0807727 27.7743 0.0740123 27.7454C0.0684233 27.7324 0.0647708 27.7187 0.0631722 27.7047C0.0570557 27.6848 0.0525249 27.6644 0.0496221 27.6437C0.0496221 27.6193 0.041492 27.5963 0.037427 27.5719C0.0355739 27.5639 0.0355739 27.5556 0.037427 27.5475C0.037427 27.515 0.0306519 27.4811 0.0292969 27.4486V20.4391C0.0504741 20.2267 0.149844 20.0298 0.308103 19.8865C0.466363 19.7433 0.672212 19.664 0.885665 19.6641C1.00731 19.664 1.12751 19.6904 1.23797 19.7413C1.26456 19.7527 1.29037 19.7658 1.3152 19.7806C1.32841 19.7868 1.3411 19.794 1.35315 19.8023L7.88025 23.553Z" fill="#E5321B"/>
<path d="M18.525 17.5097C18.5252 17.567 18.5202 17.6241 18.5101 17.6805C18.5005 17.7369 18.4855 17.7922 18.4654 17.8458C18.4563 17.8727 18.4455 17.8989 18.4329 17.9244C18.422 17.946 18.4126 17.9691 18.4004 17.9894L18.3895 18.0084C18.3775 18.0301 18.364 18.051 18.3489 18.0707C18.3332 18.0935 18.316 18.1153 18.2974 18.1357C18.2824 18.1554 18.2661 18.1739 18.2486 18.1913L14.46 22.4122L7.41391 18.6656L7.35836 18.6371L7.34074 18.629C7.26545 18.5815 7.20492 18.5139 7.16594 18.4339C7.12841 18.3546 7.113 18.2667 7.12135 18.1794C7.1297 18.092 7.16149 18.0086 7.21337 17.9379C7.24372 17.8939 7.28183 17.8558 7.32584 17.8255L7.39901 17.7834L13.1605 14.4582C13.2614 14.3947 13.3774 14.3593 13.4965 14.3558C13.6156 14.3522 13.7336 14.3806 13.838 14.4379L13.8841 14.4637L17.9735 16.6412L17.9871 16.6479L18.067 16.6899C18.1713 16.7492 18.2633 16.8278 18.338 16.9217C18.3495 16.9343 18.3599 16.9479 18.3692 16.9623C18.3841 16.984 18.3977 17.007 18.4112 17.0287C18.4903 17.1764 18.5296 17.3422 18.525 17.5097Z" fill="#E5321B"/>
<path d="M11.1893 13.5147C11.1678 13.6872 11.0786 13.8442 10.9413 13.951C10.9345 13.9574 10.9273 13.9632 10.9197 13.9686C10.8972 13.9838 10.8736 13.9974 10.8492 14.0092L5.27739 17.2233H5.27061L5.19202 17.268C5.12202 17.2995 5.04549 17.3137 4.96886 17.3095C4.89223 17.3052 4.81774 17.2827 4.75164 17.2437C4.74925 17.2434 4.74694 17.2427 4.74484 17.2415C4.74275 17.2404 4.74091 17.2388 4.73945 17.2369L0.589039 15.0404L0.533484 15.0119C0.381648 14.9306 0.255441 14.8086 0.168985 14.6596C0.0967302 14.5354 0.0536403 14.3964 0.0429688 14.2531C0.0429688 14.2274 0.0429688 14.2016 0.0429688 14.1759C0.0429688 14.1502 0.0429688 14.1231 0.0429688 14.0973C0.0535252 13.9482 0.0991642 13.8037 0.176165 13.6756C0.253166 13.5475 0.359349 13.4395 0.486058 13.3602L0.578199 13.306L5.92644 10.1895L8.02535 11.3521L10.8018 12.8263L10.9224 12.8914C11.0224 12.9583 11.1009 13.0528 11.1483 13.1634C11.1956 13.2741 11.2099 13.3961 11.1893 13.5147Z" fill="#45BEDF"/>
<path d="M18.5243 17.5112V23.9327C18.4974 24.6405 18.3062 25.3324 17.9659 25.9537C17.6257 26.575 17.1456 27.1087 16.5636 27.5126L16.3617 27.6278C16.3471 27.6381 16.3317 27.6471 16.3156 27.6549L16.1273 27.7633C16.1163 27.7713 16.1045 27.7781 16.0921 27.7836L15.9105 27.8893L9.07174 31.8378H9.06361L9.04871 31.8486L8.97689 31.8879L8.96605 31.8947C8.85207 31.9507 8.72814 31.9836 8.60141 31.9915C8.47467 31.9994 8.34762 31.9822 8.22757 31.9408L8.10562 31.8866L4.28583 30.2186L0.993151 28.7402L0.766864 28.64L0.724858 28.6156C0.46456 28.4574 0.261789 28.2199 0.146267 27.9381C0.132971 27.9125 0.122084 27.8857 0.113747 27.8581C0.110271 27.8498 0.10755 27.8412 0.105617 27.8324C0.0952312 27.8045 0.086632 27.776 0.0798717 27.747C0.0746718 27.7339 0.0710332 27.7203 0.0690316 27.7064C0.0629151 27.6864 0.0583842 27.666 0.0554815 27.6454C0.0554815 27.621 0.0473514 27.598 0.0432863 27.5736C0.0392213 27.5492 0.0432863 27.5587 0.0432863 27.5492C0.0432863 27.5167 0.0365113 27.4828 0.0351562 27.4503V27.2904C0.0419313 27.182 0.162528 26.4882 0.734343 26.1454L0.877975 26.0587L17.0595 16.6901H17.0663L17.088 16.6766L17.1165 16.6617L17.1422 16.6481C17.3631 16.5452 17.6143 16.5275 17.8474 16.5986C18.0805 16.6696 18.2791 16.8243 18.4051 17.0329C18.4856 17.1793 18.5267 17.3442 18.5243 17.5112Z" fill="#CC1719"/>
<path d="M16.4264 6.26161L6.99419 11.786C6.9726 11.8011 6.94996 11.8147 6.92644 11.8266L6.85869 11.8673L6.83023 11.8849L1.51587 14.996H1.50774L1.48606 15.0096L1.46438 15.0218C1.45412 15.0287 1.44323 15.0346 1.43186 15.0394C1.21096 15.1423 0.959811 15.16 0.726692 15.0889C0.493573 15.0179 0.294941 14.8632 0.168985 14.6546C0.0967302 14.5304 0.0536403 14.3914 0.0429688 14.2481V7.76567C0.0705574 7.04268 0.270364 6.33672 0.62577 5.70651C0.981176 5.0763 1.48191 4.54006 2.08633 4.14237L2.54568 3.87136L8.97928 0.142367L9.00367 0.127462L9.03213 0.112557C9.16572 0.0413589 9.31416 0.00254751 9.4655 -0.000747611C9.61685 -0.00404274 9.76684 0.0282706 9.9034 0.093587L12.3844 1.46757L16.314 3.74264L16.4413 3.81581C16.5648 3.8946 16.6751 3.99248 16.7679 4.10578C16.9005 4.26444 16.9976 4.44965 17.0527 4.64897C17.1077 4.84828 17.1195 5.05707 17.0871 5.2613C17.0548 5.46553 16.9791 5.66047 16.8651 5.83301C16.7512 6.00555 16.6016 6.15169 16.4264 6.26161Z" fill="#007EC2"/>
<path d="M52.9691 14.9094V13.7875H50.6655V11.5856H52.3281V10.4636H50.6615V8.53H52.8295V7.40805H49.3742V14.9108H52.9691V14.9094ZM48.1059 9.91076V9.36062C48.1059 8.23867 47.4826 7.30371 46.194 7.30371C44.839 7.30371 44.2197 8.1655 44.2197 9.22648V13.0923C44.2197 14.1519 44.843 15.0151 46.194 15.0151C47.4826 15.0151 48.1059 14.1533 48.1059 13.0923V12.2292H46.8173V13.133C46.8173 13.6208 46.6615 13.8918 46.194 13.8918C45.675 13.8918 45.5084 13.6208 45.5084 13.0612V9.25764C45.5084 8.69667 45.675 8.42566 46.194 8.42566C46.526 8.42566 46.8173 8.69666 46.8173 9.32946V9.91076H48.1059ZM42.8376 7.40805H41.549V14.9108H42.8376V7.40805ZM38.4948 12.614H38.4745L37.5395 7.40805H36.2753L37.8444 14.9108H39.133L40.7021 7.40805H39.4338L38.4948 12.614ZM32.9393 11.8349C33.1614 11.8364 33.3835 11.826 33.6046 11.8037L34.5138 14.9094H35.8227L34.7319 11.511C35.1682 11.3132 35.6357 10.8254 35.6357 9.61401C35.6357 8.01374 34.8986 7.40127 33.4542 7.40127H31.6466V14.904H32.9352V11.8281L32.9393 11.8349ZM32.9393 8.46767H33.3959C34.0924 8.46767 34.3525 8.72783 34.3512 9.62078C34.3498 10.5137 34.091 10.7739 33.3945 10.7739H32.9379V8.47038L32.9393 8.46767ZM30.6737 14.9094V13.7875H28.3701V11.5842H30.0327V10.4622H28.3634V8.53H30.5246V7.40805H27.0748V14.9108H30.6696L30.6737 14.9094ZM26.0775 9.12214C25.9636 8.06252 25.3403 7.30371 24.2902 7.30371C23.0219 7.30371 22.2956 7.98122 22.2956 9.17363C22.2956 11.324 24.9135 11.7197 24.9135 13.2048C24.9135 13.6519 24.6127 13.8904 24.1655 13.8904C23.7495 13.8904 23.4487 13.5164 23.3972 12.7576L22.1777 12.9338C22.2292 14.0557 22.9149 15.0124 24.11 15.0124C25.3051 15.0124 26.1425 14.3267 26.1425 13.0896C26.1425 11.0571 23.5246 10.4406 23.5246 9.16008C23.5246 8.6926 23.7536 8.42295 24.1682 8.42295C24.4596 8.42295 24.8024 8.60994 24.8539 9.25493L26.0775 9.12214Z" fill="#00507D"/>
<path d="M52.9499 23.924V22.7994H50.6383V20.5907H52.3049V19.466H50.6383V17.5284H52.8063V16.4037H49.347V23.9227H52.9499V23.924ZM43.9526 22.027C43.9526 23.3183 44.702 24.027 45.931 24.027C47.16 24.027 47.9093 23.3183 47.9093 22.027V16.4037H46.618V22.0799C46.618 22.6313 46.3998 22.9023 45.931 22.9023C45.4621 22.9023 45.244 22.6313 45.244 22.0799V16.4051H43.9526V22.0284V22.027ZM40.6301 22.3766C40.7788 22.4792 40.8976 22.6195 40.9743 22.7831C40.8449 22.8683 40.6912 22.9088 40.5367 22.8983C40.0163 22.8983 39.8497 22.6273 39.8497 22.0649V18.2587C39.8497 17.6964 40.0163 17.4254 40.5367 17.4254C41.057 17.4254 41.2236 17.6964 41.2236 18.2587V21.6991C41.0582 21.5085 40.8565 21.3528 40.6301 21.2411V22.3766ZM42.8998 23.3549C42.7643 23.3441 42.5868 23.3129 42.2955 23.0636C42.4408 22.7655 42.5137 22.4372 42.5082 22.1056V18.2262C42.5082 17.1639 41.8835 16.2994 40.5299 16.2994C39.1762 16.2994 38.5516 17.1639 38.5516 18.2262V22.1056C38.5516 23.1679 39.1762 24.0324 40.5299 24.0324C40.8951 24.043 41.2569 23.9605 41.5814 23.7926C42.0394 24.4064 42.4147 24.4904 42.893 24.4904V23.3658L42.8998 23.3549ZM36.9377 16.3983H35.6518V23.9173H36.9432V16.4037L36.9377 16.3983ZM32.3551 21.6151H32.3456L31.3971 16.4037H30.1261L31.6979 23.9227H32.9892L34.5624 16.4037H33.2941L32.3551 21.6151ZM29.0434 16.3983H27.7521V23.9173H29.0434V16.4037V16.3983ZM26.076 18.9078V18.3563C26.076 17.2316 25.4513 16.2939 24.16 16.2939C22.8049 16.2939 22.1816 17.1584 22.1816 18.2208V22.1056C22.1816 23.1679 22.8063 24.0324 24.16 24.0324C25.4513 24.0324 26.076 23.1679 26.076 22.1056V21.2411H24.7846V22.1476C24.7846 22.6368 24.6288 22.9078 24.16 22.9078C23.6396 22.9078 23.473 22.6368 23.473 22.0744V18.2574C23.473 17.695 23.6396 17.424 24.16 17.424C24.4933 17.424 24.7846 17.695 24.7846 18.3305V18.9132H26.076V18.9078Z" fill="#00507D"/>
</g>
<defs>
<clipPath id="clip0_1763_23557">
<rect width="52.9377" height="32" fill="white" transform="translate(0.03125)"/>
</clipPath>
</defs>
</svg>
