<svg width="88" height="88" viewBox="0 0 88 88" fill="none" xmlns="http://www.w3.org/2000/svg">
<rect x="18" y="27.9082" width="38" height="24.1818" rx="12.0909" fill="#000091"/>
<g filter="url(#filter0_d_1896_8293)">
<path d="M34.1212 39.9988C34.1212 34.5931 38.5033 30.2109 43.909 30.2109C49.3147 30.2109 53.6969 34.5931 53.6969 39.9988C53.6969 45.4045 49.3147 49.7867 43.909 49.7867C38.5033 49.7867 34.1212 45.4045 34.1212 39.9988Z" fill="#F95C5E"/>
<path d="M35.6212 39.9988C35.6212 35.4215 39.3318 31.7109 43.909 31.7109C48.4863 31.7109 52.1969 35.4215 52.1969 39.9988C52.1969 44.5761 48.4863 48.2867 43.909 48.2867C39.3318 48.2867 35.6212 44.5761 35.6212 39.9988Z" stroke="white" stroke-width="3"/>
</g>
<defs>
<filter id="filter0_d_1896_8293" x="0.121155" y="0.210938" width="87.5757" height="87.5762" filterUnits="userSpaceOnUse" color-interpolation-filters="sRGB">
<feFlood flood-opacity="0" result="BackgroundImageFix"/>
<feColorMatrix in="SourceAlpha" type="matrix" values="0 0 0 0 0 0 0 0 0 0 0 0 0 0 0 0 0 0 127 0" result="hardAlpha"/>
<feOffset dy="4"/>
<feGaussianBlur stdDeviation="17"/>
<feComposite in2="hardAlpha" operator="out"/>
<feColorMatrix type="matrix" values="0 0 0 0 0 0 0 0 0 0 0 0 0 0 0 0 0 0 0.25 0"/>
<feBlend mode="normal" in2="BackgroundImageFix" result="effect1_dropShadow_1896_8293"/>
<feBlend mode="normal" in="SourceGraphic" in2="effect1_dropShadow_1896_8293" result="shape"/>
</filter>
</defs>
</svg>
