<?xml version="1.0" encoding="utf-8"?>
<!-- Generator: Adobe Illustrator 21.1.0, SVG Export Plug-In . SVG Version: 6.00 Build 0)  -->
<svg version="1.1" id="Mode_Isolation" xmlns="http://www.w3.org/2000/svg" xmlns:xlink="http://www.w3.org/1999/xlink" x="0px"
	 y="0px" viewBox="0 0 200.4 226.2" style="enable-background:new 0 0 200.4 226.2;" xml:space="preserve">
<style type="text/css">
	.st0{fill:#BE9D4D;}
	.st1{fill:#EB212E;}
	.st2{fill:url(#SVGID_1_);}
</style>
<g>
	<g>
		<path d="M32.7,223.2c-1.3-0.1-1.6-0.1-1.6-2.5v-21.4c-1.4,0-4.2,0.3-5.3,0.5l0.1,0.8l0.5-0.1c0.1,0,0.3,0,0.5,0
			c1.2,0,1.2,1.6,1.2,4.3v15.9c0,2.4-0.3,2.4-1.5,2.5l-0.8,0.1v0.8h7.7v-0.8L32.7,223.2z"/>
		<path d="M43.2,209.1c2.6,0,3.5,2.1,4,4.2c-2.4,0.8-5.3,1.5-7.8,2C39.3,212.7,40.2,209.1,43.2,209.1z M49.7,221.9
			c-0.5,0.2-1.8,1.1-3.9,1.1c-4.6,0-6.3-4.1-6.4-6.2c3-0.7,7-1.8,10.9-3.7c-0.4-1.9-1.4-5.2-6.1-5.2c-4,0-8,3.1-8,8.9
			c0,4.9,3.6,7.8,7.9,7.8c3.1,0,5.5-1.4,6-1.9L49.7,221.9z"/>
		<path d="M92.7,204.8c-0.5-1.3-0.9-2.5-2-2.7l-1-0.1v-0.8h8.6v0.8l-1.1,0.1c-0.6,0.1-1.6,0.2-1.6,0.9c0,0.2,0.3,1,0.5,1.4l6,15.4
			c0.8-2.1,6.2-15.5,6.2-16.5c0-0.7-0.7-0.9-1.3-1l-1.5-0.2v-0.8h7.4v0.8l-0.9,0.2c-0.4,0.1-0.8,0.3-1,0.5c-0.8,0.8-1.9,4.1-2.7,5.7
			l-2.3,5.7c-2,4.8-3.7,9-4,9.8c-0.2,0.1-0.7,0.4-1.2,0.5L92.7,204.8z"/>
		<path d="M142.6,216.1v5.8c-0.2,0.4-1.1,1.4-2.6,1.4c-2,0-3.2-1.2-3.2-3.1c0-3.2,3.4-4.1,5.3-4.1H142.6z M148.1,223.2
			c-0.1,0.1-0.3,0.1-0.6,0.1c-1.9,0-1.9-2.6-1.9-5v-4.9c0-3.5-0.8-5.6-4.8-5.6c-3.7,0-5.9,2.3-6.9,3.7c0.2,0.6,0.5,1,0.9,1.4h0.3
			c0.6-1.3,1.5-3.4,4.3-3.4c2.6,0,3.2,2,3.2,4.2v0.8c-3,0.9-9,2.2-9,6.7c0,1.9,1.7,3.3,4.3,3.3c2.7,0,4-0.7,5.1-1.4
			c0.3,0.7,1,1.4,2.7,1.4c1.4,0,2.2-0.6,2.6-0.9L148.1,223.2z"/>
		<path d="M187.5,209.1c2.6,0,3.5,2.1,4,4.2c-2.4,0.8-5.3,1.5-7.8,2C183.7,212.7,184.6,209.1,187.5,209.1z M194.1,221.9
			c-0.5,0.2-1.8,1.1-3.9,1.1c-4.7,0-6.3-4.1-6.4-6.2c3-0.7,7-1.8,10.9-3.7c-0.4-1.9-1.4-5.2-6.1-5.2c-4,0-8,3.1-8,8.9
			c0,4.9,3.5,7.8,7.9,7.8c3.1,0,5.5-1.4,6-1.9L194.1,221.9z"/>
		<polygon points="68.6,199 66.9,201.2 65.7,199 67.4,196.9 		"/>
		<polygon points="70.5,201.8 68.8,203.9 67.6,201.8 69.3,199.6 		"/>
		<polygon points="66,201.7 64.3,203.9 63.2,201.7 64.8,199.6 		"/>
		<path d="M81.3,219c1-1.3,2.6-3.2,2.6-7.2c0-4.3-3-6.8-5.5-6.8c-1.2,0-2.2,0.5-3.2,0.8v0.4c2.2,0.5,6.2,2.7,6.2,7.9
			c0,1.3-0.5,2.8-1.3,3.9c-3.2-2.6-8.5-7.3-11-10.2c0.2-0.2,6.3-3.8,6.3-8c0-2.4-1.6-4.1-4.2-4.1c-0.6,0-1.9,0.3-1.9,0.3
			c2.6,1.5,2.8,2.9,2.8,2.9c0.2,0.6,0.3,1.2,0.3,1.9c0,3.1-2.8,5-4.2,5.9c0,0-0.1,0-0.1,0.1c-0.7-0.9-1.5-2.4-1.6-4.4
			c0,0-2,3.2-1.1,6.1c0,0-0.1,0-0.1,0c-2,1.3-6.4,4-6.4,8.5c0,4.7,4.6,7.7,9.6,7.7c6,0,8.7-2.1,10.4-3.4c2.1,1.6,4.5,3.5,5.4,4.9
			h0.5C85.1,223.7,84,221.3,81.3,219z M71.5,222.7c-5.1,0-8.5-3-8.5-7.4c0-3.2,1.7-4.6,3.2-5.5c3.9,4.6,8.1,7.7,11.8,10.6
			C77.2,221.1,75,222.7,71.5,222.7z"/>
		<path d="M11.6,203.1l1.2-0.1v-0.8H4.5v0.8l1.2,0.1c1.4,0.1,1.4,0.3,1.4,4.5v11c0,1,0,1.7,0,2.3l0,3.1h5.8v-0.8l-1.2-0.1
			c-1.3-0.1-1.3-0.3-1.3-4.5v-11C10.3,203.5,10.3,203.3,11.6,203.1z"/>
		<path d="M22.5,223.2c-1.3-0.1-1.6-0.1-1.6-2.5v-21.4c-1.4,0-4.2,0.3-5.3,0.5l0.1,0.8l0.5-0.1c0.1,0,0.3,0,0.5,0
			c1.2,0,1.2,1.6,1.2,4.3v15.9c0,0.3,0,0.6,0,0.8v2.5h5.4v-0.8L22.5,223.2z"/>
		<g>
			<path d="M116,206.3c1.1,0,1.9-0.9,1.9-1.9c0-1-0.8-1.9-1.9-1.9c-1.1,0-1.9,0.9-1.9,1.9C114.1,205.3,114.9,206.3,116,206.3z"/>
			<path d="M119.4,223.2c-1.3-0.1-1.6-0.2-1.6-2.5v-12.8c-1.2,0-4.3,0.9-5.3,1.2l0.1,0.8l0.8-0.2c0.1,0,0.3,0,0.5,0c1,0,1,1,1,4.3
				v6.7c0,0.3,0,0.6,0,0.8l0,2.6h5.4v-0.8L119.4,223.2z"/>
		</g>
		<path d="M129.9,223.2c-1.3-0.1-1.5-0.1-1.5-2.5v-21.4c-1.5,0-4.2,0.3-5.3,0.5l0.1,0.8l0.5-0.1c0.1,0,0.3,0,0.5,0
			c1.2,0,1.2,1.6,1.2,4.3v15.9c0,0.3,0,0.6,0,0.8l0,2.6h5.4v-0.8L129.9,223.2z"/>
		<g>
			<path d="M153.5,206.3c1.1,0,1.9-0.9,1.9-1.9c0-1-0.8-1.9-1.9-1.9c-1.1,0-1.9,0.9-1.9,1.9C151.5,205.3,152.4,206.3,153.5,206.3z"
				/>
			<path d="M156.9,223.2c-1.3-0.1-1.5-0.2-1.5-2.5v-12.8c-1.2,0-4.3,0.9-5.3,1.2l0.1,0.8l0.8-0.2c0.1,0,0.3,0,0.5,0c1,0,1,1,1,4.3
				v6.7c0,0.3,0,0.5,0,0.7l0,2.7h5.4v-0.8L156.9,223.2z"/>
		</g>
		<path d="M177.6,223.2c-1.3-0.1-1.5-0.3-1.5-2.5v-5.1c0-4,0-7.7-5.4-7.7c-2.6,0-4.5,1.4-5.3,2.2v-2.2c-1.2,0-4.3,0.9-5.3,1.2
			l0.1,0.8l0.8-0.2c0.1,0,0.3,0,0.5,0c1,0,1,1,1,4.3v6.7c0,0.2,0,0.4,0,0.6l0,2.8h5.4v-0.8l-0.8-0.1c-1.3-0.1-1.6-0.3-1.6-2.5v-9.3
			c0.6-0.8,1.7-1.9,3.5-1.9c4.1,0,4.1,3.3,4.1,6.6v4.6c0,0.3,0,0.6,0,0.8l0,2.6h5.4v-0.8L177.6,223.2z"/>
	</g>
	<path class="st0" d="M145.2,80.9"/>
	<path class="st0" d="M142.8,95.8"/>
	<path d="M11.4,147.1c-3.8,0-5.8,0.7-5.8,1.9c0,0.6,0.5,1,1.6,1.3c1.7,0.4,4.1,0.3,6.9,0.6c5.7,0.5,8.5,1.9,8.5,5.4
		c0,3.9-3.7,6.3-10.7,6.3c-4.6,0-8.4-1-11.9-3.4l2.4-2.9c3.1,1.9,6.3,2.8,9.7,2.8c3.7,0,5.8-1,5.8-2.5c0-1.6-2.4-1.6-6.3-1.8
		c-7.1-0.3-10.7-1.7-10.7-5.3c0-3.5,3.6-5.8,10.2-5.8c4.5,0,8.1,0.9,10.8,2.7l-2.5,2.9C16.8,147.8,14.2,147.1,11.4,147.1z"/>
	<path d="M47,162.2l-2.1-3.9H33.2l-2.1,3.9h-4.5l9.8-18.1h5.5l9.7,18.1H47z M39,147.4l-4,7.4h8.1L39,147.4z"/>
	<path d="M87.4,162.2v-18.1h19.9v3.5H91.8v3.7h10.7v3.5H91.8v4h16.1v3.5H87.4z"/>
	<path d="M127,162.7c-6.9,0-11.1-2.8-11.1-6.6v-12h4.5v11.4c0,2.2,2.4,3.7,6.6,3.7c4.2,0,6.6-1.5,6.6-3.7v-11.4h4.5v12
		C138.1,159.9,133.9,162.7,127,162.7z"/>
	<path d="M189.2,147.1c-3.8,0-5.8,0.7-5.8,1.9c0,0.6,0.5,1,1.6,1.3c1.7,0.4,4.1,0.3,6.9,0.6c5.7,0.5,8.5,1.9,8.5,5.4
		c0,3.9-3.7,6.3-10.7,6.3c-4.6,0-8.4-1-11.9-3.4l2.4-2.9c3.1,1.9,6.2,2.8,9.7,2.8c3.7,0,5.8-1,5.8-2.5c0-1.6-2.4-1.6-6.3-1.8
		c-7.1-0.3-10.7-1.7-10.7-5.3c0-3.5,3.6-5.8,10.2-5.8c4.5,0,8.1,0.9,10.8,2.7l-2.5,2.9C194.7,147.8,192,147.1,189.2,147.1z"/>
	<path class="st1" d="M46.5,182.3c-2.3,1.9-5.5,3-9.1,3c-3.7,0-6.9-1.1-9.1-3c-2-1.7-3.1-3.9-3.1-6.6c0-2.6,1.1-4.8,3.1-6.5
		c2.3-1.9,5.5-3,9.1-3c3.6,0,6.9,1.1,9.1,3c2,1.7,3.1,3.9,3.1,6.5C49.6,178.3,48.5,180.6,46.5,182.3z M37.4,169.7
		c-4.7,0-7.7,2.5-7.7,6c0,3.6,3,6.1,7.7,6.1c4.8,0,7.7-2.4,7.7-6.1C45.1,172.1,42.1,169.7,37.4,169.7z"/>
	<path class="st1" d="M77.4,184.7v-12.8h-0.1l-8.6,10.3l-8.6-10.3h-0.1v12.8h-4.4v-18h5.1l7.9,9.5l7.9-9.5h5.1v18H77.4z"/>
	<path class="st1" d="M114.8,184.7v-18h4.4v18H114.8z"/>
	<path class="st1" d="M126.3,184.7v-18h19.5v3.4h-15.1v3.7h10.5v3.5h-10.5v3.9h15.8v3.5H126.3z"/>
	<path class="st1" d="M189,169.8c-3.8,0-5.7,0.7-5.7,1.9c0,0.6,0.5,1.1,1.6,1.3c1.7,0.4,4,0.3,6.8,0.5c5.6,0.5,8.3,1.9,8.3,5.4
		c0,3.9-3.7,6.2-10.5,6.2c-4.5,0-8.2-1-11.7-3.4l2.4-2.9c3.1,1.9,6.1,2.8,9.5,2.8c3.6,0,5.7-1,5.7-2.5c0-1.6-2.3-1.6-6.2-1.8
		c-7-0.3-10.5-1.7-10.5-5.3c0-3.5,3.5-5.8,10-5.8c4.4,0,7.9,0.9,10.6,2.6l-2.5,2.9C194.3,170.4,191.8,169.8,189,169.8z"/>
	<path class="st1" d="M15.3,166.9l-15-0.1l-0.1,17.8l4.5,0c0,0,0.1-8.7,0.1-9.7l0,0v0c0-0.2,0-0.2,0,0l0-4.6l10.1,0.1
		c2,0,3,0.9,3,2.4c0,1.4-1.1,2.3-3,2.3l-5.2,0c-0.1,1.1-0.1,1.9-0.1,3.5l5.5,0c4.7,0,7.1-1.9,7.1-5.6
		C22.2,169.3,19.5,166.9,15.3,166.9z"/>
	<path class="st1" d="M103.8,166.9l-15-0.1l-0.1,17.8l4.5,0c0,0,0.1-8.7,0.1-9.7l0,0v0c0-0.2,0-0.2,0,0l0-4.6l10.1,0.1
		c1.9,0,3,0.9,3,2.4c0,1.4-1.1,2.3-3,2.3l-5.2,0c-0.1,1.1,0,1.9,0,3.5l5.5,0c4.7,0,7.1-1.9,7.1-5.6
		C110.7,169.3,108,166.9,103.8,166.9z"/>
	<path d="M73.2,144.2l-15-0.1L58,161.9l4.5,0c0,0,0.1-8.7,0.1-9.7l0,0v0c0-0.2,0-0.2,0,0l0-4.6l10.1,0.1c2,0,3,0.9,3,2.4
		c0,1.4-1.1,2.3-3,2.3l-5.2,0c-0.1,1.1-0.1,1.9-0.1,3.5l5.5,0c4.7,0,7.1-1.9,7.1-5.6C80.1,146.6,77.3,144.2,73.2,144.2z"/>
	<path class="st1" d="M170,178c2.8-0.7,4.2-2.5,4.2-5.4c0-3.5-2.7-5.8-6.9-5.8l-15,0l0,17.8l4.5,0l0-14.4l10,0c1.9,0,3,0.9,3,2.3
		c0,1.5-1.1,2.4-3,2.4l-5.7,0c-0.1,0.8-0.1,3.3-0.2,3.4l4.2,0l4.5,6.3l5,0L170,178z"/>
	<path d="M166.2,155.4c2.8-0.7,4.2-2.6,4.2-5.4c0-3.5-2.7-5.8-6.9-5.8l-15,0l0,17.8l4.4,0l0-14.4l10.1,0c1.9,0,3,0.9,3,2.3
		c0,1.5-1.1,2.4-3,2.4l-5.7,0c-0.1,0.8-0.1,3.3-0.2,3.4l4.2,0l4.5,6.3l5,0L166.2,155.4z"/>
	<linearGradient id="SVGID_1_" gradientUnits="userSpaceOnUse" x1="146.0906" y1="6.0772" x2="96.1674" y2="105.924">
		<stop  offset="0" style="stop-color:#F59331"/>
		<stop  offset="1" style="stop-color:#EB212E"/>
	</linearGradient>
	<path class="st2" d="M48.1,92.9L48.1,92.9c27.7-19.4,28.3-56.6,28.3-56.6C67,69.5,45,78.9,43.8,79.5C43.7,85.4,48.1,92.9,48.1,92.9
		z M108,0c-4.6,0-9,0.5-13.3,1.4c0.7-0.1,1.1-0.1,1.1-0.1s58.8-9,58.8,48.8c0,57.8-88.6,51.6-27.7-10.4c0,0-51.8,10-73,63.9
		c11.9,17.1,31.7,28.2,54.1,28.2c36.4,0,65.9-29.5,65.9-65.9C174,29.5,144.4,0,108,0z"/>
</g>
</svg>
