<?xml version="1.0" encoding="UTF-8"?> <svg xmlns="http://www.w3.org/2000/svg" xmlns:xlink="http://www.w3.org/1999/xlink" fill="none" height="552" viewBox="0 0 534 552" width="534"><clipPath id="a"><path d="m0 0h534v551.51h-534z"></path></clipPath><g clip-path="url(#a)" fill="#db001b"><path d="m322.13 351.57h-6.39c-1.65 0-2.78-.62-3.3-1.65l-31.84-60.49c-.1-.21-.21-.31-.31-.31s-.1.1-.1.31v60.18c0 1.03-.82 1.96-1.85 1.96h-5.36c-1.03 0-1.85-.21-1.85-1.24v-72.45c0-1.65 1.34-2.89 2.99-2.89h5.67c2.88 0 3.4.52 4.22 2.06l31.63 60.18.21.31c.1 0 .1-.21.1-.31v-60.28c0-1.03.82-1.96 1.85-1.96h5.46c1.13 0 1.85.93 1.85 1.96v71.62c0 1.65-1.34 2.99-2.99 2.99z"></path><path d="m367.25 352.29c-16.18 0-27.92-9.48-27.92-32.37v-13.29c0-22.87 11.75-32.35 27.92-32.35s27.82 9.48 27.82 32.35v13.29c0 22.88-11.64 32.37-27.82 32.37zm18.34-45.66c0-17.31-7.01-23.9-18.34-23.9s-18.44 6.59-18.44 23.9v13.29c0 17.32 7.11 23.91 18.44 23.91s18.34-6.6 18.34-23.91z"></path><path d="m460.29 351.57h-6.59c-1.24 0-1.85 0-2.68-1.34l-18.44-30.72h-2.68c-3.4 0-5.87-.1-11.33-.31v30.3c0 1.03-.72 2.06-1.86 2.06h-5.56c-1.03 0-1.85-.93-1.85-2.06v-72.14c0-1.44.62-2.06 2.47-2.27 4.43-.51 12.16-.82 18.13-.82 16.28 0 28.85 5.46 28.85 22.15v.72c0 11.54-6.8 18.34-16.18 20.81l18.75 31.34c.21.31.31.62.31.93 0 .72-.51 1.34-1.34 1.34zm-10.82-55.14c0-10.3-6.7-13.7-19.58-13.7-3.19 0-8.86 0-11.33.31v28.23c4.53.1 8.96.21 11.33.21 12.67 0 19.58-3.19 19.58-14.32v-.72z"></path><path d="m494.6 352.29c-7.83 0-15.76-.52-18.75-1.03-1.34-.21-2.16-1.03-2.16-2.58v-70.8c0-1.44.82-2.37 2.16-2.58 2.99-.52 10.92-1.03 18.75-1.03 19.06 0 31.22 9.79 31.22 32.04v13.91c0 22.06-12.16 32.06-31.22 32.06zm21.85-45.97c0-18.65-9.48-24.01-21.84-24.01-4.84 0-8.04.1-11.44.31v61.42c3.3.21 6.59.21 11.44.21 12.36 0 21.84-5.46 21.84-24.02z"></path><path d="m9.96005 477.91c-3.26 0-5.92-.44-8.03-1.04-.4-.12-.83-.36-.83-.79v-4.89c0-.52.36-.79.76-.79h.08c1.67.16 5.96.6 8.07005.6 1.95 0 2.5-.75 2.5-2.03 0-.79-.4-1.23-1.87-2.11l-5.73005-3.38c-3.74-2.19-4.729996-4.89-4.729996-7.95 0-4.33 2.389996-7.91 10.420046-7.91 3.14 0 7.39.52 9.02.99.36.12.72.32.72.76v4.97c0 .4-.28.75-.72.75h-.08c-1.63-.12-6.16-.52-9.02-.52-1.47005 0-1.99005.52-1.99005 1.35 0 .72.36 1.11 2.07005 2.03l5.37 2.86c3.86 2.07 5.25 4.69 5.25 7.99 0 4.45-3.06 9.1-11.25005 9.1z"></path><path d="m44.1101 477.43c-1.51.2-3.98.48-7.83.48-5.09 0-10.18-1.19-10.18-8.91v-12.48c0-7.67 5.09-8.91 10.18-8.91 3.86 0 6.32.28 7.83.48.52.08.8.32.8.79v4.85c0 .44-.36.79-.8.79h-8.03c-1.43 0-1.91.44-1.91 1.99v2.9h9.78c.44 0 .79.36.79.79v4.69c0 .44-.36.8-.79.8h-9.78v3.3c0 1.55.48 1.99 1.91 1.99h8.03c.44 0 .8.36.8.8v4.85c0 .48-.28.71-.8.79z"></path><path d="m74.0901 477.55h-7.31c-.44 0-.6-.4-.79-.79l-4.97-9.54-.28-.16c-.4 0-1.67-.04-2.07-.04v9.74c0 .44-.36.79-.79.79h-6.44c-.44 0-.83-.36-.83-.79v-26c0-1.91.64-2.35 2.31-2.62 1.59-.24 5.57-.52 8.39-.52 7.39 0 12.44 2.35 12.44 9.62v.64c0 4.25-2.35 6.76-4.85 7.83l5.76 10.81c.08.16.12.32.12.44 0 .36-.28.6-.68.6zm-8.39-20.31c0-1.87-1.31-2.82-3.98-2.82-.28 0-2.82.08-3.06.08v6.32c.2.04 2.66.04 2.9.04 3.06 0 4.13-1.07 4.13-2.94v-.68z"></path><path d="m103.14 448.81-5.3299 24.33c-.87 3.94-3.82 4.77-7.63 4.77s-6.76-.83-7.63-4.77l-5.33-24.33c0-.08-.04-.12-.04-.2 0-.36.28-.6.68-.6h6.88c.44 0 .76.36.84.76l4.17 21.98c.08.36.12.56.44.56s.4-.2.48-.56l4.1699-21.98c.08-.4.3601-.76.7901-.76h6.9199c.4 0 .64.24.64.6 0 .04-.04.12-.04.2z"></path><path d="m115.31 477.55h-6.52c-.44 0-.8-.36-.8-.79v-27.99c0-.44.36-.76.8-.76h6.52c.44 0 .79.32.79.76v27.99c0 .44-.36.79-.79.79z"></path><path d="m139.36 477.19c-1.03.36-3.06.72-5.57.72-7.31 0-12.24-3.98-12.24-13.08v-4.09c0-9.1 4.93-13.08 12.24-13.08 2.5 0 4.53.36 5.57.72.64.2.87.32.87.87v5.09c0 .52-.24.75-.72.75h-.12c-1.63-.16-3.3-.36-5.57-.36-2.15 0-4.09.96-4.09 6v4.09c0 5.01 1.91 6 4.09 6s3.94-.2 5.57-.36h.12c.48 0 .72.24.72.75v5.09c0 .52-.24.68-.87.87z"></path><path d="m163.05 477.43c-1.51.2-3.98.48-7.83.48-5.09 0-10.18-1.19-10.18-8.91v-12.48c0-7.67 5.09-8.91 10.18-8.91 3.86 0 6.32.28 7.83.48.52.08.79.32.79.79v4.85c0 .44-.36.79-.79.79h-8.03c-1.43 0-1.91.44-1.91 1.99v2.9h9.78c.44 0 .79.36.79.79v4.69c0 .44-.36.8-.79.8h-9.78v3.3c0 1.55.48 1.99 1.91 1.99h8.03c.44 0 .79.36.79.8v4.85c0 .48-.28.71-.79.79z"></path><path d="m190.44 477.91c-3.78 0-7.04-.32-9.1-.68-.87-.16-1.27-.48-1.27-1.55v-25.84c0-1.07.4-1.39 1.27-1.55 2.07-.36 5.29-.68 9.1-.68 7.87 0 12.92 4.02 12.92 12.96v4.37c0 8.95-5.01 12.96-12.92 12.96zm4.77-17.33c0-4.77-1.59-6.04-4.77-6.04-.48 0-1.99.04-2.27.04v16.42c.28.04 1.75.04 2.27.04 3.18 0 4.77-1.27 4.77-6.08v-4.37z"></path><path d="m226.5 477.43c-1.51.2-3.98.48-7.83.48-5.09 0-10.18-1.19-10.18-8.91v-12.48c0-7.67 5.09-8.91 10.18-8.91 3.86 0 6.32.28 7.83.48.52.08.79.32.79.79v4.85c0 .44-.36.79-.79.79h-8.03c-1.43 0-1.91.44-1.91 1.99v2.9h9.78c.44 0 .79.36.79.79v4.69c0 .44-.36.8-.79.8h-9.78v3.3c0 1.55.48 1.99 1.91 1.99h8.03c.44 0 .79.36.79.8v4.85c0 .48-.28.71-.79.79zm-1.15-36.69-5.01 4.77c-.32.28-.4.44-.95.44h-5.13c-.24 0-.36-.12-.36-.28 0-.12.04-.28.16-.4l3.62-4.53c.36-.44.52-.6 1.11-.6h6.28c.28 0 .44.12.44.28 0 .08-.04.2-.16.32z"></path><path d="m243.79 467.93c-.87 0-1.75-.08-2.82-.12v8.95c0 .44-.36.79-.8.79h-6.36c-.44 0-.83-.28-.83-.72v-26.08c0-1.91.64-2.35 2.31-2.62 1.99-.32 5.57-.52 8.39-.52 5.92 0 12.4 2.07 12.4 9.98v.32c0 7.83-6.56 10.02-12.28 10.02zm4.26-10.33c0-2.3-1.59-3.22-4.25-3.22-.28 0-2.58.04-2.82.04v6.76c.2.04 2.58.04 2.82.04 2.78 0 4.25-1.07 4.25-3.3z"></path><path d="m283.35 477.55h-6.48c-.44 0-.75-.36-.75-.79v-8.83h-7.27v8.83c0 .44-.32.79-.75.79h-6.52c-.44 0-.79-.36-.79-.79v-20.08c0-7.63 5.01-9.03 10.18-9.03h3.06c5.17 0 10.18 1.35 10.18 9.03v20.08c0 .44-.4.79-.83.79zm-7.24-20.87c0-1.59-.48-2.07-2.11-2.07h-3.06c-1.59 0-2.11.48-2.11 2.07v4.69h7.27v-4.69z"></path><path d="m313.72 477.55h-7.32c-.44 0-.6-.4-.79-.79l-4.97-9.54-.28-.16c-.4 0-1.67-.04-2.07-.04v9.74c0 .44-.36.79-.79.79h-6.44c-.44 0-.83-.36-.83-.79v-26c0-1.91.64-2.35 2.3-2.62 1.59-.24 5.57-.52 8.39-.52 7.39 0 12.44 2.35 12.44 9.62v.64c0 4.25-2.34 6.76-4.85 7.83l5.76 10.81c.08.16.12.32.12.44 0 .36-.28.6-.68.6zm-8.39-20.31c0-1.87-1.31-2.82-3.97-2.82-.28 0-2.82.08-3.06.08v6.32c.2.04 2.66.04 2.9.04 3.06 0 4.13-1.07 4.13-2.94z"></path><path d="m337.49 454.61h-5.92v22.14c0 .44-.36.79-.79.79h-6.48c-.44 0-.79-.36-.79-.79v-22.14h-6.04c-.44 0-.79-.32-.79-.76v-5.09c0-.44.36-.76.79-.76h20.04c.44 0 .83.32.83.76v5.09c0 .44-.4.76-.83.76z"></path><path d="m360.46 477.43c-1.51.2-3.98.48-7.83.48-5.09 0-10.18-1.19-10.18-8.91v-12.48c0-7.67 5.09-8.91 10.18-8.91 3.85 0 6.32.28 7.83.48.52.08.8.32.8.79v4.85c0 .44-.36.79-.8.79h-8.03c-1.43 0-1.91.44-1.91 1.99v2.9h9.78c.44 0 .79.36.79.79v4.69c0 .44-.36.8-.79.8h-9.78v3.3c0 1.55.48 1.99 1.91 1.99h8.03c.44 0 .8.36.8.8v4.85c0 .48-.28.71-.8.79z"></path><path d="m394.53 477.55h-6.52c-.32 0-.6-.36-.6-.79v-14.59c0-.28-.04-.4-.12-.4h-.12l-.4.6-3.18 5.29c-.32.52-.67.75-1.15.75h-2.74c-.48 0-.83-.24-1.15-.75l-3.26-5.45c-.08-.16-.2-.36-.32-.44h-.12c-.08 0-.16.12-.16.4v14.59c0 .44-.24.79-.56.79h-6.56c-.32 0-.64-.04-.64-.48v-27.59c0-.79.68-1.47 1.47-1.47h4.41c.99 0 1.59.44 2.03 1.19l5.76 10.06c.16.28.28.48.44.48s.32-.2.48-.48l5.76-10.06c.44-.75 1.03-1.19 2.03-1.19h4.41c.79 0 1.47.68 1.47 1.47v27.59c0 .44-.36.48-.67.48z"></path><path d="m419.14 477.43c-1.51.2-3.98.48-7.83.48-5.09 0-10.18-1.19-10.18-8.91v-12.48c0-7.67 5.09-8.91 10.18-8.91 3.86 0 6.32.28 7.83.48.52.08.79.32.79.79v4.85c0 .44-.36.79-.79.79h-8.03c-1.43 0-1.91.44-1.91 1.99v2.9h9.78c.44 0 .79.36.79.79v4.69c0 .44-.36.8-.79.8h-9.78v3.3c0 1.55.48 1.99 1.91 1.99h8.03c.44 0 .79.36.79.8v4.85c0 .48-.28.71-.79.79z"></path><path d="m448.87 477.55h-6.56c-.44 0-.75-.36-.75-.79v-17.57c0-3.78-1.39-4.65-4.05-4.65-1.23 0-2.62.04-3.78.2v22.02c0 .44-.36.79-.79.79h-6.52c-.44 0-.79-.36-.79-.79v-25.56c0-2.15.6-2.62 2.42-2.9 2.03-.32 6.8-.68 8.51-.68 8.03 0 13.12 1.83 13.12 11.57v17.57c0 .44-.36.79-.79.79z"></path><path d="m474.15 454.61h-5.92v22.14c0 .44-.36.79-.79.79h-6.48c-.44 0-.79-.36-.79-.79v-22.14h-6.04c-.44 0-.79-.32-.79-.76v-5.09c0-.44.36-.76.79-.76h20.04c.44 0 .83.32.83.76v5.09c0 .44-.4.76-.83.76z"></path><path d="m501.05 477.55h-6.48c-.44 0-.75-.36-.75-.79v-8.83h-7.28v8.83c0 .44-.32.79-.76.79h-6.52c-.44 0-.79-.36-.79-.79v-20.08c0-7.63 5.01-9.03 10.18-9.03h3.06c5.17 0 10.18 1.35 10.18 9.03v20.08c0 .44-.4.79-.84.79zm-7.23-20.87c0-1.59-.48-2.07-2.11-2.07h-3.06c-1.59 0-2.11.48-2.11 2.07v4.69h7.28z"></path><path d="m524.39 477.43c-1.43.28-4.13.48-6.24.48-5.09 0-10.22-1.19-10.22-8.91v-20.19c0-.44.4-.8.83-.8h6.48c.44 0 .79.36.79.8v20.19c0 1.55.48 1.99 1.91 1.99h6.44c.44 0 .79.36.79.8v4.85c0 .48-.28.71-.79.79z"></path><path d="m11.0601 535.5c-2.82003 0-6.64003-.28-7.83003-.48-.68-.12-1.03-.44-1.03-1.23v-26.75c0-.79.36-1.11 1.03-1.23 1.19-.2 5.01-.48 7.83003-.48 7.95 0 12.48 4.29 12.48 12.17v5.84c0 7.87-4.53 12.16-12.48 12.16zm7-18c0-5.96-3.02-7.51-7-7.51-1.47003 0-2.50003.08-3.34003.12v20.63c.83.04 1.87.12 3.34003.12 3.98 0 7-1.55 7-7.51v-5.84z"></path><path d="m34.4801 505.69-2.7 8.23c-.16.56-.36.76-.76.76h-3.18c-.28 0-.36-.16-.36-.4 0-.12 0-.24.04-.36l2.03-8.23c.12-.56.4-.75.79-.75h3.74c.28 0 .44.16.44.44 0 .08 0 .2-.04.32z"></path><path d="m43.9801 535.19h-3.94c-.44 0-.8-.36-.8-.8v-27.99c0-.44.36-.75.8-.75h3.94c.44 0 .8.32.8.75v27.99c0 .44-.36.8-.8.8z"></path><path d="m72.9601 535.19h-4.09c-.44 0-.72-.36-.72-.8v-17.93c0-4.53-1.59-6.36-5.41-6.36-1.99 0-4.17.16-5.49.32v23.97c0 .44-.32.8-.76.8h-4.02c-.44 0-.76-.36-.76-.8v-26.36c0-1.47.44-1.83 1.67-2.03 2.15-.32 6.48-.68 8.79-.68 7.39 0 11.53 2.66 11.53 11.13v17.93c0 .44-.32.8-.76.8z"></path><path d="m97.2101 534.87c-.6.16-3.22.64-6.28.64-4.77 0-11.25-2.34-11.25-12.16v-5.84c0-9.98 6.48-12.17 11.25-12.17 3.06 0 5.68.48 6.28.64.52.16.87.36.87.91v2.66c0 .48-.2.83-.79.83h-.08c-1.39-.12-4.09-.32-6.2-.32-3.34 0-5.76 1.79-5.76 7.43v5.84c0 5.53 2.42 7.43 5.76 7.43 2.11 0 4.81-.2 6.2-.32h.08c.6 0 .79.36.79.83v2.66c0 .56-.36.75-.87.91z"></path><path d="m120.59 534.95c-1.27.2-2.82.56-7.55.56-5.17 0-9.18-1.39-9.18-8.15v-13.87c0-6.76 4.02-8.15 9.18-8.15 4.73 0 6.28.36 7.55.56.6.08.79.28.79.83v2.54c0 .44-.36.79-.79.79h-8.11c-2.31 0-3.14.79-3.14 3.42v4.29h10.77c.44 0 .8.36.8.79v2.86c0 .44-.36.79-.8.79h-10.77v5.13c0 2.62.83 3.42 3.14 3.42h8.11c.44 0 .79.36.79.8v2.54c0 .56-.2.76-.79.83z"></path><path d="m148.97 535.19h-4.09c-.44 0-.72-.36-.72-.8v-17.93c0-4.53-1.59-6.36-5.41-6.36-1.99 0-4.17.16-5.49.32v23.97c0 .44-.32.8-.76.8h-4.02c-.44 0-.76-.36-.76-.8v-26.36c0-1.47.44-1.83 1.67-2.03 2.15-.32 6.48-.68 8.79-.68 7.39 0 11.53 2.66 11.53 11.13v17.93c0 .44-.32.8-.76.8z"></path><path d="m165.35 535.5c-2.82 0-6.64-.28-7.83-.48-.68-.12-1.03-.44-1.03-1.23v-26.75c0-.79.36-1.11 1.03-1.23 1.19-.2 5.01-.48 7.83-.48 7.95 0 12.48 4.29 12.48 12.17v5.84c0 7.87-4.53 12.16-12.48 12.16zm6.99-18c0-5.96-3.02-7.51-7-7.51-1.47 0-2.5.08-3.34.12v20.63c.83.04 1.87.12 3.34.12 3.98 0 7-1.55 7-7.51v-5.84z"></path><path d="m188.72 535.19h-3.94c-.44 0-.8-.36-.8-.8v-27.99c0-.44.36-.75.8-.75h3.94c.44 0 .8.32.8.75v27.99c0 .44-.36.8-.8.8z"></path><path d="m213.21 534.95c-1.27.2-2.82.56-7.55.56-5.17 0-9.18-1.39-9.18-8.15v-13.87c0-6.76 4.02-8.15 9.18-8.15 4.73 0 6.28.36 7.55.56.6.08.79.28.79.83v2.54c0 .44-.36.79-.79.79h-8.11c-2.31 0-3.14.79-3.14 3.42v4.29h10.77c.44 0 .8.36.8.79v2.86c0 .44-.36.79-.8.79h-10.77v5.13c0 2.62.83 3.42 3.14 3.42h8.11c.44 0 .79.36.79.8v2.54c0 .56-.2.76-.79.83z"></path><path d="m248.04 534.95c-1.27.2-2.82.56-7.55.56-5.17 0-9.18-1.39-9.18-8.15v-13.87c0-6.76 4.02-8.15 9.18-8.15 4.73 0 6.28.36 7.55.56.6.08.79.28.79.83v2.54c0 .44-.36.79-.79.79h-8.11c-2.31 0-3.14.79-3.14 3.42v4.29h10.77c.44 0 .8.36.8.79v2.86c0 .44-.36.79-.8.79h-10.77v5.13c0 2.62.83 3.42 3.14 3.42h8.11c.44 0 .79.36.79.8v2.54c0 .56-.2.76-.79.83z"></path><path d="m273.44 510.26h-6.96v24.13c0 .44-.36.8-.8.8h-3.94c-.44 0-.79-.36-.79-.8v-24.13h-6.96c-.44 0-.79-.28-.79-.72v-3.14c0-.44.36-.75.79-.75h19.44c.44 0 .79.32.79.75v3.14c0 .44-.36.72-.79.72z"></path><path d="m299 535.5c-2.82 0-6.64-.28-7.83-.48-.67-.12-1.03-.44-1.03-1.23v-26.75c0-.79.36-1.11 1.03-1.23 1.19-.2 5.01-.48 7.83-.48 7.95 0 12.48 4.29 12.48 12.17v5.84c0 7.87-4.53 12.16-12.48 12.16zm7-18c0-5.96-3.02-7.51-7-7.51-1.47 0-2.5.08-3.34.12v20.63c.83.04 1.87.12 3.34.12 3.98 0 7-1.55 7-7.51v-5.84z"></path><path d="m334.38 534.95c-1.27.2-2.82.56-7.55.56-5.17 0-9.18-1.39-9.18-8.15v-13.87c0-6.76 4.02-8.15 9.18-8.15 4.73 0 6.28.36 7.55.56.6.08.79.28.79.83v2.54c0 .44-.36.79-.79.79h-8.11c-2.31 0-3.14.79-3.14 3.42v4.29h10.77c.44 0 .79.36.79.79v2.86c0 .44-.36.79-.79.79h-10.77v5.13c0 2.62.83 3.42 3.14 3.42h8.11c.44 0 .79.36.79.8v2.54c0 .56-.2.76-.79.83z"></path><path d="m359.9 535.5c-2.98 0-5.13-.28-7.04-.71-.4-.08-.75-.36-.75-.79v-2.86c0-.44.36-.76.75-.76h.08c1.59.2 5.56.4 7.04.4 3.54 0 4.61-1.27 4.61-3.58 0-1.55-.76-2.35-3.38-3.9l-5.25-3.14c-3.7-2.19-4.69-4.49-4.69-7.27 0-4.37 2.54-7.55 9.94-7.55 2.62 0 6.28.4 7.63.72.4.08.71.36.71.75v2.94c0 .4-.28.71-.67.71h-.08c-2.62-.24-5.25-.4-7.83-.4-2.94 0-4.17 1.03-4.17 2.82 0 1.31.68 2.11 3.26 3.54l4.77 2.66c4.37 2.42 5.52 4.97 5.52 8.11 0 4.01-2.5 8.31-10.45 8.31z"></path><path d="m392.86 534.95c-1.27.2-2.82.56-7.55.56-5.17 0-9.18-1.39-9.18-8.15v-13.87c0-6.76 4.01-8.15 9.18-8.15 4.73 0 6.28.36 7.55.56.6.08.79.28.79.83v2.54c0 .44-.36.79-.79.79h-8.11c-2.31 0-3.14.79-3.14 3.42v4.29h10.77c.44 0 .79.36.79.79v2.86c0 .44-.36.79-.79.79h-10.77v5.13c0 2.62.83 3.42 3.14 3.42h8.11c.44 0 .79.36.79.8v2.54c0 .56-.2.76-.79.83z"></path><path d="m416.75 534.87c-.6.16-3.22.64-6.28.64-4.77 0-11.25-2.34-11.25-12.16v-5.84c0-9.98 6.48-12.17 11.25-12.17 3.06 0 5.68.48 6.28.64.52.16.87.36.87.91v2.66c0 .48-.2.83-.79.83h-.08c-1.39-.12-4.09-.32-6.2-.32-3.34 0-5.76 1.79-5.76 7.43v5.84c0 5.53 2.42 7.43 5.76 7.43 2.11 0 4.81-.2 6.2-.32h.08c.6 0 .79.36.79.83v2.66c0 .56-.36.75-.87.91z"></path><path d="m432.81 535.5c-6.56 0-11.33-3.66-11.33-12.4v-5.37c0-8.75 4.77-12.4 11.33-12.4s11.33 3.66 11.33 12.4v5.37c0 8.75-4.77 12.4-11.33 12.4zm5.76-17.77c0-5.25-1.87-7.59-5.76-7.59s-5.76 2.34-5.76 7.59v5.37c0 5.25 1.87 7.59 5.76 7.59s5.76-2.35 5.76-7.59z"></path><path d="m469.78 534.83c-1.39.2-6.4.68-8.82.68-6.4 0-10.85-2.7-10.85-11.17v-17.93c0-.44.36-.75.79-.75h3.94c.44 0 .79.32.79.75v17.93c0 4.53 1.03 6.6 5.33 6.6 1.59 0 4.01-.16 5.49-.32v-24.21c0-.44.32-.75.76-.75h3.94c.44 0 .79.32.79.75v26c0 1.67-.72 2.23-2.15 2.42z"></path><path d="m499.87 535.19h-4.85c-.44 0-.6-.4-.79-.8l-5.72-10.62h-.56c-1.03 0-2.62-.12-3.54-.16v10.77c0 .44-.32.8-.75.8h-3.97c-.44 0-.79-.36-.79-.8v-27.35c0-.79.48-1.07 1.27-1.19 2.07-.32 4.89-.52 7.79-.52 6.12 0 11.45 2.19 11.45 8.99v.36c0 4.21-2.11 6.84-5.37 8.11l6.24 11.61c.08.12.08.24.08.32 0 .28-.16.48-.48.48zm-5.96-20.87c0-2.98-1.99-4.25-5.96-4.25-.83 0-2.82.08-3.54.16v8.95c.64.04 2.86.12 3.54.12 4.09 0 5.96-1.11 5.96-4.61v-.36z"></path><path d="m513.27 535.5c-2.98 0-5.13-.28-7.04-.71-.4-.08-.75-.36-.75-.79v-2.86c0-.44.36-.76.75-.76h.08c1.59.2 5.56.4 7.04.4 3.54 0 4.61-1.27 4.61-3.58 0-1.55-.75-2.35-3.38-3.9l-5.25-3.14c-3.7-2.19-4.69-4.49-4.69-7.27 0-4.37 2.54-7.55 9.94-7.55 2.62 0 6.28.4 7.63.72.4.08.72.36.72.75v2.94c0 .4-.28.71-.68.71h-.08c-2.62-.24-5.25-.4-7.83-.4-2.94 0-4.17 1.03-4.17 2.82 0 1.31.68 2.11 3.26 3.54l4.77 2.66c4.37 2.42 5.53 4.97 5.53 8.11 0 4.01-2.5 8.31-10.45 8.31z"></path><path d="m23.21 352.43c-8.11 0-14.15999-.92-19.39999-2.26-1.03-.3-2.05-.92-2.05-2.05v-10.06c0-1.44.82-1.95 1.84-1.95h.31c4.21.41 15.49999 1.23 19.50999 1.23 7.08 0 9.13-2.26 9.13-7.19 0-2.98-1.44-4.62-6.77-7.8l-14.16-8.42c-9.53999-5.65-12.10999-12.11-12.10999-19.61 0-11.29 6.36-20.01 26.26999-20.01 7.5 0 17.86 1.23 21.76 2.26.82.2 1.54.72 1.54 1.85v10.37c0 .92-.41 1.74-1.74 1.74h-.21c-2.87-.2-14.78-1.13-21.76-1.13-5.85 0-8 1.75-8 5.44 0 2.88 1.33 4.21 6.88 7.19l13.14 7.08c10.67 5.75 13.85 12.52 13.85 20.84 0 10.89-7.18 22.49-28.02 22.49z"></path><path d="m89.17 352.43c-8.52 0-17.65-.82-21.86-1.54-1.95-.31-2.98-1.23-2.98-3.6v-67.86c0-2.36 1.03-3.28 2.98-3.59 4.21-.72 13.34-1.54 21.86-1.54 20.42 0 32.74 10.78 32.74 32.43v13.24c0 21.67-12.31 32.45-32.74 32.45zm15.19-45.69c0-13.85-5.96-17.55-15.19-17.55-2.57 0-5.85.1-7.29.2v47.94c1.44.1 4.72.2 7.29.2 9.23 0 15.19-3.7 15.19-17.56v-13.24z"></path><path d="m191.68 352.43c-8.11 0-14.17-.92-19.4-2.26-1.03-.3-2.05-.92-2.05-2.05v-10.06c0-1.44.82-1.95 1.85-1.95h.31c4.21.41 15.5 1.23 19.5 1.23 7.08 0 9.14-2.26 9.14-7.19 0-2.98-1.44-4.62-6.77-7.8l-14.16-8.42c-9.54-5.65-12.11-12.11-12.11-19.61 0-11.29 6.36-20.01 26.27-20.01 7.49 0 17.86 1.23 21.76 2.26.82.2 1.54.72 1.54 1.85v10.37c0 .92-.41 1.74-1.75 1.74h-.2c-2.88-.2-14.78-1.13-21.76-1.13-5.85 0-8 1.75-8 5.44 0 2.88 1.34 4.21 6.88 7.19l13.14 7.08c10.68 5.75 13.86 12.52 13.86 20.84 0 10.89-7.19 22.49-28.02 22.49z"></path><path d="m358.39 209.61 9.38-5.33c1.65-.98 1.98-2.91 1.15-4.64l-11.04-25.17c10-13.01 14.41-34.81 11.32-50.55l1.03-.21c2.26-.44 4.64-.94 7.07-1.46l9.79-2.02-.03-.06c2.4-.5 4.74-.96 6.93-1.34 3.47-.48 3.28-2.65 3.78-4.43l2.35-11.05c.38-1.8.3-3.53-.6-4.95-.13-.24-34.72-39.42-34.72-39.42-21.08-21.61-52.94-54.25002-108.16-54.25002-91.19 0-115.21 76.72002-119.1 92.11002-6.48 25.64-3.45 48.57-1.01 67.01 2.38 17.97 3.55 28.08-2.13 33.82l-4.8 4.85c-2.04 2.02-1.57 5.34.43 6.58l55.75 29.99 3.9 2.31c3.17 1.65 6.27 3.22 9.26 4.76l10.23 5.5c.26.15.52.27.78.39 14.95 8.49 25.22 17.36 25.22 33.1l.08 15.23c.22 30.29 1.15 60.93-8.06 69.93-6.47 6.33-15.8 8.48-33.79 8.48-28.55 0-40.25-7.13-40.25-29.39v-54.4c0-1.13-.82-1.95-1.95-1.95h-13.75c-1.13 0-1.85.82-1.85 1.95v54.4c0 40.37 31.15 46.51 57.8 46.51 22.58 0 37.09-5.08 45.7-13.59 15.18-15.01 13.52-47.64 13.26-82.07l-.07-15.1c0-18.25-5.93-29.36-34.93-47.45-.16-.12-.31-.24-.5-.35-.25-.14-.54-.3-.81-.46-4.9-3.02-10.43-6.24-16.68-9.71-16-9.45-36.73-21.84-44.71-26.28 2.14-5.23 3.08-10.95 3.08-17.17 0-7.3-1.05-14.02-2.16-22.4-1.31-9.92-2.72-20.58-2.72-31.93 0-8.87-.67-18.16 1.78-27.84 3.28-12.96 25.05-78.63 102.01-78.63 47.13 0 73.61 26.66 93.57 47.11 0 0 30.07 31 32.86 34.79-.59.1-81.03 14.62-81.03 14.62-28.18 5.7-38.51 24.44-30.46 52.23 0 0 2.85 9.2 4.55 17.1s6.49 22.31-2.84 30.84c-5.99 5.47-20.92 4.39-29.62 1.67-1.99-.76-3.55-.22-4.13 1.34l-3.29 9.68c-.9 2.27-.56 3.08 1.56 4.08 9.28 3.02 34.73 11.46 49.22-3.34 1.53-1.56 4.32-5.04 5.41-6.86 13.81 12.21 33.52 17.61 53.62 21.79 2.19.49 4.62.23 6.38-.49l6.92-3.06c1.09-.43 1.65-2.1 1.35-3.51l-2.33-31.32zm-12.96 22.12c-20.05-3.71-40.38-12.79-49.38-23.78 1.29-13.89-2.64-24.1-2.64-24.1l-3.74-12.98c-3-9.21-8.71-30.02 10.7-33.62l50.51-9.51c4 16.21.84 34.38-6.13 41.46l-1.8 2.02c-1.18 1.33-1.95 2.15-.6 4.55 1.33 2.37 9.93 22.2 9.93 22.2l-7.68 3.86c-1.33.76-1.73 2.23-1.55 4.1l2.38 25.78z"></path><path d="m153.65 277.13c0-1.13-.82-1.95-1.95-1.95h-14.6c-1.13 0-1.85.82-1.85 1.95v8.32c0 1.13.82 1.95 1.95 1.95h14.6c1.13 0 1.85-.82 1.85-1.95z"></path></g></svg> 