<?xml version="1.0" encoding="utf-8"?>
<!-- Generator: Adobe Illustrator 23.0.6, SVG Export Plug-In . SVG Version: 6.00 Build 0)  -->
<svg version="1.1" id="Calque_1" xmlns="http://www.w3.org/2000/svg" xmlns:xlink="http://www.w3.org/1999/xlink" x="0px" y="0px"
	 viewBox="0 0 778 350" style="enable-background:new 0 0 778 350;" xml:space="preserve">
<style type="text/css">
	.st0{fill:#253447;}
	.st1{fill:#EC1C24;}
	.st2{fill:#FFFFFF;}
</style>
<g>
	<path class="st0" d="M373.5,147.5v74.4c0,4.4-2.8,7.3-7,7.3H327c-7.9,0-15.2-0.8-21.6-2.4c-6.6-1.6-12.4-4.5-17.1-8.6
		c-4.8-4.1-8.5-9.8-11.1-16.9c-2.6-6.9-3.9-15.8-3.9-26.5c0-11.4,1.3-20.9,3.8-28.3c2.6-7.6,6.4-13.6,11.3-17.9
		c4.9-4.2,10.7-7.2,17.4-8.7c6.4-1.4,13.5-2.1,21.1-2.1h15.6v-0.1h68.2V5.5c0-0.1,0-0.1,0-0.2h-0.2h-36.9h-0.2v0.2v66.2
		c0,4.5-2.8,7.3-7,7.3h-68.4c-10.9,0-20.3,2.3-28,6.7c-7.7,4.5-14.1,10.8-19,18.9c-5.1,8.2-8.8,18.4-11.3,30.2
		c-2.5,12-3.7,25.4-3.7,39.9c0,10.2,1.2,20.9,3.7,31.9c2.4,10.9,6.3,21.1,11.4,30.2c5,9,11.5,16.6,19.3,22.4
		c7.6,5.7,16.9,8.5,27.7,8.5h112.5c0.1,0,0.1,0,0.2,0v-0.2V147.5H373.5z"/>
	<path class="st0" d="M755.3,111.3H621.8c-5.1,0-9.5,2.1-12.9,6.3c-3.5,4.2-5.2,9.4-5.2,15.5c0,5.9,1.7,11,5.2,15.3
		c3.5,4.3,7.8,6.5,12.9,6.5h96.3c15.1,0,28,5.5,38.7,16.5c10.7,11,16.1,24.2,16.1,39.7c0,15.5-5.4,28.7-16.1,39.5
		c-10.7,10.9-23.6,16.3-38.7,16.3H570.7v-34.1h147.5c5,0,9.2-2.2,12.8-6.5c3.6-4.3,5.4-9.4,5.4-15.3c0-6.1-1.8-11.3-5.4-15.6
		c-3.6-4.3-7.8-6.5-12.8-6.5h-96.3c-15.2,0-28.2-5.4-38.8-16.3c-10.7-10.9-16-24.1-16-39.5c0-15.5,5.3-28.7,16-39.7
		c10.6-11,23.6-16.5,38.8-16.5h133.5V111.3z"/>
	<path class="st0" d="M192.9,111.3H59.4c-5.1,0-9.5,2.1-12.9,6.3c-3.5,4.2-5.2,9.4-5.2,15.5c0,5.9,1.7,11,5.2,15.3
		c3.5,4.3,7.8,6.5,12.9,6.5h96.3c15.1,0,28,5.5,38.7,16.5c10.7,11,16.1,24.2,16.1,39.7c0,15.5-5.4,28.7-16.1,39.5
		c-10.7,10.9-23.7,16.3-38.7,16.3H8.2v-34.1h147.5c5,0,9.2-2.2,12.8-6.5c3.6-4.3,5.4-9.4,5.4-15.3c0-6.1-1.8-11.3-5.4-15.6
		c-3.6-4.3-7.8-6.5-12.8-6.5H59.4c-15.2,0-28.2-5.4-38.8-16.3c-10.7-10.9-16-24.1-16-39.5c0-15.5,5.3-28.7,16-39.7
		c10.7-11,23.6-16.5,38.8-16.5h133.5V111.3z"/>
	<path class="st1" d="M627.5,303c-10.6,0-15.9,7.4-15.9,16.3c0,8.9,5.3,16.3,15.9,16.3c10.5,0,15.8-7.4,15.8-16.3
		C643.3,310.4,638,303,627.5,303 M627.5,292.9c18,0,27,12.6,27,26.4c0,13.8-9,26.4-27,26.4c-18,0-27-12.6-27-26.4
		C600.5,305.6,609.5,292.9,627.5,292.9"/>
	<rect x="662.5" y="294" class="st1" width="10.9" height="50.8"/>
	<path class="st1" d="M695.1,317.9h10.5c4.6,0,8.6-2,8.6-7.2c0-5.2-4-7.2-8.6-7.2h-10.5V317.9z M684.2,344.7V294h20.9
		c9.9,0,20.2,3.7,20.2,16.5c0,8.7-4.9,13.1-11.1,15.1l15.2,19.1h-12.6L703.1,327h-8v17.8H684.2z"/>
	<polygon class="st1" points="771.2,294 771.2,303.5 746.3,303.5 746.3,314.3 769,314.3 769,323.8 746.3,323.8 746.3,335.1 
		771.6,335.1 771.6,344.7 735.4,344.7 735.4,294 	"/>
	<path class="st1" d="M517.3,299.8c-5.7,0-8.4-2.9-8.4-8.8V107.2c0-20.4-8.4-29.1-28.1-29.1h-41.6v38.4h18.3c5.6,0,8.4,3,8.4,8.8
		v183.8c0,20.4,8.4,29.2,28,29.2h94.5v-38.4H517.3z"/>
	<path class="st1" d="M456.9,29.7c0-13.1,10.6-23.7,23.7-23.7c13.1,0,23.7,10.6,23.7,23.7c0,13.1-10.6,23.7-23.7,23.7
		C467.5,53.4,456.9,42.8,456.9,29.7"/>
	<path class="st2" d="M543.9,313.8l-7.7,9.5h7.7V313.8z M549.4,306.7v16.6h4v4.8h-4v4.8h-5.5v-4.8h-13.7v-4.8l13.5-16.6H549.4z"/>
	<path class="st2" d="M565.9,306.2c5.3,0,9.5,2.4,9.5,7.7c0,4.4-3.7,7-7.1,9.1c-3.1,1.8-5.8,3.3-5.8,5l13.1,0v5H556v-2.6
		c0-6.3,4.8-8.8,8.6-11c2.7-1.6,5.1-2.6,5.1-5.1c0-1.9-1.7-2.9-4.3-2.9c-2.6,0-5.7,1-8.5,3.1V309C559.6,307,562.7,306.2,565.9,306.2
		"/>
	<path class="st0" d="M17.6,290.2c3.1,0,6.2,0.8,8.4,2v4.2c-2.2-1.5-5.2-2.3-8.1-2.2c-3.3,0-5.3,1-5.3,3.3c0,5.8,15.4,3.5,15.4,13.1
		c0,5.7-4.8,7.6-10.2,7.6c-3.6,0-6.9-0.8-9.5-2.3v-4.3c2.9,1.9,6.2,2.7,9.2,2.7c3.5,0,6-0.8,6-3.3c0-6.2-15.4-3.7-15.4-13.2
		C8.1,292.6,12.5,290.2,17.6,290.2"/>
	<path class="st0" d="M37.9,308h10.5l-4.7-11.5c-0.2-0.4-0.3-0.8-0.5-1.5c-0.2,0.7-0.3,1.1-0.5,1.5L37.9,308z M29.4,317.6l11.4-26.9
		h4.8l11.3,26.9h-4.6l-2.4-5.8H36.4l-2.4,5.8H29.4z"/>
	<path class="st0" d="M70.2,294.7h-5.5v9.7h5.5c3.7,0,6.8-0.9,6.8-4.8C77,295.6,74,294.7,70.2,294.7 M70,290.7
		c6.4,0,11.5,2,11.5,8.8c0,6.8-5.1,8.8-11.5,8.8h-5.2v9.2h-4.4v-26.9H70z"/>
	<polygon class="st0" points="104.4,290.7 104.4,294.7 90.3,294.7 90.3,302 103.3,302 103.3,306 90.3,306 90.3,313.6 104.6,313.6 
		104.6,317.6 85.9,317.6 85.9,290.7 	"/>
	<path class="st0" d="M132.4,290.7v17c0,7.8-5.5,10.5-11.5,10.5c-6,0-11.5-2.7-11.5-10.5v-17h4.4v16.7c0,4.9,3,6.6,7.2,6.6
		c4.1,0,7.1-1.7,7.1-6.6v-16.7H132.4z"/>
	<path class="st0" d="M143.1,303.7h6.6c2.9,0,5.7-1,5.7-4.5c0-3.5-2.8-4.5-5.7-4.5h-6.6V303.7z M138.7,317.6v-26.9h10.8
		c5,0,10.3,2,10.3,8.4c0,4.8-3,7.1-6.5,8l8.6,10.5h-5.3l-8.1-10.1h-5.5v10.1H138.7z"/>
	<path class="st0" d="M173.7,290.2c3.1,0,6.2,0.8,8.4,2v4.2c-2.2-1.5-5.2-2.3-8.1-2.2c-3.3,0-5.3,1-5.3,3.3
		c0,5.8,15.4,3.5,15.4,13.1c0,5.7-4.8,7.6-10.2,7.6c-3.6,0-6.9-0.8-9.5-2.3v-4.3c2.9,1.9,6.2,2.7,9.2,2.7c3.5,0,6-0.8,6-3.3
		c0-6.2-15.4-3.7-15.4-13.2C164.2,292.6,168.6,290.2,173.7,290.2"/>
	<rect x="192.9" y="300.7" class="st1" width="15.3" height="6.9"/>
	<path class="st0" d="M228.9,294.7h-5.5v9.7h5.5c3.7,0,6.8-0.9,6.8-4.8C235.7,295.6,232.6,294.7,228.9,294.7 M228.7,290.7
		c6.4,0,11.5,2,11.5,8.8c0,6.8-5.1,8.8-11.5,8.8h-5.2v9.2h-4.4v-26.9H228.7z"/>
	<path class="st0" d="M257,294.3c-6.5,0-9.7,4.7-9.7,9.8c0,5.2,3.2,9.8,9.7,9.8c6.5,0,9.7-4.7,9.7-9.8
		C266.7,299,263.5,294.3,257,294.3 M257,290.2c9.5,0,14.2,6.8,14.2,14c0,7.1-4.7,14-14.2,14c-9.5,0-14.2-6.8-14.2-14
		C242.8,297,247.5,290.2,257,290.2"/>
	<polygon class="st0" points="304.3,290.7 304.3,317.6 299.9,317.6 299.9,298.8 291.4,311.5 288.8,311.5 280.3,298.7 280.3,317.6 
		275.9,317.6 275.9,290.7 279.9,290.7 290.1,306.1 300.3,290.7 	"/>
	<path class="st0" d="M320.7,294.7h-5.5v9.7h5.5c3.7,0,6.8-0.9,6.8-4.8C327.5,295.6,324.4,294.7,320.7,294.7 M320.4,290.7
		c6.4,0,11.5,2,11.5,8.8c0,6.8-5.1,8.8-11.5,8.8h-5.2v9.2h-4.4v-26.9H320.4z"/>
	<rect x="336.3" y="290.7" class="st0" width="4.4" height="26.9"/>
	<polygon class="st0" points="365.8,290.7 365.8,294.7 351.6,294.7 351.6,302 364.6,302 364.6,306 351.6,306 351.6,313.6 366,313.6 
		366,317.6 347.2,317.6 347.2,290.7 	"/>
	<path class="st0" d="M375.5,303.7h6.6c2.9,0,5.7-1,5.7-4.5c0-3.5-2.8-4.5-5.7-4.5h-6.6V303.7z M371.1,317.6v-26.9h10.8
		c5,0,10.3,2,10.3,8.4c0,4.8-3,7.1-6.5,8l8.6,10.5H389l-8.1-10.1h-5.5v10.1H371.1z"/>
	<path class="st0" d="M406.1,290.2c3.1,0,6.2,0.8,8.4,2v4.2c-2.2-1.5-5.2-2.3-8.1-2.2c-3.3,0-5.3,1-5.3,3.3
		c0,5.8,15.4,3.5,15.4,13.1c0,5.7-4.8,7.6-10.2,7.6c-3.6,0-6.9-0.8-9.5-2.3v-4.3c2.9,1.9,6.2,2.7,9.2,2.7c3.5,0,6-0.8,6-3.3
		c0-6.2-15.4-3.7-15.4-13.2C396.6,292.6,401,290.2,406.1,290.2"/>
</g>
</svg>
