<svg viewBox="0 0 478.7 266" xmlns="http://www.w3.org/2000/svg"><linearGradient id="a" gradientUnits="userSpaceOnUse" x1="299.523" x2="240.273" y1="259.171" y2="53.672"><stop offset=".486" stop-color="#fcfc05"/><stop offset="1" stop-color="#256f30"/></linearGradient><path d="M156.9 134.4c-.2-.2-.3-.4-.3-.7l-.1-.6-.4-.7c0-.1-.1-.2-.1-.3v-.2c0-.2-.1-.5-.3-.8s-.5-.7-.9-1.1l-.4-.1c-.1 0-.1-.1-.2-.1l-.4-.3-.4.2H152.8l-.9.4c-.7.2-.9.3-1 .4s-.2.1-.2.1l-.2.2c-.1 0-.2.1-.2.1s-.1 0-.2.1-.1.2-.2.2c0 .4-.2.6-.5.7l-.4.4c-.1.1-.2.1-.3.1-.2 0-.3 0-.3.1s0 .2-.1.4c0 .2-.1.4-.1.5 0 .2-.1.3-.2.4l-1 .8v.1c0 .4-.2.8-.8.9v.1c-.1.2-.1.3-.2.5 0 .1-.1.3-.1.5v.1l-.1.2c0 .1-.1.1-.1.1l-.5.6c.1.2.2.4.2.5s0 .3-.1.4l-1.1 2.1s0 .1-.1.1l.1.3c.1.2 0 .4 0 .5l-.7 1.5v.6l-.4.8.1.7c0 .2 0 .4-.2.6l-.3.3v.4l-.4 1.3v1.1c0 .2-.1.4-.2.5s-.2.1-.2.2c0 0 0 .1.1.2 0 .1.1.2 0 .4-.2 1.5-.2 2-.2 2.1s0 .2.1.2v.1l.4 1.1c.1 0 .2-.1.3-.1.2-.1.4-.1.7-.1.2 0 .4 0 .5.1 0-.1.1-.1.2-.3.1-.1.2-.2.4-.2s.2-.1.3-.1l.1-.1.1-.2.3-.3c.1-.1.1-.1.2-.1 0 0 .2-.1.5-.4.1-.1.2-.2.2-.3 0-.2.1-.3.2-.4l.3-.3c.1-.1.2-.1.3-.1s.2 0 .3-.1.2-.3.3-.4l.1-.1.2-.2.2-.3c.1-.2.3-.3.4-.3l.5-.5c0-.2 0-.5.1-.7.1-.6.4-.9 1-1 .1-.2.2-.4.4-.6.1-.1.2-.2.2-.4 0-.1.1-.3.2-.4l.6-.6.2-.6c0-.1.1-.1.1-.2l.3-.4c.1-.1.2-.2.3-.2s.2-.1.2-.1c.1-.1.1-.3.2-.6.2-.5.4-.9.9-1.3l.3-1.2c0-.1.1-.2.2-.3l.4-.3 1-2s0-.1.1-.1l.2-.2c0-.1-.1-.1-.1-.2-.1-.2-.1-.4 0-.6s.2-.3.4-.4c.5-.1.6-.2.6-.2s.1-.1.2-.8c0-.2.1-.4.3-.5v-.1c0-.1 0-.1.1-.2-.2-.2-.3-.2-.4-.3z" fill="none"/><path d="M166.3 119.3v-.5l-.3 1c.2-.1.3-.2.3-.5zm-1.2 3.8v-.2z" fill="#e30613"/><path d="M79.8 112.1c.3 0 .6-.1.7-.3l.3.1h.2c.2 0 .4-.1.6-.2l.3-.3 1.4-.6h2.2c.1 0 .2 0 .3-.1l2-.7c.1 0 .1-.1.2-.1l1.1-.7 1-.2h.1l1.4-.5c.1 0 .3-.1.4-.2l1-.1c.1 0 .3 0 .4-.1l1-.5c.2-.1.3-.2.4-.4.8-.1 1.4-.4 2.1-.9h.1c.8 0 1.2-.4 1.4-.7.2-.2.3-.5.4-.7 0-.1.1-.2.1-.3h.2c.2 0 .4-.1.6-.2.2-.2.3-.4.3-.7l.1-1.4.9-1.1c.1-.1.2-.3.2-.4l.5-3.1c0-.2 0-.4-.1-.6l-.6-1.2c-.1-.2-.2-.3-.4-.4l-.1-.1-.2-.7c0-.3-.2-.7-.8-1-.2-.1-.5-.3-.7-.4l-.2-.3c-.1 0-.3-.1-.5-.2l-.7-1c-.1-.1-.2-.3-.4-.3l-1.7-.8-1-.9c-.1-.1-.3-.2-.4-.2l-1.2-.3-.7-1-.1-.1c-.4-.4-.8-.6-1.2-.6-.4-.1-.6-.1-.6-.1-.1 0-.3-.1-.7-.4-.1-.1-.3-.1-.5-.2l-1.8-.1-.5-.8c-.2-.3-.5-.5-.8-.5h-.4c-.1-.1-.2-.1-.3-.1l-.1-.1c-.1 0-.2-.1-.3-.1-.2-.1-.3-.2-.5-.3v.1h-.1c-.1-.1-.3-.2-.4-.2-.8-.2-1.6-.4-2.3-.7s-1.4-.7-2.1-1.1c-.1 0-.1-.1-.2-.1l-2.9-1h-.3s-.2 0-.8-.4c-.5-.3-1-.6-1.5-1h-.1c-.1-.1-.3-.2-.8-.6-.2-.1-.3-.3-.4-.3 0-.1-.1-.1-.1-.2-.3-.4-.5-.8-.6-1.2s-.1-.7-.1-1 0-.6.1-.9c0-.2.1-.3.1-.4.3 0 .6-.2.7-.5l.5-.9.7-.4c.1-.1.3-.2.3-.3l.3-.6h.3c.2 0 .5-.1.7-.3l.7-.7 1.3-.5c.2-.1.3-.2.4-.3l.7-.9.3-.1c.1 0 .2-.1.3-.2l.7-.5 4.5-.5c.3 0 .5-.2.7-.4l.3-.4.9-.1c.2 0 .5-.2.6-.3h.9l.7-.1h.1c.1.1.3.1.4.1h.2l1-.3c.1 0 .2-.1.2-.1l.1-.1.5.1h.2c.2 0 .3 0 .5-.1.1 0 .2.1.3.1h.2l2.3-.5h2.6c.4.4.9.5 1.4.5.2 0 .5 0 .7-.1.3 0 .6.1 1 .1h.1v.1c-.3.3-.3.8-.1 1.1l.4.7.1.1 1.2 1.2c.2.2.4.3.7.3h.1l3-.3c.4 0 .8-.4.8-.8l1.2-.6c.3-.2.6-.5.5-.9l-.1-1.3.1-.1c.1-.2.2-.4.2-.6v-.1c0-.9-.5-1.6-1.3-1.8-.4-.1-.7-.2-1-.3 0-.1-.1-.2-.2-.2-.6-.5-1.1-.9-1.5-1.1s-.8-.3-1.1-.4h-1.8c-.7-.6-1.1-.9-1.6-.9h-1.9c-.5 0-.8.1-1.1.2s-.5.2-.7.3-.3.2-.5.3h-.3c-.4 0-.5-.1-.6-.2-.2-.2-.4-.3-.7-.3l-2.8.1h-.2l-4.6 1c-.5-.1-.7-.2-.9-.2-.5 0-1 .2-1.5.5l-1.1.1h-.2l-.4.1h-.8c-.4.1-.9.3-1.3.6-.4.2-.8.4-1.1.6-.9.4-1.1.4-1.1.4-.1-.1-.3-.1-.4-.1-.2 0-.5.1-.6.2l-.6.6h-.7c-.3 0-.6.2-.8.4 0 0-.1.2-.8.7-.5.4-1.1.8-1.7 1.2s-1.2.8-1.7 1.1c-.4.2-.6.3-.7.4-.4.1-.7.4-.8.8s-.1.8-.2 1.1c-.2.1-.4.3-.5.5l-.8 1.8c-.1.1-.1.3-.1.5-.5.3-.6.9-.6 1.1v3.2c0 .2 0 .3.1.5l.4.7c-.1.3-.1.6.1.9l.7 1.2.3.3 1.9 1.3 1.1 1.1c.1.1.2.1.2.2l2.3 1.2c.1.1.2.1.3.1l.2.2c.4.5.9.8 1.4.9l2.2.5.6.4c.2.1.3.1.5.1h.2l.8.4.3.4c.2.2.4.4.7.4l.7.1.5.6c.2.2.5.4.7.4h.6l1.4.3h.6l.6.5c.1.1.2.1.3.2l1.5.5.3.4c.1.2.3.3.5.3l2.2.7 1.3 1.3c.1.1.2.2.4.2l1.5.5.5.6c.3.4.6.7.8 1.1.2.3.3.7.4 1.2 0 .2 0 .4.1.6 0 .2 0 .4.1.6-.1.1-.1.2-.2.4 0 .1-.1.1-.1.2l-.2.4-.9.2c-.4.1-.7.5-.7.9 0 .3-.1.4-.2.5s-.3.2-.5.2c-.6 0-1.1.2-1.6.7 0 0-.1.1-.5.1H91c-.3 0-.5.1-.7.3l-.7.7-.4.1c-.2.1-.3.2-.5.3l-.3.3h-.6l-1.9.4c-.1 0-.2 0-.2.1l-1 .5-.8.1h-.2l-1.9.6c-.2.1-.3.2-.4.3-.2.2-.3.4-.4.4s-.2 0-.4-.1c-.4 0-.5-.1-.6-.1h-.5c-1 0-2.1.1-3.3.4h-.4c-.1 0-.3 0-.4-.1-.1 0-.1-.1-.2-.1-.2-.1-.7-.1-2.4-.1h-1.2c-.1 0-.2 0-.4.1l-1.3.5-5.3-.4h-.1.5c-.6 0-.8-.1-.9-.1s-.2-.1-.2-.1l-.3-.3c-.3-.3-.6-.4-.8-.4s-.3 0-.5.1l-.2-.2c-.1-.2-.3-.3-.5-.3l-1.6-.3-.8-1c-.1-.2-.3-.3-.5-.3l-2.2-.8-.8-.5c-.4-.4-.6-.8-.6-1.2v-.3c0-.1.1-.1.1-.1l1-1.2c.1-.1.2-.2.2-.4l.1-.4 1.5-1c.1-.1.3-.2.3-.4.1-.3.2-.6.2-1 0-1-.7-1.7-1.7-1.7-.5 0-1 .2-1.5.6l-1.1.5c-.1 0-.1.1-.2.1l-.8.6c-.1.1-.2.2-.3.4h.1l-.3.1c-.4.1-.7.5-.7.9v.7c0 .1 0 .3.1.4l.2.4-.5 1.2c-.1.3-.1.6.1.9l.2.3c.1.7.2 1.1.4 1.5.1.2.2.4.4.5l.6 1.2c.1.2.2.3.3.4l.8.5.9.8c.1.1.2.1.3.2l.6.2.6.9.1.1c.2.2.5.4.9.4.2 0 .4 0 .6-.1h.1c.1 0 .1.1.2.2.2.2.4.3.7.3.2.4.5.7.9.9.1.1.3.1.4.1h.3l.7-.2.3.3c.2.2.4.2.6.2h.1l.8-.1 1.7.7c.1 0 .2.1.3.1s.3 0 .4-.1l.2.1c.2.1.3.2.5.2h1.4l1.5-.3 1.3.2c.1.2.2.3.4.4s.3.1.5.1h.2c.3-.1.6-.2.8-.3.1-.1.3-.2.4-.3h.1c.3 0 .4 0 .5.1s.3.1.4.1h.6c.2.2.4.3.7.3h.2l.8-.1 1.7.3h.2c.1 0 .2 0 .3-.1l.4-.2.4.1c.1-.1.2-.1.2-.1zm40.9-3.5c.1 0 .3 0 .4-.1.1.1.2.1.4.1h1.1c.1 0 .2 0 .3-.1l.6-.3.7.1h.1c.1 0 .2 0 .3-.1l.1-.1.2.1c.1.1.2.1.3.1h.2l.7-.2c.1 0 .3-.1.4-.3 0 0 .1-.1.2-.1.2 0 .3.1.5.2.1.1.2.1.3.1s.3 0 .4-.1l.5-.4c.5 0 .9-.1 1.2-.4 0 0 .1 0 .2-.1h.1c.1 0 .2.1.3.1.3 0 .5-.1.7-.4h.2c.2 0 .4-.1.5-.3l.9-.1c.1 0 .2 0 .2-.1h.2c.2 0 .4-.1.5-.2l.4-.4.3-.1c.1 0 .2-.1.2-.1h.1c.1.1.2.1.3.1.2 0 .4-.1.5-.2l.7-.8 1.6-.4c.1 0 .2-.1.3-.2l1-1 .9-.3c.2-.1.3-.2.4-.3l.1-.2.5-.1c.2-.1.4-.2.5-.5l.1-.4 1-.3c.2-.1.4-.2.5-.5.1-.1.3-.2.4-.3l.1-.1.2-.1c.2-.1.4-.2.5-.4.3 0 .6-.3.7-.6.1-.2.1-.3.1-.4.1-.1.2-.1.4-.2h.1c.2-.1.5-.3.7-.5s.4-.5.4-.8c.2-.1.3-.4.3-.6.1-.1.2-.1.2-.2l.3-.2c.1-.1.2-.2.3-.4l.2-.5c.2 0 .4-.2.5-.4l.4-.7.4-.1c.3-.1.5-.4.5-.8v-.7l1.2-1.5c.1-.2.2-.4.2-.6v-.3c.2-.2.3-.4.3-.7v-.3c0-.6.1-1.3.3-2.1.2-.9.3-1.5.5-2 .1-.4 0-.8-.3-1.1l-.1-.9c0-.2-.1-.3-.2-.5l-.2-.2v-.2c0-.4-.1-.8-.2-1.1s-.2-.6-.4-.8c-.1-.2-.2-.4-.3-.4-.1-.1-.1-.2-.3-.4-.1-.2-.2-.4-.3-.5-.1-.3-.2-.5-.4-.8-.1-.2-.2-.3-.3-.5l-.2-.8c-.1-.4-.4-.7-.7-.7h-.4v-.1c0-.5-.3-.8-.6-1-.5-.6-.9-1.1-1.5-1.6-.4-.4-.8-.9-1.1-1.5-.1-.3-.4-.4-.6-.4h-.7c0-.1-.1-.1-.2-.2l-.6-.4c-.1-.1-.3-.1-.4-.1h-.3l-.4-.3c-.1-.1-.3-.2-.4-.2h-.2l-.9-.9c-.1-.1-.2-.2-.4-.2h-.2c-.1-.2-.2-.3-.4-.4l-1.5-.6h-.2l-.1-.2c-.2-.2-.3-.4-.5-.4 0 0-.1 0-.2-.1l-.1-.1c-.2-.1-.4-.1-.5-.1s-.3 0-.5.1c-.1-.4-.4-.6-.7-.6h-.1c-.2.1-.4.1-.4.1h-.4c-.7 0-1.1-.2-1.3-.3s-.3-.3-.5-.3c-.1 0-.1-.1-.2-.2l-.1-.1c-.3-.2-.8-.4-1.4-.6-.5-.1-.9-.2-1.3-.3-.4 0-.7-.1-1.1-.2h-.3l-.3.1-1.7-.4-.1-.2c-.1-.2-.4-.3-.6-.4h-.2c-.2.1-.5.2-.7.2s-.5.1-.8 0c-.6 0-1.3-.2-1.9-.4-.1 0-.2-.1-.2-.1h-.2l-.1-.1c-.1-.2-.3-.3-.6-.3h-.1c-.2 0-.5.2-.6.4v.1c-.1-.1-.3-.1-.4-.1h-.2c-.3 0-.5.1-.7.1h-.5c-.2 0-.4 0-.6-.1h-.1c-.3 0-.5.1-.7.4-.1.1-.1.2-.1.3h-.1c-.2.1-.4.3-.5.5s-.1.5 0 .7c-.2.2-.2.5-.2.8l.2.8-.1.4c0 .3.1.6.3.9l.4.4.3.7c.1.2.3.4.5.4h.1c.2 0 .4-.1.5-.2l.5-.6.9-.1c.2 0 .4-.1.5-.3l.1-.1c.2 0 .4 0 .5-.1h.8c.4 0 .7 0 1 .1.2 0 .4 0 .6.1l.1.4c-.1 0-.2.1-.3.1-.2.1-.4.3-.5.5s-.1.5 0 .8l.4.8-.2.7c-.1.2-.1.3-.1.5l.1.9-.3.3c-.1.1-.1.2-.2.3l-.1.2h-.1c-.3.1-.5.4-.5.8 0 .3-.1.8-.1 1.3l-.3 1.8c-.1.6-.2 1.1-.4 1.5-.1.3-.3.5-.4.7-.2.2-.3.4-.4.7v1.9c0 .1-.1.1-.1.2-.1.2-.4.5-.8.9-.3.3-.3.8-.1 1.2.1.2.2.3.2.4l-.1.1c-.1.1-.2.3-.5.8 0 .1-.1.1-.1.2l-.2.6-.3.1c-.2.1-.4.2-.5.4s-.1.5 0 .7l.2.7-.5.9c-.1.2-.1.4-.1.7l.1.4-.1.2c0 .1-.1.2-.1.3 0 0 0 .1-.1.2-.1.2-.3.5-.4.9l-.4 1c-.1.2-.2.4-.3.7 0 0 0 .1-.1.2v.1l-.7 2.4-.7 1c-.1.1-.1.2-.1.4l-.1.9c-.2.3-.5.7-.7 1.2-.2.3-.3.7-.4 1l-.1.1c-.1-.1-.3-.1-.4-.1-.7 0-1.2.4-1.5 1.1-.3.5-.4 1.1-.4 1.7 0 .4.1.9.3 1.4.1.3.2.5.3.7v.1c-.2.2-.3.5-.2.8-.1.2-.2.3-.2.5 0 .5.1 1 .4 1.4.2.3.4.5.6.7s.4.3.8.3c.3 0 .6-.1.8-.4h.6c.3 0 .5-.2.7-.4l.7-1.3.1.1c.1.2.4.4.6.4h.1c.4-.1 1.1-.1 1.9-.1.6 0 1.2.1 1.8.2.7.1.9.2.9.2.7-.4.8-.4.9-.4zm-1.5-4.4h-.1c-.1 0-.2 0-.3.1h-.1c-.1-.1-.3-.1-.4-.1-.3 0-.5-.1-.8-.1h-.4c-.4-.2-.5-.2-.6-.2h-.5l-.1-.4.1-.1.8-1.8c.1-.3.2-.6.2-1v-.2c0-.2.1-.4.1-.5.2-.1.4-.4.4-.7l.2-1.2.7-.6c.1-.1.2-.3.3-.5l.4-1.9.1-.1c.1-.1.2-.3.3-.5.1-.6.4-1.2.7-2 .3-.9.5-1.7.6-2.5v-.1c.2-.3.3-.5.4-.8.1-.1.2-.2.4-.3s.4-.3.4-.5c.1-.3.2-.7.3-1 .1-.4.1-.7.1-1v-.6l.3-.7.8-1c.2-.2.3-.6.2-.9l-.2-.7.1-.2.5-.5c.2-.2.3-.4.3-.7v-1c0-.2.1-.5.2-.8l.1-.2c0-.1 0-.2.1-.2.2-.1.4-.3.5-.7.1-.6.2-1.3.3-2.1.1-.6.2-1 .4-1.3.3-.4.4-.7.4-1v-.3l.1-.1c.1-.2.2-.4.2-.6v-.1c.2-.3.4-.7.6-1.2.1-.2.1-.3.1-.5l-.1-.4.3-.6c.1-.2.1-.3.1-.5V69c.2.1.4.2.6.2.3.1.7.1 1 .1h.2l.5-.2.3.2c.1.1.3.1.4.1h.4l.7.6c.1.1.3.1.4.1h.1l.9-.1.9.6c.1.1.2.1.4.1.8 0 1.6.2 2.5.5.8.3 1.6.7 2.2 1.3.1.1.2.1.3.2l.3.1c.5.5 1 1 1.6 1.4.5.3 1.1.7 1.6.9l.3.9c.1.2.3.4.5.5h.2c.1 0 .3 0 .4-.1l.3-.2c.2.2.4.3.6.5l1.2 1.2c.4.4.7.9 1 1.3s.3.5.3.5c0 .3.1.5.2.7l.3.3c.1.3.3.6.4.9.1.2.2.4.3.7v.1c.1.2.1.4.1.7s-.1.5-.2.7c-.2.3-.1.8.1 1l.1.1-.1.3c-.1.2-.1.5 0 .7v.1c0 .1-.1.1-.1.2l-.4 2c-.3.1-.4.4-.4.8 0 .2-.1.4-.2.6-.2.3-.5.6-.8.9s-.6.7-.9 1.1c-.2.3-.4.6-.6 1-.1.1-.3.2-.4.3l-.1.2c-.3.1-.5.3-.6.6l-.1.3c-.2 0-.5.2-.6.5-.1 0-.3 0-.4.1l-.5.3c-.2.1-.3.2-.3.4l-.1.3c-.3.1-.5.3-.6.6l-.1.3c-.7.2-1.3.5-1.8 1.1-.4.5-.9.9-1.5 1.1-.2.1-.4.4-.5.7v.1h-.4c-.2 0-.4 0-.6.1-.1.1-.3.1-.4.3h-.3c-.1 0-.2-.1-.3-.1h-.2c-.5.1-.9.4-1.3.7-.2.2-.4.4-.7.5l-.2-.1c-.1 0-.2-.1-.3-.1-.2 0-.5.1-.6.4l-.2.4h-.4c-.1 0-.2.1-.3.1 0 0-.2.1-1 .3-.7.2-1.5.4-2.3.7s-1.6.5-2.3.6c-.5.1-.8.2-1.2.3-.1-.2-.3-.3-.5-.3h-.1c-.2 0-.4.1-.6.3l-.3.4c-.1 0-.2-.1-.3-.1h-.1c-.3 0-.5.1-.8.1h-.7c-.4 0-.8 0-1.1-.1-.4.5-.8.4-1.3.3zm102.7 4.6l1.4-.5c.1 0 .3-.1.4-.2l1-.1c.1 0 .3 0 .4-.1l1-.5c.2-.1.3-.2.4-.4.8-.1 1.4-.4 2.1-.9h.1c.8 0 1.2-.4 1.4-.7.2-.2.3-.5.4-.7 0-.1.1-.2.1-.3h.2c.2 0 .4-.1.6-.2.2-.2.3-.4.3-.7l.1-1.4.9-1.1c.1-.1.2-.3.2-.4l.5-3.1c0-.2 0-.4-.1-.6l-.6-1.2c-.1-.2-.2-.3-.4-.4l-.1-.1-.2-.7c0-.3-.2-.7-.8-1-.2-.1-.5-.2-.7-.4l-.1-.1c-.1 0-.3-.1-.5-.2l-.7-1c-.1-.1-.2-.3-.4-.3l-1.7-.8-1-.9c-.1-.1-.3-.2-.4-.2l-1.2-.3-.7-.9-.1-.1c-.4-.4-.8-.6-1.2-.6-.4-.1-.6-.1-.6-.1-.1 0-.3-.1-.7-.4-.1-.1-.3-.1-.5-.2l-1.8-.1-.5-.7c-.2-.3-.5-.5-.8-.5h-.4c-.1-.1-.2-.1-.3-.1l-.1-.1c-.1 0-.2-.1-.3-.1-.2-.1-.3-.2-.5-.3l-.1-.1h-.1c-.1-.1-.3-.2-.4-.2-.8-.2-1.6-.4-2.3-.7s-1.4-.7-2.1-1.1c-.1 0-.1-.1-.2-.1l-2.9-1h-.3s-.2 0-.8-.4c-.5-.3-1-.6-1.5-1h-.1c-.1-.1-.3-.2-.8-.6-.2-.1-.3-.3-.4-.3 0-.1-.1-.1-.1-.2-.3-.4-.5-.8-.6-1.2s-.1-.7-.1-1 0-.6.1-.9c0-.2.1-.3.1-.4.3 0 .6-.2.7-.5l.5-.9.7-.4c.1-.1.3-.2.3-.3l.4-.8h.3c.3 0 .5-.1.7-.3l.7-.7 1.3-.5c.2-.1.3-.2.4-.3l.7-.9.3-.1c.1 0 .2-.1.3-.2l.7-.5 4.5-.5c.3 0 .5-.2.7-.4l.3-.4.9-.1c.2 0 .5-.2.6-.3h.9l.7-.1h.1c.1.1.3.1.4.1h.2l1-.3c.1 0 .2-.1.2-.1l.1-.1.5.1h.2c.2 0 .3 0 .5-.1.1 0 .2.1.3.1h.2l2.3-.5h2.6c.4.4.9.5 1.4.5.2 0 .5 0 .7-.1.3 0 .6.1 1 .1h.1v.1c-.3.3-.3.8-.1 1.1l.4.7.1.1 1.2 1.2c.2.2.4.3.7.3h.1l3-.3c.4 0 .8-.4.8-.8l1.2-.6c.3-.2.6-.5.5-.9l-.1-1.3.1-.1c.1-.2.2-.4.2-.6v-.1c0-.9-.5-1.6-1.3-1.8-.4-.1-.7-.2-1-.3 0-.1-.1-.2-.2-.2-.6-.5-1.1-.9-1.5-1.1s-.8-.3-1.1-.4H233c-.7-.6-1.1-.9-1.6-.9h-1.9c-.5 0-.8.1-1.1.2s-.5.2-.7.3-.3.2-.5.3h-.3c-.4 0-.5-.1-.6-.2-.2-.2-.4-.3-.7-.3l-2.8.1h-.2l-4.6 1c-.5-.1-.7-.2-.9-.2-.5 0-1 .2-1.5.5l-1.1.1h-.2l-.4.1h-.8c-.4.1-.9.3-1.3.6-.4.2-.8.4-1.1.6-.9.4-1.1.4-1.1.4-.1-.1-.3-.1-.4-.1-.2 0-.5.1-.6.2l-.6.6h-.7c-.3 0-.6.2-.8.4 0 0-.1.2-.8.7-.5.4-1.1.8-1.7 1.2s-1.2.8-1.7 1.1c-.4.2-.6.3-.7.4-.4.1-.7.4-.8.8s-.1.8-.2 1.1c-.2.1-.4.3-.5.5l-.8 1.8c-.1.1-.1.3-.1.5-.5.3-.6.9-.6 1.1v3.2c0 .2 0 .3.1.5l.4.7c-.1.3-.1.6.1.9l.7 1.2.3.3 1.9 1.3 1.1 1.1c.1.1.2.1.2.2l2.3 1.2c.1.1.2.1.3.1l.2.2c.4.5.9.8 1.4.9l2.2.5.6.4c.2.1.3.1.5.1h.2l.8.4.3.4c.2.2.4.4.7.4l.7.1.5.6c.2.2.5.4.7.4h.6l1.4.3h.6l.6.5c.1.1.2.1.3.2l1.5.5.3.4c.1.2.3.3.5.3l2.2.7 1.3 1.3c.1.1.2.2.4.2l1.5.5.5.6c.3.4.6.7.8 1.1.2.3.3.7.4 1.2 0 .2 0 .4.1.6 0 .2 0 .4.1.6-.1.1-.1.2-.2.4 0 .1-.1.1-.1.2l-.2.4-.9.2c-.4.1-.7.5-.7.9 0 .3-.1.4-.2.5s-.3.2-.5.2c-.6 0-1.1.2-1.6.7 0 0-.1.1-.5.1-.3 0-.5.1-.7.3l-.7.7-.4.1c-.2.1-.3.2-.5.3l-.3.3h-.6l-1.9.4c-.1 0-.2 0-.2.1l-1 .5-.8.1h-.2l-1.9.6c-.2.1-.3.2-.4.3-.2.2-.3.4-.4.4s-.2 0-.4-.1c-.4 0-.5-.1-.6-.1h-.5c-1 0-2.1.1-3.3.4h-.4c-.1 0-.3 0-.4-.1-.1 0-.1-.1-.2-.1-.2-.1-.7-.1-2.4-.1h-1.2c-.1 0-.2 0-.4.1l-1.3.5-5.3-.4h-.3c-.6 0-.8-.1-.9-.1s-.2-.1-.2-.1l-.3-.3c-.3-.3-.6-.4-.8-.4s-.3 0-.5.1l-.2-.2c-.1-.2-.3-.3-.5-.3l-1.6-.3-.8-1c-.1-.2-.3-.3-.5-.3l-2.2-.8-.8-.5c-.4-.4-.6-.8-.6-1.2v-.3c0-.1.1-.1.1-.1l1-1.2c.1-.1.2-.2.2-.4l.1-.4 1.5-1c.1-.1.3-.2.3-.4.1-.3.2-.6.2-1 0-1-.7-1.7-1.7-1.7-.5 0-1 .2-1.5.6l-1.1.5c-.1 0-.1.1-.2.1l-.8.6c-.1.1-.2.2-.3.4l-.1.2-.3.1c-.4.1-.7.5-.7.9v.7c0 .1 0 .3.1.4l.2.4-.5 1.2c-.1.3-.1.6.1.9l.2.3c.1.7.2 1.1.4 1.5.1.2.2.4.4.6l.6 1.2c.1.2.2.3.3.4l.8.5.9.8c.1.1.2.1.3.2l.6.2.6.9.1.1c.2.2.5.4.9.4.2 0 .4 0 .6-.1h.1c.1 0 .1.1.2.2.2.2.4.3.7.3.2.4.5.7.9.9.1.1.3.1.4.1h.3l.7-.2.3.3c.2.2.4.2.6.2h.1l.8-.1 1.7.7c.1 0 .2.1.3.1s.3 0 .4-.1l.2.1c.2.1.3.2.5.2h1.4l1.5-.3 1.3.2c.1.2.2.3.4.4s.3.1.5.1h.2c.3-.1.6-.2.8-.3.1-.1.3-.2.4-.3h.1c.3 0 .4 0 .5.1s.3.1.4.1h.6c.2.2.4.3.7.3h.2l.8-.1 1.7.3h.2c.1 0 .2 0 .3-.1l.4-.2.4.1h.2c.3 0 .5-.1.7-.3l.3.1h.2c.2 0 .4-.1.6-.2l.3-.3 1.4-.6h2.2c.1 0 .2 0 .3-.1l2-.7c.1 0 .1-.1.2-.1l1.1-.7 1.7-.6zm-105.1 28.9c-.2-.1-.4-.1-.7-.1-.4 0-.6.1-.7.2h-.3c-.2 0-.4.1-.5.3l-.6-.3c-.1 0-.2-.1-.3-.1-.2 0-.4.1-.5.3l-.1.2h-.5c-.1 0-.3 0-.4.1l-.6-.2v-.4c.1-.1.2-.2.2-.4.1-.3.1-.5.2-.6v-1.5l-.1-.3c.1-.2.1-.4.2-.5l.2-.4v-.1c.1-.2.1-.4.1-.6v-.1l.3-1.7v-1.8l.5-3.1.2-.3c.1-.2.1-.5 0-.7-.1-.1-.1-.1-.1-.2.1-.2.2-.4.3-.5v-.3l-.1-.3.1-.3c.1-.2 0-.3 0-.5l-.1-.2-.1-.8c0-.3-.3-.5-.6-.6-.2-.4-.7-.6-1.1-.6-.5 0-.7.2-.9.4l-.1.1c-.1.1-.2.1-.2.2l-.2.3c-.1.1-.1.3-.1.5-.3 0-.5.1-.7.2-.1.1-.3.3-.4.6l-.3.2c-.1.1-.2.3-.3.4-.1 0-.2.1-.3.2l-.3.3-.4.2c-.2.1-.3.3-.3.4v.1c-.6.5-.8.7-.9.9s-.2.4-.2.6l-.6.6c-.3.2-.5.4-.8.5-.2.1-.3.2-.3.4l-.2.7-1.4 1.4c-.1.1-.1.2-.2.2-.1.3-.1.5-.2.7 0 .1-.1.2-.1.2l-.1.1c-.1.2-.1.3-.2.4l-.1.1h-.1c-.2 0-.4.1-.7.2-.2.1-.3.2-.4.4-.1.3-.1.5-.2.7l-.1.1c-.6.4-1 .8-1.2 1.2-.1.2-.2.4-.2.6-.1 0-.2.1-.3.1-.2.1-.6.4-.6 1-.1.1-.2.2-.3.2l-.1.1-.1.1c-.1.1-.2.1-.3.2l-.3.3h-.1c-.2 0-.6.1-1.2.1s-1.4 0-2.4.1c-.1 0-.2 0-.3.1-.5.3-.9.7-.9 1.2v.1c0 .4.3.7.6.8l.3.4c.1.1.2.2.4.2l1.2.1v.1l-.8 1h-.1c-.3 0-.5.2-.6.4v.1c-.1.1-.3.2-.3.4 0 .1-.1.2-.1.2s-.2.1-.6.2c-.3 0-.4.3-.5.5 0 .2-.1.4-.1.5 0 0-.1 0-.1.1-.1 0-.2.1-.3.2l-.2.4-.7.3c-.2.1-.3.2-.3.3l-.2.4h-.1c-.2 0-.3.2-.4.3l-.7 1.5-.9.4c-.1.1-.3.2-.3.4l-.3.8-.8.5-.1.1-.5.6-.9.9c-.1 0-.2.1-.2.1-.1.1-.1.2-.3.5l-.1.1c0 .1-.1.2-.2.3l-1 .6c-.2.1-.3.3-.3.5v.5c0 .1 0 .1-.1.1-.2 0-.4.1-.5.3-.1 0-.2.1-.3.2l-.7.7-.5.1-.2-.1h-.2c-.1 0-.2 0-.3.1-.2.1-.3.3-.3.5v.9c0 .2.1.4.3.5.5.3.9.5 1.3.5.1 0 .2 0 .3-.1h.1c.2-.1.5-.2.7-.3.1 0 .3-.1.5-.2s.3-.2.3-.4v-.2c.1-.1.2-.1.2-.2h.1c.2 0 .4-.1.5-.3l.4-.7.8-.6c.1-.1.2-.1.2-.2l.3-.5 1-.7.2-.2.2-.4.5-.4h.1c.2 0 .3-.2.4-.3l.3-.6 1.1-.6c.1-.1.2-.1.3-.3l.3-.6.7-.8.4-.1c.2-.1.3-.2.4-.3l.3-.6.4-.3c.1 0 .1-.1.1-.1l.3-.4.5-.4.1-.1.7-1 .3-.1c.1-.1.3-.2.3-.3l.5-.9.8-.4c.2-.1.3-.3.3-.5v-.1c.1 0 .1-.1.2-.1l1.4-1.1.7-.2c.1 0 .2-.1.2-.1h.3c.2 0 .5-.1.9-.3h2.1l.5.2h.9c.2 0 .4-.1.7-.2.1 0 .1-.1.2-.1l.7.1h.1l1.5-.1.1.2c.1.1.2.3.4.3h.2c.1 0 .2 0 .3-.1l.6-.4h.2c-.1.2-.1.4 0 .6v.1c0 .1 0 .1-.1.2-.1.2-.1.3-.1.5l-.1 2.1v.3l-.1.4c-.1.2 0 .4.1.5l.1.1v.3l-.3.3c-.1.1-.2.3-.2.4 0 .2 0 .3.1.5l.1.1-.1.4v.4l.4.8-.1 1.6v.3l.4 1.1v.9c0 .1.1.3.1.4-.1.2-.1.3 0 .5l.3.7c.1.2.2.3.4.4l.3.1.9 1c.1.1.3.2.5.2.1 0 .2 0 .3-.1l.7-.5c.1-.1.2-.3.3-.4 0-.2 0-.4-.2-.5l-.2-.2c.1-.3 0-.6-.2-.8 0-.2-.1-.4-.2-.5l-.1-.1c-.1-.4-.1-.7-.2-.9-.1-.3-.2-.5-.3-.8-.1-.2-.1-.4-.2-.5-.1-.2-.1-.3-.2-.4l.1-.1c.1-.1.1-.2.1-.4v-.5c0-.8 0-1.2-.1-1.3 0-.2 0-.3-.1-.4l-.1-.1.4-1.4v-.4c-.1-.4-.2-.6-.2-.7 0 0 0-.2.1-.5V144c.1-.1.2-.2.3-.4.1-.1.1-.2.1-.3l.2-2h.1l2.2-.6c.1 0 .2-.1.3-.2l1.4.1c.1 0 .3 0 .4-.1l.4-.3h.1c.1 0 .2.1.3.1s.2.1.3.1c.7 0 1.2-.5 1.2-1.2 0-.5-.1-.9-.4-1.1-.5-.3-.5-.3-.6-.4zm-7.4-7.6l-.1.3c0 .1-.1.2 0 .3l.1.7-.2.4c-.1.1-.1.3 0 .4l.1.5-.2.7v.7l-.3.5c-.1.1-.1.3 0 .4l.1.3-.3.4c-.2.2-.2.4-.1.6.1.3.2.5.2.6l-.1.1c-.2.2-.2.5-.1.8v.3h-.3c-.2 0-.3.1-.4.2l-.1.1-2.4.2-.2-.2c-.4-.3-.7-.4-1.1-.4-.1 0-.3 0-.7.1-.1 0-.3.1-.8.2-.1 0-.3 0-.8.1-.5 0-.9-.1-1.3-.2 0-.1.1-.3.3-.6l.8-.6.7-.2c.2 0 .3-.2.4-.3l.3-.6.3-.1c.1 0 .2-.1.3-.2l.4-.5.7-.5c.2-.1.3-.3.3-.5v-.2h.2c.2-.1.3-.2.4-.4 0-.2.1-.3.1-.3.1 0 .1 0 .3-.1.3-.1.5-.3.5-.6 0-.2 0-.3.1-.3l.4-.4.1-.1c.1 0 .2-.1.2-.2s.1-.1.1-.2l.2-.6.5-.3c.1 0 .2-.1.2-.2l.5-.7c.1-.1.1-.2.1-.3l.5-.2c.1-.1.3-.2.3-.3l.1-.2.1.1zm29.8 7.1c.1 0 .2.1.4.1.3 0 .6-.2.9-.5l.3-.3c.2-.2.3-.4.3-.8 0-.2.1-.3.1-.3v-.1c.1-.2.1-.4 0-.6l-.2-.3.1-.2v-.3l-.1-.7c0-.1 0-.2-.1-.3l-.3-.5-.3-.7c0-.1-.1-.2-.2-.3l-.5-.3c-.3-.3-.6-.5-.9-.6s-.5-.1-.7-.1-.4 0-.8.1l-1.8.4h-.1l-.7.3-.6.1c-.2 0-.4.2-.4.4l-.2.2c-.1.1-.1.1-.2.1h-.3l-.6.2c-.2.1-.3.3-.4.5v.1c-.1.1-.3.2-.4.3-.1.2-.2.2-.3.3l-.1.1c-.2.1-.3.2-.4.4s-.1.3-.1.3l-.2.2c-.4.1-.6.3-.8.5-.1.1-.2.3-.2.5-.2 0-.4.2-.4.3l-.2.3-.4.4-.4.4c-.1.1-.2.2-.3.4-.1 0-.2.1-.3.2l-.6.8c-.1 0-.2.1-.3.1-.3.2-.4.4-.5.6l-.3.6c0 .1 0 .2-.1.3v.1l-.2.1c-.2.1-.4.3-.4.6v.2l-.3.3v-.1l.2-.2c.1-.1.1-.2.2-.3l.1-.9c.1-.1.2-.2.2-.4l.4-2.7.4-.6c0-.1.1-.1.1-.2l.2-.8v-.5c0-.6-.1-1.1-.2-1.5-.1-.3-.2-.6-.4-.8l-.3-1.2c0-.1-.1-.2-.2-.3l-.7-.5c-.1-.1-.2-.1-.3-.1s-.3.1-.4.2c-.2.2-.3.4-.4.6 0 .1-.1.1-.1.1l-.1.1c-.2.2-.2.4-.3.6v1.3c0 .2 0 .4.2.6l.1.1-.1.6v.5l-.1.1c-.1.1-.1.3-.1.5l.1 1.2-.4 1.9-.3.8c-.1.2-.1.4 0 .6v.1c0 .1-.1.1-.1.2-.1.1-.1.2-.1.3l-.4 2.3-.4 1.3v.1l-.4 2-.3.3c-.1.2-.1.5-.2.7 0 .2-.1.5-.1.9l-.2.2c-.1.1-.1.1-.1.2l-.3.9v.1l-.2 1.2-.4 1.3c-.3.1-.5.4-.5.8v.8c-.1.1-.3.2-.3.4l-.2.6-.2.2c-.2.2-.3.6-.1.9.3.5.7.8 1 1.2.4.4.8.6 1.1.6s.5-.1.7-.3c0 0 .1-.1.1-.2l.1-.3.4-.2c.1-.1.2-.2.3-.4v-.6s0-.1.1-.1l.2-.2c.1-.1.2-.3.2-.4v-.8c.1-.1.2-.4.2-.6l-.1-.5c.2-.1.3-.3.3-.5v-.3h.1c.2-.1.3-.2.3-.4l.2-.8.5-.5c.1-.1.1-.1.1-.2l.4-1.2.4-.4.1-.1.6-1.2c0-.1.1-.2.1-.2 0-.2.1-.4.1-.6.1-.2.1-.3.1-.3l.8-.8c.1-.1.2-.3.2-.4v-.2c.2-.1.3-.2.3-.4l.1-.6.2-.2c.2-.1.3-.3.3-.5h.1c.2-.1.3-.2.3-.4l.1-.5c.1-.1.3-.3.4-.5.2-.3.4-.5.5-.8.2-.1.4-.2.4-.5l.1-.5.3-.2c.1 0 .1-.1.2-.2l.1-.1h.2c.1-.1.3-.2.3-.3l.4-.9.6-.2c.1 0 .2-.1.2-.2l.7-.8.7-1 .8-.3c.1 0 .1-.1.2-.1l.5-.5 1-.7 1.1-.2.6.1.4.3c.1.1.2.1.2.1.1 0 .2.1.2.1.1.1.1.2.1.3l.1.6-.1.4c-.1.2-.2.4-.2.5 0 .2 0 .4.3.7.2.3.5.4.8.4zm32.7-30.9l1.3-3.5c.1-.3.2-.6.2-1l.1-.7.1-.1c.4-.2.8-.9.9-1.8l.1-1 .5-.9.3-.9 1.1-5 1.2-3.8c0-.1.1-.2.1-.3l.6-2.7.6-1.4c.1-.2.1-.4.2-.6l.5-2.1 2.6-8.1c0-.2.1-.3.1-.5l.8-4.1v-.2s0-.2.2-.7c.3-.8.5-1.7.6-2.6.2-1.6.1-2.6-.2-3.2v-.9c0-.5-.1-1-.3-1.3l-1.6-2.2c-.1-.2-.2-.3-.4-.3l-1.1-.2c-.4-.1-.9.5-1.1 1.3l-1.2 4.1c-.1.3-.1.5-.2.8l-.5 5.2-.3.8c-.1.4-.2.8-.2 1.2v.3l-.4 1.1c-.2.5-.3 1-.2 1.5-.3.4-.5 1-.6 1.6l-.3 2.8-.9 2c-.1.3-.2.7-.3 1.1l-.3 2.5c-.8 1.3-1.2 2.4-1.4 3.5-.1.5-.2 1.1-.4 1.9-.1.1-.2.4-.5.8-.4.6-.7 1.6-.6 2.5l.1.7c-.2.3-.3.8-.4 1.2l-.6 1.1c-.2.3-.4.8-.4 1.3l-.2 1.7-.7 1.5c-.2.3-.3.8-.3 1.2l-.2 2.2-.7 1.5c-.2.4-.3.8-.3 1.2l-.3 2.2c0 .2-.1.2-.1.2-.3.5-.6 1-.8 1.6-.2.4-.4.8-.5 1.2-.2.6-.4 1.3-.5 2 0 .2 0 .4-.1.5l-1.4 4.1c-.3.8-.5 1.6-.6 2.4 0 .3-.1.5-.1.7-.1.5-.2.8-.3 1.2l-.1.1-.6.5c-.4.3-.7 1-.8 1.7-.1.8 0 1.5.3 1.9v.2c-.6.8-1.1 2.1-1.5 3.2-.1.2-.1.5-.2.7-.1.9-.3 1.5-.3 1.9l-.3-.6c0-.1-.1-.1-.2-.2l-.3-.3c-.1-.3-.1-.5-.3-.7l-.1-.1-.1-.1c-.1-.2-.3-.3-.5-.4-.1-.1-.3-.2-.5-.2-.1-.1-.2-.2-.3-.2-.2 0-.3-.1-.4 0h-.1c-.2-.1-.4-.1-.6-.2-.3-.1-.6-.3-1.1-.5h-.2c-.1 0-.1 0-.2.1l-.6.4-1.4.2c-.1 0-.1 0-.2.1l-2.1 1.2c-.1.1-.2.2-.3.4-.1.3-.2.5-.2.6-.1 0-.2.1-.6.1-.2 0-.4.2-.4.4l-.1.1-.1.1-.1.1c-.1.1-.3.2-.4.4l-.1.1-.4.9-.3.6-.2.2-.2.3-.2.2c-.1.1-.2.2-.5.3-.2.1-.3.2-.3.4l-.2 1.2-.4.4c-.1.1-.1.2-.2.3v.7c0 .2-.1.4-.1.5 0 0-.1.1-.2.3-.1.1-.1.2-.2.3l-.2 1.2c-.4.3-.6.6-.7.8s-.2.5-.2.8l-.1.1-.1.1c-.1.1-.1.3-.1.5l.1.8c-.2.4-.3.8-.4 1.2v.5l-.3.6c0 .1-.1.2-.1.3l-.1 1.1-.1.2-.2.2c-.1.1-.1.2-.1.3v.1l-.3.5c0 .1-.1.2-.1.2-.1.8-.2 1.4-.1 1.8v.8c0 .2 0 .3-.1.3l-.2.5v.4l.2.7-.1.4c0 .1 0 .3.1.4l.1.3c-.1.4-.2.7-.2 1v.1c0 .1 0 .2.1.3.1.2.2.3.2.3l.7 1.5c.1.1.2.3.3.3l.3.1.4.6c.1.2.3.2.4.2h.7c.2.2.5.3.8.3.2 0 .6-.1.9-.7.1 0 .2-.1.5-.1.1 0 .3-.1.4-.2.2 0 .3 0 .4-.1.2-.1.4-.2.7-.3.1-.1.2-.2.2-.3l.2-.6h.1c.1 0 .2-.1.3-.2l.1-.2c.1 0 .2-.1.3-.1.2-.2.3-.4.4-.7.1-.2.2-.4.5-.5.3-.2.6-.4.7-.5.2-.1.3-.3.3-.5l.4-.2c.2-.1.3-.2.3-.4l.1-.3c.1-.1.3-.2.3-.3.1-.2.2-.4.2-.7l.1-.1c.1-.1.2-.2.3-.2.1-.1.2-.2.2-.4l.1-.5.3-.1c.1 0 .2-.1.3-.2l.3-.5.3-.3c.1-.1.2-.3.2-.4v-.4h.2c.3 0 .5-.3.5-.6l.3-.2c.1-.1.1-.2.2-.3l.2-.8.1-.1c.1-.1.2-.2.2-.4l.1-.5.5-.4c.1-.1.2-.2.2-.3s.1-.3.2-.4v-.1c0 .7 0 1.5-.1 2.4v.6c0 1.4-.1 3.3-.1 5.5 0 .7.1 1.2.4 1.5l.5.4.3 1.6c.1.6.3.9.6.9.1 0 .2 0 .3-.1.4-.2 1.1-.8 1.7-2.4.2-.6.4-1.3.5-2.1l.1-.8v-.4c0-.3 0-.6-.1-.9l-.3-1 .6-2.1c.3-1 .1-2-.3-2.4l-.1-.1.2-1.4.9-3.6 1.6-5.4v-.2l1.1-4.4v-.2l.5-2.7.5-.8c.2-.3.3-.8.4-1.3l.1-.4v-.2l.8-3 .3-1 .4-1.6 1-1.8c0-.1.1-.2.1-.3l.6-1.4.4-.4.1-.1c.2-.3.5-.9.7-1.9.1-.7.1-1.4 0-2.2l.1-.1c.5-.3.9-1.2.9-2.1l.3-2zm-15 32.6l-1.1 2.1-.4.3c-.1.1-.1.2-.2.3l-.3 1.2c-.4.4-.7.8-.9 1.3-.1.3-.2.4-.2.6 0 0-.1 0-.2.1-.1 0-.2.1-.3.2l-.3.4c-.1.1-.1.1-.1.2l-.2.6-.6.6c-.1.1-.2.2-.2.4s-.1.3-.2.4c-.2.2-.3.4-.4.6-.5.1-.9.4-1 1 0 .2-.1.5-.1.7l-.5.5c-.2.1-.3.2-.4.3l-.2.3-.2.2.1-.2c-.1.2-.2.3-.3.4s-.1.1-.3.1c-.1 0-.2.1-.3.1l-.3.3c-.1.1-.2.3-.2.4 0 0-.1.1-.2.3-.4.3-.5.4-.5.4-.1 0-.1.1-.2.1l-.3.3-.1.2-.1.1c0 .1-.1.1-.3.1s-.3.1-.4.2-.2.2-.2.3c-.1-.1-.3-.1-.5-.1-.3 0-.5.1-.7.1-.1.1-.2.1-.3.1l-.4-1.1v-.1c0-.1-.1-.1-.1-.2s0-.5.2-2.1v-.4c0-.1-.1-.2-.1-.2.1 0 .1-.1.2-.2s.2-.3.2-.5v-1.1l.4-1.3v-.4l.3-.3c.1-.1.2-.3.2-.6l-.1-.7.4-.8c.1-.1.1-.3 0-.4v-.2l.7-1.5c.1-.2.1-.3 0-.5l-.1-.3.1-.1 1.1-2.1c.1-.1.1-.2.1-.4s-.1-.3-.2-.5l.5-.6.1-.1.1-.2v-.1c.1-.2.1-.3.1-.5s.1-.3.2-.5v-.1c.5-.1.8-.6.8-.9v-.1l1-.8c.1-.1.2-.3.2-.4 0-.2 0-.3.1-.5 0-.1.1-.2.1-.4.1 0 .2 0 .3-.1.1 0 .2-.1.3-.1l.4-.4c.3-.1.5-.4.5-.7l.2-.2c.1-.1.1-.1.2-.1s.2 0 .2-.1c.1-.1.2-.1.2-.2l.2-.1c.1 0 .3-.1 1-.4l.9-.4h.6l.4-.2.4.3c.1 0 .1.1.2.1l.4.1c.4.4.7.8.9 1.1s.3.5.3.8v.2c0 .1 0 .2.1.3l.4.7.1.6c0 .3.1.5.3.7.1.1.3.2.4.1 0 .1 0 .1-.1.2v.1c-.1.1-.2.3-.3.5-.1.6-.2.8-.2.8s-.1.1-.6.2c-.2 0-.3.2-.4.4s-.1.4 0 .6c.1.1.1.2.1.2-.3.6-.3.6-.4.7zm31.5-9.7c-.1-.1-.2-.2-.4-.3-.1-.1-.2-.1-.3-.2-.1-.2-.2-.3-.4-.3l-.7-.1h-.2l-.5.1-.1.1c-.1.1-.2.1-.4.2s-.4.1-.6.2l-.4.2c-.3.1-.6.2-.8.4-.2.1-.4.3-.6.4-.1 0-.1.1-.2.2-.2.3-.4.4-.7.5-.1 0-.3.1-.5.3-.1.1-.2.3-.3.5-.1 0-.3.1-.7.2-.2 0-.3.2-.4.4l-.2.6-.6.2c-.1 0-.2.1-.2.2l-2 2.5-.1.1-.3.8-.3.3c-.1.1-.1.2-.1.3-.1.2-.1.3-.1.4h-.2c-.2 0-.3.1-.4.3-.1.1-.1.3-.1.5v.3h-.2c-.2-.3-.5-.4-.6-.4-.2 0-.3 0-.4.1l-.7.2c-.3.1-.5.4-.4.7.1.5.1.9.2 1.2.1.2.2.5.3.9v.3c-.1.1-.2.3-.2.4v.1l-.1.1c-.2.1-.4.3-.4.6 0 .4 0 .6-.1.7l-.3.3c-.1.1-.2.2-.3.4-.1.3-.2.6-.2.9-.1.2-.2.4-.4.6-.1.1-.2.2-.2.4l-.1 1-.4 1.1v.1l-.2 1.2c0 .2 0 .3.1.5l.2.4-.1.4v.3l.2 1.1v.1c0 .2 0 .5.1.8.1.2.1.3.2.5s.2.4.5.7l1.1 1.3.1.1 1.4 1.2c.1.1.2.1.3.1h.6c.1 0 .2-.1.2-.1l.1.1.1.1c.1 0 .2.1.2.1.1 0 .2 0 .3-.1l.2-.1.3.1h.3l.4-.2h1.1c.2 0 .4-.1.5-.3l.1-.1c.2 0 .4-.1.6-.2h.4c.2 0 .4-.1.5-.3l.1-.2.6-.2c.1 0 .1-.1.2-.1l.4-.4c.1-.1.2-.3.2-.4l.1-.1h.5c.2 0 .4-.1.5-.4l.2-.5h.1c.3 0 .5-.2.7-.4 0 0 .1-.1.1-.2l.1-.1h.2c.4 0 .8-.3 1.4-1.4.1 0 .2-.1.3-.2h.1c.1 0 .2 0 .3-.1.2-.1.2-.3.3-.5l.1-.1h.1c.2 0 .4-.1.5-.3l.3-.6c.1-.2.1-.4.1-.5v-.1c.1-.1.1-.3.1-.5s-.1-.3-.2-.4l-.2-.2c-.1-.1-.2-.1-.3-.1h-.4c-.2 0-.4.1-.5.3v.1c-.2.1-.3.2-.4.4l-.1.2-.2-.1h-.1c-.2 0-.3.1-.4.2l-.3.3-.4.2c-.1.1-.3.2-.3.3s-.1.2-.2.3h-.1c-.3.1-.6.2-.8.4l-.1.1-.1.1c-.1.1-.2.1-.2.1-.2 0-.3.2-.4.3l-.1.2c-.1.1-.2.1-.4.1h-.5c-.1 0-.1 0-.2.1-.2 0-.3.1-.4.2l-.3.4h-.3c-.2 0-.3.1-.5.2-.3 0-.6.1-.8.2s-.3.2-.5.3-.3.2-.5.2h-.3c-.1 0-.2-.1-.3-.1-.2 0-.4.1-.5.3h-.5c-.1 0-.3-.1-.4-.1h-.1c-.5 0-.8-.1-.9-.1-.1-.1-.4-.2-.9-.6-.1-.1-.2-.1-.3-.1h-.2v-.1l.1-.2c.1-.3 0-.6-.2-.7s-.2-.2-.2-.2V150.4c0-.1 0-.3-.1-.4l.2-1.3.2-.8.2-.2c.2-.1.4-.3.4-.7v-.6c0-.2.1-.4.2-.7v-.1l.2-.7.2-.2c.1-.1.2-.2.2-.4v-.2l.3-.2.7.3h.2l1.4-.1c.1 0 .3-.1.4-.2l.6.2h.2c.1 0 .2 0 .3-.1l.4-.2.4-.1c.2-.1.3-.2.4-.4l1.1-.3c.1 0 .2-.1.3-.2.2-.2.3-.4.3-.5.1 0 .2-.1.3-.2.2 0 .4-.1.6-.3l.1-.1.5-.4.1-.1.2-.4.3-.1.2-.1.6-.5.1-.1.4-.5c.3-.2.4-.3.5-.5.1-.1.3-.3.5-.6.1-.1.1-.2.1-.3 0-.2.1-.3.1-.3s0-.1.2-.2c.2-.2.4-.4.5-.6.2-.2.4-.5.5-.9 0-.2.1-.4.1-.5s0-.2.1-.4c0-.1.1-.2 0-.3l-.1-.7c.1-.1.2-.4.2-.6l-.1-.6.2-.2c.2-.2.2-.5.2-.7-.1-.2-.1-.3-.1-.3v-.7c.1-.2.1-.4.1-.7v-.7c.1-.1 0-.2-.3-.5zm-1.9 3.3l-.3.5c0 .1-.1.1-.1.2l-.2 1.2c-.2.4-.4.7-.5 1s-.1.5-.2.7l-.1.1c-.2.2-.3.4-.5.6-.1.1-.2.3-.4.4-.3.2-.4.4-.5.7l-1.1 1h-.3c-.3 0-.5.2-.6.6l-.3.3s-.1.1-.1.2l-.5.1c-.2 0-.3.2-.4.3l-.1.3-1.1.4H178c-.2.1-.5.2-.7.2 0-.1 0-.1-.1-.2 0-.2-.1-.4-.1-.5l.1-.1c.2-.2.3-.4.5-.7l.3-.1c.2-.1.3-.2.4-.4l.1-.4.2-.3c.1-.2.1-.4.1-.6l.3-.1c.2-.1.3-.2.4-.4l.1-.3c.2-.1.3-.2.4-.4.1-.3.3-.6.5-.8.3-.3.5-.3.5-.3.1 0 .3 0 .4-.1l.8-.8c.3-.3.5-.7.7-1l.1-.1.1-.1c.2 0 .3-.1.5-.1.1 0 .2-.1.3-.1l.2-.1c.1 0 .2 0 .3-.1.2 0 .4-.3.5-.5.1 0 .2-.1.4-.2s.5-.3.8-.5h.1zm31.7 15.7l-.8-.1c-.2 0-.3.1-.4.2l-.5.7-.4.4c-.1 0-.2.1-.3.2l-.7.8-.4.1c-.2 0-.3.2-.4.4l-.2.5-1 .8-.2.2c-.1 0-.1.1-.2.1l-.1.2-.5.1c-.1 0-.2.1-.3.2l-.3.4c-.1.1-.2.1-.3.2-.2.1-.4.2-.5.3l-.3.3c-.1 0-.2.1-.2.2v-.1l-.2-.3c0-.1.1-.2.1-.3l-.1-1.9.3-.7v-.1l.3-1.5.4-.6c.1-.1.1-.3.1-.4v-.7l.7-1.2c.1-.1.1-.2.1-.3v-1.8l.6-1.1v-.1l.5-1.4v-.4l-.1-.2c.1-.1.2-.2.2-.4s.1-.5.1-.8v-.6c.2-.1.3-.2.3-.4l.6-1.9v-.8l.3-.7c0-.1.1-.2.1-.3v-.7l.1-.1c.1-.2.1-.6-.1-.8l.1-.5c.1-.2 0-.5-.2-.6l-.6-.6v-.1c0-.2-.1-.5-.3-.6l-.3-.2c-.1-.3-.3-.5-.5-.5-.2-.1-.4-.2-.5-.2s-.2 0-.2.1l-.2.1c-.1-.1-.2-.1-.3-.1s-.2 0-.3.1-.2.2-.3.4l-.5.3-.3.3v.1c-.5.2-.7.6-.8.9h-.1l-.4.2c-.1 0-.1.1-.2.1-.2 0-.4.1-.5.2-.2.1-.4.3-.5.6h-.3c-.2.1-.3.3-.4.5 0 .2-.1.3-.2.4l-.2.2-.6.5-.1.1-.5.6c-.2 0-.3.1-.4.2l-.5.6c-.1 0-.2.1-.2.1l-.1.1c-.1.1-.2.3-.3.5-.1.1-.1.2-.1.2-.1 0-.1.1-.2.2l-.3.3-.6.3c-.1.1-.2.2-.3.4-.1 0-.1.1-.2.2l-.7 1-.8.5c-.1 0-.1.1-.2.2l-.9 1.3c-.5.3-.7.5-.7.6-.1.1-.3.3-.5.6-.1.1-.1.2-.1.3s0 .2-.1.3h-.1c-.1 0-.2 0-.3.1l-.5.3c-.1.1-.2.2-.3.4v.2l-.3.3-.1.2c-.1 0-.1 0-.2.1-.3.1-.4.3-.5.6l.5-1.3v-.9l.6-1.5v-.1l.6-2.2.2-.2c.1-.1.1-.2.2-.3l.3-1.1v-.1l.1-1.1.3-.6c0-.1.1-.2.1-.3v-.5l.3-.7c0-.1.1-.3 0-.4l-.1-.5v-.8c0-.1 0-.2-.1-.3l-.5-.9c-.1-.1-.1-.2-.2-.3l-.4-.2c-.1 0-.2-.1-.2-.1-.2 0-.3.1-.4.3l-.4.6-.2.2c-.3.1-.6.4-.7.8v.2c0 .2 0 .4.1.6v.5l-.1.2c-.1.1-.1.2-.2.3l-.3 1.6v.1c0 .3 0 .5-.1.6 0 .1-.2.4-.5.9-.1.1-.1.3-.1.5 0 .1.1.3.2.3v.2l-.3.6c0 .1-.1.2-.1.3v.7l-.4.5c-.1.1-.1.2-.1.3l-.1.5c-.2.1-.4.3-.6.5-.1.2-.1.5.1.7.1.1.1.2.1.2l-.1.1c-.2.2-.2.6-.2.7v.2c-.2.1-.3.3-.3.5v.6c0 .1 0 .1-.1.1l-.1.1c-.1.1-.1.1-.1.2l-.2.6v.2l-.2.2-.4.9c-.1.1-.1.3 0 .4l.1.3-.6 1v.1l-.2.5-.4.8c-.1.2-.1.3 0 .5l-.2.3c-.1.2-.1.5 0 .7v.1c-.1.2 0 .5.2.6l.9 1c.1.1.2.2.4.2h.1l.9-.2c.1 0 .2-.1.3-.2l1-1.2.1-.1.4-.8.6-.3c.2-.1.3-.2.3-.4l.2-.8 1-1.6.1-.1c.1-.1.3-.2.3-.3l.3-.7.5-.3c.1-.1.2-.2.2-.3l.2-.4c.2-.1.3-.3.4-.4l.3-.3.1-.1c0-.1.1-.1.1-.2l.1-.1.4-.1c.2-.1.3-.2.4-.4l.1-.4.2-.3.1-.1.2-.4h.1c.1 0 .2-.1.2-.2l.4-.6.7-.3c.1-.1.2-.1.3-.3l.4-.8.6-.4.2-.2.1-.2.3-.2c.1 0 .2-.1.2-.2l2.2-2.9h.2c.2 0 .4-.1.5-.4l.4-.1c.2 0 .3-.1.4-.3s.1-.3.1-.5l-.1-.2.4-.1c.1 0 .2-.1.3-.2l.2-.3.4-.2c.1 0 .1-.1.2-.1l.3-.4.1-.1.1-.2.2-.1c.1 0 .1-.1.2-.2l.1-.1.6-.3c.1-.1.2-.2.3-.4h.1v.1l.1.4-.4.7c-.1.1-.1.2-.1.4v.8l-.2 1v.7l-.1.1c-.1.1-.2.2-.2.4l-.2 1.1-.2.3c-.1.1-.1.2-.1.3l-.2 1.5v.2l-.3.3c-.1.1-.2.3-.2.5v.2l-.1.5v.5l-.3.5v.1l-.3.8c0 .1-.1.2 0 .3v.6c-.3.6-.5 1-.5 1.3 0 0-.1.1-.1.2s-.1.2-.1.3c-.1.1-.1.2-.1.3l-.2 1.5v.3l-.3.5c-.1.1-.1.3-.1.4v.6l-.3.5c-.1.1-.1.3-.1.4v.4c.2.5.2.9.2 1.3 0 .3-.1.6-.2.9-.1.2-.1.4 0 .6l.3.6c0 .1.1.1.1.1l1.3 1.2c.1.1.1.1.2.1l1 .4h.2c.1 0 .2 0 .3-.1l.4-.3.5-.1c.2-.1.3-.2.4-.4v-.1l.5-.3c.1 0 .1-.1.2-.2l.2-.4c.2-.1.4-.2.6-.4l.1-.1.4-.1c.1 0 .2-.1.3-.3l.1-.1c.1 0 .2-.1.3-.3l.6-1 .4-.3.1-.1.4-.5c.1-.1.2-.3.1-.5v-.1l.1-.1.7-.3.3-.3.3-.6 1.1-1.2c.1-.1.1-.1.1-.2l.3-.8c.1-.2.1-.4 0-.6-.2 0-.4-.1-.6-.1zm31.5-1.2l-.8-.1c-.2 0-.3.1-.4.2l-.5.7-.4.4c-.1 0-.2.1-.3.2l-.7.8-.4.1c-.2 0-.3.2-.4.4l-.2.5-1 .8-.2.2c-.1 0-.1.1-.2.1l-.1.2-.5.1c-.1 0-.2.1-.3.2l-.3.4c-.1.1-.2.1-.3.2-.2.1-.4.2-.5.3l-.3.3c-.1 0-.2.1-.2.2v-.1l-.1-.4c0-.1.1-.2.1-.3l-.1-1.9.3-.7v-.1l.3-1.5.4-.6c.1-.1.1-.3.1-.4v-.7l.7-1.2c.1-.1.1-.2.1-.3v-1.8l.6-1.1v-.1l.5-1.4v-.4l-.1-.2c.1-.1.2-.2.2-.4s.1-.5.1-.8v-.6c.2-.1.3-.2.3-.4l.6-1.9v-.8l.3-.7c0-.1.1-.2.1-.3v-.7l.1-.1c.1-.2.1-.6-.1-.8l.1-.5c.1-.2 0-.5-.2-.6l-.6-.6v-.1c0-.2-.1-.5-.3-.6l-.3-.2c-.1-.3-.3-.5-.5-.5-.2-.1-.4-.2-.5-.2s-.2 0-.2.1l-.2.1c-.1-.1-.2-.1-.3-.1s-.2 0-.3.1-.2.2-.3.4l-.5.3-.3.3v.1c-.5.2-.7.6-.8.9h-.1l-.4.2c-.1 0-.1.1-.2.1-.2 0-.4.1-.5.2-.2.1-.4.3-.5.6h-.3c-.2.1-.3.3-.4.5 0 .2-.1.3-.2.4l-.2.2-.6.5-.1.1-.5.6c-.2 0-.3.1-.4.2l-.5.6c-.1 0-.2.1-.2.1l-.1.1c-.1.1-.2.3-.3.5-.1.1-.1.2-.1.2-.1 0-.1.1-.2.2l-.3.3-.6.3c-.1.1-.2.2-.3.4-.1 0-.1.1-.2.2l-.7 1-.8.5c-.1 0-.1.1-.2.2l-.9 1.3c-.5.3-.7.5-.7.6-.1.1-.3.3-.5.6-.1.1-.1.2-.1.3s0 .2-.1.3h-.1c-.1 0-.2 0-.3.1l-.5.3c-.1.1-.2.2-.3.4v.2l-.3.3-.1.2c-.1 0-.1 0-.2.1-.3.1-.4.3-.5.6l.5-1.3v-.6l.6-1.5v-.1l.6-2.2.2-.2c.1-.1.1-.2.2-.3l.3-1.1v-.1l.1-1.1.3-.6c0-.1.1-.2.1-.3v-.5l.3-.7c0-.1.1-.3 0-.4l-.1-.5v-.8c0-.1 0-.2-.1-.3l-.5-.9c-.1-.1-.1-.2-.2-.3l-.4-.2c-.1 0-.2-.1-.2-.1-.2 0-.3.1-.4.3l-.4.6-.2.2c-.3.1-.6.4-.7.8v.2c0 .2 0 .4.1.6v.5l-.1.2c-.1.1-.1.2-.2.3l-.3 1.6v.1c0 .3 0 .5-.1.6 0 .1-.2.4-.5.9-.1.1-.1.3-.1.5 0 .1.1.3.2.3v.2l-.3.6c0 .1-.1.2-.1.3v.7l-.4.5c-.1.1-.1.2-.1.3l-.1.5c-.2.1-.4.3-.6.5-.1.2-.1.5.1.7.1.1.1.2.1.2l-.1.1c-.2.2-.2.6-.2.7v.2c-.2.1-.3.3-.3.5v.6c0 .1 0 .1-.1.1l-.1.1c-.1.1-.1.1-.1.2l-.2.6v.2l-.2.2-.4.9c-.1.1-.1.3 0 .4l.1.3-.6 1v.1l-.2.5-.4.8c-.1.2-.1.3 0 .5l-.2.3c-.1.2-.1.5 0 .7v.1c-.1.2 0 .5.2.6l.9 1c.1.1.2.2.4.2h.1l.9-.2c.1 0 .2-.1.3-.2l1-1.2.1-.1.4-.8.6-.3c.2-.1.3-.2.3-.4l.2-.8 1-1.6.1-.1c.1-.1.3-.2.3-.3l.3-.7.5-.3c.1-.1.2-.2.2-.3l.2-.4c.2-.1.3-.3.4-.4l.3-.3.1-.1c0-.1.1-.1.1-.2l.1-.1.4-.1c.2-.1.3-.2.4-.4l.1-.4.2-.3.1-.1.2-.4h.1c.1 0 .2-.1.2-.2l.4-.6.7-.3c.1-.1.2-.1.3-.3l.4-.8.6-.4.2-.2.1-.2.3-.2c.1 0 .2-.1.2-.2l2.2-2.9h.2c.2 0 .4-.1.5-.4l.4-.1c.2 0 .3-.1.4-.3s.1-.3.1-.5l-.1-.2.4-.1c.1 0 .2-.1.3-.2l.2-.3.4-.2c.1 0 .1-.1.2-.1l.3-.4.1-.1.1-.2.2-.1c.1 0 .1-.1.2-.2l.1-.1.6-.3c.1-.1.2-.2.3-.4h.1v.1l.1.4-.4.7c-.1.1-.1.2-.1.4v.8l-.2 1v.7l-.1.1c-.1.1-.2.2-.2.4l-.2 1.1-.2.3c-.1.1-.1.2-.1.3l-.2 1.5v.2l-.3.3c-.1.1-.2.3-.2.5v.2l-.1.5v.5l-.3.5v.1l-.3.8c0 .1-.1.2 0 .3v.6c-.3.6-.5 1-.5 1.3 0 0-.1.1-.1.2s-.1.2-.1.3c-.1.1-.1.2-.1.3l-.2 1.5v.3l-.3.5c-.1.1-.1.3-.1.4v.6l-.3.5c-.1.1-.1.3-.1.4v.4c.2.5.2.9.2 1.3 0 .3-.1.6-.2.9-.1.2-.1.4 0 .6l.3.6c0 .1.1.1.1.1l1.3 1.2c.1.1.1.1.2.1l1 .4h.2c.1 0 .2 0 .3-.1l.4-.3.5-.1c.2-.1.3-.2.4-.4v-.1l.5-.3c.1 0 .1-.1.2-.2l.2-.4c.2-.1.4-.2.6-.4l.1-.1.4-.1c.1 0 .2-.1.3-.3l.1-.1c.1 0 .2-.1.3-.3l.6-1 .4-.3.1-.1.4-.5c.1-.1.2-.3.1-.5v-.1l.1-.1.7-.3.3-.3.3-.6 1.1-1.2c.1-.1.1-.1.1-.2l.3-.8c.1-.2.1-.4 0-.6-.4-.2-.5-.3-.7-.3zm20.1 2.3c.1-.2.1-.4 0-.5v-.1c.1-.1.1-.3.1-.5s-.1-.3-.2-.4l-.2-.2c-.1-.1-.2-.1-.3-.1h-.4c-.2 0-.4.1-.5.3v.1c-.2.1-.3.2-.4.4l-.1.2-.2-.1h-.1c-.2 0-.3.1-.4.2l-.3.3-.4.2c-.1.1-.3.2-.3.4 0 .1-.1.2-.2.3h-.1c-.3.1-.6.3-.8.5l-.1.1-.1.1c-.1.1-.2.1-.2.1-.2 0-.3.2-.4.3l-.1.2c-.1.1-.2.1-.4.1l-.5.1c-.1 0-.1 0-.2.1-.2 0-.3.1-.4.2l-.3.4h-.3c-.2 0-.3.1-.5.2-.3 0-.6.1-.8.3-.2.1-.3.2-.5.3s-.3.2-.5.2c0 0-.1.1-.3.1-.1 0-.2-.1-.3-.1-.2 0-.4.1-.5.3h-.5c-.1 0-.3 0-.4-.1h-.1c-.5 0-.8-.1-.9-.1-.1-.1-.4-.2-.9-.6-.1-.1-.2-.1-.3-.1h-.2v-.1l.1-.2c.1-.3 0-.6-.2-.7s-.2-.2-.2-.2V150.5c0-.1 0-.3-.1-.4l.2-1.3.2-.9.2-.2c.2-.1.4-.4.4-.8 0-.1 0-.3-.1-.4v-.2c0-.2 0-.4.2-.7v-.1l.2-.7.2-.2c.1-.1.1-.2.2-.4v-.2l.3-.2.7.3h.2l1.4-.1c.1 0 .3-.1.4-.2l.6.2h.2c.1 0 .2 0 .3-.1l.4-.3.4-.2c.2-.1.3-.2.3-.4l1.1-.3c.1 0 .2-.1.3-.2.2-.3.3-.4.3-.5.1 0 .2-.1.3-.2.2 0 .4-.1.5-.3l.1-.1.5-.5.1-.1.2-.4.3-.1.1-.1.6-.5.1-.1.4-.5c.2-.2.4-.3.5-.5.1-.1.3-.3.5-.6.1-.1.1-.2.1-.3 0-.2.1-.3.1-.4 0 0 0-.1.2-.2.2-.2.3-.4.5-.6s.3-.6.4-.9c0-.2.1-.4.1-.5s0-.2.1-.4v-.3l-.1-.7c.1-.2.2-.4.1-.6l-.1-.6.2-.2c.2-.2.2-.5.1-.7s-.1-.3-.1-.3v-.7c.1-.2.1-.4.1-.7v-.1c0-.3 0-.4-.1-.6s-.2-.3-.4-.6c-.1-.1-.2-.2-.4-.3-.1-.1-.2-.1-.3-.2s-.2-.2-.4-.3l-.7-.1h-.2l-.5.1-.1.1c-.1.1-.2.1-.4.2s-.4.1-.6.2l-.4.2c-.3.1-.6.2-.8.4-.2.1-.4.3-.6.4-.1 0-.1.1-.2.2-.2.3-.4.5-.7.5-.1 0-.3.1-.5.3-.1.1-.2.3-.3.5-.1 0-.2.1-.7.2-.2.1-.3.2-.4.4l-.2.6-.6.2c-.1 0-.2.1-.2.2l-2 2.6-.1.1-.3.8-.2.3c-.1.1-.1.2-.1.3 0 .2-.1.3-.1.5 0 0-.1 0-.2.1-.1 0-.3.2-.4.3-.1.2-.1.3 0 .5l.1.2v.1h-.2c-.2-.3-.5-.3-.6-.3-.2 0-.3 0-.4.1l-.7.2c-.3.1-.4.4-.4.7.1.5.1.9.2 1.2.1.2.2.5.4.9v.3c-.1.1-.2.3-.2.4v.1l-.1.1c-.2.1-.3.3-.3.6v.7l-.3.3c-.1.1-.2.2-.2.4-.1.3-.1.6-.2.9-.1.2-.2.4-.4.6-.1.1-.2.2-.2.4l-.1 1-.3 1.1v.1l-.2 1.2c0 .2 0 .3.1.5l.2.3-.1.4v.3l.3 1.1v.1c0 .2 0 .5.1.8.1.2.1.3.2.5s.2.4.5.7l1.2 1.2h.1l1.4 1.2c.1.1.2.1.3.1h.6c.1 0 .2-.1.2-.1l.1.1.1.1c.1 0 .2.1.2.1.1 0 .2 0 .3-.1l.2-.1.3.1h.1c.1 0 .2 0 .2-.1l.4-.2h1.1c.2 0 .4-.1.5-.3l.1-.1c.2 0 .4-.1.6-.2h.4c.2 0 .4-.1.5-.3l.1-.2.6-.2c.1 0 .1-.1.2-.1l.4-.4c.1-.1.2-.3.2-.5l.1-.1h.5c.2 0 .4-.2.5-.4l.2-.5h.1c.3 0 .5-.2.7-.4 0 0 .1-.1.1-.2l.1-.1h.2c.4 0 .7-.4 1.3-1.4.1 0 .2-.1.3-.2h.1c.1 0 .2 0 .3-.1s.2-.3.2-.5l.1-.1h.1c.2 0 .4-.1.5-.3l.5-.3zm-11.5-9c.2-.2.3-.4.5-.7l.3-.1c.2-.1.3-.2.4-.5l.1-.4.2-.3c.1-.2.1-.4.1-.6l.3-.1c.2-.1.3-.2.4-.4l.1-.3c.2-.1.3-.2.3-.4.1-.3.3-.6.5-.9.3-.3.5-.3.5-.3.1 0 .3-.1.4-.1l.8-.8c.3-.4.5-.7.7-1.1l.1-.1.1-.1c.2 0 .3-.1.5-.1.1 0 .2-.1.3-.1.1-.1.2-.1.2-.1.1 0 .2 0 .3-.1.2-.1.4-.3.4-.5.1 0 .2-.1.4-.2s.5-.3.8-.5h.1l.3.5v.5l-.3.5c0 .1-.1.1-.1.2l-.2 1.2c-.2.4-.4.7-.5 1s-.1.5-.1.7l-.1.2c-.2.2-.3.4-.4.6-.1.1-.2.3-.4.4-.3.2-.4.4-.5.7l-1.1 1h-.3c-.3 0-.5.3-.6.6l-.3.3s-.1.1-.1.2l-.5.1c-.2 0-.3.2-.4.4l-.1.3-1.1.4h-1c-.1 0-.2 0-.2.1-.2.1-.5.2-.7.2 0-.1-.1-.1-.1-.2 0-.2-.1-.4-.1-.5zm33.8 12.3c0-.1-.1-.1-.1-.2.1-.2.1-.5.1-.7s0-.4-.1-.6c-.1-.5-.4-.7-.7-.7v-.2c-.1-.3-.2-.5-.5-.5l-.1-.2c-.1-.1-.1-.2-.2-.3l-1-.6c-.1-.3-.3-.5-.6-.5-.1-.2-.3-.2-.5-.2h-.5c0-.1-.1-.2-.2-.3-.2-.2-.4-.3-.6-.4-.1 0-.2-.1-.4 0-.1-.1-.2-.2-.3-.2-.1-.3-.4-.5-.7-.5-.1-.1-.2-.2-.3-.2l-.7-.1c-.1-.1-.3-.2-.4-.2h-.2c-.5-.4-.7-.5-.8-.6-.2-.1-.4-.1-.7-.1-.1-.2-.4-.3-.6-.2l-.2.1-.2-.3c-.1-.1-.2-.2-.3-.2l-.4-.1-.1-.2c-.1-.2-.4-.3-.6-.3l-.3.1-.3-.2-.1-.2c-.1-.3-.4-.5-.7-.5l-.3.1-.1-.1c-.1 0-.1-.1-.2-.1l-.4-.1-.2-.3c-.1-.1-.2-.2-.3-.2h-.1l-.1-.2c0-.1-.1-.1-.1-.2l-.8-.7v-.2l-.5-1.5.6-2.2c.2-.2.4-.3.5-.5s.2-.3.4-.5l.3-.6c0-.1.1-.2.2-.4l.4-.2c.2-.1.3-.3.3-.5l.2-.1c.1 0 .2-.1.2-.2v-.1c.1 0 .2-.1.3-.2s.1-.2.2-.2l.2-.1.4-.1c.1 0 .3-.1.3-.3l.1-.3c.1 0 .1-.1.2-.1h.9c.1 0 .2-.1.3-.2l.5-.6.8-.3.1-.1.4-.3c.1 0 .2.1.3.1l1.1-.1c.2.3.4.5.6.7l.6.3c.3.3.7.4 1.1.3h.1c.5-.1.9-.4 1-.8.2-.4.2-.9 0-1.5l-.1-.2c-.1-.3-.2-.5-.3-.6-.1-.2-.3-.3-.4-.4s-.3-.2-.5-.2h-.1l-.1-.2c-.1-.2-.3-.3-.4-.3l-.8-.1c-.1-.1-.3-.1-.5-.1h-.7c-.2 0-.6.1-1 .2s-1 .2-1.7.3c-.1 0-.1 0-.2.1-.4.3-.6.4-.7.4h-.1c-.1 0-.3 0-.4.1-.2 0-.3.2-.4.3v.1l-.4.1c-.3.1-.6.3-.9.4-.3.2-.6.3-.8.5l-.2.2-.3.2c-.2.1-.3.3-.3.4l-1.9.9c-.2.1-.3.2-.3.4l-.1.5-.3.4-.5.2c-.2.1-.3.3-.4.5v.5c-.1.1-.2.3-.2.5 0 0-.1 0-.1.1-.1.1-.2.1-.3.3l-1 2.2c-.1.1-.1.2 0 .4v.1c-.1.1-.1.3-.1.4s.1.2.1.3v.1c-.1.2-.1.3 0 .5s.2.3.3.4c0 .2.1.5.3.6l.1.1.1.3c0 .1.1.2.2.3l.4.4.4.9c0 .1.1.1.1.2l1.8 1.8c.1.1.2.2.4.2h.2l.1.2c.1.1.1.2.2.2.2.1.4.2.5.2h.3l.6.5c.1.1.3.2.4.1.1.1.3.2.4.1l.4-.1.2.3c.1.1.2.2.4.2l.5.1.9.5c.1.1.2.1.3.1h.3l.4.5c.1.2.4.3.6.2l.4-.1.6.5c.1.1.1.1.2.1l1.1.3 2.2 1.3.9 1.1.4.5c-.1.1-.1.2-.1.3v.4l-.4.2c-.2.1-.3.4-.3.7l-.1.1c-.1.2-.2.3-.2.3-.1.1-.3.2-.5.3-.1 0-.1.1-.2.1l-1.1.3c-.1 0-.1 0-.2.1l-.1.1-.5-.1h-.3l-.5.2c-.1-.1-.3-.1-.4-.1s-.2.1-.3.3c-.1 0-.3 0-.4.1-.2 0-.3.1-.5.2l-.3-.2c-.1-.1-.3-.1-.4-.1h-.1l-.7.3c-.3-.1-.5-.1-.8-.1-.2 0-.4.1-.7.2l-.3-.2c-.1-.1-.2-.1-.3-.1l-.8.1-.4-.2c-.1 0-.2-.1-.3 0l-.7.1c-.1-.2-.4-.3-.6-.2-.2 0-.3 0-.4-.1l-.1-.1c-.2-.1-.3-.1-.5-.1h-.7c-.1-.2-.3-.2-.5-.2h-.1l-.1-.1h-.1l-.3-.3-.6-.2c.1-.2.1-.3.1-.5v-.3c-.1-.5-.5-.7-.7-.7h-.3l-.1-.1c-.1-.1-.3-.2-.4-.1l-.6.1c-.1 0-.3.1-.3.3-.4.2-.7.4-.9.8l-.2.5c-.1.2-.1.5.1.7l.2.3.4.8c.1.2.3.3.5.3h.4l.5.3c.1.1.2.1.4.1h.4l.6.5c.1.1.3.2.5.1.1 0 .1-.1.2-.1.1.1.3.2.5.1l.2.2c.1.1.3.2.5.1l.3-.1.8.5c.1.1.3.1.4.1h.1l.3-.1.3.3c.1.1.3.2.4.1h.1c.1 0 .2-.1.3-.2v-.1h.2l.3-.1 1.4.5h.2l1.3-.1.8.2h.3l1.3-.4c.4.2.8.2 1.1.1l.6-.3s.1 0 .1-.1h.4l2.3-.8c.1.1.3.2.5.1.1 0 .2-.1.2-.2l.3-.3h.1l.1-.1 1-.6c.1-.1.2-.2.2-.3l.2-.7.4-.2c.1-.1.2-.1.2-.3l.3-.6c.1-.1.1-.2.1-.4v-.1l.2-.3c.5-.1.5-.3.4-.5z" fill="#c1c5c4"/><path d="M78.6 110.9c.3 0 .6-.1.7-.3l.3.1h.2c.2 0 .4-.1.6-.2l.3-.3 1.4-.6h2.2c.1 0 .2 0 .3-.1l2-.7c.1 0 .1-.1.2-.1l1.1-.7 1-.2h.1l1.4-.5c.1 0 .3-.1.4-.2l1-.1c.1 0 .3 0 .4-.1l1-.5c.2-.1.3-.2.4-.4.8-.1 1.4-.4 2.1-.9h.1c.8 0 1.2-.4 1.4-.7.2-.2.3-.5.4-.7 0-.1.1-.2.1-.3h.2c.2 0 .4-.1.6-.2.2-.2.3-.4.3-.7l.1-1.4.9-1.1c.1-.1.2-.3.2-.4l.5-3.1c0-.2 0-.4-.1-.6l-.6-1.2c-.1-.2-.2-.3-.4-.4l-.1-.1-.2-.7c0-.3-.2-.7-.8-1-.2-.1-.5-.3-.7-.4l-.1-.1c-.1 0-.3-.1-.5-.2l-.7-1c-.1-.1-.2-.3-.4-.3l-1.7-.8-1-.9c-.1-.1-.3-.2-.4-.2l-1.2-.3-.7-.9-.2-.4c-.4-.4-.8-.6-1.2-.6-.4-.1-.6-.1-.6-.1-.1 0-.3-.1-.7-.4-.1-.1-.3-.1-.5-.2l-1.8-.1-.5-.7c-.2-.3-.5-.5-.8-.5h-.4c-.1-.1-.2-.1-.3-.1l-.1-.1c-.1 0-.2-.1-.3-.1-.2-.1-.3-.2-.5-.3h-.1c-.1-.1-.3-.2-.4-.2-.8-.2-1.6-.4-2.3-.7s-1.4-.7-2.1-1.1c-.1 0-.1-.1-.2-.1l-2.9-1h-.3s-.2 0-.8-.4c-.5-.3-1-.6-1.5-1h-.1c-.1-.1-.3-.2-.8-.6-.2-.1-.3-.3-.4-.3 0-.1-.1-.1-.1-.2-.3-.4-.5-.8-.6-1.2s-.1-.7-.1-1 0-.6.1-.9c0-.2.1-.3.1-.4.3 0 .6-.2.7-.5l.5-.9.7-.4c.1-.1.3-.2.3-.3l.3-.6h.3c.2 0 .5-.1.7-.3l.7-.7 1.3-.5c.2-.1.3-.2.4-.3l.7-.9.3-.1c.1 0 .2-.1.3-.2l.7-.5 4.5-.5c.3 0 .5-.2.7-.4l.4-.6.9-.1c.2 0 .5-.2.6-.3h.9l.7-.1h.1c.1.1.3.1.4.1h.2l1-.3c.1 0 .2-.1.2-.1l.1-.1.5.1h.2c.2 0 .3 0 .5-.1.1 0 .2.1.3.1h.2l2.3-.5h2.6c.4.4.9.5 1.4.5.2 0 .5 0 .7-.1.3 0 .6.1 1 .1h.1v.1c-.3.3-.3.8-.1 1.1l.4.7.1.1 1.2 1.2c.2.2.4.3.7.3h.1l3-.3c.4 0 .8-.4.8-.8l1.2-.6c.3-.2.6-.5.5-.9l-.1-1.3.1-.1c.1-.2.2-.4.2-.6V65c0-.9-.5-1.6-1.3-1.8-.4-.1-.7-.2-1-.3 0-.1-.1-.2-.2-.2-.6-.5-1.1-.9-1.5-1.1s-.8-.3-1.1-.4h-1.8c-.7-.6-1.1-.9-1.6-.9h-1.9c-.5 0-.8.1-1.1.2s-.5.2-.7.3-.3.2-.5.3H94c-.4 0-.5-.1-.6-.2-.2-.2-.4-.3-.7-.3l-2.7.1h-.2l-4.6 1c-.5-.1-.7-.2-.9-.2-.5 0-1 .2-1.5.5l-1.1.1h-.2l-.4.1h-.8c-.4.1-.9.3-1.3.6-.4.2-.8.4-1.1.6-.9.6-1.1.6-1.1.6-.1-.1-.3-.1-.4-.1-.2 0-.5.1-.6.2l-.6.6h-.7c-.3 0-.6.2-.8.4 0 0-.1.2-.8.7-.5.4-1.1.8-1.7 1.2s-1.2.8-1.7 1.1c-.4.2-.6.3-.7.4-.4.1-.7.4-.8.8s-.1.8-.2 1.1c-.2.1-.4.3-.5.5l-.8 1.8c-.1.1-.1.3-.1.5-.5.3-.6.9-.6 1.1v3.2c0 .2 0 .3.1.5l.4.7c-.1.3-.1.6.1.9l.7 1.2.3.3 1.9 1.3 1.1 1.1c.1.1.2.1.2.2l2.3 1.2c.1.1.2.1.3.1l.2.2c.4.5.9.8 1.4.9l2.2.5.6.4c.2.1.3.1.5.1h.2l.8.4.3.4c.2.2.4.4.7.4l.7.1.5.6c.2.2.5.4.7.4h.6l1.4.3h.6l.6.5c.1.1.2.1.3.2l1.5.5.3.4c.1.2.3.3.5.3l2.2.7 1.3 1.3c.1.1.2.2.4.2l1.5.5.5.6c.3.4.6.7.8 1.1.2.3.3.7.4 1.2 0 .2 0 .4.1.6 0 .2 0 .4.1.6-.1.1-.1.2-.2.4 0 .1-.1.1-.1.2l-.2.4-.9.2c-.4.1-.7.5-.7.9 0 .3-.1.4-.2.5s-.3.2-.5.2c-.6 0-1.1.2-1.6.7 0 0-.1.1-.5.1H90c-.3 0-.5.1-.7.3l-.7.7-.4.1c-.2.1-.3.2-.5.3l-.3.3h-.6l-1.9.4c-.1 0-.2 0-.2.1l-1 .5-.8.1h-.2l-1.9.6c-.2.1-.3.2-.4.3-.2.2-.3.4-.4.4s-.2 0-.4-.1c-.4 0-.5-.1-.6-.1h-.5c-1 0-2.1.1-3.3.4h-.4c-.1 0-.3 0-.4-.1-.1 0-.1-.1-.2-.1-.2-.1-.7-.1-2.4-.1H71c-.1 0-.2 0-.4.1l-1.3.5-5.3-.4h-.3c-.6 0-.8-.1-.9-.1s-.2-.1-.2-.1l-.3-.3c-.3-.3-.6-.4-.8-.4s-.3 0-.5.1l-.2-.2c-.1-.2-.3-.3-.5-.3l-1.6-.3-.8-1c-.1-.2-.3-.3-.5-.3l-2.2-.8-.8-.5c-.4-.4-.6-.8-.6-1.2v-.3c0-.1.1-.1.1-.1l1-1.2c.1-.1.2-.2.2-.4l.1-.4 1.5-1c.1-.1.3-.2.3-.4.1-.3.2-.6.2-1 0-1-.7-1.7-1.7-1.7-.5 0-1 .2-1.5.6l-1.1.5c-.1 0-.1.1-.2.1l-.5.5c-.1.1-.2.2-.3.4l-.1.2-.3.1c-.4.1-.7.5-.7.9v.7c0 .1 0 .3.1.4l.2.4-.5 1.2c-.1.3-.1.6.1.9l.2.3c.1.7.2 1.1.4 1.5.1.2.2.4.4.5l.6 1.2c.1.2.2.3.3.4l.8.5.9.8c.1.1.2.1.3.2l.6.2.6.9.1.1c.2.2.5.4.9.4.2 0 .4 0 .6-.1h.1c.1 0 .1.1.2.2.2.2.4.3.7.3.2.4.5.7.9.9.1.1.3.1.4.1h.3l.7-.2.3.3c.2.2.4.2.6.2h.1l.8-.1 1.7.7c.1 0 .2.1.3.1s.3 0 .4-.1l.2.1c.2.1.3.2.5.2H67l1.5-.3 1.3.2c.1.2.2.3.4.4s.3.1.5.1h.2c.3-.1.6-.2.8-.3.1-.1.3-.2.4-.3h.1c.3 0 .4 0 .5.1s.3.1.4.1h.6c.2.2.4.3.7.3h.2l.8-.1h1.8c.1 0 .2 0 .3-.1l.4-.2.4.1c.2.1.3.1.3.1zm40.9-3.5c.1 0 .3 0 .4-.1.1.1.2.1.4.1h1.1c.1 0 .2 0 .3-.1l.6-.3.7.1h.1c.1 0 .2 0 .3-.1l.1-.1.2.1c.1.1.2.1.3.1h.2l.7-.2c.1 0 .3-.1.4-.3 0 0 .1-.1.2-.1.2 0 .3.1.5.2.1.1.2.1.3.1s.3 0 .4-.1l.5-.4c.5 0 .9-.1 1.2-.4 0 0 .1 0 .2-.1h.1c.1 0 .2.1.3.1.3 0 .5-.1.7-.4h.2c.2 0 .4-.1.5-.3l.9-.1c.1 0 .2 0 .2-.1h.2c.2 0 .4-.1.5-.2l.4-.4.3-.1c.1 0 .2-.1.2-.1h.1c.1.1.2.1.3.1.2 0 .4-.1.5-.2l.7-.8 1.6-.4c.1 0 .2-.1.3-.2l1-1 .9-.3c.2-.1.3-.2.4-.3l.1-.2.5-.1c.2-.1.4-.2.5-.5l.1-.4 1-.3c.2-.1.4-.2.5-.5.1-.1.3-.2.4-.3l.1-.1.2-.1c.2-.1.4-.2.5-.4.3 0 .6-.3.7-.6.1-.2.1-.3.1-.4.1-.1.2-.1.4-.2h.1c.2-.1.5-.3.7-.5s.4-.5.4-.8c.2-.1.3-.4.3-.6.1-.1.2-.1.2-.2l.3-.2c.1-.1.2-.2.3-.4l.2-.5c.2 0 .4-.2.5-.4l.4-.7.4-.1c.3-.1.5-.4.5-.8v-.7l1.2-1.5c.1-.2.2-.4.2-.6v-.3c.2-.2.3-.4.3-.7v-.3c0-.6.1-1.3.3-2.1.2-.9.3-1.5.5-2 .1-.4 0-.8-.3-1.1l-.1-.9c0-.2-.1-.3-.2-.5l-.2-.2v-.2c0-.4-.1-.8-.2-1.1s-.2-.6-.4-.8c-.1-.2-.2-.4-.3-.4-.1-.1-.1-.2-.3-.4-.1-.2-.2-.4-.3-.5-.1-.3-.2-.5-.4-.8-.1-.2-.2-.3-.3-.5l-.2-.8c-.1-.4-.4-.7-.7-.7h-.4v-.1c0-.5-.3-.8-.6-1-.5-.6-.9-1.1-1.5-1.6-.4-.4-.8-.9-1.1-1.5-.1-.3-.4-.4-.6-.4h-.7c0-.1-.1-.1-.2-.2l-.6-.4c-.1-.1-.3-.1-.4-.1h-.3l-.4-.3c-.1-.1-.3-.2-.4-.2h-.2l-.9-.9c-.1-.1-.2-.2-.4-.2h-.2c-.1-.2-.2-.3-.4-.4l-1.5-.6h-.2l-.1-.2c-.2-.2-.3-.4-.5-.4 0 0-.1 0-.2-.1l-.1-.1c-.2-.1-.4-.1-.5-.1s-.3 0-.5.1c-.1-.4-.4-.6-.7-.6h-.1c-.2.1-.4.1-.4.1h-.4c-.7 0-1.1-.2-1.3-.3s-.3-.3-.5-.3c-.1 0-.1-.1-.2-.2l-.1-.1c-.3-.2-.8-.4-1.4-.6-.5-.1-.9-.2-1.3-.3-.4 0-.7-.1-1.1-.2h-.3l-.3.1-1.7-.4-.1-.2c-.1-.2-.4-.3-.6-.4h-.2c-.2.1-.5.2-.7.2s-.5.1-.8 0c-.6 0-1.3-.2-1.9-.4-.1 0-.2-.1-.2-.1h-.2l-.1-.1c-.1-.2-.3-.3-.6-.3h-.1c-.2 0-.5.2-.6.4v.1c-.1-.1-.3-.1-.4-.1h-.2c-.3 0-.5.1-.7.1h-.5c-.2 0-.4 0-.6-.1h-.1c-.3 0-.5.1-.7.4-.1.1-.1.2-.1.3h-.1c-.2.1-.4.3-.5.5s-.1.5 0 .7c-.2.2-.2.5-.2.8l.2.8-.1.4c0 .3.1.6.3.9l.4.4.3.7c.1.2.3.4.5.4h.1c.2 0 .4-.1.5-.2l.5-.6.9-.1c.2 0 .4-.1.5-.3l.1-.1c.2 0 .4 0 .5-.1h.8c.4 0 .7 0 1 .1.2 0 .4 0 .6.1l.1.4c-.1 0-.2.1-.3.1-.2.1-.4.3-.5.5s-.1.5 0 .8l.4.8-.2.7c-.1.2-.1.3-.1.5l.1.9.4-.1c-.1.1-.1.2-.2.3l-.1.2h-.1c-.3.1-.5.4-.5.8 0 .3-.1.8-.1 1.3l-.3 1.8c-.1.6-.2 1.1-.4 1.5-.1.3-.3.5-.4.7-.2.2-.3.4-.4.7v1.9c0 .1-.1.1-.1.2-.1.2-.4.5-.8.9-.3.3-.3.8-.1 1.2.1.2.2.3.2.4l-.1.1c-.1.1-.2.3-.5.8 0 .1-.1.1-.1.2l-.2.6-.3.1c-.2.1-.4.2-.5.4s-.1.5 0 .7l.2.7-.5.9c-.1.2-.1.4-.1.7l.1.4-.1.2c0 .1-.1.2-.1.3 0 0 0 .1-.1.2-.1.2-.3.5-.4.9l-.4 1c-.1.2-.2.4-.3.7 0 0 0 .1-.1.2v.1l-.7 2.4-.7 1c-.1.1-.1.2-.1.4l-.1.9c-.2.3-.5.7-.7 1.2-.2.3-.3.7-.4 1l-.1.1c-.1-.1-.3-.1-.4-.1-.7 0-1.2.4-1.5 1.1-.3.5-.4 1.1-.4 1.7 0 .4.1.9.3 1.4.1.3.2.5.3.7v.1c-.2.2-.3.5-.2.8-.1.2-.2.3-.2.5 0 .5.1 1 .4 1.4.2.3.4.5.6.7s.4.3.8.3c.3 0 .6-.1.8-.4h.6c.3 0 .5-.2.7-.4l.7-1.3.1.1c.1.2.4.4.6.4h.1c.4-.1 1.1-.1 1.9-.1.6 0 1.2.1 1.8.2.7.1.9.2.9.2zM118 103h-.1c-.1 0-.2 0-.3.1h-.1c-.1-.1-.3-.1-.4-.1-.3 0-.5-.1-.8-.1h-.4c-.4-.2-.5-.2-.6-.2h-.5l-.1-.4.1-.1.8-1.8c.1-.3.2-.6.2-1v-.2c0-.2.1-.4.1-.5.2-.1.4-.4.4-.7l.2-1.2.7-.6c.1-.1.2-.3.3-.5l.4-1.9.1-.1c.1-.1.2-.3.3-.5.1-.6.4-1.2.7-2 .3-.9.5-1.7.6-2.5v-.1c.2-.3.3-.5.4-.8.1-.1.2-.2.4-.3s.4-.3.4-.5c.1-.3.2-.7.3-1 .1-.4.1-.7.1-1v-.6l.3-.7.8-1c.2-.2.3-.6.2-.9l-.2-.7.1-.2.5-.5c.2-.2.3-.4.3-.7v-1c0-.2.1-.5.2-.8l.1-.2c0-.1 0-.2.1-.2.2-.1.4-.3.5-.7.1-.6.2-1.3.3-2.1.1-.6.2-1 .4-1.3.3-.4.4-.7.4-1v-.3l-.2-.1c.1-.2.2-.4.2-.6v-.1c.2-.3.4-.7.6-1.2.1-.2.1-.3.1-.5l-.1-.4.3-.6c.1-.2.1-.3.1-.5v-.3c.2.1.4.2.6.2.3.1.7.1 1 .1h.2l.5-.2.3.2c.1.1.3.1.4.1h.4l.7.6c.1.1.3.1.4.1h.1l.9-.1.9.6c.1.1.2.1.4.1.8 0 1.6.2 2.5.5.8.3 1.6.7 2.2 1.3.1.1.2.1.3.2l.3.1c.5.5 1 1 1.6 1.4.5.3 1.1.7 1.6.9l.3.9c.1.2.3.4.5.5h.2c.1 0 .3 0 .4-.1l.3-.2c.2.2.4.3.6.5l1.2 1.2c.4.4.7.9 1 1.3s.3.5.3.5c0 .3.1.5.2.7l.3.3c.1.3.3.6.4.9.1.2.2.4.3.7v.1c.1.2.1.4.1.7s-.1.5-.2.7c-.2.3-.1.8.1 1l.1.1-.1.3c-.1.2-.1.5 0 .7v.1c0 .1-.1.1-.1.2l-.4 2c-.3.1-.4.4-.4.8 0 .2-.1.4-.2.6-.2.3-.5.6-.8.9s-.6.7-.9 1.1c-.2.3-.4.6-.6 1-.1.1-.3.2-.4.3l-.1.2c-.3.1-.5.3-.6.6l-.1.3c-.2 0-.5.2-.6.5-.1 0-.3 0-.4.1l-.5.3c-.2.1-.3.2-.3.4l-.1.3c-.3.1-.5.3-.6.6l-.1.3c-.7.2-1.3.5-1.8 1.1-.4.5-.9.9-1.5 1.1-.2.1-.4.4-.5.7v.1h-.4c-.2 0-.4 0-.6.1-.1.1-.3.1-.4.3h-.3c-.1 0-.2-.1-.3-.1h-.2c-.5.1-.9.4-1.3.7-.2.2-.4.4-.7.5l-.2-.1c-.1 0-.2-.1-.3-.1-.2 0-.5.1-.6.4l-.2.4h-.4c-.1 0-.2.1-.3.1 0 0-.2.1-1 .3-.7.2-1.5.4-2.3.7s-1.6.5-2.3.6c-.5.1-.8.2-1.2.3-.1-.2-.3-.3-.5-.3h-.1c-.2 0-.4.1-.6.3l-.3.4c-.1 0-.2-.1-.3-.1h-.1c-.3 0-.5.1-.8.1h-.7c-.4 0-.8 0-1.1-.1-.1.5-.5.4-1 .3zm102.7 4.6l1.4-.5c.1 0 .3-.1.4-.2l1-.1c.1 0 .3 0 .4-.1l1-.5c.2-.1.3-.2.4-.4.8-.1 1.4-.4 2.1-.9h.1c.8 0 1.2-.4 1.4-.7.2-.2.3-.5.4-.7 0-.1.1-.2.1-.3h.2c.2 0 .4-.1.6-.2.2-.2.3-.4.3-.7l.1-1.4.9-1.1c.1-.1.2-.3.2-.4l.5-3.1c0-.2 0-.4-.1-.6l-.6-1.2c-.1-.2-.2-.3-.4-.4l-.1-.1-.2-.7c0-.3-.2-.7-.8-1-.2-.1-.5-.2-.7-.4l-.1-.1c-.1 0-.3-.1-.5-.2l-.7-1c-.1-.1-.2-.3-.4-.3l-1.7-.8-1-.9c-.1-.1-.3-.2-.4-.2l-1.2-.3-.7-.9-.1-.1c-.4-.4-.8-.6-1.2-.6-.4-.1-.6-.1-.6-.1-.1 0-.3-.1-.7-.4-.1-.1-.3-.1-.5-.2l-1.8-.1-.5-.7c-.2-.3-.5-.5-.8-.5h-.4c-.1-.1-.2-.1-.3-.1l-.1-.1c-.1 0-.2-.1-.3-.1-.2-.1-.3-.2-.5-.3l-.1-.1h-.1c-.1-.1-.3-.2-.4-.2-.8-.2-1.6-.4-2.3-.7s-1.4-.7-2.1-1.1c-.1 0-.1-.1-.2-.1l-2.9-1h-.3s-.2 0-.8-.4c-.5-.3-1-.6-1.5-1h-.1c-.1-.1-.3-.2-.8-.6-.2-.1-.3-.3-.4-.3 0-.1-.1-.1-.1-.2-.3-.4-.5-.8-.6-1.2s-.1-.7-.1-1 0-.6.1-.9c0-.2.1-.3.1-.4.3 0 .6-.2.7-.5l.5-.9.7-.4c.1-.1.3-.2.3-.3l.3-.6h.3c.3 0 .5-.1.7-.3l.7-.7 1.3-.5c.2-.1.3-.2.4-.3l.7-.9.3-.1c.1 0 .2-.1.3-.2l.7-.5 4.5-.5c.3 0 .5-.2.7-.4l.3-.4.9-.1c.2 0 .5-.2.6-.3h.9l.7-.1h.1c.1.1.3.1.4.1h.2l1-.3c.1 0 .2-.1.2-.1l.1-.1.5.1h.2c.2 0 .3 0 .5-.1.1 0 .2.1.3.1h.2l2.3-.5h2.6c.4.4.9.5 1.4.5.2 0 .5 0 .7-.1.3 0 .6.1 1 .1h.1v.1c-.3.3-.3.8-.1 1.1l.4.7.2-.3 1.2 1.2c.2.2.4.3.7.3h.1l3-.3c.4 0 .8-.4.8-.8l1.2-.4c.3-.2.6-.5.5-.9l-.1-1.3.1-.1c.1-.2.2-.4.2-.6V65c0-.9-.5-1.6-1.3-1.8-.4-.1-.7-.2-1-.3 0-.1-.1-.2-.2-.2-.6-.5-1.1-.9-1.5-1.1s-.8-.3-1.1-.4h-1.8c-.7-.6-1.1-.9-1.6-.9h-1.9c-.5 0-.8.1-1.1.2s-.5.2-.7.3-.3.2-.5.3h-.3c-.4 0-.5-.1-.6-.2-.2-.2-.4-.3-.7-.3l-2.8.1h-.2l-4.6 1c-.5-.1-.7-.2-.9-.2-.5 0-1 .2-1.5.5l-1.1.1h-.2l-.4.1h-.8c-.4.1-.9.3-1.3.6-.4.2-.8.4-1.1.6-.9.4-1.1.4-1.1.4-.1-.1-.3-.1-.4-.1-.2 0-.5.1-.6.2l-.6.6h-.8c-.3 0-.6.2-.8.4 0 0-.1.2-.8.7-.5.4-1.1.8-1.7 1.2s-1.2.8-1.7 1.1c-.4.2-.6.3-.7.4-.4.1-.7.4-.8.8s-.1.8-.2 1.1c-.2.1-.4.3-.5.5l-.8 1.8c-.1.1-.1.3-.1.5-.5.3-.6.9-.6 1.1v3.2c0 .2 0 .3.1.5l.4.7c-.1.3-.1.6.1.9l.7 1.2.3.3 1.9 1.3 1.1 1.1c.1.1.2.1.2.2l2.3 1.2c.1.1.2.1.3.1l.2.2c.4.5.9.8 1.4.9l2.2.5.6.4c.2.1.3.1.5.1h.2l.8.4.3.4c.2.2.4.4.7.4l.7.1.5.6c.2.2.5.4.7.4h.6l1.4.3h.6l.6.5c.1.1.2.1.3.2l1.5.5.3.4c.1.2.3.3.5.3l2.2.7 1.3 1.3c.1.1.2.2.4.2l1.5.5.5.6c.3.4.6.7.8 1.1.2.3.3.7.4 1.2 0 .2 0 .4.1.6 0 .2 0 .4.1.6-.1.1-.1.2-.2.4 0 .1-.1.1-.1.2l-.2.4-.9.2c-.4.1-.7.5-.7.9 0 .3-.1.4-.2.5s-.3.2-.5.2c-.6 0-1.1.2-1.6.7 0 0-.1.1-.5.1h-.2c-.3 0-.5.1-.7.3l-.7.7-.4.1c-.2.1-.3.2-.5.3l-.3.3h.1-.2l-1.9.4c-.1 0-.2 0-.2.1l-1 .5-.8.1h-.2l-1.9.6c-.2.1-.3.2-.4.3-.2.2-.3.4-.4.4s-.2 0-.4-.1c-.4 0-.5-.1-.6-.1h-.5c-1 0-2.1.1-3.3.4h-.4c-.1 0-.3 0-.4-.1-.1 0-.1-.1-.2-.1-.2-.1-.7-.1-2.4-.1h-1.2c-.1 0-.2 0-.4.1l-1.3.5-5.3-.4h-.3c-.6 0-.8-.1-.9-.1s-.2-.1-.2-.1l-.3-.3c-.3-.3-.6-.4-.8-.4s-.3 0-.5.1l-.2-.2c-.1-.2-.3-.3-.5-.3l-1.6-.3-.8-1c-.1-.2-.3-.3-.5-.3l-2.2-.8-.8-.5c-.4-.4-.6-.8-.6-1.2v-.3c0-.1.1-.1.1-.1l1-1.2c.1-.1.2-.2.2-.4l.1-.4 1.5-1c.1-.1.3-.2.3-.4.1-.3.2-.6.2-1 0-1-.7-1.7-1.7-1.7-.5 0-1 .2-1.5.6l-1.1.5c-.1 0-.1.1-.2.1l-.8.6c-.1.1-.2.2-.3.4l-.1.2-.3.1c-.4.1-.7.5-.7.9v.7c0 .1 0 .3.1.4l.2.4-.5 1.2c-.1.3-.1.6.1.9l.2.3c.1.7.2 1.1.4 1.5.1.2.2.4.4.6l.6 1.2c.1.2.2.3.3.4l.8.5.9.8c.1.1.2.1.3.2l.6.2.6.9.1.1c.2.2.5.4.9.4.2 0 .4 0 .6-.1h.1c.1 0 .1.1.2.2.2.2.4.3.7.3.2.4.5.7.9.9.1.1.3.1.4.1h.3l.7-.2.3.3c.2.2.4.2.6.2h.1l.8-.1 1.7.7c.1 0 .2.1.3.1s.3 0 .4-.1l.2.1c.2.1.3.2.5.2h1.4l1.5-.3 1.3.2c.1.2.2.3.4.4s.3.1.5.1h.2c.3-.1.6-.2.8-.3.1-.1.3-.2.4-.3h.1c.3 0 .4 0 .5.1s.3.1.4.1h.6c.2.2.4.3.7.3h.2l.8-.1 1.7.3h.2c.1 0 .2 0 .3-.1l.4-.2.4.1h.2c.3 0 .5-.1.7-.3l.3.1h.2c.2 0 .4-.1.6-.2l.3-.3 1.4-.6h2.2c.1 0 .2 0 .3-.1l2-.7c.1 0 .1-.1.2-.1l1.1-.7 1.5-.6zm-105.1 29c-.2-.1-.4-.1-.7-.1-.4 0-.6.1-.7.2h-.3c-.2 0-.4.1-.5.3l-.6-.3c-.1 0-.2-.1-.3-.1-.2 0-.4.1-.5.3l-.1.2h-.5c-.1 0-.3 0-.4.1l-.6-.2v-.4c.1-.1.2-.2.2-.4.1-.3.1-.5.2-.6v-1.5l-.1-.3c.1-.2.1-.4.2-.5l.2-.4v-.1c.1-.2.1-.4.1-.6v-.1l.3-1.7v-1.8l.5-3.1.2-.3c.1-.2.1-.5 0-.7-.1-.1-.1-.1-.1-.2.1-.2.2-.4.3-.5v-.3l-.1-.3.1-.3c.1-.2 0-.3 0-.5l-.1-.2-.1-.8c0-.3-.3-.5-.6-.6-.2-.4-.7-.6-1.1-.6-.5 0-.7.2-.9.4l-.1.1c-.1.1-.2.1-.2.2l-.2.3c-.1.1-.1.3-.1.5-.3 0-.5.1-.7.2-.1.1-.3.3-.4.6l-.3.2c-.1.1-.2.3-.3.4-.1 0-.2.1-.3.2l-.3.3-.4.2c-.2.1-.3.3-.3.4v.1c-.6.5-.8.7-.9.9s-.2.4-.2.6l-.6.6c-.3.2-.5.4-.8.5-.2.1-.3.2-.3.4l-.2.7-1.4 1.4c-.1.1-.1.2-.2.2-.1.3-.1.5-.2.7 0 .1-.1.2-.1.2l-.1.1c-.1.2-.1.3-.2.4l-.1.1h-.1c-.2 0-.4.1-.7.2-.2.1-.3.2-.4.4-.1.3-.1.5-.2.7l-.1.1c-.6.4-1 .8-1.2 1.2-.1.2-.2.4-.2.6-.1 0-.2.1-.3.1-.2.1-.6.4-.6 1-.1.1-.2.2-.3.2l-.1.1-.1.1c-.1.1-.2.1-.3.2l-.3.3h-.1c-.2 0-.6.1-1.2.1s-1.4 0-2.4.1c-.1 0-.2 0-.3.1-.5.3-.9.7-.9 1.2v.1c0 .4.3.7.6.8l.3.4c.1.1.2.2.4.2l1.2.1v.1l-.8 1h-.1c-.3 0-.5.2-.6.4v.1c-.1.1-.3.2-.3.4 0 .1-.1.2-.1.2s-.2.1-.6.2c-.3 0-.4.3-.5.5 0 .2-.1.4-.1.5 0 0-.1 0-.1.1-.1 0-.2.1-.3.2l-.2.4-.7.3c-.2.1-.3.2-.3.3l-.2.4h-.1c-.2 0-.3.2-.4.3l-.7 1.5-.9.4c-.1.1-.3.2-.3.4l-.1.4-.8.5-.1.1-.5.6-.9.9c-.1 0-.2.1-.2.1-.1.1-.1.2-.3.5l-.1.1c0 .1-.1.2-.2.3l-1 .6c-.2.1-.3.3-.3.5v.5c0 .1 0 .1-.1.1-.2 0-.4.1-.5.3-.1 0-.2.1-.3.2l-.6.6-.5.1-.2-.1h-.2c-.1 0-.2 0-.3.1-.2.1-.3.3-.3.5v.9c0 .2.1.4.3.5.5.3.9.5 1.3.5.1 0 .2 0 .3-.1h.1c.2-.1.5-.2.7-.3.1 0 .3-.1.5-.2s.3-.2.3-.4v-.2c.1-.1.2-.1.2-.2h.1c.2 0 .4-.1.5-.3l.4-.7.8-.6c.1-.1.2-.1.2-.2l.3-.5 1-.7.2-.2.2-.4.5-.4h.1c.2 0 .3-.2.4-.3l.3-.6 1.1-.6c.1-.1.2-.1.3-.3l.3-.6.7-.8.4-.1c.2-.1.3-.2.4-.3l.3-.6.4-.3c.1 0 .1-.1.1-.1l.3-.4.5-.4.1-.1.7-1 .3-.1c.1-.1.3-.2.3-.3l.5-.9.8-.4c.2-.1.3-.3.3-.5v-.1c.1 0 .1-.1.2-.1l1.4-1.1.7-.2c.1 0 .2-.1.2-.1h.3c.2 0 .5-.1.9-.3h2.1l.5.2h.9c.2 0 .4-.1.7-.2.1 0 .1-.1.2-.1l.7.1h.1l1.5-.1.1.2c.1.1.2.3.4.3h.2c.1 0 .2 0 .3-.1l.6-.4h.2c-.1.2-.1.4 0 .6v.1c0 .1 0 .1-.1.2-.1.2-.1.3-.1.5l-.1 2.1v.3l-.1.4c-.1.2 0 .4.1.5l.1.1v.3l-.3.3c-.1.1-.2.3-.2.4 0 .2 0 .3.1.5l.1.1-.1.4v.4l.4.8-.1 1.6v.3l.4 1.1v.9c0 .1.1.3.1.4-.1.2-.1.3 0 .5l.3.7c.1.2.2.3.4.4l.3.1.9 1c.1.1.3.2.5.2.1 0 .2 0 .3-.1l.7-.5c.1-.1.2-.3.3-.4 0-.2 0-.4-.2-.5l-.2-.2c.1-.3 0-.6-.2-.8 0-.2-.1-.4-.2-.5l-.1-.1c-.1-.4-.1-.7-.2-.9-.1-.3-.2-.5-.3-.8-.1-.2-.1-.4-.2-.5-.1-.2-.1-.3-.2-.4l.1-.1c.1-.1.1-.2.1-.4v-.5c0-.8 0-1.2-.1-1.3 0-.2 0-.3-.1-.4l-.1-.1.4-1.4v-.4c-.1-.4-.2-.6-.2-.7 0 0 0-.2.1-.5v-1.1c.1-.1.2-.2.3-.4.1-.1.1-.2.1-.3l.2-2h.1l2.2-.6c.1 0 .2-.1.3-.2l1.4.1c.1 0 .3 0 .4-.1l.4-.3h.1c.1 0 .2.1.3.1s.2.1.3.1c.7 0 1.2-.5 1.2-1.2 0-.5-.1-.9-.4-1.1-.8.1-.8.1-.9.1zm-7.4-7.7l-.1.3c0 .1-.1.2 0 .3l.1.7-.2.4c-.1.1-.1.3 0 .4l.1.5-.2.7v.7l-.3.5c-.1.1-.1.3 0 .4l.1.3-.3.4c-.2.2-.2.4-.1.6.1.3.2.5.2.6l-.1.1c-.2.2-.2.5-.1.8v.3h-.3c-.2 0-.3.1-.4.2l-.1.1-2.4.2-.2-.2c-.4-.3-.7-.4-1.1-.4-.1 0-.3 0-.7.1-.1 0-.3.1-.8.2-.1 0-.3 0-.8.1-.5 0-.9-.1-1.3-.2 0-.1.1-.3.3-.6l.8-.6.7-.2c.2 0 .3-.2.4-.3l.3-.6.3-.1c.1 0 .2-.1.3-.2l.4-.5.7-.5c.2-.1.3-.3.3-.5v-.2h.2c.2-.1.3-.2.4-.4 0-.2.1-.3.1-.3.1 0 .1 0 .3-.1.3-.1.5-.3.5-.6 0-.2 0-.3.1-.3l.4-.4.1-.1c.1 0 .2-.1.2-.2s.1-.1.1-.2l.2-.6.5-.3c.1 0 .2-.1.2-.2l.5-.7c.1-.1.1-.2.1-.3l.5-.2c.1-.1.3-.2.3-.3l.1-.2.1.1zM138 136c.1 0 .2.1.4.1.3 0 .6-.2.9-.5l.3-.3c.2-.2.3-.4.3-.8 0-.2.1-.3.1-.3v-.1c.1-.2.1-.4 0-.6l-.2-.3.1-.2v-.3l-.1-.7c0-.1 0-.2-.1-.3l-.3-.5-.3-.7c0-.1-.1-.2-.2-.3l-.5-.3c-.3-.3-.6-.5-.9-.6s-.5-.1-.7-.1-.4 0-.8.1l-1.8.4h-.1l-.7.3-.6.1c-.2 0-.4.2-.4.4l-.2.2c-.1.1-.1.1-.2.1h-.3l-.6.2c-.2.1-.3.3-.4.5v.1c-.1.1-.3.2-.4.3-.1.2-.2.2-.3.3l-.1.1c-.2.1-.3.2-.4.4s-.1.3-.1.3l-.2.2c-.4.1-.6.3-.8.5-.1.1-.2.3-.2.5-.2 0-.4.2-.4.3l-.2.3-.4.4-.4.4c-.1.1-.2.2-.3.4-.1 0-.2.1-.3.2l-.6.8c-.1 0-.2.1-.3.1-.3.2-.4.4-.5.6l-.3.6c0 .1 0 .2-.1.3v.1l-.2.1c-.2.1-.4.3-.4.6v.2l-.3.3v-.3l.2-.2c.1-.1.1-.2.2-.3l.1-.9c.1-.1.2-.2.2-.4l.4-2.7.4-.6c0-.1.1-.1.1-.2l.2-.8v-.5c0-.6-.1-1.1-.2-1.5-.1-.3-.2-.6-.4-.8l-.3-1.2c0-.1-.1-.2-.2-.3l-.7-.5c-.1-.1-.2-.1-.3-.1s-.3.1-.4.2c-.2.2-.3.4-.4.6 0 .1-.1.1-.1.1l-.1.1c-.2.2-.2.4-.3.6v1.3c0 .2 0 .4.2.6l.1.1-.1.6v.5l-.1.1c-.1.1-.1.3-.1.5l.1 1.2-.4 1.9-.3.8c-.1.2-.1.4 0 .6v.1c0 .1-.1.1-.1.2-.1.1-.1.2-.1.3l-.4 2.3-.4 1.3v.1l-.4 2-.3.3c-.1.2-.1.5-.2.7 0 .2-.1.5-.1.9l-.2.2c-.1.1-.1.1-.1.2l-.3.9v.1l-.2 1.2-.4 1.3c-.3.1-.5.4-.5.8v.8c-.1.1-.3.2-.3.4l-.2.6-.2.2c-.2.2-.3.6-.1.9.3.5.7.8 1 1.2.4.4.8.6 1.1.6s.5-.1.7-.3c0 0 .1-.1.1-.2l.1-.3.4-.2c.1-.1.2-.2.3-.4v-.6s0-.1.1-.1l.2-.2c.1-.1.2-.3.2-.4v-.8c.1-.1.2-.4.2-.6l-.1-.5c.2-.1.3-.3.3-.5v-.3h.1c.2-.1.3-.2.3-.4l.2-.8.5-.5c.1-.1.1-.1.1-.2l.4-1.2.4-.4.1-.1.6-1.2c0-.1.1-.2.1-.2 0-.2.1-.4.1-.6.1-.2.1-.3.1-.3l.8-.8c.1-.1.2-.3.2-.4v-.2c.2-.1.3-.2.3-.4l.1-.6.2-.2c.2-.1.3-.3.3-.5h.1c.2-.1.3-.2.3-.4l.1-.5c.1-.1.3-.3.4-.5.2-.3.4-.5.5-.8.2-.1.4-.2.4-.5l.1-.5.3-.2c.1 0 .1-.1.2-.2l.1-.1h.2c.1-.1.3-.2.3-.3l.4-.9.6-.2c.1 0 .2-.1.2-.2l.7-.8.7-1 .8-.3c.1 0 .1-.1.2-.1l.5-.5 1-.7 1.1-.2.6.1.4.3c.1.1.2.1.2.1.1 0 .2.1.2.1.1.1.1.2.1.3l.1.6-.1.4c-.1.2-.2.4-.2.5 0 .2 0 .4.3.7.2.3.5.4.8.4zm32.7-30.9l1.3-3.5c.1-.3.2-.6.2-1l.1-.7.1-.1c.4-.2.8-.9.9-1.8l.1-1 .5-.9.3-.9 1.1-5 1.2-3.8c0-.1.1-.2.1-.3l.6-2.7.6-1.4c.1-.2.1-.4.2-.6l.5-2.1 2.6-8.1c0-.2.1-.3.1-.5l.8-4.1v-.2s0-.2.2-.7c.3-.8.5-1.7.6-2.6.2-1.6.1-2.6-.2-3.2V59c0-.5-.1-1-.3-1.3l-1.6-2.2c-.1-.2-.2-.3-.4-.3l-1.1-.2c-.4-.1-.9.5-1.1 1.3l-1.2 4.1c-.1.3-.1.5-.2.8l-.5 5.2-.3.8c-.1.4-.2.8-.2 1.2v.3l-.4 1.1c-.2.5-.3 1-.2 1.5-.3.4-.5 1-.6 1.6l-.3 2.8-.9 2c-.1.3-.2.7-.3 1.1l-.3 2.5c-.8 1.3-1.2 2.4-1.4 3.5-.1.5-.2 1.1-.4 1.9-.1.1-.2.4-.5.8-.4.6-.7 1.6-.6 2.5l.1.7c-.2.3-.3.8-.4 1.2l-.6 1.1c-.2.3-.4.8-.4 1.3l-.2 1.7-.7 1.5c-.2.3-.3.8-.3 1.2l-.3 2.3-.7 1.5c-.2.4-.3.8-.3 1.2l-.2 2.2c0 .2-.1.2-.1.2-.3.5-.6 1-.8 1.6-.2.4-.4.8-.5 1.2-.2.6-.4 1.3-.5 2 0 .2 0 .4-.1.5l-1.4 4.1c-.3.8-.5 1.6-.6 2.4 0 .3-.1.5-.1.7-.1.5-.2.8-.3 1.2l-.1.1-.6.5c-.4.3-.7 1-.8 1.7-.1.8 0 1.5.3 1.9v.2c-.6.8-1.1 2.1-1.5 3.2-.1.2-.1.5-.2.7-.1.9-.3 1.5-.3 1.9l-.3-.6c0-.1-.1-.1-.2-.2l-.3-.3c-.1-.3-.1-.5-.3-.7l-.1-.2-.1-.1c-.1-.2-.3-.3-.5-.4-.1-.1-.3-.2-.5-.2-.1-.1-.2-.2-.3-.2-.2 0-.3-.1-.4 0h-.1c-.2-.1-.4-.1-.6-.2-.3-.1-.6-.3-1.1-.5h-.2c-.1 0-.1 0-.2.1l-.6.4-1.4.2c-.1 0-.1 0-.2.1l-2.1 1.2c-.1.1-.2.2-.3.4-.1.3-.2.5-.2.6-.1 0-.2.1-.6.1-.2 0-.4.2-.4.4l-.1.1-.1.1-.1.1c-.1.1-.3.2-.4.4l-.1.1-.4.9-.3.6-.2.2-.2.3-.2.2c-.1.1-.2.2-.5.3-.2.1-.3.2-.3.4l-.2 1.2-.4.4c-.1.1-.1.2-.2.3v.7c0 .2-.1.4-.1.5 0 0-.1.1-.2.3-.1.1-.1.2-.2.3l-.2 1.2c-.4.3-.6.6-.7.8s-.2.5-.2.8l-.1.1-.1.1c-.1.1-.1.3-.1.5l.1.8c-.2.4-.3.8-.4 1.2v.5l-.3.6c0 .1-.1.2-.1.3l-.1 1.1-.1.2-.2.2c-.1.1-.1.2-.1.3v.1l-.3.5c0 .1-.1.2-.1.2-.1.8-.2 1.4-.1 1.8v.8c0 .2 0 .3-.1.3l-.2.5v.4l.2.7-.1.4c0 .1 0 .3.1.4l.1.3c-.1.4-.2.7-.2 1v.1c0 .1 0 .2.1.3.1.2.2.3.2.3l.7 1.5c.1.1.2.3.3.3l.3.1.4.6c.1.2.3.2.4.2h.7c.2.2.5.3.8.3.2 0 .6-.1.9-.7.1 0 .2-.1.5-.1.1 0 .3-.1.4-.2.2 0 .3 0 .4-.1.2-.1.4-.2.7-.3.1-.1.2-.2.2-.3l.2-.6h.1c.1 0 .2-.1.3-.2l.1-.2c.1 0 .2-.1.3-.1.2-.2.3-.4.4-.7.1-.2.2-.4.5-.5.3-.2.6-.4.7-.5.2-.1.3-.3.3-.5l.4-.2c.2-.1.3-.2.3-.4l.1-.3c.1-.1.3-.2.3-.3.1-.2.2-.4.2-.7l.1-.1c.1-.1.2-.2.3-.2.1-.1.2-.2.2-.4l.1-.5.3-.1c.1 0 .2-.1.3-.2l.3-.5.3-.3c.1-.1.2-.3.2-.4v-.4h.2c.3 0 .5-.3.5-.6l.3-.2c.1-.1.1-.2.2-.3l.2-.8.1-.1c.1-.1.2-.2.2-.4l.1-.5.5-.4c.1-.1.2-.2.2-.3s.1-.3.2-.4v-.1c0 .7 0 1.5-.1 2.4v.6c0 1.4-.1 3.3-.1 5.5 0 .7.1 1.2.4 1.5l.5.4.3 1.6c.1.6.3.9.6.9.1 0 .2 0 .3-.1.4-.2 1.1-.8 1.7-2.4.2-.6.4-1.3.5-2.1l.1-.8v-.4c0-.3 0-.6-.1-.9l-.3-1 .6-2.1c.3-1 .1-2-.3-2.4l-.1-.1.2-1.4.9-3.6 1.6-5.4v-.2l1.1-4.4v-.2l.5-2.7.5-.8c.2-.3.3-.8.4-1.3l.1-.4v-.2l.8-3 .3-1 .4-1.6 1-1.8c0-.1.1-.2.1-.3l.6-1.4.4-.4.1-.1c.2-.3.5-.9.7-1.9.1-.7.1-1.4 0-2.2l.1-.1c.5-.3.9-1.2.9-2.1l.3-2zm-15 32.6l-1.1 2.1-.4.3c-.1.1-.1.2-.2.3l-.3 1.2c-.4.4-.7.8-.9 1.3-.1.3-.2.4-.2.6 0 0-.1 0-.2.1-.1 0-.2.1-.3.2l-.3.4c-.1.1-.1.1-.1.2l-.2.6-.6.6c-.1.1-.2.2-.2.4s-.1.3-.2.4c-.2.2-.3.4-.4.6-.5.1-.9.4-1 1 0 .2-.1.5-.1.7l-.5.5c-.2.1-.3.2-.4.3l-.2.3-.2.2-.1.1c-.1.2-.2.3-.3.4s-.1.1-.3.1c-.1 0-.2.1-.3.1l-.3.3c-.1.1-.2.3-.2.4 0 0-.1.1-.2.3-.4.3-.5.4-.5.4-.1 0-.1.1-.2.1l-.3.3-.1.2-.1.1c0 .1-.1.1-.3.1s-.3.1-.4.2-.2.2-.2.3c-.1-.1-.3-.1-.5-.1-.3 0-.5.1-.7.1-.1.1-.2.1-.3.1l-.4-1.1v-.1c0-.1-.1-.1-.1-.2s0-.5.2-2.1v-.4c0-.1-.1-.2-.1-.2.1 0 .1-.1.2-.2s.2-.3.2-.5v-1.1l.4-1.3v-.4l.3-.3c.1-.1.2-.3.2-.6l-.1-.7.4-.8c.1-.1.1-.3 0-.4v-.2l.7-1.5c.1-.2.1-.3 0-.5l-.1-.3.1-.1 1.1-2.1c.1-.1.1-.2.1-.4s-.1-.3-.2-.5l.5-.6.1-.1.1-.2v-.1c.1-.2.1-.3.1-.5s.1-.3.2-.5v-.1c.5-.1.8-.6.8-.9v-.1l1-.8c.1-.1.2-.3.2-.4 0-.2 0-.3.1-.5 0-.1.1-.2.1-.4.1 0 .2 0 .3-.1.1 0 .2-.1.3-.1l.4-.4c.3-.1.5-.4.5-.7l.2-.2c.1-.1.1-.1.2-.1s.2 0 .2-.1c.1-.1.2-.1.2-.2l.2-.1c.1 0 .3-.1 1-.4l.9-.4h.6l.4-.2.4.3c.1 0 .1.1.2.1l.4.1c.4.4.7.8.9 1.1s.3.5.3.8v.2c0 .1 0 .2.1.3l.4.7.1.6c0 .3.1.5.3.7.1.1.3.2.4.1 0 .1 0 .1-.1.2v.1c-.1.1-.2.3-.3.5-.1.6-.2.8-.2.8s-.1.1-.6.2c-.2 0-.3.2-.4.4s-.1.4 0 .6c.1.1.1.2.1.2-.1.3-.1.3-.2.4zm31.6-9.7c-.1-.1-.2-.2-.4-.3-.1-.1-.2-.1-.3-.2-.1-.2-.2-.3-.4-.3l-.7-.1h-.2l-.5.1-.1.1c-.1.1-.2.1-.4.2s-.4.1-.6.2l-.4.2c-.3.1-.6.2-.8.4-.2.1-.4.3-.6.4-.1 0-.1.1-.2.2-.2.3-.4.4-.7.5-.1 0-.3.1-.5.3-.1.1-.2.3-.3.5-.1 0-.3.1-.7.2-.2 0-.3.2-.4.4l-.2.6-.6.2c-.1 0-.2.1-.2.2l-2 2.5-.1.1-.3.8-.3.3c-.1.1-.1.2-.1.3-.1.2-.1.3-.1.4h-.2c-.2 0-.3.1-.4.3-.1.1-.1.3-.1.5v.3h-.2c-.2-.3-.5-.4-.6-.4-.2 0-.3 0-.4.1l-.7.2c-.3.1-.5.4-.4.7.1.5.1.9.2 1.2.1.2.2.5.3.9v.3c-.1.1-.2.3-.2.4v.1l-.1.1c-.2.1-.4.3-.4.6 0 .4 0 .6-.1.7l-.3.3c-.1.1-.2.2-.3.4-.1.3-.2.6-.2.9-.1.2-.2.4-.4.6-.1.1-.2.2-.2.4l-.1 1-.4 1.1v.1l-.2 1.2c0 .2 0 .3.1.5l.2.4-.1.4v.3l.2 1.1v.1c0 .2 0 .5.1.8.1.2.1.3.2.5s.2.4.5.7l1.1 1.3.1.1 1.4 1.2c.1.1.2.1.3.1h.6c.1 0 .2-.1.2-.1l.1.1.1.1c.1 0 .2.1.2.1.1 0 .2 0 .3-.1l.2-.1.3.1h.3l.4-.2h1.1c.2 0 .4-.1.5-.3l.1-.1c.2 0 .4-.1.6-.2h.4c.2 0 .4-.1.5-.3l.1-.2.6-.2c.1 0 .1-.1.2-.1l.4-.4c.1-.1.2-.3.2-.4l.1-.1h.5c.2 0 .4-.1.5-.4l.2-.5h.1c.3 0 .5-.2.7-.4 0 0 .1-.1.1-.2l.1-.1h.2c.4 0 .8-.3 1.4-1.4.1 0 .2-.1.3-.2h.1c.1 0 .2 0 .3-.1.2-.1.2-.3.3-.5l.1-.1h.1c.2 0 .4-.1.5-.3l.3-.6c.1-.2.1-.4.1-.5v-.1c.1-.1.1-.3.1-.5s-.1-.3-.2-.4l-.2-.2c-.1-.1-.2-.1-.3-.1h-.4c-.2 0-.4.1-.5.3v.1c-.2.1-.3.2-.4.4l-.1.2-.2-.1h-.1c-.2 0-.3.1-.4.2l-.3.3-.4.2c-.1.1-.3.2-.3.3s-.1.2-.2.3h-.1c-.3.1-.6.2-.8.4l-.1.1-.1.1c-.1.1-.2.1-.2.1-.2 0-.3.2-.4.3l-.1.2c-.1.1-.2.1-.4.1h-.5c-.1 0-.1 0-.2.1-.2 0-.3.1-.4.2l-.3.4h-.3c-.2 0-.3.1-.5.2-.3 0-.6.1-.8.2s-.3.2-.5.3-.3.2-.5.2h-.3c-.1 0-.2-.1-.3-.1-.2 0-.4.1-.5.3h-.5c-.1 0-.3-.1-.4-.1h-.1c-.5 0-.8-.1-.9-.1-.1-.1-.4-.2-.9-.6-.1-.1-.2-.1-.3-.1h-.2v-.1l.1-.2c.1-.3 0-.6-.2-.7s-.2-.2-.2-.2V149.2c0-.1 0-.3-.1-.4l.2-1.3.2-.8.2-.2c.2-.1.4-.3.4-.7v-.6c0-.2.1-.4.2-.7v-.1l.2-.7.2-.2c.1-.1.2-.2.2-.4v-.2l.3-.2.7.3h.2l1.4-.1c.1 0 .3-.1.4-.2l.6.2h.2c.1 0 .2 0 .3-.1l.4-.2.4-.1c.2-.1.3-.2.4-.4l1.1-.3c.1 0 .2-.1.3-.2.2-.2.3-.4.3-.5.1 0 .2-.1.3-.2.2 0 .4-.1.6-.3l.1-.1.5-.4.1-.1.2-.4.3-.1.2-.1.6-.5.1-.1.4-.5c.3-.2.4-.3.5-.5.1-.1.3-.3.5-.6.1-.1.1-.2.1-.3 0-.2.1-.3.1-.3s0-.1.2-.2c.2-.2.4-.4.5-.6.2-.2.4-.5.5-.9 0-.2.1-.4.1-.5s0-.2.1-.4c0-.1.1-.2 0-.3l-.1-.7c.1-.1.2-.4.2-.6l-.1-.6.2-.2c.2-.2.2-.5.2-.7-.1-.2-.1-.3-.1-.3v-.7c.1-.2.1-.4.1-.7v-.7s-.1-.2-.3-.5zm-2 3.3l-.3.5c0 .1-.1.1-.1.2l-.2 1.2c-.2.4-.4.7-.5 1s-.1.5-.2.7v.1c-.2.2-.3.4-.5.6-.1.1-.2.3-.4.4-.3.2-.4.4-.5.7l-1.1 1h-.3c-.3 0-.5.2-.6.6l-.3.3s-.1.1-.1.2l-.5.1c-.2 0-.3.2-.4.3l-.1.3-1.1.4h-1.2c-.2.1-.5.2-.7.2 0-.1 0-.1-.1-.2 0-.2-.1-.4-.1-.5l.1-.1c.2-.2.3-.4.5-.7l.3-.1c.2-.1.3-.2.4-.4l.1-.4.2-.3c.1-.2.1-.4.1-.6l.3-.1c.2-.1.3-.2.4-.4l.1-.3c.2-.1.3-.2.4-.4.1-.3.3-.6.5-.8.3-.3.5-.3.5-.3.1 0 .3 0 .4-.1l.8-.8c.3-.3.5-.7.7-1l.1-.1.1-.1c.2 0 .3-.1.5-.1.1 0 .2-.1.3-.1l.2-.1c.1 0 .2 0 .3-.1.2 0 .4-.3.5-.5.1 0 .2-.1.4-.2s.5-.3.8-.5h.1l.3.5zM217 147l-.8-.1c-.2 0-.3.1-.4.2l-.5.7-.4.4c-.1 0-.2.1-.3.2l-.7.8-.4.1c-.2 0-.3.2-.4.4l-.2.5-1 .8-.2.2c-.1 0-.1.1-.2.1l-.1.2-.5.1c-.1 0-.2.1-.3.2l-.3.4c-.1.1-.2.1-.3.2-.2.1-.4.2-.5.3l-.3.3c-.1 0-.2.1-.2.2v-.1l-.1-.4c0-.1.1-.2.1-.3l-.1-1.9.3-.7v-.1l.3-1.5.4-.6c.1-.1.1-.3.1-.4v-.7l.7-1.2c.1-.1.1-.2.1-.3v-1.8l.6-1.1v-.1l.5-1.4v-.4l-.1-.2c.1-.1.2-.2.2-.4s.1-.5.1-.8v-.6c.2-.1.3-.2.3-.4l.6-1.9v-.8l.3-.7c0-.1.1-.2.1-.3v-.7l.1-.1c.1-.2.1-.6-.1-.8l.1-.5c.1-.2 0-.5-.2-.6l-.6-.6v-.1c0-.2-.1-.5-.3-.6l-.3-.2c-.1-.3-.3-.5-.5-.5-.2-.1-.4-.2-.5-.2s-.2 0-.2.1l-.2.1c-.1-.1-.2-.1-.3-.1s-.2 0-.3.1-.2.2-.3.4l-.5.3-.3.3v.1c-.5.2-.7.6-.8.9h-.1l-.4.2c-.1 0-.1.1-.2.1-.2 0-.4.1-.5.2-.2.1-.4.3-.5.6h-.3c-.2.1-.3.3-.4.5 0 .2-.1.3-.2.4l-.2.2-.6.5-.1.1-.5.6c-.2 0-.3.1-.4.2l-.5.6c-.1 0-.2.1-.2.1l-.1.1c-.1.1-.2.3-.3.5-.1.1-.1.2-.1.2-.1 0-.1.1-.2.2l-.3.3-.6.3c-.1.1-.2.2-.3.4-.1 0-.1.1-.2.2l-.7 1-.8.5c-.1 0-.1.1-.2.2l-.9 1.3c-.5.3-.7.5-.7.6-.1.1-.3.3-.5.6-.1.1-.1.2-.1.3s0 .2-.1.3h-.1c-.1 0-.2 0-.3.1l-.5.3c-.1.1-.2.2-.3.4v.2l-.3.3-.1.2c-.1 0-.1 0-.2.1-.3.1-.4.3-.5.6l.5-1.3v-.6l.6-1.5v-.1l.6-2.2.2-.2c.1-.1.1-.2.2-.3l.3-1.1v-.1l.1-1.1.3-.6c0-.1.1-.2.1-.3v-.5l.3-.7c0-.1.1-.3 0-.4l-.1-.5v-.8c0-.1 0-.2-.1-.3l-.5-.9c-.1-.1-.1-.2-.2-.3l-.4-.2c-.1 0-.2-.1-.2-.1-.2 0-.3.1-.4.3l-.4.6-.2.2c-.3.1-.6.4-.7.8v.2c0 .2 0 .4.1.6v.5l-.1.2c-.1.1-.1.2-.2.3l-.3 1.6v.1c0 .3 0 .5-.1.6 0 .1-.2.4-.5.9-.1.1-.1.3-.1.5 0 .1.1.3.2.3v.2l-.3.6c0 .1-.1.2-.1.3v.7l-.4.5c-.1.1-.1.2-.1.3l-.1.5c-.2.1-.4.3-.6.5-.1.2-.1.5.1.7.1.1.1.2.1.2l-.1.1c-.2.2-.2.6-.2.7v.2c-.2.1-.3.3-.3.5v.6c0 .1 0 .1-.1.1l-.1.1c-.1.1-.1.1-.1.2l-.2.6v.2l-.2.2-.4.9c-.1.1-.1.3 0 .4l.1.3-.6 1v.1l-.2.5-.4.8c-.1.2-.1.3 0 .5l-.2.3c-.1.2-.1.5 0 .7v.1c-.1.2 0 .5.2.6l.9 1c.1.1.2.2.4.2h.1l.9-.2c.1 0 .2-.1.3-.2l1-1.2.1-.1.4-.8.6-.3c.2-.1.3-.2.3-.4l.2-.8 1-1.6.1-.1c.1-.1.3-.2.3-.3l.3-.7.5-.3c.1-.1.2-.2.2-.3l.2-.4c.2-.1.3-.3.4-.4l.3-.3.1-.1c0-.1.1-.1.1-.2l.1-.1.4-.1c.2-.1.3-.2.4-.4l.1-.4.2-.3.1-.1.2-.4h.1c.1 0 .2-.1.2-.2l.4-.6.7-.3c.1-.1.2-.1.3-.3l.4-.8.6-.4.2-.2.1-.2.3-.2c.1 0 .2-.1.2-.2l2.2-2.9h.2c.2 0 .4-.1.5-.4l.4-.1c.2 0 .3-.1.4-.3s.1-.3.1-.5l-.1-.2.4-.1c.1 0 .2-.1.3-.2l.2-.3.4-.2c.1 0 .1-.1.2-.1l.3-.4.1-.1.1-.2.2-.1c.1 0 .1-.1.2-.2l.1-.1.6-.3c.1-.1.2-.2.3-.4h.1v.1l.1.4-.4.7c-.1.1-.1.2-.1.4v.8l-.2 1v.7l-.1.1c-.1.1-.2.2-.2.4l-.2 1.1-.2.3c-.1.1-.1.2-.1.3l-.2 1.5v.2l-.3.3c-.1.1-.2.3-.2.5v.2l-.1.5v.5l-.3.5v.1l-.3.8c0 .1-.1.2 0 .3v.6c-.3.6-.5 1-.5 1.3 0 0-.1.1-.1.2s-.1.2-.1.3c-.1.1-.1.2-.1.3l-.2 1.5v.3l-.3.5c-.1.1-.1.3-.1.4v.6l-.3.5c-.1.1-.1.3-.1.4v.4c.2.5.2.9.2 1.3 0 .3-.1.6-.2.9-.1.2-.1.4 0 .6l.3.6c0 .1.1.1.1.1l1.3 1.2c.1.1.1.1.2.1l1 .4h.2c.1 0 .2 0 .3-.1l.4-.3.5-.1c.2-.1.3-.2.4-.4v-.1l.5-.3c.1 0 .1-.1.2-.2l.2-.4c.2-.1.4-.2.6-.4l.1-.1.4-.1c.1 0 .2-.1.3-.3l.1-.1c.1 0 .2-.1.3-.3l.6-1 .4-.3.1-.1.4-.5c.1-.1.2-.3.1-.5v-.1l.1-.1.7-.3.3-.3.3-.6 1.1-1.2c.1-.1.1-.1.1-.2l.3-.8c.1-.2.1-.4 0-.6-.3-.2-.5-.3-.7-.3zm31.5-1.2l-.8-.1c-.2 0-.3.1-.4.2l-.5.7-.4.4c-.1 0-.2.1-.3.2l-.7.8-.4.1c-.2 0-.3.2-.4.4l-.2.5-1 .8-.2.2c-.1 0-.1.1-.2.1l-.1.2-.5.1c-.1 0-.2.1-.3.2l-.3.4c-.1.1-.2.1-.3.2-.2.1-.4.2-.5.3l-.3.3c-.1 0-.2.1-.2.2v-.1l-.1-.4c0-.1.1-.2.1-.3l-.1-1.9.3-.7v-.1l.3-1.5.4-.6c.1-.1.1-.3.1-.4v-.7l.7-1.2c.1-.1.1-.2.1-.3V142l.6-1.1v-.1l.5-1.4v-.4l-.1-.2c.1-.1.2-.2.2-.4s.1-.5.1-.8v-.6c.2-.1.3-.2.3-.4l.6-1.9v-.8l.3-.7c0-.1.1-.2.1-.3v-.7l.1-.1c.1-.2.1-.6-.1-.8l.1-.5c.1-.2 0-.5-.2-.6l-.6-.6v-.1c0-.2-.1-.5-.3-.6l-.3-.2c-.1-.3-.3-.5-.5-.5-.2-.1-.4-.2-.5-.2s-.2 0-.2.1l-.2.1c-.1-.1-.2-.1-.3-.1s-.2 0-.3.1-.2.2-.3.4l-.5.3-.3.3v.1c-.5.2-.7.6-.8.9h-.1l-.4.2c-.1 0-.1.1-.2.1-.2 0-.4.1-.5.2-.2.1-.4.3-.5.6h-.3c-.2.1-.3.3-.4.5 0 .2-.1.3-.2.4l-.2.2-.6.5-.1.1-.5.6c-.2 0-.3.1-.4.2l-.5.6c-.1 0-.2.1-.2.1l-.1.1c-.1.1-.2.3-.3.5-.1.1-.1.2-.1.2-.1 0-.1.1-.2.2l-.3.3-.6.3c-.1.1-.2.2-.3.4-.1 0-.1.1-.2.2l-.7 1-.8.5c-.1 0-.1.1-.2.2l-.9 1.3c-.5.3-.7.5-.7.6-.1.1-.3.3-.5.6-.1.1-.1.2-.1.3s0 .2-.1.3h-.1c-.1 0-.2 0-.3.1l-.5.3c-.1.1-.2.2-.3.4v.2l-.3.3-.1.2c-.1 0-.1 0-.2.1-.3.1-.4.3-.5.6l.5-1.3v-.6l.6-1.5v-.1l.6-2.2.2-.2c.1-.1.1-.2.2-.3l.3-1.1v-.1l.1-1.1.3-.6c0-.1.1-.2.1-.3v-.5l.3-.7c0-.1.1-.3 0-.4l-.1-.5v-.8c0-.1 0-.2-.1-.3l-.5-.9c-.1-.1-.1-.2-.2-.3l-.4-.2c-.1 0-.2-.1-.2-.1-.2 0-.3.1-.4.3l-.4.6-.2.2c-.3.1-.6.4-.7.8v.2c0 .2 0 .4.1.6v.5l-.1.2c-.1.1-.1.2-.2.3l-.3 1.6v.1c0 .3 0 .5-.1.6 0 .1-.2.4-.5.9-.1.1-.1.3-.1.5 0 .1.1.3.2.3v.2l-.3.6c0 .1-.1.2-.1.3v.7l-.4.5c-.1.1-.1.2-.1.3l-.1.5c-.2.1-.4.3-.6.5-.1.2-.1.5.1.7.1.1.1.2.1.2l-.1.1c-.2.2-.2.6-.2.7v.2c-.2.1-.3.3-.3.5v.6c0 .1 0 .1-.1.1l-.1.1c-.1.1-.1.1-.1.2l-.2.6v.2l-.2.2-.4.9c-.1.1-.1.3 0 .4l.1.3-.6 1v.1l-.2.5-.4.8c-.1.2-.1.3 0 .5l-.2.3c-.1.2-.1.5 0 .7v.1c-.1.2 0 .5.2.6l.9 1c.1.1.2.2.4.2h.1l.9-.2c.1 0 .2-.1.3-.2l1-1.2.1-.1.4-.8.6-.3c.2-.1.3-.2.3-.4l.2-.8 1-1.6.1-.1c.1-.1.3-.2.3-.3l.3-.7.5-.3c.1-.1.2-.2.2-.3l.2-.4c.2-.1.3-.3.4-.4l.3-.3.1-.1c0-.1.1-.1.1-.2l.1-.1.4-.1c.2-.1.3-.2.4-.4l.1-.4.2-.3.1-.1.2-.4h.1c.1 0 .2-.1.2-.2l.4-.6.7-.3c.1-.1.2-.1.3-.3l.4-.8.6-.4.2-.2.1-.2.3-.2c.1 0 .2-.1.2-.2l2.2-2.9h.2c.2 0 .4-.1.5-.4l.4-.1c.2 0 .3-.1.4-.3s.1-.3.1-.5l-.1-.2.4-.1c.1 0 .2-.1.3-.2l.2-.3.4-.2c.1 0 .1-.1.2-.1l.3-.4.1-.1.1-.2.2-.1c.1 0 .1-.1.2-.2l.1-.1.6-.3c.1-.1.2-.2.3-.4h.1v.1l.1.4-.4.7c-.1.1-.1.2-.1.4v.8l-.2 1v.7l-.3.2c-.1.1-.2.2-.2.4l-.2 1.1-.2.3c-.1.1-.1.2-.1.3l-.2 1.5v.2l-.3.3c-.1.1-.2.3-.2.5v.2l-.1.5v.5l-.3.5v.1l-.3.8c0 .1-.1.2 0 .3v.6c-.3.6-.5 1-.5 1.3 0 0-.1.1-.1.2s-.1.2-.1.3c-.1.1-.1.2-.1.3l-.2 1.5v.3l-.3.5c-.1.1-.1.3-.1.4v.6l-.3.5c-.1.1-.1.3-.1.4v.4c.2.5.2.9.2 1.3 0 .3-.1.6-.2.9-.1.2-.1.4 0 .6l.3.6c0 .1.1.1.1.1l1.3 1.2c.1.1.1.1.2.1l1 .4h.2c.1 0 .2 0 .3-.1l.4-.3.5-.1c.2-.1.3-.2.4-.4v-.1l.5-.3c.1 0 .1-.1.2-.2l.2-.4c.2-.1.4-.2.6-.4l.1-.1.4-.1c.1 0 .2-.1.3-.3l.1-.1c.1 0 .2-.1.3-.3l.6-1 .4-.3.1-.1.4-.5c.1-.1.2-.3.1-.5v-.1l.1-.1.7-.3.3-.3.3-.6 1.1-1.2c.1-.1.1-.1.1-.2l.3-.8c.1-.2.1-.4 0-.6s-.3-.4-.5-.4zm20.1 2.3c.1-.2.1-.4 0-.5v-.1c.1-.1.1-.3.1-.5s-.1-.3-.2-.4l-.2-.2c-.1-.1-.2-.1-.3-.1h-.4c-.2 0-.4.1-.5.3v.1c-.2.1-.3.2-.4.4l-.1.2-.2-.1h-.1c-.2 0-.3.1-.4.2l-.3.3-.4.2c-.1.1-.3.2-.3.4 0 .1-.1.2-.2.3h-.1c-.3.1-.6.3-.8.5l-.1.1-.1.1c-.1.1-.2.1-.2.1-.2 0-.3.2-.4.3l-.1.2c-.1.1-.2.1-.4.1l-.5.1c-.1 0-.1 0-.2.1-.2 0-.3.1-.4.2l-.3.4h-.3c-.2 0-.3.1-.5.2-.3 0-.6.1-.8.3-.2.1-.3.2-.5.3s-.3.2-.5.2c0 0-.1.1-.3.1-.1 0-.2-.1-.3-.1-.2 0-.4.1-.5.3h-.5c-.1 0-.3 0-.4-.1h-.1c-.5 0-.8-.1-.9-.1-.1-.1-.4-.2-.9-.6-.1-.1-.2-.1-.3-.1h-.2v-.1l.1-.2c.1-.3 0-.6-.2-.7s-.2-.2-.2-.2V149.3c0-.1 0-.3-.1-.4l.2-1.3.2-.9.2-.2c.2-.1.4-.4.4-.8 0-.1 0-.3-.1-.4v-.2c0-.2 0-.4.2-.7v-.1l.2-.7.2-.2c.1-.1.1-.2.2-.4v-.2l.3-.2.7.3h.2l1.4-.1c.1 0 .3-.1.4-.2l.6.2h.2c.1 0 .2 0 .3-.1l.4-.3.4-.2c.2-.1.3-.2.3-.4l1.1-.3c.1 0 .2-.1.3-.2.2-.3.3-.4.3-.5.1 0 .2-.1.3-.2.2 0 .4-.1.5-.3l.1-.1.5-.5.1-.1.2-.4.3-.1.1-.1.6-.5.1-.1.4-.5c.2-.2.4-.3.5-.5.1-.1.3-.3.5-.6.1-.1.1-.2.1-.3 0-.2.1-.3.1-.4 0 0 0-.1.2-.2.2-.2.3-.4.5-.6s.3-.6.4-.9c0-.2.1-.4.1-.5s0-.2.1-.4v-.3l-.1-.7c.1-.2.2-.4.1-.6l-.1-.6.2-.2c.2-.2.2-.5.1-.7s-.1-.3-.1-.3v-.3.1-.1c.1-.2.1-.4.1-.7v-.1c0-.3 0-.4-.1-.6s-.2-.3-.4-.6c-.1-.1-.2-.2-.4-.3-.1-.1-.2-.1-.3-.2s-.2-.2-.4-.3l-.7-.1h-.2l-.5.1-.1.1c-.1.1-.2.1-.4.2s-.4.1-.6.2l-.4.2c-.3.1-.6.2-.8.4-.2.1-.4.3-.6.4-.1 0-.1.1-.2.2-.2.3-.4.5-.7.5-.1 0-.3.1-.5.3-.1.1-.2.3-.3.5-.1 0-.2.1-.7.2-.2.1-.3.2-.4.4l-.2.6-.6.2c-.1 0-.2.1-.2.2l-2 2.6-.1.1-.3.8-.2.3c-.1.1-.1.2-.1.3 0 .2-.1.3-.1.5 0 0-.1 0-.2.1-.1 0-.3.2-.4.3-.1.2-.1.3 0 .5l.1.2v.1h-.2c-.2-.3-.5-.3-.6-.3-.2 0-.3 0-.4.1l-.7.2c-.3.1-.4.4-.4.7.1.5.1.9.2 1.2.1.2.2.5.4.9v.3c-.1.1-.2.3-.2.4v.1l-.1.1c-.2.1-.3.3-.3.6v.7l-.3.3c-.1.1-.2.2-.2.4-.1.3-.1.6-.2.9-.1.2-.2.4-.4.6-.1.1-.2.2-.2.4l-.1 1-.3 1.1v.1l-.2 1.2c0 .2 0 .3.1.5l.2.3-.1.4v.3l.3 1.1v.1c0 .2 0 .5.1.8.1.2.1.3.2.5s.2.4.5.7l1.2 1.2h.1l1.4 1.2c.1.1.2.1.3.1h.6c.1 0 .2-.1.2-.1l.1.1.1.1c.1 0 .2.1.2.1.1 0 .2 0 .3-.1l.2-.1.3.1h.1c.1 0 .2 0 .2-.1l.4-.2h1.1c.2 0 .4-.1.5-.3l.1-.1c.2 0 .4-.1.6-.2h.4c.2 0 .4-.1.5-.3l.1-.2.6-.2c.1 0 .1-.1.2-.1l.4-.4c.1-.1.2-.3.2-.5l.1-.1h.5c.2 0 .4-.2.5-.4l.2-.5h.1c.3 0 .5-.2.7-.4 0 0 .1-.1.1-.2l.1-.1h.2c.4 0 .7-.4 1.3-1.4.1 0 .2-.1.3-.2h.1c.1 0 .2 0 .3-.1s.2-.3.2-.5l.1-.1h.1c.2 0 .4-.1.5-.3l.5-.7zm-11.5-9c.2-.2.3-.4.5-.7l.3-.1c.2-.1.3-.2.4-.5l.1-.4.2-.3c.1-.2.1-.4.1-.6l.3-.1c.2-.1.3-.2.4-.4l.1-.3c.2-.1.3-.2.3-.4.1-.3.3-.6.5-.9.3-.3.5-.3.5-.3.1 0 .3-.1.4-.1l.8-.8c.3-.4.5-.7.7-1.1l.1-.1.1-.1c.2 0 .3-.1.5-.1.1 0 .2-.1.3-.1.1-.1.2-.1.2-.1.1 0 .2 0 .3-.1.2-.1.4-.3.4-.5.1 0 .2-.1.4-.2s.5-.3.8-.5h.1l.3.5v.5l-.3.5c0 .1-.1.1-.1.2l-.2 1.2c-.2.4-.4.7-.5 1s-.1.5-.1.7l-.1.2c-.2.2-.3.4-.4.6-.1.1-.2.3-.4.4-.3.2-.4.4-.5.7l-1.1 1h-.5c-.3 0-.5.3-.6.6l-.3.3s-.1.1-.1.2l-.5.1c-.2 0-.3.2-.4.4l-.1.3-1.1.4h-1c-.1 0-.2 0-.2.1-.2.1-.5.2-.7.2 0-.1-.1-.1-.1-.2 0-.2-.1-.4-.1-.5zm33.9 12.3c0-.1-.1-.1-.1-.2.1-.2.1-.5.1-.7s0-.4-.1-.6c-.1-.5-.4-.7-.7-.7v-.2c-.1-.3-.2-.5-.5-.5l-.1-.2c-.1-.1-.1-.2-.2-.3l-1-.6c-.1-.3-.3-.5-.6-.5-.1-.2-.3-.2-.5-.2h-.5c0-.1-.1-.2-.2-.3-.2-.2-.4-.3-.6-.4-.1 0-.2-.1-.4 0-.1-.1-.2-.2-.3-.2-.1-.3-.4-.5-.7-.5-.1-.1-.2-.2-.3-.2l-.7-.1c-.1-.1-.3-.2-.4-.2h-.2c-.5-.4-.7-.5-.8-.6-.2-.1-.4-.1-.7-.1-.1-.2-.4-.3-.6-.2l-.2.1-.2-.3c-.1-.1-.2-.2-.3-.2l-.4-.1-.1-.2c-.1-.2-.4-.3-.6-.3l-.3.1-.3-.2-.1-.2c-.1-.3-.4-.5-.7-.5l-.3.1-.1-.1c-.1 0-.1-.1-.2-.1l-.4-.1-.2-.3c-.1-.1-.2-.2-.3-.2h-.1l-.1-.2c0-.1-.1-.1-.1-.2l-.8-.7v-.2l-.5-1.5.6-2.2c.2-.2.4-.3.5-.5s.2-.3.4-.5l.3-.6c0-.1.1-.2.2-.4l.4-.2c.2-.1.3-.3.3-.5l.2-.1c.1 0 .2-.1.2-.2v-.1c.1 0 .2-.1.3-.2s.1-.2.2-.2l.2-.1.4-.1c.1 0 .3-.1.3-.3l.1-.3c.1 0 .1-.1.2-.1h.9c.1 0 .2-.1.3-.2l.5-.6.8-.3.1-.1.4-.3c.1 0 .2.1.3.1l1.1-.1c.2.3.4.5.6.7l.6.3c.3.3.7.4 1.1.3h.1c.5-.1.9-.4 1-.8.2-.4.2-.9 0-1.5l-.1-.2c-.1-.3-.2-.5-.3-.6-.1-.2-.3-.3-.4-.4s-.3-.2-.5-.2h-.1l-.1-.2c-.1-.2-.3-.3-.4-.3l-.8-.1c-.1-.1-.3-.1-.5-.1h-.7c-.2 0-.6.1-1 .2s-1 .2-1.7.3c-.1 0-.1 0-.2.1-.4.3-.6.4-.7.4h-.1c-.1 0-.3 0-.4.1-.2 0-.3.2-.4.3v.1l-.4.1c-.3.1-.6.3-.9.4-.3.2-.6.3-.8.5l-.2.2-.3.2c-.2.1-.3.3-.3.4l-1.9.9c-.2.1-.3.2-.3.4l-.1.5-.3.4-.5.2c-.2.1-.3.3-.4.5v.5c-.1.1-.2.3-.2.5 0 0-.1 0-.1.1-.1.1-.2.1-.3.3l-1 2.2c-.1.1-.1.2 0 .4v.1c-.1.1-.1.3-.1.4s.1.2.1.3v.1c-.1.2-.1.3 0 .5s.2.3.3.4c0 .2.1.5.3.6l.1.1.1.3c0 .1.1.2.2.3l.4.4.4.9c0 .1.1.1.1.2l1.8 1.8c.1.1.2.2.4.2h.2l.1.2c.1.1.1.2.2.2.2.1.4.2.5.2h.3l.6.5c.1.1.3.2.4.1.1.1.3.2.4.1l.4-.1.2.3c.1.1.2.2.4.2l.5.1.9.5c.1.1.2.1.3.1h.3l.4.5c.1.2.4.3.6.2l.4-.1.6.5c.1.1.1.1.2.1l1.1.3 2.2 1.3.9 1.1.4.5c-.1.1-.1.2-.1.3v.4l-.4.2c-.2.1-.3.4-.3.7l-.1.1c-.1.2-.2.3-.2.3-.1.1-.3.2-.5.3-.1 0-.1.1-.2.1l-1.1.3c-.1 0-.1 0-.2.1l-.1.1-.5-.1h-.3l-.5.2c-.1-.1-.3-.1-.4-.1s-.2.1-.3.3c-.1 0-.3 0-.4.1-.2 0-.3.1-.5.2l-.3-.2c-.1-.1-.3-.1-.4-.1h-.1l-.7.3c-.3-.1-.5-.1-.8-.1-.2 0-.4.1-.7.2l-.3-.2c-.1-.1-.2-.1-.3-.1l-.8.1-.4-.2c-.1 0-.2-.1-.3 0l-.7.1c-.1-.2-.4-.3-.6-.2-.2 0-.3 0-.4-.1l-.1-.1c-.2-.1-.3-.1-.5-.1h-.7c-.1-.2-.3-.2-.5-.2h-.1l-.1-.1h-.1l-.3-.3-.6-.2c.1-.2.1-.3.1-.5v-.3c-.1-.5-.5-.7-.7-.7h-.3l-.1-.1c-.1-.1-.3-.2-.4-.1l-.6.1c-.1 0-.3.1-.3.3-.4.2-.7.4-.9.8l-.2.5c-.1.2-.1.5.1.7l.2.3.4.8c.1.2.3.3.5.3h.4l.5.3c.1.1.2.1.4.1h.4l.6.5c.1.1.3.2.5.1.1 0 .1-.1.2-.1.1.1.3.2.5.1l.2.2c.1.1.3.2.5.1l.3-.1.8.5c.1.1.3.1.4.1h.1l.3-.1.3.3c.1.1.3.2.4.1h.1c.1 0 .2-.1.3-.2v-.1h.2l.3-.1 1.4.5h.2l1.3-.1.8.2h.3l1.3-.4c.4.2.8.2 1.1.1l.6-.3s.1 0 .1-.1h.4l2.3-.8c.1.1.3.2.5.1.1 0 .2-.1.2-.2l.3-.3h.1l.1-.1 1-.6c.1-.1.2-.2.2-.3l.2-.7.4-.2c.1-.1.2-.1.2-.3l.3-.6c.1-.1.1-.2.1-.4v-.1l.2-.3c.4-.1.4-.3.4-.5z" fill="#fff"/><path d="M0 56.8s168.4-39.2 294.4-25.2c0 0 179 14.5 2.5 133.5 0 0-78.1 50.5-218.2 101 0 0 183.9-42.8 341.4-144.6 0 0 168.2-112.9-65.7-121.4C354.4 0 218.6-3 0 56.8z" fill="url(#a)"/></svg>