<svg xmlns="http://www.w3.org/2000/svg" width="274" height="49" viewBox="0 0 274 49" fill="none"><path d="M61.6856 15.5186H47.2621V32.556H51.3831V27.5519H61.7092C65.1826 27.5519 67.1018 25.5385 67.1018 21.8767V21.1938C67.1018 17.5908 65.1237 15.5186 61.6856 15.5186ZM62.8984 21.8531C62.8984 22.8422 62.345 23.4544 61.4501 23.4544H51.3831V19.9339H61.403C62.498 19.9339 62.8984 20.923 62.8984 21.5823V21.8531Z" fill="#000F56"></path><path d="M90.6857 22.0063C90.6857 18.7213 90.2736 15.2125 85.3638 15.189H75.5558C70.6459 15.2125 70.2338 18.7213 70.2338 22.0063V26.1038C70.2338 28.647 70.2338 32.8975 75.5558 32.8975H85.3755C90.6975 32.8975 90.6975 28.647 90.6975 26.1038V22.0063H90.6857ZM86.5294 25.8212C86.5294 27.2576 86.5294 28.4939 85.0341 28.4939H75.8854C74.3901 28.4939 74.3901 27.2576 74.3901 25.8212V22.3124C74.3901 20.876 74.3901 19.6279 75.8737 19.5926H85.0341C86.4588 19.6279 86.5294 20.6522 86.5294 22.3124V25.8212Z" fill="#000F56"></path><path d="M142.622 21.1938C142.622 17.5908 140.644 15.5186 137.206 15.5186H122.783V32.556H126.904V27.5519H137.23C140.703 27.5519 142.622 25.5385 142.622 21.8767V21.1938ZM138.419 21.8531C138.419 22.8422 137.865 23.4544 136.971 23.4544H126.904V19.9339H136.923C138.018 19.9339 138.419 20.923 138.419 21.5823V21.8531Z" fill="#000F56"></path><path d="M149.381 15.5186H145.083V32.556H149.381V15.5186Z" fill="#000F56"></path><path d="M170.775 28.1877H158.329H157.952V27.7992V26.3509V25.9741H158.329H170.775V22.0768H158.329H157.952V21.7001V20.2754V19.8986H158.329H170.775V15.5186H153.831V32.556H170.775V28.1877Z" fill="#000F56"></path><path d="M188.872 15.5186H174.601V32.556H178.722V26.9632H188.589C189.661 26.9632 189.884 28.2466 189.884 28.588V32.556H194.217C194.158 31.355 194.158 29.9303 194.111 28.7882C194.029 26.6217 193.24 25.4325 192.157 25.4207V24.9733C193.417 24.9733 194.523 22.5831 194.523 21.2644V20.6993C194.512 18.3444 193.534 15.5186 188.872 15.5186ZM190.084 21.7001C190.084 22.277 189.743 22.9481 188.766 22.9481H178.722V20.0281H188.719C189.731 20.0281 190.084 20.6993 190.084 21.3233V21.7001Z" fill="#000F56"></path><path d="M212.703 22.7127C211.49 22.5714 210.383 22.4537 209.406 22.3595C203.813 21.759 202.506 21.8767 202.483 20.6875V20.6169C202.483 20.0046 202.53 19.2628 203.578 19.2628H212.738C213.586 19.2628 213.975 19.7691 214.01 21.1585H218.19V20.7699C218.19 17.0728 216.329 15.2007 212.644 15.2007H203.413C199.798 15.2007 198.044 16.802 198.044 20.087V20.1577C198.067 23.2308 199.504 24.7379 202.848 25.1971C213.527 26.3039 213.727 26.4452 213.774 27.6461V28.0229C213.774 28.5763 213.292 28.9649 212.609 28.9649H203.425C202.318 28.906 202.153 27.9287 202.153 26.869V26.8102H197.95C197.961 30.8487 199.81 32.8975 203.448 32.8975H212.679C216.259 32.8975 218.225 31.096 218.225 27.8345V27.7521C218.213 24.1374 216.435 23.2425 212.703 22.7127Z" fill="#000F56"></path><path d="M274 20.3343C274 17.3083 271.975 15.2007 269.09 15.2007H262.85C259.941 15.2007 257.916 17.3083 257.916 20.3343V21.4646H261.472V20.3343C261.472 19.2864 261.943 18.7448 262.861 18.7448H269.102C269.985 18.7448 270.468 19.3099 270.468 20.3343V20.8759C270.468 22.124 269.337 22.2182 268.996 22.2182H263.886V25.774H268.996C270.02 25.774 270.468 26.2097 270.468 27.1987V27.7403C270.468 28.7647 269.973 29.3299 269.078 29.3299H262.838C261.649 29.3299 261.472 28.3408 261.472 27.7403V26.6571H257.904V27.7403C257.904 30.7192 259.977 32.8739 262.814 32.8739H269.055C271.916 32.8739 273.988 30.7075 273.988 27.7403V27.1987C273.988 25.8447 273.623 24.6437 272.999 23.9608C273.729 23.113 273.988 21.7825 273.988 20.8759V20.3343H274Z" fill="#000F56"></path><path d="M113.328 15.5186L106.605 24.7496L106.381 25.5856H106.193L105.969 24.7496L99.2457 15.5186H94.3947V32.556H98.5157V22.3712H99.1397L104.791 30.7074H106.098H106.475H107.782L113.434 22.3712H114.058V32.556H118.179V15.5186H113.328Z" fill="#000F56"></path><path d="M249.757 15.189H246.189C243.999 15.189 240.337 15.189 240.337 19.7574V28.3173C240.337 32.8858 243.999 32.8858 246.189 32.8858H249.757C252.594 32.8858 255.62 32.5325 255.632 28.3173V19.7574C255.62 15.5422 252.594 15.189 249.757 15.189ZM251.935 28.0347C251.9 29.3181 250.993 29.4123 249.498 29.4123H246.436C245.2 29.4123 244.034 29.4123 244.034 28.0347V20.0518C244.034 18.6742 245.2 18.6742 246.436 18.6742H249.498C250.734 18.6742 251.911 18.6742 251.935 20.04V28.0347Z" fill="#000F56"></path><path d="M56.3401 4.27407C55.4923 4.19165 54.7152 4.10923 54.0323 4.05036H53.9852C50.5 3.70891 49.664 3.62649 49.664 2.95535V2.90825C49.664 2.46083 50.029 2.13115 50.5236 2.13115H56.3872C56.5873 2.13115 57.2349 2.19002 57.3409 3.00245V3.03777H59.5427V2.99067C59.5427 0.977268 58.4948 0 56.3283 0H50.4176C48.2982 0 47.3092 0.824202 47.3092 2.60212V2.64922C47.321 4.3094 48.1334 5.0865 50.0997 5.33376C56.9406 5.99312 57.2114 6.01667 57.2114 6.74668V6.88797C57.2114 7.2412 56.9052 7.59443 56.3048 7.59443H50.4294C50.0408 7.59443 49.5581 7.22943 49.4757 6.64071V6.60539H47.2621V6.65249C47.3327 8.71299 48.3806 9.71381 50.4411 9.71381H56.3519C57.8236 9.71381 59.5662 9.24283 59.5662 7.01749V6.97039C59.5545 5.01586 58.6125 4.58021 56.3401 4.27407Z" fill="#000F56"></path><path d="M70.0689 0.211914H61.038V9.53717H70.0807C72.9183 9.53717 73.1656 7.72392 73.1656 5.85181V3.89727C73.1656 2.03693 72.9301 0.211914 70.0689 0.211914ZM70.9638 4.10921V5.69874C70.9638 6.57004 70.9638 7.38247 69.8452 7.38247H63.2045V2.35484H69.8334C70.9638 2.36661 70.9638 3.24969 70.9638 4.10921Z" fill="#000F56"></path><path d="M76.8981 0.211914H74.6256V9.53717H76.8981V0.211914Z" fill="#000F56"></path><path d="M87.4478 4.27407C86.5765 4.17988 85.7876 4.10923 85.0929 4.03859C81.6078 3.69713 80.7718 3.61471 80.7718 2.94358V2.90825C80.7718 2.46083 81.1368 2.13115 81.6313 2.13115H87.4949C87.6951 2.13115 88.3309 2.19002 88.4486 3.00245V3.03777H90.6504V2.99067C90.6504 0.977268 89.6025 0 87.436 0H81.5253C79.406 0 78.4169 0.824202 78.4169 2.60212V2.64922C78.4287 4.3094 79.2411 5.0865 81.2074 5.33376C88.0483 5.99312 88.3191 6.01667 88.3191 6.74668V6.88797C88.3191 7.2412 88.013 7.59443 87.4125 7.59443H81.5371C81.1486 7.59443 80.6658 7.22943 80.5834 6.64071V6.60539H78.3698V6.65249C78.4405 8.71299 79.4884 9.71381 81.5489 9.71381H87.4596C88.9314 9.71381 90.674 9.24283 90.674 7.01749V6.97039C90.6622 5.01586 89.7203 4.58021 87.4478 4.27407Z" fill="#000F56"></path><path d="M182.337 38.6553H174.601V48.0865H182.349C184.986 48.0865 185.21 46.2497 185.21 44.3776V42.3877C185.21 40.5038 184.986 38.6553 182.337 38.6553ZM183.22 44.2127C183.22 45.084 183.22 45.9789 182.113 45.9789H176.544V40.7511H182.101C183.22 40.7511 183.22 41.7166 183.22 42.5761V44.2127Z" fill="#000F56"></path><path d="M196.078 46.0024H189.095V45.555V44.719V44.2716H196.078V42.4584H189.095V42.0227V41.1868V40.7511H196.078V38.6553H187.153V48.0865H196.078V46.0024Z" fill="#000F56"></path><path d="M261.496 46.0024H254.514V45.555V44.719V44.2716H261.496V42.4584H254.514V42.0227V41.1868V40.7511H261.496V38.6553H252.559V48.0865H261.496V46.0024Z" fill="#000F56"></path><path d="M204.555 45.5432V38.6553H202.4V48.0865H211.29V45.9789H204.555V45.5432Z" fill="#000F56"></path><path d="M220.639 38.6553H217.695L213.174 48.0865H215.564L216.176 46.8031L216.294 46.5558H222.016L222.134 46.8031L222.746 48.0865H225.137L220.639 38.6553ZM219.167 44.9428L216.977 44.9192L219.038 40.6098H219.297L221.357 44.9192L219.167 44.9428Z" fill="#000F56"></path><path d="M228.857 45.5432V38.6553H226.703V48.0865H235.592V45.9789H228.857V45.5432Z" fill="#000F56"></path><path d="M239.843 45.5432V38.6553H237.688V48.0865H246.566V45.9789H239.843V45.5432Z" fill="#000F56"></path><path d="M250.652 38.6553H248.497V48.0865H250.652V38.6553Z" fill="#000F56"></path><path d="M213.786 38.6553H211.631V42.4113H212.715L213.786 40.2566V38.6553Z" fill="#000F56"></path><path d="M272.87 43.9533C274.024 43.9415 274 42.4226 273.988 41.7044V41.3747C273.965 39.5261 272.929 38.6078 270.903 38.6313L263.521 38.7137L263.639 48.1449L265.581 48.1214L265.546 45.3191V44.8717L270.821 44.8128C271.551 44.801 271.798 45.5899 271.81 45.9667L271.834 48.039L273.894 48.0154C273.859 47.3678 273.823 46.6496 273.812 46.0609C273.8 45.1425 273.823 44.0593 272.87 44.071H272.823V43.9415L272.87 43.9533ZM271.881 41.9752C271.881 42.4462 271.586 42.9172 270.903 42.9289L265.523 42.9878V42.5404L265.511 41.0686V40.6212L270.856 40.5623C271.469 40.5505 271.881 40.9273 271.881 41.5278V41.9752Z" fill="#000F56"></path><path d="M229.281 19.205L224.036 24.4502L229.281 29.6954L234.526 24.4502L229.281 19.205Z" fill="#CF0000"></path><path d="M35.5937 0.0117188V7.93583C35.5937 11.7389 34.8991 15.4596 33.5686 18.9566C33.1682 19.9927 32.7208 21.0171 32.2027 22.0061C32.0379 22.3358 31.8613 22.6655 31.6847 22.9834C29.8126 19.4982 26.7041 16.7548 23.7606 13.8112C22.8775 12.9281 21.9826 12.0333 21.0996 11.1502C19.9692 10.0788 18.8389 9.01907 17.6968 7.95938C17.3553 7.64147 17.0257 7.33534 16.6842 7.01743C16.59 7.65325 16.484 8.27728 16.3545 8.9131C16.3192 9.07794 16.2839 9.24278 16.2368 9.40762C16.0131 10.326 15.6952 11.2209 15.2595 12.0686C15.1653 12.257 15.0593 12.4454 14.9534 12.622C14.9298 12.6573 14.7297 13.0106 14.7297 13.0106L13.7053 11.9862C13.7053 11.9862 13.3403 12.3394 12.7987 12.8457L12.6927 12.9517L10.1377 15.5067C7.93588 17.7085 5.80473 19.8514 4.3094 22.3358C4.29762 22.3476 4.29762 22.3594 4.28585 22.3711C4.15633 22.5831 4.03859 22.795 3.92085 23.0187C3.8973 22.9716 3.87375 22.9363 3.8502 22.8892C3.69713 22.6184 3.55584 22.3476 3.41455 22.065C1.17743 17.7203 0 12.881 0 7.93583V0.0117188H35.5937Z" fill="#D7AD00"></path><path d="M31.6847 22.9836C31.6729 23.0071 31.6611 23.0189 31.6493 23.0425C31.5434 23.2426 31.4256 23.4428 31.3079 23.643C31.2843 23.6901 31.249 23.7489 31.2137 23.796C31.0959 23.9962 30.9664 24.1964 30.8369 24.4083C30.8251 24.4318 30.8134 24.4554 30.8016 24.4789C30.6603 24.6909 30.519 24.9146 30.3895 25.1265C30.2129 25.3973 30.0245 25.6564 29.8361 25.9154C29.683 26.1273 29.53 26.3393 29.3651 26.5512C29.2238 26.7514 29.0708 26.9398 28.9177 27.1282C28.7058 27.399 28.482 27.6698 28.2583 27.9288C28.0935 28.129 27.9169 28.3291 27.7403 28.5293C27.3517 28.9649 26.9396 29.4006 26.5275 29.8127L26.2685 30.0717C26.033 29.7774 25.7857 29.483 25.5385 29.2004C24.4552 27.9759 23.2189 26.822 22.0062 25.6093C20.605 24.2081 19.2039 22.807 17.791 21.3941L12.3748 26.8102C11.5741 27.6109 10.7853 28.3998 10.067 29.2122C9.80799 29.5066 9.57251 29.7892 9.33702 30.0953L9.05444 29.8127C8.63056 29.4006 8.23024 28.9649 7.84168 28.5293C7.65329 28.3174 7.4649 28.1054 7.27652 27.8817C7.13522 27.7169 7.00571 27.5638 6.87619 27.399C6.85264 27.3754 6.84087 27.3519 6.81732 27.3283C6.74667 27.2341 6.67603 27.1517 6.60538 27.0575C6.15796 26.4923 5.73408 25.9036 5.33375 25.3031C5.27488 25.2207 5.21601 25.1265 5.15714 25.0441C5.01585 24.8322 4.87456 24.6085 4.73326 24.3847C4.60375 24.1846 4.486 23.9844 4.35649 23.7725C4.34471 23.7489 4.33294 23.7254 4.30939 23.7018C4.17987 23.4899 4.06213 23.278 3.94439 23.0542C3.93261 23.0307 3.92084 23.0189 3.92084 23.0071C4.03858 22.7952 4.15632 22.5715 4.28584 22.3596C4.29762 22.3478 4.29762 22.336 4.30939 22.3242C5.8165 19.8399 7.94765 17.6969 10.1377 15.4951L12.6927 12.9401L12.7987 12.8341C13.3403 12.3278 13.7053 11.9746 13.7053 11.9746L14.7297 12.999C14.7297 12.999 14.9298 12.6458 14.9534 12.6104C15.0593 12.4338 15.1653 12.2454 15.2595 12.057C15.6951 11.2093 16.0131 10.3144 16.2368 9.39604C16.2721 9.2312 16.3192 9.06636 16.3545 8.90152C16.484 8.27748 16.59 7.64167 16.6842 7.00586C17.0256 7.32377 17.3553 7.6299 17.6968 7.9478C18.8389 9.00749 19.9692 10.0672 21.0996 11.1386C21.9944 12.0217 22.8775 12.9166 23.7606 13.7996C26.7041 16.7668 29.8125 19.4984 31.6847 22.9836Z" fill="#D20000"></path><path d="M26.2685 30.0717L17.791 38.5492L9.34882 30.0953C9.5843 29.8009 9.81979 29.5065 10.0788 29.2122C10.7971 28.388 11.5859 27.6109 12.3866 26.8102C14.1881 25.0088 15.9895 23.1955 17.8028 21.394C19.2039 22.7952 20.6168 24.1963 22.018 25.6092C23.219 26.8102 24.4553 27.9641 25.5503 29.2004C25.7858 29.483 26.033 29.7774 26.2685 30.0717Z" fill="#000F56"></path><path d="M28.8589 37.0302C28.8589 37.5954 28.8118 38.137 28.7411 38.6668C28.5527 39.9149 28.1642 41.0923 27.599 42.1756C25.7504 45.6961 22.0533 48.098 17.8028 48.098C13.5523 48.098 9.85512 45.6961 8.00656 42.1756C7.19413 40.6449 6.7467 38.8905 6.7467 37.042C6.7467 36.8183 6.75848 36.5945 6.77025 36.3826C6.85267 34.8873 7.253 33.5803 7.86526 32.4029L15.9189 40.4565L17.8146 42.3522L19.7102 40.4565L27.7756 32.3911C28.3761 33.5685 28.7647 34.8755 28.8589 36.3826C28.8471 36.5828 28.8589 36.8065 28.8589 37.0302Z" fill="#000F56"></path><path d="M33.4508 29.9655C33.4508 34.899 31.1784 39.2908 27.6108 42.1637L27.5872 42.1755C28.1524 41.104 28.5527 39.9148 28.7293 38.6668C28.8117 38.1369 28.8471 37.5835 28.8471 37.0301C28.8471 36.8064 28.8353 36.5827 28.8235 36.3708C28.7293 34.8754 28.3408 33.5685 27.7403 32.3793L28.4114 31.7081C28.8588 31.2607 29.3063 30.7897 29.7301 30.307C30.9076 28.9883 31.979 27.5754 32.921 26.0918C33.1682 27.0102 33.3331 27.9875 33.392 29.0118C33.4391 29.3297 33.4508 29.6476 33.4508 29.9655Z" fill="#D20000"></path><path d="M7.99478 42.1637L7.97123 42.1519C4.41539 39.279 2.14294 34.8872 2.14294 29.9655C2.14294 29.6476 2.15472 29.3415 2.16649 29.0235C2.22536 27.9874 2.3902 27.0219 2.64924 26.1035C3.60296 27.5871 4.66265 28.9882 5.84008 30.3069C6.29928 30.8132 6.73493 31.2842 7.17058 31.7199L7.84171 32.391C7.22945 33.5684 6.84089 34.8754 6.7467 36.3707C6.73493 36.5827 6.72315 36.8064 6.72315 37.0301C6.73493 38.8786 7.19412 40.633 7.99478 42.1637Z" fill="#D20000"></path></svg>