<svg width="114" height="114" viewBox="0 0 114 114" fill="none" xmlns="http://www.w3.org/2000/svg">
<path fill-rule="evenodd" clip-rule="evenodd" d="M69.4188 11.0834C68.7701 11.2137 68.1363 10.792 68.0059 10.1433C67.8756 9.49451 68.2973 8.86075 68.946 8.73041C69.5947 8.60006 70.2285 9.02173 70.3589 9.6705C70.4892 10.3192 70.0675 10.953 69.4188 11.0834Z" fill="#ECECFE"/>
<path fill-rule="evenodd" clip-rule="evenodd" d="M44.0848 104.302C43.4361 104.432 42.8023 104.011 42.6719 103.362C42.5416 102.713 42.9633 102.08 43.612 101.949C44.2607 101.819 44.8946 102.24 45.0249 102.889C45.1553 103.538 44.7335 104.172 44.0848 104.302Z" fill="#ECECFE"/>
<path fill-rule="evenodd" clip-rule="evenodd" d="M17.1903 31.3705C16.5416 31.5008 15.9078 31.0791 15.7774 30.4304C15.647 29.7816 16.0688 29.1479 16.7175 29.0175C17.3662 28.8872 18 29.3088 18.1304 29.9576C18.2607 30.6063 17.839 31.2401 17.1903 31.3705Z" fill="#ECECFE"/>
<path d="M51.3087 24.5147C51.9584 24.3842 52.591 24.8051 52.7216 25.4548C52.8521 26.1046 52.4312 26.7372 51.7815 26.8677C43.9844 28.4344 38.9337 36.0252 40.5003 43.8222C42.067 51.6193 49.6578 56.67 57.4549 55.1034C65.2519 53.5367 70.3027 45.9459 68.736 38.1488C68.2577 35.7685 67.2083 33.5942 65.6886 31.7718C65.2641 31.2628 65.3327 30.5061 65.8417 30.0817C66.3506 29.6573 67.1073 29.7258 67.5318 30.2348C69.3058 32.3621 70.5315 34.9016 71.089 37.6761C72.9167 46.7726 67.0242 55.6286 57.9276 57.4563C48.8311 59.2841 39.9751 53.3916 38.1474 44.295C36.3196 35.1984 42.2121 26.3425 51.3087 24.5147Z" fill="#E1000F"/>
<path fill-rule="evenodd" clip-rule="evenodd" d="M46.4481 43.4727L46.5325 43.3734L57.2231 32.0125C57.954 31.2357 59.2594 31.7273 59.2963 32.7933L59.8355 48.384C59.8723 49.4466 58.6111 50.0286 57.8265 49.3111L53.4117 45.2741L47.4307 45.3955C46.412 45.4162 45.8517 44.2513 46.4481 43.4727ZM57.3379 45.6117L56.9973 35.7546L50.2384 42.9377L53.0298 42.8813L53.5893 41.3957C53.8229 40.7755 54.5151 40.462 55.1353 40.6956C55.7112 40.9126 56.0226 41.5249 55.8771 42.1078L55.8353 42.2416L55.276 43.7266L57.3379 45.6117Z" fill="#E1000F"/>
<path d="M94.4269 80.7217C95.0767 80.5912 95.7092 81.0121 95.8398 81.6618C95.961 82.2652 95.6068 82.8537 95.0353 83.0392L94.8997 83.0747L85.4878 84.9658C84.8381 85.0964 84.2055 84.6755 84.0749 84.0257C83.9537 83.4224 84.308 82.8339 84.8794 82.6483L85.015 82.6129L94.4269 80.7217Z" fill="#000091"/>
<path d="M48.6271 65.5795C49.02 65.0459 49.7712 64.9318 50.3049 65.3247C50.7975 65.6875 50.9326 66.3554 50.6414 66.8758L50.5597 67.0026L27.3934 96.3204C27.0005 96.8541 26.2493 96.9681 25.7156 96.5752C25.223 96.2124 25.0879 95.5445 25.3791 95.0241L25.4608 94.8974L48.6271 65.5795Z" fill="#000091"/>
<path d="M89.6772 32.7167C90.2806 32.5955 90.8691 32.9497 91.0546 33.5212L91.0901 33.6568L99.6002 76.0103C99.7307 76.6601 99.3098 77.2926 98.6601 77.4232C98.0567 77.5444 97.4682 77.1902 97.2827 76.6187L97.2472 76.4831L88.9735 35.3061L76.0322 37.9064C75.4288 38.0276 74.8403 37.6734 74.6548 37.1019L74.6193 36.9663C74.4981 36.3629 74.8523 35.7744 75.4238 35.5889L75.5594 35.5534L89.6772 32.7167Z" fill="#000091"/>
<path d="M33.2059 44.0635C33.8556 43.9329 34.4882 44.3538 34.6188 45.0036C34.74 45.6069 34.3857 46.1955 33.8143 46.381L33.6787 46.4165L18.3843 49.4896L27.3672 94.196L70.8972 85.4495C71.5005 85.3283 72.0891 85.6826 72.2746 86.254L72.3101 86.3896C72.4313 86.993 72.0771 87.5815 71.5056 87.767L71.37 87.8025L26.6635 96.7854C26.0602 96.9066 25.4716 96.5524 25.2861 95.9809L25.2506 95.8453L15.795 48.7859C15.6738 48.1825 16.028 47.594 16.5995 47.4085L16.7351 47.373L33.2059 44.0635Z" fill="#000091"/>
<path d="M98.1928 81.189C98.0622 80.5393 98.4831 79.9067 99.1329 79.7762C99.7826 79.6456 100.415 80.0665 100.546 80.7162C100.676 81.366 100.255 81.9986 99.6057 82.1291C98.9559 82.2597 98.3233 81.8388 98.1928 81.189Z" fill="#000091"/>
<path d="M88.9645 33.159C89.37 32.6348 90.1237 32.5386 90.6479 32.9441C91.1318 33.3184 91.251 33.9894 90.9475 34.5027L90.8628 34.6275L61.7144 72.3078C61.3904 72.7266 60.8356 72.879 60.3501 72.6996L60.2068 72.6358L16.4131 49.6117C15.8265 49.3032 15.601 48.5777 15.9094 47.9911C16.1941 47.4496 16.8342 47.2158 17.3924 47.4256L17.5299 47.4873L60.4318 70.0421L88.9645 33.159Z" fill="#000091"/>
<path d="M69.3637 61.5872C68.7913 61.2531 68.0565 61.4462 67.7224 62.0186C67.414 62.5469 67.5549 63.2137 68.0285 63.5759L68.1538 63.6599L93.1128 78.2286C93.6852 78.5627 94.42 78.3696 94.7541 77.7972C95.0625 77.2689 94.9217 76.6021 94.448 76.2399L94.3227 76.1559L69.3637 61.5872Z" fill="#000091"/>
</svg>
