<svg width="82" height="43" viewBox="0 0 82 43" fill="none" xmlns="http://www.w3.org/2000/svg">
<path d="M75.7753 0.416277C75.4529 -0.0321519 74.8281 -0.134334 74.3797 0.188047L67.0721 5.44155C66.6236 5.76393 66.5215 6.3888 66.8438 6.83723C67.1662 7.28566 67.7911 7.38784 68.2395 7.06546L74.7351 2.39568L79.4049 8.8913C79.7273 9.33973 80.3522 9.44191 80.8006 9.11953C81.249 8.79715 81.3512 8.17229 81.0288 7.72386L75.7753 0.416277ZM0.963379 42L1.92684 42.2678C3.77442 35.6218 6.9888 26.3744 10.619 20.1442C12.4582 16.9877 14.2925 14.8069 15.96 13.9894C16.7466 13.6038 17.4442 13.546 18.1061 13.7792C18.798 14.0229 19.5924 14.6344 20.44 15.8685L21.2643 15.3024L22.0886 14.7362C21.1025 13.3006 20.0032 12.3269 18.7706 11.8928C17.508 11.4481 16.2502 11.6197 15.0797 12.1936C12.833 13.295 10.7463 15.9531 8.89094 19.1373C5.13206 25.5884 1.86325 35.0294 -8.48174e-05 41.7322L0.963379 42ZM21.2643 15.3024L20.44 15.8685C21.5816 17.5308 22.632 19.1047 23.6094 20.5705C24.5851 22.0339 25.4906 23.3936 26.3354 24.6161C28.0088 27.0378 29.5061 29.0158 30.9244 30.242C32.3569 31.4803 33.9689 32.157 35.6833 31.3608C37.2107 30.6514 38.5265 28.8678 39.8403 26.2376L38.9457 25.7907L38.0511 25.3438C36.7454 27.9578 35.6873 29.1538 34.8408 29.5469C34.1813 29.8532 33.4194 29.7551 32.2324 28.729C31.0313 27.6906 29.6635 25.9143 27.9808 23.4791C27.1474 22.2732 26.2521 20.9289 25.2734 19.4611C24.2964 17.9957 23.239 16.4112 22.0886 14.7362L21.2643 15.3024ZM38.9457 25.7907L39.8403 26.2376C41.1682 23.5791 42.3295 20.7404 43.428 18.134C44.537 15.5026 45.5754 13.1247 46.6789 11.2884C47.8028 9.41822 48.8721 8.32449 49.944 7.96776C50.9088 7.64667 52.1854 7.83609 54.0151 9.39013L54.6625 8.62794L55.3098 7.86575C53.2104 6.08258 51.2127 5.43769 49.3124 6.07009C47.5193 6.66685 46.1328 8.3144 44.9647 10.2582C43.7762 12.2359 42.6862 14.7445 41.585 17.3573C40.4733 19.9951 39.3427 22.7581 38.0511 25.3438L38.9457 25.7907ZM54.6625 8.62794L54.0151 9.39013C55.9908 11.0682 58.0931 12.7252 60.1899 13.934C62.2721 15.1343 64.4647 15.9615 66.5965 15.8235C68.8022 15.6808 70.7641 14.5191 72.3484 12.1305C73.9049 9.78395 75.1221 6.22594 75.9503 1.16138L74.9634 1L73.9765 0.838617C73.1675 5.78567 72.0108 9.02126 70.6817 11.025C69.3806 12.9867 67.9454 13.732 66.4674 13.8277C64.9156 13.9281 63.138 13.325 61.1888 12.2013C59.254 11.0859 57.2633 9.52493 55.3098 7.86575L54.6625 8.62794Z" fill="#C1C1FB"/>
</svg>
