<svg width="74" height="74" viewBox="0 0 74 74" fill="none" xmlns="http://www.w3.org/2000/svg">
<rect x="0.0219727" width="73.9779" height="73.9779" rx="36.9889" fill="#F95A5C"/>
<path d="M15.7856 49.6223H18.2777V48.8187H16.8125V48.0752H18.0469V47.2716H16.8125V46.5992H18.2777V45.7956H15.7856V49.6223Z" fill="white"/>
<path d="M19.2333 49.6223H20.2601V47.2333L21.708 49.6223H23.0117V45.7956H21.9849V48.1845L20.537 45.7956H19.2333V49.6223Z" fill="white"/>
<path d="M26.0035 48.8187C25.3286 48.8187 24.8382 48.354 24.8382 47.7089C24.8382 47.0693 25.2997 46.5992 25.9458 46.5992C26.3496 46.5992 26.6553 46.7851 26.8457 47.0475L27.6591 46.4571C27.2841 45.9924 26.6842 45.6863 25.9458 45.6863C24.6594 45.6863 23.7826 46.6156 23.7826 47.7089C23.7826 48.8023 24.6825 49.7316 26.0035 49.7316C26.765 49.7316 27.3937 49.4309 27.7745 48.9553V47.2607H25.8189V48.0861H26.7476V48.5891C26.5573 48.7312 26.3035 48.8187 26.0035 48.8187Z" fill="white"/>
<path d="M28.1274 49.6223H29.2176L29.5465 48.7203H30.9771L31.3059 49.6223H32.3961L30.9309 45.7956H29.5926L28.1274 49.6223ZM29.8464 47.9003L30.2618 46.7741L30.6771 47.9003H29.8464Z" fill="white"/>
<path d="M34.7803 48.8187C34.1054 48.8187 33.6151 48.354 33.6151 47.7089C33.6151 47.0693 34.0766 46.5992 34.7226 46.5992C35.1264 46.5992 35.4322 46.7851 35.6225 47.0475L36.4359 46.4571C36.061 45.9924 35.461 45.6863 34.7226 45.6863C33.4362 45.6863 32.5594 46.6156 32.5594 47.7089C32.5594 48.8023 33.4593 49.7316 34.7803 49.7316C35.5418 49.7316 36.1706 49.4309 36.5513 48.9553V47.2607H34.5957V48.0861H35.5245V48.5891C35.3341 48.7312 35.0803 48.8187 34.7803 48.8187Z" fill="white"/>
<path d="M37.4291 49.6223H39.9212V48.8187H38.456V48.0752H39.6904V47.2716H38.456V46.5992H39.9212V45.7956H37.4291V49.6223Z" fill="white"/>
<path d="M40.8768 49.6223H41.9036V47.1623L42.5958 48.3103H43.2938L43.9861 47.1623V49.6223H45.0129V45.7956H43.7438L42.9419 47.1623L42.1459 45.7956H40.8768V49.6223Z" fill="white"/>
<path d="M46.1271 49.6223H48.6191V48.8187H47.1539V48.0752H48.3884V47.2716H47.1539V46.5992H48.6191V45.7956H46.1271V49.6223Z" fill="white"/>
<path d="M49.5747 49.6223H50.6016V47.2333L52.0495 49.6223H53.3532V45.7956H52.3264V48.1845L50.8784 45.7956H49.5747V49.6223Z" fill="white"/>
<path d="M54.0721 46.6757H55.2489V49.6223H56.2757V46.6757H57.4525V45.7956H54.0721V46.6757Z" fill="white"/>
<path d="M15.7856 42.4499H20.9508L22.5085 37.9683H29.286L30.8437 42.4499H36.0088L29.0673 23.4369H22.7271L15.7856 42.4499ZM23.9296 33.8941L25.8972 28.2988L27.8649 33.8941H23.9296Z" fill="#F9F6F2"/>
<path d="M36.9094 42.4499H41.7739V35.2521H43.7415C48.2234 35.2521 50.9836 33.0521 50.9836 29.3581C50.9836 25.637 48.2234 23.4369 43.7415 23.4369H36.9094V42.4499ZM44.0148 27.4296C45.2446 27.4296 45.9551 28.2173 45.9551 29.3038C45.9551 30.4717 45.2446 31.2594 44.0148 31.2594H41.7739V27.4296H44.0148Z" fill="#F9F6F2"/>
<path d="M52.1835 42.4499H57.048V23.4369H52.1835V42.4499Z" fill="#F9F6F2"/>
</svg>
