<svg width="32" height="32" viewBox="0 0 32 32" fill="none" xmlns="http://www.w3.org/2000/svg">
<path d="M3.99998 23.9999H28V7.99992H3.99998V23.9999ZM1.33331 6.66659C1.33331 5.93021 1.93027 5.33325 2.66665 5.33325H29.3333C30.0697 5.33325 30.6666 5.93021 30.6666 6.66659V25.3333C30.6666 26.0697 30.0697 26.6666 29.3333 26.6666H2.66665C1.93027 26.6666 1.33331 26.0697 1.33331 25.3333V6.66659ZM12 13.3333C12 12.5969 11.403 11.9999 10.6666 11.9999C9.93027 11.9999 9.33331 12.5969 9.33331 13.3333C9.33331 14.0697 9.93027 14.6666 10.6666 14.6666C11.403 14.6666 12 14.0697 12 13.3333ZM14.6666 13.3333C14.6666 15.5425 12.8758 17.3333 10.6666 17.3333C8.45751 17.3333 6.66665 15.5425 6.66665 13.3333C6.66665 11.1241 8.45751 9.33325 10.6666 9.33325C12.8758 9.33325 14.6666 11.1241 14.6666 13.3333ZM10.669 21.3333C9.38002 21.3333 8.21518 21.8542 7.36922 22.7001L5.48361 20.8145C6.80922 19.4889 8.64438 18.6666 10.669 18.6666C12.6937 18.6666 14.5289 19.4889 15.8545 20.8145L13.9689 22.7001C13.1229 21.8542 11.9581 21.3333 10.669 21.3333ZM21.6094 19.6094L26.9428 14.2761L25.0572 12.3904L20.6666 16.781L18.2761 14.3905L16.3905 16.2761L19.7238 19.6094L20.6666 20.5522L21.6094 19.6094Z" fill="#000091"/>
</svg>
