<svg width="32" height="32" viewBox="0 0 32 32" fill="none" xmlns="http://www.w3.org/2000/svg">
<path fill-rule="evenodd" clip-rule="evenodd" d="M13.3334 18.6666C19.2244 18.6666 24 23.4422 24 29.3333H21.3334C21.3334 24.915 17.7516 21.3333 13.3334 21.3333C8.91508 21.3333 5.33335 24.915 5.33335 29.3333H2.66669C2.66669 23.4422 7.44232 18.6666 13.3334 18.6666ZM24.3787 19.6039C28.2061 21.3277 30.6671 25.1356 30.6667 29.3333H28C28.0006 26.1848 26.1548 23.3287 23.284 22.0359L24.3774 19.6039H24.3787ZM23.4614 4.55059C26.2088 5.68305 28.0011 8.3616 28 11.3333C28.0012 15.1257 25.1101 18.2931 21.3334 18.6373V15.9533C23.3614 15.6628 24.9628 14.0836 25.2816 12.0598C25.6003 10.0361 24.5619 8.04106 22.7214 7.14125L23.4614 4.55059ZM13.3334 1.33325C17.7534 1.33325 21.3334 4.91325 21.3334 9.33325C21.3334 13.7533 17.7534 17.3333 13.3334 17.3333C8.91335 17.3333 5.33335 13.7533 5.33335 9.33325C5.33335 4.91325 8.91335 1.33325 13.3334 1.33325ZM13.3334 3.99992C10.3867 3.99992 8.00002 6.38659 8.00002 9.33325C8.00002 12.2799 10.3867 14.6666 13.3334 14.6666C16.28 14.6666 18.6667 12.2799 18.6667 9.33325C18.6667 6.38659 16.28 3.99992 13.3334 3.99992Z" fill="#000091"/>
</svg>
