<?xml version="1.0" encoding="UTF-8" standalone="no"?>
<!DOCTYPE svg PUBLIC "-//W3C//DTD SVG 1.1//EN" "http://www.w3.org/Graphics/SVG/1.1/DTD/svg11.dtd">
<!-- Created with Vectornator (http://vectornator.io/) -->
<svg height="100%" stroke-miterlimit="10" style="fill-rule:nonzero;clip-rule:evenodd;stroke-linecap:round;stroke-linejoin:round;" version="1.1" viewBox="0 0 190 32" width="100%" xml:space="preserve" xmlns="http://www.w3.org/2000/svg" xmlns:xlink="http://www.w3.org/1999/xlink">
<defs/>
<g id="Untitled">
<path d="M150.727 22.5994C151.185 22.5994 151.541 22.2172 151.541 21.7393C151.541 21.2616 151.185 20.8657 150.727 20.8657C150.27 20.8657 149.901 21.2616 149.901 21.7393C149.901 22.2172 150.27 22.5994 150.727 22.5994Z" fill="#c6c4e8" fill-rule="nonzero" opacity="1" stroke="none"/>
<path d="M152.175 23.6916C152.175 25.0703 153.42 25.8622 155.313 25.8622C157.233 25.8622 158.581 24.7837 158.581 23.3366C158.581 22.108 157.793 21.2207 156.102 21.2207L154.272 21.2207C153.878 21.2207 153.738 21.0159 153.738 20.7292C153.738 20.4698 153.89 20.224 154.157 20.0192C154.424 20.1012 154.73 20.1558 155.047 20.1558C156.585 20.1558 157.538 19.0363 157.538 17.7258C157.538 17.3162 157.449 16.9204 157.271 16.579L158.657 16.579L158.657 15.5689L156.28 15.5689C155.937 15.3914 155.517 15.2821 155.047 15.2821C153.521 15.2821 152.556 16.4016 152.556 17.7258C152.556 18.4903 152.886 19.1866 153.445 19.637C152.95 19.9783 152.683 20.4288 152.683 20.9749C152.683 21.3435 152.835 21.7121 153.128 21.9578C152.492 22.4356 152.175 22.9953 152.175 23.6916ZM155.06 19.2411C154.106 19.2411 153.586 18.5722 153.586 17.7258C153.586 16.8794 154.106 16.1968 155.06 16.1968C155.987 16.1968 156.522 16.8794 156.522 17.7258C156.522 18.5586 155.987 19.2411 155.06 19.2411ZM153.23 23.555C153.23 23.009 153.497 22.5994 154.043 22.2445L156.013 22.2445C157.157 22.2445 157.5 22.7633 157.5 23.4185C157.5 24.3195 156.649 24.8929 155.301 24.8929C154.03 24.8929 153.23 24.3878 153.23 23.555Z" fill="#c6c4e8" fill-rule="nonzero" opacity="1" stroke="none"/>
<path d="M162.104 15.2958C160.032 15.2958 158.634 17.0022 158.634 19.0091C158.634 21.0159 160.032 22.7223 162.104 22.7223C164.163 22.7223 165.574 21.0159 165.574 19.0091C165.574 17.0022 164.163 15.2958 162.104 15.2958ZM162.117 21.6301C160.744 21.6301 159.765 20.4425 159.765 19.0091C159.765 17.5757 160.744 16.388 162.117 16.388C163.452 16.388 164.43 17.5757 164.43 19.0091C164.43 20.4288 163.452 21.6301 162.117 21.6301Z" fill="#c6c4e8" fill-rule="nonzero" opacity="1" stroke="none"/>
<path d="M171.264 19.5006C171.264 20.852 170.578 21.6301 169.51 21.6301C168.417 21.6301 167.744 20.852 167.744 19.5006L167.744 15.5689L166.663 15.5689L166.663 19.4595C166.663 21.5209 167.768 22.7223 169.497 22.7223C171.239 22.7223 172.345 21.5209 172.345 19.4595L172.345 15.5689L171.264 15.5689L171.264 19.5006Z" fill="#c6c4e8" fill-rule="nonzero" opacity="1" stroke="none"/>
<path d="M173.05 15.5689L175.553 22.4493L176.977 22.4493L179.481 15.5689L178.312 15.5689L176.265 21.2343L174.218 15.5689L173.05 15.5689Z" fill="#c6c4e8" fill-rule="nonzero" opacity="1" stroke="none"/>
<path d="M179.951 22.5994C180.408 22.5994 180.764 22.2172 180.764 21.7393C180.764 21.2616 180.408 20.8657 179.951 20.8657C179.493 20.8657 179.124 21.2616 179.124 21.7393C179.124 22.2172 179.493 22.5994 179.951 22.5994Z" fill="#c6c4e8" fill-rule="nonzero" opacity="1" stroke="none"/>
<path d="M181.444 15.5689L181.444 16.62L182.652 16.62L182.652 22.4493L183.745 22.4493L183.745 16.62L185.97 16.62L185.97 15.5689L183.745 15.5689L183.745 14.6952C183.745 13.7942 184.228 13.2618 184.953 13.2618C185.321 13.2618 185.613 13.3846 185.855 13.5757L186.338 12.6064C185.982 12.388 185.512 12.2106 184.927 12.2106C183.529 12.2106 182.652 13.2618 182.652 14.7224L182.652 15.5689L181.444 15.5689Z" fill="#c6c4e8" fill-rule="nonzero" opacity="1" stroke="none"/>
<path d="M186.504 22.4493L187.585 22.4493L187.585 17.7258C187.979 17.0296 188.526 16.5654 189.364 16.5654C189.619 16.5654 189.809 16.5928 190 16.6473L190 15.5143C189.848 15.4596 189.657 15.4324 189.453 15.4324C188.64 15.4324 188.055 15.8282 187.585 16.4289L187.585 15.5689L186.504 15.5689L186.504 22.4493Z" fill="#c6c4e8" fill-rule="nonzero" opacity="1" stroke="none"/>
<path d="M37.4615 23.1579L46.4673 23.1579L46.4673 20.0632L41.1722 20.0632L41.1722 17.2L45.6334 17.2L45.6334 14.1053L41.1722 14.1053L41.1722 11.5158L46.4673 11.5158L46.4673 8.42111L37.4615 8.42111L37.4615 23.1579Z" fill="#ffffff" fill-rule="nonzero" opacity="1" stroke="none"/>
<path d="M48.0028 23.1579L51.3174 23.1579L51.3174 16.5474C51.5259 16.1895 52.0471 15.2632 53.2145 15.2632C54.2776 15.2632 54.8405 16 54.8405 17.0737L54.8405 23.1579L58.176 23.1579L58.176 16.9264C58.176 13.7053 56.3415 12.1263 54.1109 12.1263C52.8809 12.1263 52.0054 12.5474 51.3174 13.1368L51.3174 12.5474L48.0028 12.5474L48.0028 23.1579Z" fill="#ffffff" fill-rule="nonzero" opacity="1" stroke="none"/>
<path d="M58.6405 24.9685C58.6405 27.2843 60.5792 28.4211 64.1232 28.4211C67.4795 28.4211 69.7101 26.4843 69.7101 24.0422C69.7101 22.0211 68.1674 20.5053 65.6241 20.5053L63.2268 20.5053C62.8932 20.5053 62.6639 20.379 62.6639 20C62.6639 19.8526 62.7264 19.7053 62.8515 19.579C63.0391 19.6 63.2268 19.6 63.4352 19.6C66.2495 19.6 67.7922 17.979 67.7922 15.8527C67.7922 15.6842 67.7922 15.5158 67.7713 15.3474L69.4182 15.3474L69.4182 12.5474L65.6449 12.5474C65.0404 12.2737 64.2899 12.1263 63.4352 12.1263C60.6835 12.1263 59.12 13.7474 59.12 15.8527C59.12 17.0316 59.5994 18.0632 60.5167 18.7579C59.7245 19.3685 59.4327 20.0421 59.4327 20.9053C59.4327 21.4316 59.6411 21.979 60.0164 22.4421C59.1408 23.0948 58.6405 23.9369 58.6405 24.9685ZM63.4561 17.158C62.643 17.158 62.0802 16.7159 62.0802 15.8527C62.0802 15.0106 62.643 14.5685 63.4561 14.5685C64.2691 14.5685 64.8528 14.9895 64.8528 15.8527C64.8528 16.7159 64.2691 17.158 63.4561 17.158ZM61.7258 24.4632C61.7258 23.9579 61.9342 23.6 62.3303 23.3474L65.2072 23.3474C66.041 23.3474 66.458 23.7685 66.458 24.4C66.458 25.2 65.7701 25.7895 64.0814 25.7895C62.4137 25.7895 61.7258 25.2843 61.7258 24.4632Z" fill="#ffffff" fill-rule="nonzero" opacity="1" stroke="none"/>
<path d="M72.6895 23.4738C73.7944 23.4738 74.9827 23.0105 75.5664 22.3579L75.5664 23.1579L78.8601 23.1579L78.8601 16.4632C78.8601 14.1474 77.3175 12.1263 73.982 12.1263C72.0224 12.1263 70.4172 12.9263 69.4583 14.2737L71.8765 16.1264C72.356 15.4316 73.0022 15.0106 73.8777 15.0106C74.8575 15.0106 75.5455 15.6211 75.5664 16.4211L72.6061 16.9264C70.313 17.3053 69.083 18.5474 69.083 20.1685C69.083 22.2316 70.5632 23.4738 72.6895 23.4738ZM72.356 20C72.356 19.5159 72.6478 19.2 73.5026 19.0526L75.5664 18.6948L75.5664 19.7474C75.1494 20.379 74.4824 20.8843 73.4191 20.8843C72.7729 20.8843 72.356 20.5474 72.356 20Z" fill="#ffffff" fill-rule="nonzero" opacity="1" stroke="none"/>
<path d="M79.3267 24.9685C79.3267 27.2843 81.2655 28.4211 84.8096 28.4211C88.1659 28.4211 90.3963 26.4843 90.3963 24.0422C90.3963 22.0211 88.8536 20.5053 86.3103 20.5053L83.9126 20.5053C83.5791 20.5053 83.3501 20.379 83.3501 20C83.3501 19.8526 83.4127 19.7053 83.5379 19.579C83.7257 19.6 83.9126 19.6 84.1219 19.6C86.9354 19.6 88.4781 17.979 88.4781 15.8527C88.4781 15.6842 88.4781 15.5158 88.4575 15.3474L90.1047 15.3474L90.1047 12.5474L86.3308 12.5474C85.7263 12.2737 84.976 12.1263 84.1219 12.1263C81.3697 12.1263 79.8063 13.7474 79.8063 15.8527C79.8063 17.0316 80.2857 18.0632 81.203 18.7579C80.4108 19.3685 80.1189 20.0421 80.1189 20.9053C80.1189 21.4316 80.3274 21.979 80.7026 22.4421C79.8271 23.0948 79.3267 23.9369 79.3267 24.9685ZM84.1424 17.158C83.3295 17.158 82.7662 16.7159 82.7662 15.8527C82.7662 15.0106 83.3295 14.5685 84.1424 14.5685C84.9554 14.5685 85.5393 14.9895 85.5393 15.8527C85.5393 16.7159 84.9554 17.158 84.1424 17.158ZM82.412 24.4632C82.412 23.9579 82.6204 23.6 83.0165 23.3474L85.8935 23.3474C86.727 23.3474 87.1446 23.7685 87.1446 24.4C87.1446 25.2 86.456 25.7895 84.7676 25.7895C83.0997 25.7895 82.412 25.2843 82.412 24.4632Z" fill="#ffffff" fill-rule="nonzero" opacity="1" stroke="none"/>
<path d="M100.052 21.4526L97.7176 19.579C97.2374 20.1895 96.3619 20.5895 95.362 20.5895C94.1109 20.5895 93.1934 20.2106 92.8812 18.779L99.677 18.779C99.7808 18.4 99.8854 17.7264 99.8854 17.0106C99.8854 14.1263 97.926 12.1263 94.9444 12.1263C91.3797 12.1263 89.4829 14.779 89.4829 17.8526C89.4829 20.9474 91.5255 23.579 95.3826 23.579C97.4046 23.579 99.0519 22.779 100.052 21.4526ZM94.8612 14.8211C96.0909 14.8211 96.6329 15.7053 96.6749 16.4211L92.9018 16.4211C93.1522 15.3474 93.7979 14.8211 94.8612 14.8211Z" fill="#ffffff" fill-rule="nonzero" opacity="1" stroke="none"/>
<path d="M100.889 23.1579L104.204 23.1579L104.204 16.5474C104.433 16.1895 104.85 15.2632 105.892 15.2632C106.83 15.2632 107.31 15.9159 107.31 16.8632L107.31 23.1579L110.645 23.1579L110.645 16.7159C110.645 16.6316 110.645 16.5474 110.645 16.4632C110.812 16.1895 111.229 15.2632 112.293 15.2632C113.23 15.2632 113.71 15.9159 113.71 16.8632L113.71 23.1579L117.045 23.1579L117.045 16.7159C117.045 13.6421 115.294 12.1263 113.189 12.1263C111.458 12.1263 110.5 12.8421 109.812 13.6632C109.103 12.6316 108.019 12.1263 106.789 12.1263C105.663 12.1263 104.829 12.5474 104.204 13.0947L104.204 12.5474L100.889 12.5474L100.889 23.1579Z" fill="#ffffff" fill-rule="nonzero" opacity="1" stroke="none"/>
<path d="M128.353 21.4526L126.018 19.579C125.538 20.1895 124.663 20.5895 123.662 20.5895C122.411 20.5895 121.493 20.2106 121.181 18.779L127.977 18.779C128.082 18.4 128.185 17.7264 128.185 17.0106C128.185 14.1263 126.226 12.1263 123.244 12.1263C119.68 12.1263 117.783 14.779 117.783 17.8526C117.783 20.9474 119.826 23.579 123.683 23.579C125.705 23.579 127.352 22.779 128.353 21.4526ZM123.161 14.8211C124.392 14.8211 124.934 15.7053 124.975 16.4211L121.202 16.4211C121.452 15.3474 122.098 14.8211 123.161 14.8211Z" fill="#ffffff" fill-rule="nonzero" opacity="1" stroke="none"/>
<path d="M129.189 23.1579L132.504 23.1579L132.504 16.5474C132.712 16.1895 133.234 15.2632 134.401 15.2632C135.464 15.2632 136.027 16 136.027 17.0737L136.027 23.1579L139.362 23.1579L139.362 16.9264C139.362 13.7053 137.528 12.1263 135.298 12.1263C134.067 12.1263 133.192 12.5474 132.504 13.1368L132.504 12.5474L129.189 12.5474L129.189 23.1579Z" fill="#ffffff" fill-rule="nonzero" opacity="1" stroke="none"/>
<path d="M141.453 19.0316C141.453 21.6421 142.641 23.3685 145.497 23.3685C146.477 23.3685 147.123 23.2421 147.686 22.9895L147.686 20.1053C147.374 20.2316 146.873 20.3369 146.102 20.3369C145.226 20.3369 144.788 19.8737 144.788 19.0316L144.788 15.5369L147.665 15.5369L147.665 12.5474L144.788 12.5474L144.788 9.89476L141.453 9.89476L141.453 12.5474L139.493 12.5474L139.493 15.5369L141.453 15.5369L141.453 19.0316Z" fill="#ffffff" fill-rule="nonzero" opacity="1" stroke="none"/>
<path d="M0 9.26319C0 4.14726 4.10669 0 9.17256 0L22.5144 0C27.5803 0 31.6869 4.14726 31.6869 9.26319L31.6869 22.7369C31.6869 27.8528 27.5803 32 22.5144 32L9.17256 32C4.10669 32 0 27.8528 0 22.7369L0 9.26319Z" fill="#fc7069" fill-rule="nonzero" opacity="1" stroke="none"/>
<path d="M5.37263 20.2106L7.73665 20.2106L8.44958 18.1263L11.5516 18.1263L12.2646 20.2106L14.6286 20.2106L11.4516 11.3684L8.54965 11.3684L5.37263 20.2106ZM9.1 16.2316L10.0006 13.6295L10.9012 16.2316L9.1 16.2316Z" fill="#ffffff" fill-rule="nonzero" opacity="1" stroke="none"/>
<path d="M15.2909 20.2106L17.5173 20.2106L17.5173 16.8632L18.4179 16.8632C20.4692 16.8632 21.7325 15.84 21.7325 14.1222C21.7325 12.3916 20.4692 11.3684 18.4179 11.3684L15.2909 11.3684L15.2909 20.2106ZM18.543 13.2253C19.1058 13.2253 19.4311 13.5916 19.4311 14.0969C19.4311 14.64 19.1058 15.0063 18.543 15.0063L17.5173 15.0063L17.5173 13.2253L18.543 13.2253Z" fill="#ffffff" fill-rule="nonzero" opacity="1" stroke="none"/>
<path d="M22.5319 20.2106L24.7583 20.2106L24.7583 11.3684L22.5319 11.3684L22.5319 20.2106Z" fill="#ffffff" fill-rule="nonzero" opacity="1" stroke="none"/>
</g>
</svg>
