<svg width="80" height="81" viewBox="0 0 80 81" fill="none" xmlns="http://www.w3.org/2000/svg">
<path fill-rule="evenodd" clip-rule="evenodd" d="M73 18.9839C72.4486 18.9839 72 18.5353 72 17.9839C72 17.4324 72.4486 16.9839 73 16.9839C73.5514 16.9839 74 17.4324 74 17.9839C74 18.5353 73.5514 18.9839 73 18.9839Z" fill="#CACAFB"/>
<path fill-rule="evenodd" clip-rule="evenodd" d="M7 18.9839C6.4486 18.9839 6 18.5353 6 17.9839C6 17.4324 6.4486 16.9839 7 16.9839C7.5514 16.9839 8 17.4324 8 17.9839C8 18.5353 7.5514 18.9839 7 18.9839Z" fill="#CACAFB"/>
<path fill-rule="evenodd" clip-rule="evenodd" d="M11 68.9839C10.4486 68.9839 10 68.5353 10 67.9839C10 67.4324 10.4486 66.9839 11 66.9839C11.5514 66.9839 12 67.4324 12 67.9839C12 68.5353 11.5514 68.9839 11 68.9839Z" fill="#CACAFB"/>
<path fill-rule="evenodd" clip-rule="evenodd" d="M65 72.9839C64.4486 72.9839 64 72.5353 64 71.9839C64 71.4324 64.4486 70.9839 65 70.9839C65.5514 70.9839 66 71.4324 66 71.9839C66 72.5353 65.5514 72.9839 65 72.9839Z" fill="#CACAFB"/>
<path fill-rule="evenodd" clip-rule="evenodd" d="M19 6.98389C18.4486 6.98389 18 6.53529 18 5.98389C18 5.43244 18.4486 4.98389 19 4.98389C19.5514 4.98389 20 5.43244 20 5.98389C20 6.53529 19.5514 6.98389 19 6.98389Z" fill="#CACAFB"/>
<path fill-rule="evenodd" clip-rule="evenodd" d="M55 78.9839C54.4486 78.9839 54 78.5353 54 77.9839C54 77.4324 54.4486 76.9839 55 76.9839C55.5514 76.9839 56 77.4324 56 77.9839C56 78.5353 55.5514 78.9839 55 78.9839Z" fill="#CACAFB"/>
<path fill-rule="evenodd" clip-rule="evenodd" d="M16 30.9839C16 28.7773 17.7935 26.9839 20 26.9839C22.2065 26.9839 24 28.7773 24 30.9839C24 33.1904 22.2065 34.9839 20 34.9839C17.7935 34.9839 16 33.1904 16 30.9839ZM22 30.9839C22 29.8819 21.102 28.9839 20 28.9839C18.898 28.9839 18 29.8819 18 30.9839C18 32.0858 18.8981 32.9839 20 32.9839C21.1019 32.9839 22 32.0858 22 30.9839Z" fill="#E1000F"/>
<path fill-rule="evenodd" clip-rule="evenodd" d="M26 26.9839C26 24.7773 27.7935 22.9839 30 22.9839C32.2065 22.9839 34 24.7773 34 26.9839C34 29.1904 32.2065 30.9839 30 30.9839C27.7935 30.9839 26 29.1904 26 26.9839ZM32 26.9839C32 25.8819 31.102 24.9839 30 24.9839C28.898 24.9839 28 25.8819 28 26.9839C28 28.0858 28.8981 28.9839 30 28.9839C31.1019 28.9839 32 28.0858 32 26.9839Z" fill="#E1000F"/>
<path d="M26.5528 27.0895C27.0468 26.8425 27.6474 27.0427 27.8944 27.5367C28.1238 27.9954 27.9675 28.5461 27.5485 28.8201L27.4472 28.8783L23.4472 30.8783C22.9532 31.1253 22.3526 30.9251 22.1056 30.4311C21.8762 29.9724 22.0325 29.4217 22.4515 29.1476L22.5528 29.0895L26.5528 27.0895Z" fill="#E1000F"/>
<path d="M32.2929 28.2768C32.6534 27.9163 33.2206 27.8886 33.6129 28.1936L33.7071 28.2768L37.7071 32.2768C38.0976 32.6673 38.0976 33.3005 37.7071 33.691C37.3466 34.0515 36.7794 34.0792 36.3871 33.7742L36.2929 33.691L32.2929 29.691C31.9024 29.3005 31.9024 28.6673 32.2929 28.2768Z" fill="#E1000F"/>
<path fill-rule="evenodd" clip-rule="evenodd" d="M50 34.9839C50 29.4687 54.485 24.9839 60 24.9839C65.515 24.9839 70 29.4687 70 34.9839C70 40.4988 65.5149 44.9839 60 44.9839C54.4851 44.9839 50 40.4988 50 34.9839ZM68 34.9839C68 30.5733 64.4105 26.9839 60 26.9839C55.5895 26.9839 52 30.5733 52 34.9839C52 39.3942 55.5897 42.9839 60 42.9839C64.4103 42.9839 68 39.3942 68 34.9839Z" fill="#E1000F"/>
<path d="M60.0366 29.7156C60.1848 29.1836 60.7362 28.8724 61.2682 29.0205C63.6078 29.672 65.4014 31.5069 65.8762 33.7821C65.989 34.3228 65.6422 34.8525 65.1016 34.9653C64.5609 35.0782 64.0312 34.7314 63.9184 34.1907C63.5998 32.6643 62.3664 31.4024 60.7318 30.9472C60.1997 30.7991 59.8885 30.2477 60.0366 29.7156Z" fill="#E1000F"/>
<path d="M65.9641 41.1179C66.4082 40.8614 66.9673 40.9844 67.266 41.3863L67.3301 41.4839L73.3301 51.8762C74.1586 53.3111 73.6669 55.1458 72.2321 55.9743C70.8484 56.7731 69.0929 56.3445 68.2265 55.0263L68.134 54.8762L62.134 44.4839C61.8578 44.0056 62.0217 43.394 62.5 43.1179C62.9441 42.8614 63.5032 42.9844 63.8019 43.3863L63.866 43.4839L69.866 53.8762C70.1422 54.3545 70.7538 54.5184 71.2321 54.2422C71.6762 53.9858 71.8492 53.4401 71.6506 52.9806L71.5981 52.8762L65.5981 42.4839C65.3219 42.0056 65.4858 41.394 65.9641 41.1179Z" fill="#E1000F"/>
<path d="M44.5528 31.0895C45.0468 30.8425 45.6474 31.0427 45.8944 31.5367C46.1238 31.9954 45.9675 32.5461 45.5485 32.8201L45.4472 32.8783L43.4472 33.8783C42.9532 34.1253 42.3526 33.9251 42.1056 33.4311C41.8762 32.9724 42.0325 32.4217 42.4515 32.1476L42.5528 32.0895L44.5528 31.0895Z" fill="#E1000F"/>
<path fill-rule="evenodd" clip-rule="evenodd" d="M36 32.9839C36 30.7773 37.7935 28.9839 40 28.9839C42.2065 28.9839 44 30.7773 44 32.9839C44 35.1904 42.2065 36.9839 40 36.9839C37.7935 36.9839 36 35.1904 36 32.9839ZM42 32.9839C42 31.8819 41.102 30.9839 40 30.9839C38.898 30.9839 38 31.8819 38 32.9839C38 34.0858 38.8981 34.9839 40 34.9839C41.1019 34.9839 42 34.0858 42 32.9839Z" fill="#E1000F"/>
<path d="M59 16.9839C59.5128 16.9839 59.9355 17.3699 59.9933 17.8673L60 17.9839V19.9839C60 20.5362 59.5523 20.9839 59 20.9839C58.4872 20.9839 58.0645 20.5978 58.0067 20.1005L58 19.9839V18.9839H12V54.9839H58V49.9839C58 49.4711 58.386 49.0484 58.8834 48.9906L59 48.9839C59.5128 48.9839 59.9355 49.3699 59.9933 49.8673L60 49.9839V55.9839C60 56.4967 59.614 56.9194 59.1166 56.9772L59 56.9839H11C10.4872 56.9839 10.0645 56.5978 10.0067 56.1005L10 55.9839V17.9839C10 17.4711 10.386 17.0484 10.8834 16.9906L11 16.9839H59Z" fill="#000091"/>
<path d="M39 18.9839C39.5128 18.9839 39.9355 18.5978 39.9933 18.1005L40 17.9839V15.9839C40 14.3862 38.7511 13.0802 37.1763 12.989L37 12.9839H33C31.4023 12.9839 30.0963 14.2328 30.0051 15.8076L30 15.9839V17.9839C30 18.5362 30.4477 18.9839 31 18.9839C31.5128 18.9839 31.9355 18.5978 31.9933 18.1005L32 17.9839V15.9839C32 15.4711 32.386 15.0484 32.8834 14.9906L33 14.9839H37C37.5128 14.9839 37.9355 15.3699 37.9933 15.8673L38 15.9839V17.9839C38 18.5362 38.4477 18.9839 39 18.9839Z" fill="#000091"/>
<path d="M51 54.9839C51.5128 54.9839 51.9355 55.3699 51.9933 55.8673L52 55.9839V57.9839C52 59.5816 50.7511 60.8875 49.1763 60.9788L49 60.9839H21C19.4023 60.9839 18.0963 59.735 18.0051 58.1602L18 57.9839V55.9839C18 55.4316 18.4477 54.9839 19 54.9839C19.5128 54.9839 19.9355 55.3699 19.9933 55.8673L20 55.9839V57.9839C20 58.4967 20.386 58.9194 20.8834 58.9772L21 58.9839H49C49.5128 58.9839 49.9355 58.5978 49.9933 58.1005L50 57.9839V55.9839C50 55.4316 50.4477 54.9839 51 54.9839Z" fill="#000091"/>
<path d="M37.8 59.3839C37.4686 58.9421 36.8418 58.8525 36.4 59.1839C35.9922 59.4898 35.8845 60.0474 36.131 60.4789L36.2 60.5839L42.2 68.5839C42.5314 69.0257 43.1582 69.1153 43.6 68.7839C44.0078 68.478 44.1155 67.9204 43.869 67.4889L43.8 67.3839L37.8 59.3839Z" fill="#000091"/>
<path d="M23 38.9839C23.5128 38.9839 23.9355 39.3699 23.9933 39.8673L24 39.9839V41.9839C24 42.5362 23.5523 42.9839 23 42.9839C22.4872 42.9839 22.0645 42.5978 22.0067 42.1005L22 41.9839V40.9839H18V48.9839H22V45.9839C22 45.4711 22.386 45.0484 22.8834 44.9906L23 44.9839C23.5128 44.9839 23.9355 45.3699 23.9933 45.8673L24 45.9839V49.9839C24 50.4967 23.614 50.9194 23.1166 50.9772L23 50.9839H17C16.4872 50.9839 16.0645 50.5978 16.0067 50.1005L16 49.9839V39.9839C16 39.4711 16.386 39.0484 16.8834 38.9906L17 38.9839H23Z" fill="#000091"/>
<path d="M29 34.9839C29.5523 34.9839 30 35.4316 30 35.9839C30 36.4967 29.614 36.9194 29.1166 36.9772L29 36.9839H28V48.9839H32V37.9839C32 37.4711 32.386 37.0484 32.8834 36.9906L33 36.9839C33.5128 36.9839 33.9355 37.3699 33.9933 37.8673L34 37.9839V49.9839C34 50.4967 33.614 50.9194 33.1166 50.9772L33 50.9839H27C26.4872 50.9839 26.0645 50.5978 26.0067 50.1005L26 49.9839V35.9839C26 35.4711 26.386 35.0484 26.8834 34.9906L27 34.9839H29Z" fill="#000091"/>
<path d="M39 42.9839C39.5523 42.9839 40 43.4316 40 43.9839C40 44.4967 39.614 44.9194 39.1166 44.9772L39 44.9839H38V48.9839H42V43.9839C42 43.4711 42.386 43.0484 42.8834 42.9906L43 42.9839C43.5128 42.9839 43.9355 43.3699 43.9933 43.8673L44 43.9839V49.9839C44 50.4967 43.614 50.9194 43.1166 50.9772L43 50.9839H37C36.4872 50.9839 36.0645 50.5978 36.0067 50.1005L36 49.9839V43.9839C36 43.4711 36.386 43.0484 36.8834 42.9906L37 42.9839H39Z" fill="#000091"/>
<path d="M47 40.9839C47.5128 40.9839 47.9355 41.3699 47.9933 41.8673L48 41.9839V48.9839H52V47.9839C52 47.4711 52.386 47.0484 52.8834 46.9906L53 46.9839C53.5128 46.9839 53.9355 47.3699 53.9933 47.8673L54 47.9839V49.9839C54 50.4967 53.614 50.9194 53.1166 50.9772L53 50.9839H47C46.4872 50.9839 46.0645 50.5978 46.0067 50.1005L46 49.9839V41.9839C46 41.4316 46.4477 40.9839 47 40.9839Z" fill="#000091"/>
<path d="M32.2 59.3839C32.5314 58.9421 33.1582 58.8525 33.6 59.1839C34.0078 59.4898 34.1155 60.0474 33.869 60.4789L33.8 60.5839L27.8 68.5839C27.4686 69.0257 26.8418 69.1153 26.4 68.7839C25.9922 68.478 25.8845 67.9204 26.131 67.4889L26.2 67.3839L32.2 59.3839Z" fill="#000091"/>
</svg>
