<svg width="64" height="64" viewBox="0 0 64 64" fill="none" xmlns="http://www.w3.org/2000/svg">
<path fill-rule="evenodd" clip-rule="evenodd" d="M6.4001 13.6C5.95898 13.6 5.6001 13.2411 5.6001 12.8C5.6001 12.3588 5.95898 12 6.4001 12C6.84122 12 7.2001 12.3588 7.2001 12.8C7.2001 13.2411 6.84122 13.6 6.4001 13.6Z" fill="#ECECFE"/>
<path fill-rule="evenodd" clip-rule="evenodd" d="M52.0002 57.6C51.5591 57.6 51.2002 57.2411 51.2002 56.8C51.2002 56.3588 51.5591 56 52.0002 56C52.4413 56 52.8002 56.3588 52.8002 56.8C52.8002 57.2411 52.4413 57.6 52.0002 57.6Z" fill="#ECECFE"/>
<path fill-rule="evenodd" clip-rule="evenodd" d="M52.8 8.79922C52.3589 8.79922 52 8.44034 52 7.99922C52 7.55806 52.3589 7.19922 52.8 7.19922C53.2411 7.19922 53.6 7.55806 53.6 7.99922C53.6 8.44034 53.2411 8.79922 52.8 8.79922Z" fill="#ECECFE"/>
<path fill-rule="evenodd" clip-rule="evenodd" d="M16.8 61.6C16.3589 61.6 16 61.2411 16 60.8C16 60.3588 16.3589 60 16.8 60C17.2411 60 17.6 60.3588 17.6 60.8C17.6 61.2411 17.2411 61.6 16.8 61.6Z" fill="#ECECFE"/>
<path d="M33.5999 20.7992C33.5999 19.9156 32.8836 19.1992 31.9999 19.1992C31.1162 19.1992 30.3999 19.9156 30.3999 20.7992C30.3999 21.6829 31.1162 22.3992 31.9999 22.3992C32.8836 22.3992 33.5999 21.6829 33.5999 20.7992Z" fill="#6A6AF4"/>
<path d="M33.5999 27.1992C33.5999 26.3156 32.8836 25.5992 31.9999 25.5992C31.1162 25.5992 30.3999 26.3156 30.3999 27.1992V39.9992C30.3999 40.8829 31.1162 41.5992 31.9999 41.5992C32.8836 41.5992 33.5999 40.8829 33.5999 39.9992V27.1992Z" fill="#6A6AF4"/>
<path fill-rule="evenodd" clip-rule="evenodd" d="M47.2001 9.59961C51.2444 9.59961 54.2969 13.4619 54.3975 18.16L54.4001 18.3996V39.1996C54.4001 43.9252 51.415 47.8662 47.4049 47.9963L47.2001 47.9996H37.7817L37.72 48.0565C37.6703 48.1034 37.6151 48.159 37.5545 48.2233L37.3568 48.4418L37.0611 48.7915L36.6431 49.3129L35.9854 50.1711L34.7132 51.8574L34.2335 52.4844L33.8281 53.001L33.5663 53.3221L33.4093 53.507L33.2647 53.6702L33.1312 53.8128L33.0073 53.9363L32.8918 54.0418L32.7832 54.1307C32.7656 54.1442 32.7482 54.1571 32.7311 54.1694L32.6303 54.2358C32.5974 54.2556 32.5651 54.2733 32.5331 54.2889L32.438 54.3298C32.4066 54.3416 32.3752 54.3516 32.3437 54.3601L32.2489 54.3808L32.152 54.3933L32.0519 54.399L31.9483 54.399L31.8482 54.3934L31.7515 54.3811C31.7197 54.3757 31.6882 54.369 31.6568 54.3607L31.5628 54.3308L31.4681 54.2902C31.4203 54.267 31.3717 54.2393 31.3215 54.2063L31.2189 54.1331L31.1106 54.0445C31.092 54.0284 31.0732 54.0116 31.054 53.994L30.9348 53.88L30.8065 53.7473L30.6678 53.5946L30.5173 53.4207L30.1752 53.0037L29.8774 52.6254L29.1551 51.6806L27.7434 49.8101L27.3393 49.2866L27.1362 49.0304L26.8754 48.7111L26.757 48.5704L26.5434 48.3266C26.4774 48.2538 26.4168 48.1896 26.3615 48.134L26.2193 47.9996H16.8001C12.7558 47.9996 9.70329 44.1373 9.60266 39.4392L9.6001 39.1996V24.7996C9.6001 24.3578 9.95827 23.9996 10.4001 23.9996C10.8104 23.9996 11.1485 24.3084 11.1947 24.7063L11.2001 24.7996V39.1996C11.2001 43.1246 13.5833 46.2808 16.6271 46.3963L16.8001 46.3996L26.4491 46.4001L26.5433 46.4042L26.6336 46.4136L26.7215 46.4296L26.8082 46.4536L26.895 46.4868L26.9833 46.5305L27.0744 46.5859L27.1697 46.6545L27.2703 46.7375L27.3777 46.8361L27.4932 46.9517L27.6181 47.0856L27.7538 47.239L27.9803 47.5086L28.3322 47.9486L29.1151 48.969L30.6077 50.9461L31.1472 51.6406L31.444 52.0064L31.5156 52.0924C31.6781 52.2865 31.8207 52.448 31.9421 52.5752L32.0001 52.634L32.0581 52.5757C32.1187 52.5122 32.1847 52.4402 32.2558 52.3598L32.4843 52.0938L32.7017 51.8303L33.0171 51.4343L33.6178 50.6526L35.2567 48.4843L35.7703 47.8224L36.1071 47.4062L36.3237 47.1531L36.4534 47.01L36.5729 46.886C36.5921 46.8668 36.6109 46.8484 36.6293 46.8307L36.7361 46.7327L36.836 46.6504C36.8522 46.6379 36.8681 46.626 36.8839 46.6147L36.9761 46.5536C36.9912 46.5444 37.0061 46.5358 37.0209 46.5277L37.1084 46.4847L37.1945 46.4521C37.2088 46.4475 37.2231 46.4432 37.2375 46.4393L37.3239 46.42C37.3384 46.4174 37.3531 46.4151 37.3678 46.4131L37.4576 46.404L37.5513 46.4L47.2001 46.3996C50.2682 46.3996 52.7082 43.3161 52.7976 39.4209L52.8001 39.1996V18.3996C52.8001 14.4746 50.4169 11.3184 47.3731 11.2029L47.2001 11.1996H16.8001C13.6741 11.1996 11.2001 14.4006 11.2001 18.3996C11.2001 18.8414 10.8419 19.1996 10.4001 19.1996C9.95827 19.1996 9.6001 18.8414 9.6001 18.3996C9.6001 13.674 12.5852 9.73298 16.5953 9.60292L16.8001 9.59961H47.2001ZM49.6001 50.3996C49.6001 49.9578 49.9583 49.5996 50.4001 49.5996C50.8419 49.5996 51.2001 49.9578 51.2001 50.3996C51.2001 50.8414 50.8419 51.1996 50.4001 51.1996C49.9583 51.1996 49.6001 50.8414 49.6001 50.3996ZM48.0001 50.3996C48.0001 49.9578 47.6419 49.5996 47.2001 49.5996H39.2001L39.1068 49.605C38.7089 49.6512 38.4001 49.9893 38.4001 50.3996C38.4001 50.8414 38.7583 51.1996 39.2001 51.1996H47.2001L47.2934 51.1942C47.6913 51.148 48.0001 50.8099 48.0001 50.3996Z" fill="#666666"/>
</svg>
