<svg width="126" height="90" viewBox="0 0 126 90" fill="none" xmlns="http://www.w3.org/2000/svg">
<g clip-path="url(#clip0_83_3)">
<g clip-path="url(#clip1_83_3)">
<path d="M123.1 77.8C124.6 74 122.8 72.5 120.6 72.5C116.9 72.5 112.7 79 112.7 84.2C112.7 86.7 113.9 88 115.7 88C117.8 88 120 86 121.9 82.5H120.9C119.7 84 118.3 85.1 117 85.1C115.7 85.1 115 84.3 115 82.5C115.023 81.7582 115.124 81.0209 115.3 80.3L123.1 77.8ZM119.1 74.7C120.2 74.7 121.1 75.5 120.6 77.3L115.8 78.6C116.6 76.4 118 74.6 119.2 74.6L119.1 74.7Z" fill="black"/>
</g>
<path d="M120.6 70.8L125.1 66.7V66.1H122.1L119.4 70.8H120.7H120.6Z" fill="black"/>
</g>
<g clip-path="url(#clip2_83_3)">
<path d="M103.9 74.7H106.5L102.3 86.1C102.168 86.304 102.097 86.5408 102.093 86.7835C102.089 87.0262 102.153 87.2651 102.278 87.4733C102.403 87.6814 102.583 87.8505 102.799 87.9612C103.015 88.072 103.258 88.1201 103.5 88.1C106.5 88.1 109.9 85.5 111.3 81.9H110.6C109.344 83.6086 107.546 84.8421 105.5 85.4L109.2 74.7H113.2L113.7 73.1H109.9L111.2 69H109.8L107.1 73.1L103.9 73.5V74.7Z" fill="black"/>
</g>
<g clip-path="url(#clip3_83_3)">
<path d="M101.2 74.1C101.5 73.1 100.8 72.5 100.2 72.5C98 72.5 95.2 74.6 94.2 77.5H94.9C95.6103 76.3526 96.7112 75.5003 98 75.1L93.7 86.4C93.6136 86.5692 93.5725 86.7579 93.5807 86.9478C93.5889 87.1376 93.6462 87.322 93.7469 87.4832C93.8476 87.6443 93.9883 87.7766 94.1553 87.8672C94.3223 87.9577 94.51 88.0035 94.7 88C96.9 88 99.4 86 100.5 83H99.6C98.951 84.2039 97.8839 85.1287 96.6 85.6L101.2 74.1ZM101.6 69.8C101.836 69.8 102.07 69.7534 102.289 69.663C102.507 69.5725 102.706 69.4399 102.873 69.2728C103.04 69.1056 103.172 68.9072 103.263 68.6888C103.353 68.4704 103.4 68.2364 103.4 68C103.414 67.7553 103.377 67.5105 103.293 67.2804C103.208 67.0503 103.078 66.8399 102.909 66.662C102.741 66.4842 102.538 66.3425 102.313 66.2459C102.088 66.1493 101.845 66.0996 101.6 66.1C101.123 66.1 100.665 66.2896 100.327 66.6272C99.9896 66.9648 99.8 67.4226 99.8 67.9C99.8 68.3774 99.9896 68.8352 100.327 69.1728C100.665 69.5103 101.123 69.7 101.6 69.7" fill="black"/>
</g>
<g clip-path="url(#clip4_83_3)">
<path d="M80.5 75.6C81.2 75.6 81.5 76.6 80.5 79L77.5 85.8C76.8 87.1 77.5 88 78.7 88C79.0308 88.0596 79.3719 87.9887 79.6515 87.8023C79.9312 87.6158 80.1278 87.3283 80.2 87L83.2 79C84.6 77.3 87.2 75.5 88.2 75.5C89.2 75.5 89 76.1 88.5 77.1L83.9 86.1C83.7988 86.2942 83.7482 86.5108 83.753 86.7298C83.7579 86.9487 83.8179 87.1629 83.9277 87.3524C84.0374 87.542 84.1932 87.7007 84.3807 87.8139C84.5682 87.9271 84.7812 87.9911 85 88C87.3 88 90 86 91 83H90.4C89.6837 84.2044 88.5419 85.0964 87.2 85.5L91.2 77.5C91.6888 76.6449 91.9633 75.6842 92 74.7C92.0315 74.4034 91.9963 74.1035 91.8968 73.8222C91.7974 73.541 91.6364 73.2855 91.4254 73.0746C91.2145 72.8637 90.9591 72.7026 90.6778 72.6032C90.3966 72.5038 90.0967 72.4685 89.8 72.5C87.8 72.5 86.2 74.7 83.8 77.5V75.3C83.8 73.9 83.3 72.5 82 72.5C80.4 72.5 79 75 77.9 77.4H78.6C79.3 76.3 79.9 75.6 80.6 75.6" fill="black"/>
</g>
<g clip-path="url(#clip5_83_3)">
<path d="M77.5 76C78 74.1 77.7 72.5 76.3 72.5C74.5 72.5 74 73.7 72.3 77.5V75.3C72.2 73.8 71.7 72.5 70.3 72.5C68.8 72.5 67.4 75 66.2 77.5H67C67.7 76.2 68.5 75.5 69 75.5C69.7 75.5 70 76.5 69 78.9L66 85.7C65.3 87 66 87.8 67.2 87.8C67.5308 87.8596 67.8719 87.7887 68.1515 87.6022C68.4312 87.4158 68.6278 87.1283 68.7 86.8L71.7 78.8C72.5269 77.7662 73.3942 76.7654 74.3 75.8H77.5V76Z" fill="black"/>
</g>
<g clip-path="url(#clip6_83_3)">
<path d="M64.7 77.8C66.2 74 64.4 72.5 62.2 72.5C58.5 72.5 54.3 79 54.3 84.2C54.3 86.7 55.5 88 57.3 88C59.4 88 61.6 86 63.5 82.5H62.5C61.3 84 59.9 85.1 58.6 85.1C57.3 85.1 56.6 84.3 56.6 82.5C56.6234 81.7582 56.724 81.0209 56.9 80.3L64.7 77.8ZM60.7 74.7C61.8 74.7 62.7 75.5 62.2 77.3L57.4 78.6C58.2 76.4 59.6 74.6 60.8 74.6L60.7 74.7Z" fill="black"/>
</g>
<g clip-path="url(#clip7_83_3)">
<path d="M45.4 74.7H48L43.8 86.1C43.6685 86.304 43.5967 86.5408 43.5928 86.7835C43.5888 87.0262 43.653 87.2651 43.7778 87.4733C43.9027 87.6814 44.0834 87.8505 44.2994 87.9612C44.5154 88.072 44.7581 88.1201 45 88.1C48 88.1 51.4 85.5 52.8 81.9H52.1C50.8435 83.6086 49.0462 84.8421 47 85.4L50.7 74.7H54.7L55.2 73.1H51.4L52.7 69H51.3L48.6 73.1L45.4 73.5V74.7Z" fill="black"/>
</g>
<g clip-path="url(#clip8_83_3)">
<path d="M39.4 84.9C38.8 84.9 38.4 83.9 39.4 81.5L43.5 71.9L42.3 71.8L41 73.1H40.7C35 73.1 28.9 80.4 28.9 86C28.8857 86.2796 28.9302 86.559 29.0306 86.8203C29.1311 87.0816 29.2852 87.3189 29.4832 87.5168C29.6811 87.7148 29.9184 87.869 30.1797 87.9694C30.441 88.0699 30.7205 88.1144 31 88.1C32.7 88.1 34.3 85.7 36.2 83.1L36.1 84.1C35.8 86.7 36.7 88.1 38.1 88.1C39.6 88.1 41.1 85.7 42.1 83.2H41.4C40.7 84.3 39.9 85 39.4 85V84.9ZM36.8 81.6C35.5 83.2 33.4 85.1 32.5 85.1C32 85.1 31.6 84.6 31.6 83.5C31.6 80 35.6 75.3 37.6 75.3C38.0747 75.287 38.548 75.3547 39 75.5L36.8 81.6Z" fill="black"/>
</g>
<g clip-path="url(#clip9_83_3)">
<path d="M31.4 76C31.9 74.1 31.6 72.5 30.2 72.5C28.4 72.5 27.9 73.7 26.2 77.5V75.3C26.1 73.8 25.6 72.5 24.2 72.5C22.7 72.5 21.3 75 20.1 77.5H20.9C21.6 76.2 22.4 75.5 22.9 75.5C23.6 75.5 23.9 76.5 22.9 78.9L19.9 85.7C19.2 87 19.9 87.8 21.1 87.8C21.4308 87.8596 21.7718 87.7887 22.0515 87.6022C22.3312 87.4158 22.5277 87.1283 22.6 86.8L25.6 78.8C26.4268 77.7662 27.2942 76.7654 28.2 75.8H31.4V76Z" fill="black"/>
</g>
<g clip-path="url(#clip10_83_3)">
<path d="M11.2 87.4L11.5 86.5C7.70002 85.8 7.20002 85.8 8.80002 81.7L10.2 77.8H13.2C15.1 77.8 15.1 78.7 14.8 80.8H15.8L18.4 73.9H17.4C16.4 75.5 15.6 76.8 13.6 76.8H10.6L12.6 71.2C13.4 69.2 13.7 68.8 16.3 68.8H17C19.6 68.8 20 69.5 20 72.3H21L21.9 67.6H7.30002L7.00002 68.5C10 69.1 10.3 69.4 9.00002 73.3L5.70002 81.6C4.20002 85.5 3.70002 85.8 0.200024 86.4L-0.0999756 87.3L11.2 87.4Z" fill="black"/>
</g>
<g clip-path="url(#clip11_83_3)">
<g clip-path="url(#clip12_83_3)">
<path d="M87.7 44.8C89.2 41 87.4 39.5 85.2 39.5C81.5 39.5 77.3 46 77.3 51.2C77.3 53.7 78.5 55 80.3 55C82.4 55 84.6 53 86.5 49.5H85.5C84.3 51 82.9 52.1 81.6 52.1C80.3 52.1 79.6 51.3 79.6 49.5C79.6234 48.7582 79.724 48.0209 79.9 47.3L87.7 44.8ZM83.7 41.7C84.8 41.7 85.7 42.5 85.2 44.3L80.4 45.6C81.2 43.4 82.6 41.6 83.8 41.6L83.7 41.7Z" fill="black"/>
</g>
<path d="M85.2 37.8L89.7 33.7V33.1H86.7L84 37.8H85.3H85.2Z" fill="black"/>
</g>
<g clip-path="url(#clip13_83_3)">
<path d="M68.5 41.7H71.1L66.9 53.1C66.7684 53.304 66.6966 53.5408 66.6927 53.7835C66.6888 54.0262 66.7529 54.2651 66.8778 54.4733C67.0027 54.6814 67.1834 54.8505 67.3994 54.9612C67.6154 55.072 67.8581 55.1201 68.1 55.1C71.1 55.1 74.5 52.5 75.9 48.9H75.2C73.9435 50.6086 72.1461 51.8421 70.1 52.4L73.8 41.7H77.8L78.3 40.1H74.5L75.8 36H74.4L71.7 40.1L68.5 40.5V41.7Z" fill="black"/>
</g>
<g clip-path="url(#clip14_83_3)">
<path d="M65.8 41C66.1 40 65.4 39.4 64.8 39.4C62.6 39.4 59.8 41.5 58.8 44.4H59.5C60.2104 43.2526 61.3112 42.4003 62.6 42L58.3 53.3C58.2136 53.4692 58.1725 53.6579 58.1807 53.8478C58.1889 54.0376 58.2462 54.2221 58.3469 54.3832C58.4476 54.5443 58.5883 54.6766 58.7553 54.7672C58.9224 54.8577 59.11 54.9035 59.3 54.9C61.5 54.9 64 52.9 65.1 49.9H64.2C63.551 51.1039 62.4839 52.0288 61.2 52.5L65.8 41ZM66.2 36.7C66.4364 36.7 66.6704 36.6534 66.8888 36.563C67.1072 36.4725 67.3056 36.3399 67.4728 36.1728C67.6399 36.0056 67.7725 35.8072 67.863 35.5888C67.9534 35.3704 68 35.1364 68 34.9C68.0136 34.6553 67.9771 34.4105 67.8928 34.1804C67.8084 33.9504 67.678 33.7399 67.5095 33.5621C67.341 33.3842 67.1379 33.2426 66.9127 33.1459C66.6876 33.0493 66.445 32.9996 66.2 33C65.7226 33 65.2648 33.1896 64.9272 33.5272C64.5896 33.8648 64.4 34.3226 64.4 34.8C64.4 35.2774 64.5896 35.7352 64.9272 36.0728C65.2648 36.4104 65.7226 36.6 66.2 36.6" fill="black"/>
</g>
<g clip-path="url(#clip15_83_3)">
<path d="M52.3 52.5L59.5 33.4L59.2 33.1L54.2 33.7V34.3L55.2 35C56.1 35.7 55.8 36.3 55 38.4L49.6 53C49.4742 53.1968 49.4038 53.4238 49.3961 53.6572C49.3885 53.8907 49.4438 54.1218 49.5564 54.3265C49.6689 54.5311 49.8345 54.7017 50.0358 54.8202C50.237 54.9387 50.4665 55.0008 50.7 55C53 55 55.4 52.9 56.5 50H55.8C54.9508 51.2063 53.7166 52.088 52.3 52.5Z" fill="black"/>
</g>
<g clip-path="url(#clip16_83_3)">
<path d="M45.4 51.9C44.8 51.9 44.4 50.9 45.4 48.5L49.5 38.9L48.3 38.8L47 40.1H46.7C41 40.1 34.9 47.4 34.9 53C34.8857 53.2796 34.9302 53.559 35.0306 53.8203C35.1311 54.0816 35.2852 54.3189 35.4832 54.5168C35.6811 54.7148 35.9184 54.869 36.1797 54.9694C36.441 55.0699 36.7205 55.1144 37 55.1C38.7 55.1 40.3 52.7 42.2 50.1L42.1 51.1C41.8 53.7 42.7 55.1 44.1 55.1C45.6 55.1 47.1 52.7 48.1 50.2H47.4C46.7 51.3 45.9 52 45.4 52V51.9ZM42.8 48.6C41.5 50.2 39.4 52.1 38.5 52.1C38 52.1 37.6 51.6 37.6 50.5C37.6 47 41.6 42.3 43.6 42.3C44.0747 42.287 44.548 42.3547 45 42.5L42.8 48.6Z" fill="black"/>
</g>
<g clip-path="url(#clip17_83_3)">
<path d="M36.6 40H32.3C31.6738 39.5989 30.9436 39.3902 30.2 39.4C28.4668 39.3999 26.803 40.0815 25.5681 41.2977C24.3332 42.5139 23.6263 44.167 23.6 45.9C23.5588 46.3338 23.6038 46.7713 23.7325 47.1875C23.8613 47.6037 24.0712 47.9903 24.3501 48.325C24.629 48.6597 24.9714 48.9358 25.3575 49.1375C25.7437 49.3392 26.166 49.4624 26.6 49.5C24.7 50.3 23.6 51.3 23.6 52.4C23.6 52.7082 23.6837 53.0105 23.8423 53.2747C24.0008 53.5389 24.2281 53.7551 24.5 53.9C20.2 55.2 18.5 56.7 18.5 58.6C18.5 60.6 21.1 61.4 24.1 61.4C29.4 61.4 33.7 58.7 33.7 56.3C33.7 54.5 32.1 53.8 29.4 53C27.2 52.3 26.2 52.2 26.2 51.4C26.2658 51.0074 26.4282 50.6374 26.6726 50.3232C26.917 50.0089 27.2357 49.7604 27.6 49.6C29.2452 49.4752 30.784 48.7386 31.9131 47.5355C33.0422 46.3323 33.6797 44.7499 33.7 43.1C33.7185 42.5923 33.6509 42.0852 33.5 41.6H36L36.6 40ZM28.4 55.6C30.5 56.3 31.4 56.6 31.4 57.2C31.4 58.6 29.4 59.7 25.8 59.7C23.1 59.7 21.8 59.1 21.8 57.7C21.8 56.2 23.2 55.2 25.3 54.4C26.2685 54.8747 27.2713 55.2759 28.3 55.6H28.4ZM27.6 48.4C26.6 48.4 26.3 47.6 26.3 46.7C26.3 43.9 27.7 40.5 29.8 40.5C30.8 40.5 31.1 41.3 31.1 42.1C31.1 45 29.7 48.4 27.6 48.4Z" fill="black"/>
</g>
<g clip-path="url(#clip18_83_3)">
<path d="M14.3 44.9C16.2 44.9 16.3 45.7 15.9 47.7H17L19.5 40.9H18.5C17.5 42.5 16.8 43.8 14.7 43.8H10.6L12.6 38.2C13.3 36.2 13.6 35.8 16.3 35.8H18C20.6 35.8 21 36.5 21 39.3H22L22.9 34.6H7.3L7 35.5C10 36.1 10.3 36.4 9 40.3L5.8 48.7C4.3 52.6 3.8 52.9 0.2 53.5L0 54.5H17.4L20.6 49.5H19.4C17.4 51.5 15.4 53.3 11.4 53.3C6.7 53.3 7.1 53 8.7 48.7L10.1 44.9H14.3ZM16.6 33.1L21 29.9V29.3H18L15.4 33.2H16.6V33.1Z" fill="black"/>
</g>
<g clip-path="url(#clip19_83_3)">
<g clip-path="url(#clip20_83_3)">
<path d="M87.2 11.8C88.7 8 86.9 6.5 84.7 6.5C81 6.5 76.8 13 76.8 18.2C76.8 20.7 78 22 79.8 22C81.9 22 84.1 20 86 16.5H85C83.8 18 82.4 19.1 81.1 19.1C79.8 19.1 79.1 18.3 79.1 16.5C79.1234 15.7582 79.224 15.0209 79.4 14.3L87.2 11.8ZM83.2 8.7C84.3 8.7 85.2 9.5 84.7 11.3L79.9 12.6C80.7 10.4 82.1 8.6 83.3 8.6L83.2 8.7Z" fill="black"/>
</g>
<path d="M84.7 4.79998L89.2 0.699976V0.0999756H86.2L83.5 4.79998H84.8H84.7Z" fill="black"/>
</g>
<g clip-path="url(#clip21_83_3)">
<path d="M67.9 8.60002H70.5L66.3 20C66.1685 20.204 66.0967 20.4408 66.0928 20.6835C66.0888 20.9262 66.153 21.1652 66.2778 21.3733C66.4027 21.5815 66.5834 21.7505 66.7994 21.8612C67.0154 21.972 67.2581 22.0201 67.5 22C70.5 22 73.9 19.4 75.3 15.8H74.6C73.3435 17.5086 71.5462 18.7421 69.5 19.3L73.2 8.60002H77.2L77.7 7.00002H73.9L75.2 2.90002H73.8L71.1 7.00002L67.9 7.40002V8.60002Z" fill="black"/>
</g>
<g clip-path="url(#clip22_83_3)">
<path d="M66.6 10C67.1 8.1 66.8 6.5 65.4 6.5C63.6 6.5 63.1 7.7 61.4 11.5V9.3C61.3 7.8 60.8 6.5 59.4 6.5C57.9 6.5 56.5 9 55.3 11.5H56.1C56.8 10.2 57.6 9.5 58.1 9.5C58.8 9.5 59.1 10.5 58.1 12.9L55.1 19.7C54.4 21 55.1 21.8 56.3 21.8C56.6308 21.8596 56.9718 21.7887 57.2515 21.6022C57.5312 21.4158 57.7278 21.1283 57.8 20.8L60.8 12.8C61.6269 11.7662 62.4942 10.7654 63.4 9.8H66.6V10Z" fill="black"/>
</g>
<g clip-path="url(#clip23_83_3)">
<path d="M53.8 11.7C55.3 7.90002 53.5 6.40002 51.3 6.40002C47.6 6.40002 43.4 12.9 43.4 18.1C43.4 20.6 44.6 21.9 46.4 21.9C48.5 21.9 50.7 19.9 52.6 16.4H51.6C50.4 17.9 49 19 47.7 19C46.4 19 45.7 18.2 45.7 16.4C45.7235 15.6583 45.824 14.921 46 14.2L53.8 11.7ZM49.8 8.60002C50.9 8.60002 51.8 9.40002 51.3 11.2L46.5 12.5C47.3 10.3 48.7 8.50002 49.9 8.50002L49.8 8.60002Z" fill="black"/>
</g>
<g clip-path="url(#clip24_83_3)">
<path d="M40.8 6.49998C38.8 6.49998 36.8 8.69998 35 11.3L39 0.399976L38.8 0.0999756L33.8 0.699976V1.09998L34.8 1.89998C35.7 2.59998 35.4 3.19998 34.6 5.29998L30.2 16.9C29.872 17.6095 29.6044 18.3455 29.4 19.1C29.4 20.5 31.2 21.8 32.9 21.8C36.7 21.8 42.9 14.9 42.9 9.59998C42.9 7.29998 42.4 6.39998 40.8 6.39998V6.49998ZM34.2 19.6C33.4 19.6 32.3 18.9 32.3 18.3C32.5109 17.5475 32.7783 16.8121 33.1 16.1L34.4 12.8C35.7 11.1 37.8 9.39998 39 9.39998C39.7 9.39998 40.2 9.79998 40.2 10.9C40.2 14 37.3 19.6 34.2 19.6Z" fill="black"/>
</g>
<g clip-path="url(#clip25_83_3)">
<path d="M28.2 8C28.5 7 27.8 6.4 27.2 6.4C25 6.4 22.2 8.5 21.2 11.4H21.9C22.6103 10.2526 23.7112 9.40034 25 9L20.7 20.3C20.6136 20.4692 20.5725 20.6579 20.5807 20.8478C20.5889 21.0376 20.6462 21.2221 20.7469 21.3832C20.8476 21.5443 20.9883 21.6766 21.1553 21.7672C21.3223 21.8577 21.51 21.9035 21.7 21.9C23.9 21.9 26.4 19.9 27.5 16.9H26.6C25.951 18.1039 24.8839 19.0288 23.6 19.5L28.2 8ZM28.6 3.7C28.8363 3.7 29.0704 3.65344 29.2888 3.56299C29.5072 3.47253 29.7056 3.33994 29.8727 3.17279C30.0399 3.00565 30.1725 2.80722 30.2629 2.58883C30.3534 2.37045 30.4 2.13638 30.4 1.9C30.4136 1.65535 30.3771 1.41049 30.2927 1.18042C30.2084 0.950362 30.078 0.739943 29.9094 0.56206C29.7409 0.384176 29.5379 0.242573 29.3127 0.145926C29.0875 0.049279 28.845 -0.000376302 28.6 2.14707e-06C28.1226 2.14707e-06 27.6647 0.189644 27.3272 0.52721C26.9896 0.864775 26.8 1.32261 26.8 1.8C26.8 2.27739 26.9896 2.73523 27.3272 3.07279C27.6647 3.41036 28.1226 3.6 28.6 3.6" fill="black"/>
</g>
<g clip-path="url(#clip26_83_3)">
<path d="M17.6 1.40002H7.3L7 2.30002C10 2.90002 10.3 3.20002 9 7.10002L5.8 15.6C4.3 19.5 3.8 19.8 0.3 20.4L0 21.4H15.7L19.2 15.4H18C16 17.4 13.8 20.2 10.3 20.2C7.6 20.2 7.3 19.7 8.7 15.7L11.8 7.20002C13.2 3.30002 13.8 3.00002 17.3 2.40002L17.6 1.40002Z" fill="black"/>
</g>
<defs>
<clipPath id="clip0_83_3">
<rect width="12.4" height="21.8" fill="white" transform="translate(112.7 66.1)"/>
</clipPath>
<clipPath id="clip1_83_3">
<rect width="11" height="15.5" fill="white" transform="translate(112.7 72.5)"/>
</clipPath>
<clipPath id="clip2_83_3">
<rect width="11.5" height="19" fill="white" transform="translate(102.2 69)"/>
</clipPath>
<clipPath id="clip3_83_3">
<rect width="9.8" height="21.9" fill="white" transform="translate(93.6 66.1)"/>
</clipPath>
<clipPath id="clip4_83_3">
<rect width="14.8" height="15.5" fill="white" transform="translate(77.2 72.5)"/>
</clipPath>
<clipPath id="clip5_83_3">
<rect width="12" height="15.5" fill="white" transform="translate(65.7 72.5)"/>
</clipPath>
<clipPath id="clip6_83_3">
<rect width="11" height="15.5" fill="white" transform="translate(54.3 72.5)"/>
</clipPath>
<clipPath id="clip7_83_3">
<rect width="11.5" height="19" fill="white" transform="translate(43.7 69)"/>
</clipPath>
<clipPath id="clip8_83_3">
<rect width="14.7" height="16.2" fill="white" transform="translate(28.9 71.8)"/>
</clipPath>
<clipPath id="clip9_83_3">
<rect width="12" height="15.5" fill="white" transform="translate(19.6 72.5)"/>
</clipPath>
<clipPath id="clip10_83_3">
<rect width="21.9" height="19.8" fill="white" transform="translate(0 67.6)"/>
</clipPath>
<clipPath id="clip11_83_3">
<rect width="12.4" height="21.8" fill="white" transform="translate(77.3 33.1)"/>
</clipPath>
<clipPath id="clip12_83_3">
<rect width="11" height="15.5" fill="white" transform="translate(77.3 39.5)"/>
</clipPath>
<clipPath id="clip13_83_3">
<rect width="11.5" height="19" fill="white" transform="translate(66.8 36)"/>
</clipPath>
<clipPath id="clip14_83_3">
<rect width="9.8" height="21.9" fill="white" transform="translate(58.2 33)"/>
</clipPath>
<clipPath id="clip15_83_3">
<rect width="10.1" height="21.9" fill="white" transform="translate(49.4 33.1)"/>
</clipPath>
<clipPath id="clip16_83_3">
<rect width="14.7" height="16.2" fill="white" transform="translate(34.9 38.8)"/>
</clipPath>
<clipPath id="clip17_83_3">
<rect width="18" height="22" fill="white" transform="translate(18.6 39.4)"/>
</clipPath>
<clipPath id="clip18_83_3">
<rect width="23" height="25.1" fill="white" transform="translate(0 29.3)"/>
</clipPath>
<clipPath id="clip19_83_3">
<rect width="12.4" height="21.8" fill="white" transform="translate(76.8 0.0999756)"/>
</clipPath>
<clipPath id="clip20_83_3">
<rect width="11" height="15.5" fill="white" transform="translate(76.8 6.5)"/>
</clipPath>
<clipPath id="clip21_83_3">
<rect width="11.5" height="19" fill="white" transform="translate(66.2 2.90002)"/>
</clipPath>
<clipPath id="clip22_83_3">
<rect width="12" height="15.5" fill="white" transform="translate(54.8 6.5)"/>
</clipPath>
<clipPath id="clip23_83_3">
<rect width="11" height="15.5" fill="white" transform="translate(43.4 6.40002)"/>
</clipPath>
<clipPath id="clip24_83_3">
<rect width="13.6" height="21.8" fill="white" transform="translate(29.4 0.0999756)"/>
</clipPath>
<clipPath id="clip25_83_3">
<rect width="9.8" height="21.9" fill="white" transform="translate(20.6)"/>
</clipPath>
<clipPath id="clip26_83_3">
<rect width="19.2" height="19.9" fill="white" transform="translate(0 1.40002)"/>
</clipPath>
</defs>
</svg>
