
<svg width="70" height="52" viewBox="0 0 70 52" fill="none" xmlns="http://www.w3.org/2000/svg">
<path d="M6.43529 13.8972V0.0449219H2.5523V14.1153C2.5523 15.2497 2.05057 15.8605 0.741694 15.8605C0.436291 15.8605 0.196331 15.8387 0 15.795V19.2199C0.327218 19.2853 0.785323 19.2853 1.3525 19.2853C4.88646 19.2853 6.43529 17.3657 6.43529 13.8972Z" fill="#070191"/>
<path d="M18.1897 13.5481L15.7465 11.6066C15.2448 12.2393 14.3286 12.6537 13.2815 12.6537C11.9726 12.6537 11.0128 12.2611 10.6855 10.7777H17.7971C17.9062 10.385 18.0152 9.68695 18.0152 8.94525C18.0152 5.95666 15.9647 3.88428 12.8452 3.88428C9.1149 3.88428 7.12977 6.63291 7.12977 9.81784C7.12977 13.0246 9.2676 15.7514 13.3033 15.7514C15.4193 15.7514 17.1426 14.9224 18.1897 13.5481ZM12.7579 6.67654C14.045 6.67654 14.6122 7.59275 14.6558 8.33445H10.7074C10.9691 7.22191 11.6454 6.67654 12.7579 6.67654Z" fill="#070191"/>
<path d="M17.9967 0.0449219L23.5375 15.3151H28.5985L34.1394 0.0449219H30.0165L26.068 10.9304L22.1196 0.0449219H17.9967Z" fill="#070191"/>
<path d="M43.9113 13.5481L41.4681 11.6066C40.9663 12.2393 40.0501 12.6537 39.003 12.6537C37.6942 12.6537 36.7343 12.2611 36.4071 10.7777H43.5186C43.6277 10.385 43.7368 9.68695 43.7368 8.94525C43.7368 5.95666 41.6862 3.88428 38.5667 3.88428C34.8365 3.88428 32.8513 6.63291 32.8513 9.81784C32.8513 13.0246 34.9892 15.7514 39.0248 15.7514C41.1409 15.7514 42.8642 14.9224 43.9113 13.5481ZM38.4795 6.67654C39.7665 6.67654 40.3337 7.59275 40.3773 8.33445H36.4289C36.6907 7.22191 37.3669 6.67654 38.4795 6.67654Z" fill="#070191"/>
<path d="M52.9483 10.5377C52.9483 11.6939 52.3593 12.501 51.1159 12.501C49.8288 12.501 49.2617 11.6939 49.2617 10.5377V4.32057H45.7713V10.3414C45.7713 13.6354 47.6692 15.7514 51.0941 15.7514C54.4753 15.7514 56.4386 13.6354 56.4386 10.3414V4.32057H52.9483V10.5377Z" fill="#070191"/>
<path d="M61.5891 15.3151L63.5524 12.2174L65.5593 15.3151H69.4859L65.7557 9.70877L69.3332 4.32057H65.4066L63.5524 7.17828L61.7418 4.32057H57.7934L61.3709 9.68695L57.6188 15.3151H61.5891Z" fill="#070191"/>
<path d="M2.64132 42.2803H7.795L9.34929 37.781H16.1118L17.6661 42.2803H22.8198L15.8937 23.1926H9.56744L2.64132 42.2803ZM10.7672 33.6908L12.7305 28.0736L14.6939 33.6908H10.7672Z" fill="#070191"/>
<path d="M26.0846 25.2195C27.5298 25.2195 28.7842 23.9379 28.7842 22.4654C28.7842 20.9929 27.5298 19.7386 26.0846 19.7386C24.5849 19.7386 23.3305 20.9929 23.3305 22.4654C23.3305 23.9379 24.5849 25.2195 26.0846 25.2195ZM23.8759 42.2803H28.2115V28.5371H23.8759V42.2803Z" fill="#070191"/>
<path d="M29.8493 35.4087C29.8493 39.4171 32.4125 42.8257 36.7754 42.8257C38.4661 42.8257 39.6386 42.3621 40.5657 41.5441V42.2803H44.9286V20.9202H40.5657V29.2734C39.6386 28.4553 38.4661 27.9918 36.7754 27.9918C32.4125 27.9918 29.8493 31.4003 29.8493 35.4087ZM34.3486 35.4087C34.3486 33.3909 35.4938 32.0547 37.4026 32.0547C38.7387 32.0547 39.7749 32.6001 40.5657 33.6363V37.1812C39.7749 38.2173 38.7387 38.7627 37.4026 38.7627C35.4938 38.7627 34.3486 37.4266 34.3486 35.4087Z" fill="#070191"/>
<path d="M59.5804 40.0716L56.5263 37.6447C55.8992 38.4355 54.7539 38.9536 53.445 38.9536C51.8089 38.9536 50.6091 38.4627 50.2001 36.6085H59.0895C59.2259 36.1177 59.3622 35.2451 59.3622 34.318C59.3622 30.5823 56.799 27.9918 52.8997 27.9918C48.2368 27.9918 45.7554 31.4276 45.7554 35.4087C45.7554 39.4171 48.4277 42.8257 53.4723 42.8257C56.1173 42.8257 58.2715 41.7895 59.5804 40.0716ZM52.7906 31.4821C54.3994 31.4821 55.1084 32.6274 55.1629 33.5545H50.2274C50.5546 32.1638 51.3999 31.4821 52.7906 31.4821Z" fill="#070191"/>
<path d="M60.4025 42.2803H64.7381V33.9362C65.0108 33.4727 66.047 32.5456 67.6285 32.5456C68.3375 32.5456 68.8556 32.6274 69.3191 32.7364V28.4553C68.9919 28.3463 68.5556 28.2645 68.0648 28.2645C66.6469 28.2645 65.5834 28.8644 64.7381 29.6551V28.5371H60.4025V42.2803Z" fill="#070191"/>
<path d="M0.16394 51.0669H1.08076V49.7019H1.4516C2.29631 49.7019 2.81653 49.2847 2.81653 48.5843C2.81653 47.8786 2.29631 47.4614 1.4516 47.4614H0.16394V51.0669ZM1.50311 48.2186C1.73489 48.2186 1.86881 48.3679 1.86881 48.574C1.86881 48.7954 1.73489 48.9448 1.50311 48.9448H1.08076V48.2186H1.50311Z" fill="#F95C5E"/>
<path d="M2.8325 51.0669H3.80598L4.09956 50.217H5.37693L5.67051 51.0669H6.64399L5.33572 47.4614H4.14077L2.8325 51.0669ZM4.3674 49.4444L4.73825 48.3834L5.10909 49.4444H4.3674Z" fill="#F95C5E"/>
<path d="M7.32878 51.0669H8.2456V49.7019H8.46193L9.36844 51.0669H10.4398L9.33754 49.5371C9.69808 49.3517 9.90411 49.0221 9.90411 48.5843C9.90411 47.8786 9.38389 47.4614 8.53919 47.4614H7.32878V51.0669ZM8.59585 48.2186C8.82762 48.2186 8.96154 48.3679 8.96154 48.574C8.96154 48.7954 8.82762 48.9448 8.59585 48.9448H8.2456V48.2186H8.59585Z" fill="#F95C5E"/>
<path d="M12.5823 51.0669H14.8073V50.2376H13.4991V47.4614H12.5823V51.0669Z" fill="#F95C5E"/>
<path d="M15.3464 51.0669H16.3199L16.6134 50.217H17.8908L18.1844 51.0669H19.1579L17.8496 47.4614H16.6546L15.3464 51.0669ZM16.8813 49.4444L17.2521 48.3834L17.623 49.4444H16.8813Z" fill="#F95C5E"/>
<path d="M21.3854 51.0669H22.3023V49.7019H22.5186L23.4251 51.0669H24.4964L23.3942 49.5371C23.7547 49.3517 23.9608 49.0221 23.9608 48.5843C23.9608 47.8786 23.4406 47.4614 22.5958 47.4614H21.3854V51.0669ZM22.6525 48.2186C22.8843 48.2186 23.0182 48.3679 23.0182 48.574C23.0182 48.7954 22.8843 48.9448 22.6525 48.9448H22.3023V48.2186H22.6525Z" fill="#F95C5E"/>
<path d="M26.6053 47.1524L27.28 46.457H26.3529L25.7709 47.1524H26.6053ZM25.0961 51.0669H27.3212V50.3097H26.0129V49.6092H27.1152V48.8521H26.0129V48.2186H27.3212V47.4614H25.0961V51.0669Z" fill="#F95C5E"/>
<path d="M27.9633 50.5621C28.2929 50.9381 28.7101 51.1699 29.3745 51.1699C30.0544 51.1699 30.621 50.7578 30.6313 50.0367C30.6313 48.7748 29.0449 48.9551 29.0449 48.4194C29.0449 48.2701 29.1737 48.1567 29.3591 48.1567C29.6012 48.1567 29.8278 48.337 30.039 48.5843L30.7034 47.9765C30.3686 47.6056 29.9257 47.3584 29.354 47.3584C28.6226 47.3584 28.1178 47.858 28.1178 48.4606C28.1178 49.6968 29.7042 49.5165 29.7042 50.0676C29.7042 50.2737 29.5754 50.3664 29.3643 50.3664C29.1016 50.3664 28.8183 50.2016 28.6277 49.9492L27.9633 50.5621Z" fill="#F95C5E"/>
<path d="M31.5115 51.0669H33.7366V50.3097H32.4283V49.6092H33.5306V48.8521H32.4283V48.2186H33.7366V47.4614H31.5115V51.0669Z" fill="#F95C5E"/>
<path d="M34.7444 51.0669H35.6612V49.7019H35.8775L36.784 51.0669H37.8553L36.7531 49.5371C37.1137 49.3517 37.3197 49.0221 37.3197 48.5843C37.3197 47.8786 36.7995 47.4614 35.9548 47.4614H34.7444V51.0669ZM36.0114 48.2186C36.2432 48.2186 36.3771 48.3679 36.3771 48.574C36.3771 48.7954 36.2432 48.9448 36.0114 48.9448H35.6612V48.2186H36.0114Z" fill="#F95C5E"/>
<path d="M37.8304 47.4614L39.1387 51.0669H40.3336L41.6419 47.4614H40.6684L39.7361 50.0316L38.8039 47.4614H37.8304Z" fill="#F95C5E"/>
<path d="M42.3267 51.0669H44.5518V50.3097H43.2435V49.6092H44.3457V48.8521H43.2435V48.2186H44.5518V47.4614H42.3267V51.0669Z" fill="#F95C5E"/>
<path d="M48.7248 50.3097C48.1479 50.3097 47.7358 49.8719 47.7358 49.2641C47.7358 48.6615 48.1479 48.2186 48.7248 48.2186C49.0853 48.2186 49.3583 48.3937 49.5283 48.6409L50.2545 48.0846C49.9197 47.6468 49.384 47.3584 48.7248 47.3584C47.5762 47.3584 46.7933 48.234 46.7933 49.2641C46.7933 50.2943 47.5762 51.1699 48.7248 51.1699C49.384 51.1699 49.9197 50.8814 50.2545 50.4385L49.5283 49.8874C49.3583 50.1346 49.0802 50.3097 48.7248 50.3097Z" fill="#F95C5E"/>
<path d="M50.9991 51.0669H51.9159V47.4614H50.9991V51.0669Z" fill="#F95C5E"/>
<path d="M52.6013 47.4614L53.9096 51.0669H55.1045L56.4128 47.4614H55.4393L54.5071 50.0316L53.5748 47.4614H52.6013Z" fill="#F95C5E"/>
<path d="M57.0976 51.0669H58.0144V47.4614H57.0976V51.0669Z" fill="#F95C5E"/>
<path d="M62.228 50.866L62.0683 50.7115C62.4752 50.3561 62.7173 49.8359 62.7173 49.2641C62.7173 48.234 61.9344 47.3584 60.791 47.3584C59.6424 47.3584 58.8595 48.234 58.8595 49.2641C58.8595 50.2943 59.6424 51.1699 60.791 51.1699C60.93 51.1699 61.064 51.1596 61.1876 51.1338L61.5945 51.4995C61.9499 51.8189 62.3362 52.0043 62.7791 52.0043C62.9594 52.0043 63.0676 51.9785 63.2066 51.9219V51.1596C63.1242 51.1905 63.0161 51.2008 62.9439 51.2008C62.7122 51.2008 62.4855 51.1132 62.228 50.866ZM60.791 50.3097C60.2141 50.3097 59.802 49.8719 59.802 49.2641C59.802 48.6615 60.2141 48.2186 60.791 48.2186C61.3627 48.2186 61.7747 48.6564 61.7747 49.2641C61.7747 49.8668 61.3627 50.3097 60.791 50.3097Z" fill="#F95C5E"/>
<path d="M65.6069 49.7071C65.6069 50.0779 65.3957 50.3097 65.0197 50.3097C64.6385 50.3097 64.4274 50.0779 64.4274 49.7071V47.4614H63.5106V49.6195C63.5106 50.5776 64.0668 51.1699 65.0145 51.1699C65.9674 51.1699 66.5237 50.5776 66.5237 49.6195V47.4614H65.6069V49.7071Z" fill="#F95C5E"/>
<path d="M67.5758 51.0669H69.8008V50.3097H68.4926V49.6092H69.5948V48.8521H68.4926V48.2186H69.8008V47.4614H67.5758V51.0669Z" fill="#F95C5E"/>
<path d="M49.2574 24.3527C49.4865 24.3527 49.6646 24.1745 49.6646 23.9518C49.6646 23.7291 49.4865 23.5446 49.2574 23.5446C49.0284 23.5446 48.8439 23.7291 48.8439 23.9518C48.8439 24.1745 49.0284 24.3527 49.2574 24.3527Z" fill="#ACB9DB"/>
<path d="M49.9816 24.8617C49.9816 25.5043 50.6051 25.8733 51.5531 25.8733C52.5139 25.8733 53.1883 25.3707 53.1883 24.6962C53.1883 24.1236 52.7938 23.71 51.9476 23.71H51.0314C50.8342 23.71 50.7642 23.6146 50.7642 23.481C50.7642 23.3601 50.8405 23.2456 50.9741 23.1501C51.1078 23.1883 51.2605 23.2138 51.4195 23.2138C52.1894 23.2138 52.6666 22.692 52.6666 22.0812C52.6666 21.8903 52.622 21.7058 52.533 21.5468H53.2265V21.0759H52.0367C51.8649 20.9932 51.6549 20.9423 51.4195 20.9423C50.656 20.9423 50.1725 21.4641 50.1725 22.0812C50.1725 22.4375 50.3379 22.762 50.6178 22.972C50.3697 23.131 50.2361 23.341 50.2361 23.5955C50.2361 23.7673 50.3124 23.9391 50.4588 24.0536C50.1406 24.2763 49.9816 24.5372 49.9816 24.8617ZM51.4259 22.7875C50.9487 22.7875 50.6878 22.4757 50.6878 22.0812C50.6878 21.6867 50.9487 21.3686 51.4259 21.3686C51.8904 21.3686 52.1576 21.6867 52.1576 22.0812C52.1576 22.4693 51.8904 22.7875 51.4259 22.7875ZM50.5097 24.798C50.5097 24.5435 50.6433 24.3527 50.9169 24.1872H51.9031C52.4757 24.1872 52.6475 24.429 52.6475 24.7344C52.6475 25.1543 52.2212 25.4216 51.5468 25.4216C50.9105 25.4216 50.5097 25.1862 50.5097 24.798Z" fill="#ACB9DB"/>
<path d="M54.952 20.9487C53.9149 20.9487 53.2151 21.744 53.2151 22.6793C53.2151 23.6146 53.9149 24.4099 54.952 24.4099C55.9828 24.4099 56.689 23.6146 56.689 22.6793C56.689 21.744 55.9828 20.9487 54.952 20.9487ZM54.9584 23.9009C54.2712 23.9009 53.7813 23.3474 53.7813 22.6793C53.7813 22.0112 54.2712 21.4577 54.9584 21.4577C55.6265 21.4577 56.1164 22.0112 56.1164 22.6793C56.1164 23.341 55.6265 23.9009 54.9584 23.9009Z" fill="#ACB9DB"/>
<path d="M59.5372 22.9084C59.5372 23.5383 59.1936 23.9009 58.6592 23.9009C58.112 23.9009 57.7748 23.5383 57.7748 22.9084V21.0759H57.234V22.8893C57.234 23.85 57.7875 24.4099 58.6528 24.4099C59.5245 24.4099 60.078 23.85 60.078 22.8893V21.0759H59.5372V22.9084Z" fill="#ACB9DB"/>
<path d="M60.4307 21.0759L61.6841 24.2827H62.3967L63.6501 21.0759H63.0648L62.0404 23.7164L61.016 21.0759H60.4307Z" fill="#ACB9DB"/>
<path d="M63.8851 24.3527C64.1142 24.3527 64.2923 24.1745 64.2923 23.9518C64.2923 23.7291 64.1142 23.5446 63.8851 23.5446C63.6561 23.5446 63.4716 23.7291 63.4716 23.9518C63.4716 24.1745 63.6561 24.3527 63.8851 24.3527Z" fill="#ACB9DB"/>
<path d="M64.6329 21.0759V21.5659H65.2374V24.2827H65.7846V21.5659H66.898V21.0759H65.7846V20.6687C65.7846 20.2488 66.0263 20.0007 66.389 20.0007C66.5735 20.0007 66.7199 20.0579 66.8408 20.147L67.0825 19.6953C66.9044 19.5935 66.669 19.5107 66.3763 19.5107C65.6764 19.5107 65.2374 20.0007 65.2374 20.6815V21.0759H64.6329Z" fill="#ACB9DB"/>
<path d="M67.1657 24.2827H67.7065V22.0812C67.9037 21.7567 68.1773 21.5404 68.5973 21.5404C68.7245 21.5404 68.82 21.5531 68.9154 21.5786V21.0505C68.839 21.025 68.7436 21.0123 68.6418 21.0123C68.2346 21.0123 67.9419 21.1968 67.7065 21.4768V21.0759H67.1657V24.2827Z" fill="#ACB9DB"/>
</svg>
