<svg width="14" height="14" viewBox="0 0 14 14" fill="none" xmlns="http://www.w3.org/2000/svg">
<path fill-rule="evenodd" clip-rule="evenodd" d="M11.0194 10.0787L13.8747 12.9333L12.9314 13.8767L10.0767 11.0213C9.01452 11.8728 7.69337 12.3359 6.33203 12.334C3.02003 12.334 0.332031 9.64598 0.332031 6.33398C0.332031 3.02198 3.02003 0.333984 6.33203 0.333984C9.64403 0.333984 12.332 3.02198 12.332 6.33398C12.334 7.69532 11.8708 9.01648 11.0194 10.0787ZM9.68203 9.58398C10.5281 8.71391 11.0006 7.5476 10.9987 6.33398C10.9987 3.75532 8.91003 1.66732 6.33203 1.66732C3.75336 1.66732 1.66536 3.75532 1.66536 6.33398C1.66536 8.91198 3.75336 11.0007 6.33203 11.0007C7.54565 11.0026 8.71196 10.5301 9.58203 9.68398L9.68203 9.58398Z" fill="#161616"/>
</svg>
