<svg width="66" height="66" viewBox="0 0 66 66" fill="none" xmlns="http://www.w3.org/2000/svg">
<path fill-rule="evenodd" clip-rule="evenodd" d="M56.1 10.7232C55.6451 10.7232 55.275 10.3531 55.275 9.89824C55.275 9.4433 55.6451 9.07324 56.1 9.07324C56.5549 9.07324 56.925 9.4433 56.925 9.89824C56.925 10.3531 56.5549 10.7232 56.1 10.7232Z" fill="#ECECFE"/>
<path fill-rule="evenodd" clip-rule="evenodd" d="M24.75 65.9986C24.2951 65.9986 23.925 65.6285 23.925 65.1736C23.925 64.7187 24.2951 64.3486 24.75 64.3486C25.2049 64.3486 25.575 64.7187 25.575 65.1736C25.575 65.6285 25.2049 65.9986 24.75 65.9986Z" fill="#ECECFE"/>
<path fill-rule="evenodd" clip-rule="evenodd" d="M12.375 8.24863C11.9201 8.24863 11.55 7.87854 11.55 7.42363C11.55 6.96869 11.9201 6.59863 12.375 6.59863C12.8299 6.59863 13.2 6.96869 13.2 7.42363C13.2 7.87854 12.8299 8.24863 12.375 8.24863Z" fill="#ECECFE"/>
<path d="M55.2695 14.7532C55.2218 14.3429 54.8731 14.0244 54.45 14.0244H9.90001L9.8038 14.03C9.3935 14.0776 9.07501 14.4263 9.07501 14.8494V52.7994L9.08056 52.8956C9.12822 53.3059 9.47692 53.6244 9.90001 53.6244H29.7L29.7962 53.6189C30.2065 53.5712 30.525 53.2225 30.525 52.7994L30.5195 52.7032C30.4718 52.2929 30.1231 51.9744 29.7 51.9744H10.725V22.2744H41.25L41.3462 22.2689C41.7565 22.2212 42.075 21.8725 42.075 21.4494C42.075 20.9938 41.7056 20.6244 41.25 20.6244H10.725V15.6744H53.625V20.6244H46.2L46.1038 20.63C45.6935 20.6776 45.375 21.0263 45.375 21.4494C45.375 21.905 45.7444 22.2744 46.2 22.2744H53.625V28.0494L53.6306 28.1456C53.6782 28.5559 54.0269 28.8744 54.45 28.8744C54.9056 28.8744 55.275 28.505 55.275 28.0494V14.8494L55.2695 14.7532Z" fill="#000091"/>
<path d="M13.2 18.9744C12.7451 18.9744 12.375 18.6043 12.375 18.1494C12.375 17.6945 12.7451 17.3244 13.2 17.3244C13.6549 17.3244 14.025 17.6945 14.025 18.1494C14.025 18.6043 13.6549 18.9744 13.2 18.9744Z" fill="#000091"/>
<path d="M15.675 18.1494C15.675 18.6043 16.0451 18.9744 16.5 18.9744C16.9549 18.9744 17.325 18.6043 17.325 18.1494C17.325 17.6945 16.9549 17.3244 16.5 17.3244C16.0451 17.3244 15.675 17.6945 15.675 18.1494Z" fill="#000091"/>
<path d="M19.8 18.9744C19.3451 18.9744 18.975 18.6043 18.975 18.1494C18.975 17.6945 19.3451 17.3244 19.8 17.3244C20.2549 17.3244 20.625 17.6945 20.625 18.1494C20.625 18.6043 20.2549 18.9744 19.8 18.9744Z" fill="#000091"/>
<path d="M51.15 17.3244C51.6056 17.3244 51.975 17.6938 51.975 18.1494C51.975 18.5725 51.6565 18.9212 51.2462 18.9689L51.15 18.9744H26.4C25.9444 18.9744 25.575 18.605 25.575 18.1494C25.575 17.7263 25.8935 17.3776 26.3038 17.33L26.4 17.3244H51.15Z" fill="#000091"/>
<path d="M32.175 28.0494C32.175 27.5938 31.8056 27.2244 31.35 27.2244H16.5L16.4038 27.23C15.9935 27.2776 15.675 27.6263 15.675 28.0494C15.675 28.505 16.0444 28.8744 16.5 28.8744H31.35L31.4462 28.8689C31.8565 28.8212 32.175 28.4725 32.175 28.0494Z" fill="#000091"/>
<path d="M28.05 32.1744C28.5056 32.1744 28.875 32.5438 28.875 32.9994C28.875 33.4225 28.5565 33.7712 28.1462 33.8189L28.05 33.8244H16.5C16.0444 33.8244 15.675 33.455 15.675 32.9994C15.675 32.5763 15.9935 32.2276 16.4038 32.18L16.5 32.1744H28.05Z" fill="#000091"/>
<path d="M27.225 37.9494C27.225 37.4938 26.8556 37.1244 26.4 37.1244H16.5L16.4038 37.13C15.9935 37.1776 15.675 37.5263 15.675 37.9494C15.675 38.405 16.0444 38.7744 16.5 38.7744H26.4L26.4962 38.7689C26.9065 38.7212 27.225 38.3725 27.225 37.9494Z" fill="#000091"/>
<path fill-rule="evenodd" clip-rule="evenodd" d="M31.35 30.0291C31.077 30.0291 30.855 29.807 30.855 29.5341C30.855 29.2611 31.077 29.0391 31.35 29.0391C31.6229 29.0391 31.845 29.2611 31.845 29.5341C31.845 29.807 31.6229 30.0291 31.35 30.0291Z" fill="#ECECFE"/>
<path fill-rule="evenodd" clip-rule="evenodd" d="M26.4 57.7488C26.127 57.7488 25.905 57.5267 25.905 57.2538C25.905 56.9808 26.127 56.7588 26.4 56.7588C26.6729 56.7588 26.895 56.9808 26.895 57.2538C26.895 57.5267 26.6729 57.7488 26.4 57.7488Z" fill="#ECECFE"/>
<path fill-rule="evenodd" clip-rule="evenodd" d="M61.05 54.7791C60.777 54.7791 60.555 54.557 60.555 54.2841C60.555 54.0111 60.777 53.7891 61.05 53.7891C61.3229 53.7891 61.545 54.0111 61.545 54.2841C61.545 54.557 61.3229 54.7791 61.05 54.7791Z" fill="#ECECFE"/>
<path fill-rule="evenodd" clip-rule="evenodd" d="M53.1299 29.0388C52.857 29.0388 52.6349 28.8168 52.6349 28.5438C52.6349 28.2709 52.857 28.0488 53.1299 28.0488C53.4029 28.0488 53.6249 28.2709 53.6249 28.5438C53.6249 28.8168 53.4029 29.0388 53.1299 29.0388Z" fill="#ECECFE"/>
<path d="M44.7883 28.0488C52.9897 28.0488 59.6383 34.6974 59.6383 42.8988C59.6383 43.1722 59.4167 43.3938 59.1433 43.3938C58.8699 43.3938 58.6483 43.1722 58.6483 42.8988C58.6483 35.2442 52.443 29.0388 44.7883 29.0388C37.1336 29.0388 30.9283 35.2442 30.9283 42.8988C30.9283 50.5535 37.1336 56.7588 44.7883 56.7588C50.3099 56.7588 55.2363 53.5005 57.4496 48.5459C57.5611 48.2963 57.8538 48.1844 58.1034 48.2959C58.3531 48.4074 58.465 48.7001 58.3535 48.9497C55.9824 54.2577 50.704 57.7488 44.7883 57.7488C36.5869 57.7488 29.9383 51.1003 29.9383 42.8988C29.9383 34.6974 36.5869 28.0488 44.7883 28.0488Z" fill="#E1000F"/>
<path d="M59.1433 47.1522C59.1433 47.4458 58.9053 47.6838 58.6116 47.6838C58.318 47.6838 58.08 47.4458 58.08 47.1522C58.08 46.8585 58.318 46.6205 58.6116 46.6205C58.9053 46.6205 59.1433 46.8585 59.1433 47.1522Z" fill="#E1000F"/>
<path fill-rule="evenodd" clip-rule="evenodd" d="M51.6433 40.3822C51.2919 36.166 48.9328 33.9883 44.715 33.9883C40.4972 33.9883 38.138 36.166 37.7867 40.3822C37.7601 40.7012 38.0388 40.9612 38.3553 40.9125L39.27 40.7718V40.9881C38.9157 41.0564 38.6545 41.1509 38.4714 41.2874C38.0072 41.6335 37.7849 42.1871 37.7849 42.8983C37.7849 44.1617 38.5016 44.8783 39.7649 44.8783C39.8188 44.8783 39.8707 44.8697 39.9193 44.8537C40.4459 45.8749 41.2622 46.7092 42.2541 47.2354C42.2449 47.2732 42.24 47.3127 42.24 47.3533C42.24 47.9961 41.9336 48.5674 41.459 48.9291C41.4513 48.9345 41.4438 48.9402 41.4365 48.946C41.1076 49.1894 40.7006 49.3333 40.26 49.3333H39.27L39.1586 49.3353C37.5699 49.3939 36.3 50.7003 36.3 52.3033C36.3 52.5767 36.5216 52.7983 36.795 52.7983C37.0684 52.7983 37.29 52.5767 37.29 52.3033C37.29 51.2098 38.1765 50.3233 39.27 50.3233H40.26L40.3713 50.3212C40.7854 50.306 41.1777 50.206 41.5316 50.0381C42.0623 50.8733 43.0411 51.1282 44.34 50.8035C44.6053 50.7372 44.7665 50.4684 44.7002 50.2032C44.6339 49.938 44.3652 49.7768 44.0999 49.8431C43.1744 50.0744 42.6338 49.9492 42.3455 49.4679C42.8299 48.9902 43.1509 48.3472 43.2172 47.6304C43.6929 47.7723 44.1953 47.8483 44.715 47.8483C45.2347 47.8483 45.7371 47.7723 46.2127 47.6304C46.3491 49.1044 47.5626 50.2661 49.0586 50.3212L49.17 50.3233H50.16C51.2535 50.3233 52.14 51.2098 52.14 52.3033C52.14 52.5767 52.3616 52.7983 52.635 52.7983C52.9084 52.7983 53.13 52.5767 53.13 52.3033C53.13 50.7003 51.86 49.3939 50.2713 49.3353L50.16 49.3333H49.17C48.0765 49.3333 47.19 48.4468 47.19 47.3533C47.19 47.3127 47.1851 47.2732 47.1759 47.2354C48.1678 46.7092 48.9841 45.8749 49.5107 44.8538C49.5592 44.8697 49.6111 44.8783 49.665 44.8783C50.9284 44.8783 51.645 44.1617 51.645 42.8983C51.645 42.1871 51.4228 41.6335 50.9585 41.2874C50.7082 41.1008 50.3121 40.9927 49.7315 40.9227C49.7104 40.9199 49.6888 40.9184 49.6668 40.9183L49.666 40.9182C49.6183 40.9181 49.5717 40.9248 49.5275 40.9376C49.4562 40.9582 49.3915 40.9944 49.3373 41.0422C49.2416 41.1269 49.1788 41.248 49.1708 41.3838C49.1701 41.3963 49.1698 41.4086 49.17 41.4209V42.1558L49.1681 42.2923C49.0997 44.8312 47.1268 46.8583 44.715 46.8583C42.2601 46.8583 40.26 44.7582 40.26 42.1558V40.6195L44.7903 39.9225L44.8487 39.9099C44.9822 39.8725 45.0949 39.7803 45.1577 39.6547L45.6527 38.6647L45.6756 38.6115C45.7601 38.3785 45.6584 38.1141 45.4314 38.0005L45.3782 37.9777C45.1453 37.8932 44.8808 37.9949 44.7672 38.2219L44.3863 38.9828L38.8443 39.8352L38.8533 39.7715C39.3384 36.538 41.2516 34.9783 44.715 34.9783L44.8927 34.9797C48.1851 35.0316 50.0343 36.5395 50.5503 39.6057L50.5758 39.7694L47.31 38.9531L47.2532 38.9423C47.0075 38.9103 46.7713 39.067 46.7098 39.3132C46.6435 39.5784 46.8047 39.8472 47.0699 39.9135L51.0299 40.9035L51.0878 40.9145C51.3946 40.9543 51.6698 40.7003 51.6433 40.3822ZM39.27 42.0024C39.165 42.03 39.0949 42.0574 39.0632 42.081C38.8776 42.2194 38.7749 42.4752 38.7749 42.8983C38.7749 43.5278 38.9859 43.8153 39.5231 43.8759C39.3721 43.3774 39.285 42.8494 39.2718 42.3025L39.27 42.1558V42.0024ZM50.655 42.8983C50.655 43.5278 50.444 43.8153 49.9069 43.8759C50.0713 43.333 50.16 42.755 50.16 42.1558V42.0024C50.265 42.03 50.335 42.0574 50.3668 42.081C50.5523 42.2194 50.655 42.4752 50.655 42.8983Z" fill="#000091"/>
</svg>
