<svg width="66" height="66" viewBox="0 0 66 66" fill="none" xmlns="http://www.w3.org/2000/svg">
<path fill-rule="evenodd" clip-rule="evenodd" d="M60.225 14.8492C59.7701 14.8492 59.4 14.4791 59.4 14.0242C59.4 13.5693 59.7701 13.1992 60.225 13.1992C60.6799 13.1992 61.05 13.5693 61.05 14.0242C61.05 14.4791 60.6799 14.8492 60.225 14.8492Z" fill="#ECECFE"/>
<path fill-rule="evenodd" clip-rule="evenodd" d="M5.77501 14.8492C5.32011 14.8492 4.95001 14.4791 4.95001 14.0242C4.95001 13.5693 5.32011 13.1992 5.77501 13.1992C6.22992 13.1992 6.60001 13.5693 6.60001 14.0242C6.60001 14.4791 6.22992 14.8492 5.77501 14.8492Z" fill="#ECECFE"/>
<path fill-rule="evenodd" clip-rule="evenodd" d="M9.075 56.0992C8.62009 56.0992 8.25 55.7291 8.25 55.2742C8.25 54.8193 8.62009 54.4492 9.075 54.4492C9.52991 54.4492 9.9 54.8193 9.9 55.2742C9.9 55.7291 9.52991 56.0992 9.075 56.0992Z" fill="#ECECFE"/>
<path fill-rule="evenodd" clip-rule="evenodd" d="M15.675 4.94883C15.2201 4.94883 14.85 4.57873 14.85 4.12383C14.85 3.66888 15.2201 3.29883 15.675 3.29883C16.1299 3.29883 16.5 3.66888 16.5 4.12383C16.5 4.57873 16.1299 4.94883 15.675 4.94883Z" fill="#ECECFE"/>
<path fill-rule="evenodd" clip-rule="evenodd" d="M45.375 64.3492C44.9201 64.3492 44.55 63.9791 44.55 63.5242C44.55 63.0693 44.9201 62.6992 45.375 62.6992C45.8299 62.6992 46.2 63.0693 46.2 63.5242C46.2 63.9791 45.8299 64.3492 45.375 64.3492Z" fill="#ECECFE"/>
<path d="M56.9194 14.7532C56.8718 14.3429 56.5231 14.0244 56.1 14.0244H11.55L11.4538 14.03C11.0435 14.0776 10.725 14.4263 10.725 14.8494V52.7994L10.7305 52.8956C10.7782 53.3059 11.1269 53.6244 11.55 53.6244H42.9L42.9962 53.6189C43.4065 53.5712 43.725 53.2225 43.725 52.7994L43.7194 52.7032C43.6718 52.2929 43.3231 51.9744 42.9 51.9744H12.375V22.2744H42.9L42.9962 22.2689C43.4065 22.2212 43.725 21.8725 43.725 21.4494C43.725 20.9938 43.3556 20.6244 42.9 20.6244H12.375V15.6744H55.275V20.6244H47.85L47.7538 20.63C47.3435 20.6776 47.025 21.0263 47.025 21.4494C47.025 21.905 47.3943 22.2744 47.85 22.2744H55.275V39.5994L55.2805 39.6956C55.3282 40.1059 55.6769 40.4244 56.1 40.4244C56.5556 40.4244 56.925 40.055 56.925 39.5994V14.8494L56.9194 14.7532Z" fill="#000091"/>
<path d="M14.85 18.9744C14.3951 18.9744 14.025 18.6043 14.025 18.1494C14.025 17.6945 14.3951 17.3244 14.85 17.3244C15.3049 17.3244 15.675 17.6945 15.675 18.1494C15.675 18.6043 15.3049 18.9744 14.85 18.9744Z" fill="#000091"/>
<path d="M17.325 18.1494C17.325 18.6043 17.6951 18.9744 18.15 18.9744C18.6049 18.9744 18.975 18.6043 18.975 18.1494C18.975 17.6945 18.6049 17.3244 18.15 17.3244C17.6951 17.3244 17.325 17.6945 17.325 18.1494Z" fill="#000091"/>
<path d="M21.45 18.9744C20.9951 18.9744 20.625 18.6043 20.625 18.1494C20.625 17.6945 20.9951 17.3244 21.45 17.3244C21.9049 17.3244 22.275 17.6945 22.275 18.1494C22.275 18.6043 21.9049 18.9744 21.45 18.9744Z" fill="#000091"/>
<path d="M52.8 17.3244C53.2556 17.3244 53.625 17.6938 53.625 18.1494C53.625 18.5725 53.3065 18.9212 52.8962 18.9689L52.8 18.9744H28.05C27.5943 18.9744 27.225 18.605 27.225 18.1494C27.225 17.7263 27.5435 17.3776 27.9538 17.33L28.05 17.3244H52.8Z" fill="#000091"/>
<path d="M33.825 28.0494C33.825 27.5938 33.4556 27.2244 33 27.2244H18.15L18.0538 27.23C17.6435 27.2776 17.325 27.6263 17.325 28.0494C17.325 28.505 17.6943 28.8744 18.15 28.8744H33L33.0962 28.8689C33.5065 28.8212 33.825 28.4725 33.825 28.0494Z" fill="#000091"/>
<path d="M29.7 32.1744C30.1556 32.1744 30.525 32.5438 30.525 32.9994C30.525 33.4225 30.2065 33.7712 29.7962 33.8189L29.7 33.8244H18.15C17.6943 33.8244 17.325 33.455 17.325 32.9994C17.325 32.5763 17.6435 32.2276 18.0538 32.18L18.15 32.1744H29.7Z" fill="#000091"/>
<path d="M28.875 37.9494C28.875 37.4938 28.5056 37.1244 28.05 37.1244H18.15L18.0538 37.13C17.6435 37.1776 17.325 37.5263 17.325 37.9494C17.325 38.405 17.6943 38.7744 18.15 38.7744H28.05L28.1462 38.7689C28.5565 38.7212 28.875 38.3725 28.875 37.9494Z" fill="#000091"/>
<path d="M45.6601 37.6603C45.8167 37.389 45.7237 37.0421 45.4525 36.8855C44.0978 36.1033 42.3607 36.5688 41.5785 37.9235C40.7964 39.2782 41.2619 41.0153 42.6165 41.7975C43.9712 42.5796 45.7084 42.1141 46.4905 40.7594C46.6471 40.4882 46.5542 40.1413 46.2829 39.9846C46.0116 39.828 45.6647 39.921 45.5081 40.1922L45.4557 40.2772C44.965 41.0234 43.9668 41.2672 43.1837 40.8151C42.3716 40.3462 42.092 39.3028 42.5609 38.4907C43.0298 37.6785 44.0731 37.399 44.8853 37.8679C45.1566 38.0245 45.5034 37.9315 45.6601 37.6603Z" fill="#000091"/>
<path d="M52.0192 50.4079C51.9173 50.704 52.0747 51.0268 52.3709 51.1288C53.5542 51.5363 54.8472 50.9056 55.2546 49.7223C55.6621 48.539 55.0314 47.246 53.8481 46.8385C52.6648 46.4311 51.3718 47.0617 50.9644 48.245C50.8624 48.5412 51.0198 48.864 51.316 48.966C51.6122 49.068 51.9349 48.9105 52.0369 48.6143L52.0674 48.5355C52.2991 47.9958 52.9147 47.7169 53.4788 47.9111C54.0698 48.1146 54.3855 48.762 54.1821 49.353C53.9786 49.944 53.3312 50.2597 52.7402 50.0562C52.444 49.9542 52.1212 50.1117 52.0192 50.4079Z" fill="#000091"/>
<path d="M42.4711 49.5508C42.1802 49.5508 41.9405 49.3318 41.9077 49.0497L41.9039 48.9836L41.9042 48.4061L41.9015 48.306C41.873 47.8517 41.5938 47.4499 41.1603 47.2542L41.0651 47.2154L40.779 47.095L40.6323 47.0296C40.1995 46.8293 39.6878 46.9034 39.3243 47.2132L39.2487 47.2832L38.7896 47.7397L38.7005 47.8108C38.3627 48.0432 37.9114 48.0212 37.5961 47.7613L37.5307 47.702L35.9761 46.1393L35.9052 46.0501C35.6739 45.7128 35.695 45.2625 35.9533 44.9465L36.0122 44.8809L36.4193 44.4724L36.4914 44.3961C36.8096 44.0321 36.8848 43.5068 36.6767 43.0576C36.6321 42.9593 36.5885 42.8574 36.548 42.7573L36.4538 42.5185C36.2743 42.1127 35.8763 41.8351 35.4277 41.8006L35.3309 41.797L34.695 41.7951L34.5926 41.785C34.1793 41.7173 33.8663 41.3774 33.8288 40.9639L33.825 40.8802L33.8268 38.6739L33.8369 38.5716C33.9042 38.1581 34.2433 37.844 34.657 37.8064L34.7407 37.8026L35.3163 37.8028L35.4159 37.8002C35.8676 37.7717 36.2676 37.4919 36.4628 37.0569L36.5015 36.9613L36.6215 36.6744L36.6874 36.5258C36.8893 36.0903 36.8128 35.5706 36.4972 35.2038L36.4308 35.1326L35.9784 34.6747L35.9077 34.5854C35.6768 34.2479 35.6986 33.7976 35.957 33.4822L36.016 33.4168L37.5742 31.8574L37.6633 31.7862C38.0008 31.5536 38.452 31.575 38.7681 31.8348L38.8337 31.8941L39.2399 32.3014L39.3162 32.3736C39.6795 32.692 40.1997 32.7673 40.6445 32.561C40.7439 32.5157 40.8459 32.4717 40.9461 32.431L41.1844 32.3364C41.5886 32.1565 41.8658 31.7566 41.9003 31.3053L41.9039 31.2079L41.9057 30.5705L41.9158 30.4682C41.9831 30.0547 42.3222 29.7407 42.7359 29.703L42.8196 29.6992L45.0197 29.7011L45.1221 29.7112C45.5354 29.7788 45.8484 30.1188 45.8859 30.5323L45.8897 30.616L45.8894 31.1925L45.8922 31.2932C45.9217 31.7504 46.2032 32.1527 46.6417 32.348L46.738 32.3867L47.0175 32.5046L47.164 32.5699C47.5967 32.7702 48.1084 32.6961 48.472 32.3863L48.5475 32.3163L49.0066 31.8599L49.0958 31.7888C49.4335 31.5563 49.8848 31.5783 50.2002 31.8383L50.2656 31.8976L51.8208 33.4611L51.8914 33.5503C52.1215 33.8874 52.0992 34.3373 51.8413 34.6522L51.7824 34.7175L51.3742 35.1271L51.3022 35.2034C50.984 35.5674 50.9088 36.0928 51.1169 36.542C51.1614 36.6403 51.205 36.7421 51.2455 36.8423L51.3397 37.081C51.5192 37.4868 51.9173 37.7645 52.3659 37.799L52.4627 37.8026L53.0986 37.8044L53.1551 37.809C53.4674 37.8343 53.7 38.1079 53.6747 38.4201C53.6513 38.71 53.4137 38.9313 53.1299 38.9412L53.0636 38.9397L53.0529 38.937L52.4637 38.937C51.5685 38.9386 50.7508 38.4332 50.3473 37.6333L50.2949 37.5224L50.2473 37.404C50.2134 37.3146 50.1773 37.2253 50.1407 37.1397L50.0857 37.0146C49.709 36.2018 49.823 35.2493 50.379 34.5415L50.4614 34.4421L50.5586 34.3389L50.8282 34.0688L49.6155 32.8528L49.3512 33.1169C48.68 33.7922 47.6729 33.9977 46.8069 33.6511L46.6948 33.6027L46.5663 33.5453L46.3273 33.4436C45.4752 33.1399 44.875 32.3777 44.7705 31.4719L44.7593 31.3475L44.7553 31.2102L44.7553 30.8336H43.0384L43.0383 31.2069C43.0399 32.1034 42.5365 32.9228 41.7386 33.3276L41.628 33.3802L41.5099 33.428C41.4206 33.4621 41.3316 33.4983 41.2454 33.5354L41.1185 33.5916C40.3079 33.9675 39.3597 33.8527 38.6531 33.296L38.5539 33.2134L38.45 33.1154L38.1844 32.8494L36.9706 34.0666L37.2327 34.3301C37.9096 35.0031 38.1159 36.0159 37.769 36.8819L37.7206 36.994L37.6634 37.1227L37.5585 37.3722C37.2525 38.2218 36.4927 38.8195 35.5921 38.9223L35.4685 38.9332L35.3332 38.937L34.9594 38.937V40.663L35.3298 40.6626C36.2251 40.661 37.0427 41.1663 37.4462 41.9663L37.4986 42.0772L37.5462 42.1955C37.5802 42.285 37.6163 42.3742 37.6528 42.4598L37.7079 42.585C38.0846 43.3977 37.9705 44.3502 37.4146 45.058L37.3321 45.1574L37.235 45.2607L36.9672 45.5306L38.181 46.7477L38.4451 46.4826C39.1163 45.8074 40.1233 45.6019 40.9893 45.9484L41.2296 46.0541L41.4781 46.1593C42.3257 46.4664 42.9213 47.228 43.0237 48.13L43.0345 48.2538L43.0384 48.4164H45.1703L45.1706 48.1023L45.1797 48.0128C45.2411 47.6365 45.549 47.3508 45.9248 47.3143L46.0063 47.3104L46.4492 47.3107L46.5223 47.3088C46.8203 47.2901 47.0851 47.1088 47.2213 46.8197L47.3494 46.5137L47.4014 46.3968C47.5334 46.1128 47.4873 45.7744 47.2866 45.5295L47.228 45.4651L46.869 45.1022L46.8071 45.0239C46.5964 44.7168 46.6151 44.3076 46.8486 44.0197L46.9062 43.9555L48.1238 42.7414L48.1611 42.7104C48.4021 42.5103 48.7597 42.5435 48.9598 42.7846C49.1445 43.0071 49.1304 43.3289 48.9375 43.5344L48.8856 43.5833L48.8871 43.5789L47.917 44.5498L48.0286 44.6614C48.5871 45.215 48.7598 46.0468 48.4795 46.7601L48.3908 46.9632L48.3118 47.1501C48.0594 47.8484 47.436 48.3409 46.6929 48.431L46.5746 48.4418L46.4659 48.4448L46.3034 48.4453V49.5229L46.4631 49.5224C47.2004 49.5211 47.8744 49.9333 48.213 50.5906L48.2636 50.6964L48.3014 50.7904C48.3272 50.8579 48.3545 50.9253 48.382 50.9895L48.4233 51.0832C48.7338 51.7511 48.6429 52.5331 48.188 53.12L48.1089 53.2159L48.0308 53.2985L47.9142 53.4155L48.8834 54.3846C49.0878 54.5891 49.1036 54.9108 48.9306 55.1333L48.8834 55.1868C48.6789 55.3912 48.3572 55.407 48.1347 55.234L48.0813 55.1868L46.8673 53.9695L46.8053 53.8912C46.5942 53.5843 46.6123 53.1752 46.8456 52.8866L46.9032 52.8223L47.2164 52.5091L47.2693 52.4534C47.4825 52.2102 47.5329 51.8588 47.3926 51.5569C47.3573 51.4793 47.3228 51.3988 47.291 51.3204L47.2193 51.139C47.1014 50.8733 46.8411 50.689 46.5455 50.6606L46.4642 50.6568L45.9607 50.655L45.8712 50.6459C45.4949 50.5845 45.2091 50.2766 45.1727 49.9008L45.1688 49.8193L45.1691 49.5508H42.4711Z" fill="#E1000F"/>
<path d="M54.7166 53.88C54.0593 54.2186 53.6471 54.8926 53.6484 55.6299L53.6488 55.7898H52.5712L52.5707 55.6271L52.5678 55.5184L52.5569 55.4001C52.4668 54.657 51.9744 54.0335 51.276 53.7812L51.0891 53.7022L50.9921 53.6589L50.9301 53.6356C50.659 53.551 50.3616 53.6812 50.2435 53.947C50.1163 54.2333 50.2453 54.5684 50.5316 54.6956L50.6397 54.7436L50.9456 54.8717C51.2348 55.0079 51.416 55.2727 51.4348 55.5707L51.4366 55.6438L51.4364 56.0867L51.4403 56.1682C51.4767 56.544 51.7624 56.8519 52.1387 56.9133L52.2283 56.9224L53.9452 56.9242L54.0267 56.9203C54.4025 56.8839 54.7105 56.5981 54.7718 56.2218L54.7809 56.1323L54.7828 55.6288L54.7866 55.5475C54.815 55.2519 54.9992 54.9916 55.2649 54.8737L55.4467 54.8019C55.5253 54.77 55.6061 54.7353 55.6848 54.6995C55.9854 54.5605 56.3357 54.6111 56.5799 54.8244L56.6358 54.8773L56.949 55.1906L57.013 55.248C57.3 55.4807 57.7083 55.5005 58.0147 55.2915L58.0931 55.2299L59.3134 54.0094L59.3709 53.9454C59.6039 53.6579 59.6226 53.2487 59.4119 52.9417L59.3499 52.8633L58.991 52.5004L58.9324 52.4361C58.7316 52.1912 58.6855 51.8527 58.8176 51.5687C58.8559 51.4845 58.891 51.4031 58.9236 51.3234L58.9672 51.2133L59.0004 51.1347C59.1341 50.8554 59.3998 50.6748 59.6941 50.658L59.7662 50.6566L60.2126 50.6568L60.2941 50.6529C60.67 50.6164 60.9779 50.3307 61.0392 49.9544L61.0483 49.8649L61.0502 48.1479L61.0463 48.0664C61.0098 47.6906 60.7241 47.3827 60.3478 47.3213L60.2582 47.3122L59.7548 47.3104L59.6734 47.3066C59.3779 47.2782 59.1175 47.0939 58.9997 46.8282L58.928 46.6468C58.8962 46.5684 58.8616 46.4879 58.8263 46.4103C58.686 46.1084 58.7365 45.757 58.9497 45.5138L59.0026 45.4581L59.3165 45.1441L59.3741 45.08C59.6071 44.7925 59.6262 44.3837 59.4162 44.077L59.3544 43.9986L58.1398 42.7804L58.0756 42.7228C57.7876 42.4893 57.3785 42.4706 57.0714 42.6813L56.993 42.7432L56.6281 43.1043L56.564 43.1622C56.3201 43.361 55.9826 43.4067 55.697 43.2749L55.5818 43.2236L55.2799 43.0975C54.9866 42.9612 54.8039 42.6961 54.7845 42.396L54.7825 42.3223L54.7828 41.8805L54.7788 41.799C54.7424 41.4232 54.4567 41.1153 54.0804 41.0539L53.9908 41.0448L52.2739 41.043L52.1924 41.0469C51.8166 41.0833 51.5087 41.3691 51.4473 41.7454L51.4382 41.8349L51.4364 42.3383L51.4325 42.4197C51.4041 42.7153 51.2199 42.9756 50.9542 43.0935L50.7724 43.1653C50.6938 43.1972 50.613 43.2319 50.5343 43.2677C50.2492 43.3973 50.1231 43.7336 50.2528 44.0188C50.3824 44.3039 50.7187 44.43 51.0038 44.3003C51.1003 44.2565 51.2013 44.2143 51.3028 44.1756L51.3967 44.1378L51.5025 44.0872C52.1599 43.7486 52.5721 43.0746 52.5707 42.3373L52.5712 42.1773H53.6488L53.6484 42.3401L53.6516 42.4504L53.662 42.5636C53.7521 43.3122 54.249 43.9386 54.9529 44.1887L55.1317 44.2648L55.229 44.3082L55.3352 44.3534C56.0494 44.6321 56.8773 44.4609 57.4306 43.906L57.546 43.791L58.306 44.551L58.1881 44.6687L58.1101 44.7513L58.0309 44.8472C57.5761 45.4341 57.4852 46.2161 57.7957 46.884L57.8779 47.076L57.9554 47.2708L58.006 47.3766C58.3446 48.0339 59.0186 48.4461 59.7558 48.4448L59.9163 48.4448V49.5224H59.753L59.6487 49.5247L59.5363 49.5342C58.7925 49.6182 58.1635 50.1099 57.9074 50.8092L57.8712 50.8999L57.8311 50.9952L57.787 51.0948L57.7412 51.2015C57.4592 51.9187 57.6319 52.7505 58.1904 53.3041L58.3026 53.4167L57.5426 54.1796L57.4245 54.0622L57.3409 53.9835L57.245 53.9046C56.6582 53.4511 55.8789 53.36 55.212 53.6684L55.0673 53.7313L54.8224 53.8294L54.7166 53.88Z" fill="#E1000F"/>
<path d="M56.5125 38.207C56.5125 37.8943 56.2581 37.6398 55.9454 37.6398C55.6326 37.6398 55.3782 37.8943 55.3782 38.207C55.3782 38.5198 55.6326 38.7742 55.9454 38.7742C56.2581 38.7742 56.5125 38.5198 56.5125 38.207Z" fill="#E1000F"/>
</svg>
